<svg width="170" height="34" viewBox="0 0 170 34" fill="none" xmlns="http://www.w3.org/2000/svg">
<path d="M16.5787 8.23441C15.6047 7.28429 14.3058 6.65088 13.6564 6.65088C9.65173 6.65088 9.73973 10.8736 13.6564 10.8736C15.3882 10.8736 16.9035 6.65088 19.1763 6.65088C24.3717 6.65088 25.1293 12.5627 19.3928 12.5627C16.5787 12.5627 16.4503 8.65668 11.4917 8.65668C4.45629 8.65668 3.04932 17.9467 11.4917 17.9467C16.4016 17.9467 17.9858 9.71236 22.2069 9.71236C29.567 9.71236 30.974 19.7414 22.2069 19.7414C18.186 19.7414 14.5132 13.9351 10.6258 13.9351C3.26587 13.9351 4.45631 23.6474 10.6258 23.6474C15.2469 23.6474 19.7367 14.8798 23.0728 14.7797C30.108 14.5685 29.5669 23.6474 22.8563 23.3307C19.4574 23.1703 15.8959 20.0581 13.8728 20.0581C10.6258 20.0581 10.6258 23.8585 13.8728 23.8585C16.1459 23.8585 20.3777 24.0697 20.3777 26.181C20.3777 28.7132 15.1103 26.9728 15.1103 28.7147C15.1103 30.4566 17.5023 29.8759 17.5023 31.0372" stroke="#373839" stroke-width="0.91525" stroke-linecap="round"/>
<path d="M52.232 23.74C50.384 23.74 49.016 22.3 49.016 20.356C49.016 18.412 50.384 16.972 52.232 16.972C54.104 16.972 55.448 18.412 55.448 20.356C55.448 22.324 54.104 23.74 52.232 23.74ZM49.136 24.292C50.024 25.972 51.536 26.98 53.432 26.98C56.72 26.98 59.072 24.244 59.072 20.356C59.072 16.468 56.744 13.732 53.432 13.732C51.584 13.732 50.072 14.74 49.184 16.42V8.692H44.84V9.412L45.56 9.532V26.5H49.136V24.292ZM65.2381 19.972C65.2381 18.124 66.2701 16.828 67.8301 16.828C68.3581 16.828 69.1741 16.972 69.8461 17.26V14.068C69.3661 13.876 68.8621 13.756 68.4301 13.756C67.0141 13.756 65.8381 14.884 65.1901 16.66V14.212H60.9181V14.932L61.6381 15.052V26.5H65.2381V19.972ZM78.1912 23.812C76.3192 23.812 74.9752 22.348 74.9752 20.356C74.9752 18.364 76.3192 16.9 78.1912 16.9C80.0632 16.9 81.4072 18.364 81.4072 20.356C81.4072 22.348 80.0632 23.812 78.1912 23.812ZM81.4312 16.924C80.5912 14.956 79.0072 13.732 77.0392 13.732C73.7032 13.732 71.3752 16.468 71.3752 20.356C71.3752 24.244 73.7032 26.98 77.0392 26.98C79.0312 26.98 80.5912 25.756 81.4552 23.788L81.4312 24.676C81.4312 26.236 82.4872 26.98 84.1192 26.98C85.8712 26.98 86.7352 26.14 86.7352 24.94V22.18H85.8952V25.06C85.8952 25.324 85.7272 25.516 85.4632 25.516C85.2232 25.516 85.0552 25.324 85.0552 25.06L85.0312 14.212H81.4312V16.924ZM88.4103 14.212V14.932L89.1303 15.028V26.5H92.7303V14.212H88.4103ZM88.8423 10.54C88.8423 11.74 89.7063 12.58 90.9303 12.58C92.1543 12.58 93.0183 11.74 93.0183 10.54C93.0183 9.364 92.1543 8.524 90.9303 8.524C89.7063 8.524 88.8423 9.364 88.8423 10.54ZM102.306 16.9C103.722 16.9 104.586 17.956 104.586 19.444V26.5H108.906V25.78L108.186 25.66V18.82C108.186 15.868 106.362 13.732 103.65 13.732C101.946 13.732 100.458 14.836 99.7381 16.564V14.212H95.4181V14.932L96.1381 15.052V26.5H99.7381V19.588C99.7381 18.028 100.89 16.9 102.306 16.9ZM123.5 18.604C123.116 15.772 120.428 13.732 117.212 13.732C113.324 13.732 110.516 16.516 110.516 20.356C110.516 24.196 113.348 26.98 117.212 26.98C120.38 26.98 123.068 24.94 123.524 22.108L120.164 21.676C119.828 22.996 118.652 23.956 117.236 23.956C115.46 23.956 114.116 22.444 114.116 20.356C114.116 18.268 115.484 16.756 117.236 16.756C118.604 16.756 119.828 17.716 120.14 19.036L123.5 18.604ZM132.188 16.9C133.604 16.9 134.468 17.956 134.468 19.444V26.5H138.812V25.78L138.092 25.66V18.7C138.068 15.82 136.292 13.732 133.628 13.732C131.9 13.732 130.364 14.836 129.644 16.588V8.692H125.324V9.412L126.044 9.532V26.5H129.644V19.588C129.644 18.028 130.772 16.9 132.188 16.9ZM140.254 14.212V14.932L140.974 15.028V26.5H144.574V14.212H140.254ZM140.686 10.54C140.686 11.74 141.55 12.58 142.774 12.58C143.998 12.58 144.862 11.74 144.862 10.54C144.862 9.364 143.998 8.524 142.774 8.524C141.55 8.524 140.686 9.364 140.686 10.54ZM147.238 8.692V9.412L147.958 9.532V26.5H151.558V8.692H147.238ZM157.71 20.356C157.71 18.412 159.054 16.972 160.926 16.972C162.798 16.972 164.142 18.412 164.142 20.356C164.142 22.3 162.798 23.74 160.926 23.74C159.078 23.74 157.71 22.324 157.71 20.356ZM163.998 16.42C163.086 14.74 161.598 13.732 159.726 13.732C156.438 13.732 154.11 16.468 154.11 20.356C154.11 24.244 156.438 26.98 159.726 26.98C161.646 26.98 163.134 25.972 164.046 24.292V26.5H168.342V25.78L167.622 25.66V8.692H163.278V9.412L163.998 9.532V16.42Z" fill="#373839"/>
</svg>
