<svg width="222" height="45" viewBox="0 0 222 45" fill="none" xmlns="http://www.w3.org/2000/svg">
<path d="M21.9422 10.8985C20.653 9.64095 18.934 8.80261 18.0744 8.80261C12.7742 8.80261 12.8906 14.3915 18.0744 14.3915C20.3665 14.3915 22.3721 8.80261 25.3803 8.80261C32.2565 8.80261 33.2592 16.6271 25.6668 16.6271C21.9422 16.6271 21.7723 11.4573 15.2094 11.4573C5.89785 11.4573 4.03568 23.753 15.2094 23.753C21.7079 23.753 23.8045 12.8546 29.3913 12.8546C39.1326 12.8546 40.9949 26.1283 29.3913 26.1283C24.0695 26.1283 19.2085 18.4435 14.0633 18.4435C4.32229 18.4435 5.89788 31.298 14.0633 31.298C20.1796 31.298 26.1219 19.6938 30.5374 19.5613C39.8487 19.2818 39.1324 31.298 30.2508 30.8788C25.7522 30.6665 21.0385 26.5474 18.3609 26.5474C14.0633 26.5474 14.0633 31.5774 18.3609 31.5774C21.3693 31.5774 26.9703 31.8569 26.9703 34.6513C26.9703 38.0027 19.9988 35.6993 19.9988 38.0047C19.9988 40.3101 23.1646 39.5416 23.1646 41.0786" stroke="#373839" stroke-width="1.21136" stroke-linecap="round"/>
<path d="M75.29 30.05C72.98 30.05 71.27 28.25 71.27 25.82C71.27 23.39 72.98 21.59 75.29 21.59C77.63 21.59 79.31 23.39 79.31 25.82C79.31 28.28 77.63 30.05 75.29 30.05ZM71.42 30.74C72.53 32.84 74.42 34.1 76.79 34.1C80.9 34.1 83.84 30.68 83.84 25.82C83.84 20.96 80.93 17.54 76.79 17.54C74.48 17.54 72.59 18.8 71.48 20.9V11.24H66.05V12.14L66.95 12.29V33.5H71.42V30.74ZM91.5477 25.34C91.5477 23.03 92.8377 21.41 94.7877 21.41C95.4477 21.41 96.4677 21.59 97.3077 21.95V17.96C96.7077 17.72 96.0777 17.57 95.5377 17.57C93.7677 17.57 92.2977 18.98 91.4877 21.2V18.14H86.1477V19.04L87.0477 19.19V33.5H91.5477V25.34ZM107.739 30.14C105.399 30.14 103.719 28.31 103.719 25.82C103.719 23.33 105.399 21.5 107.739 21.5C110.079 21.5 111.759 23.33 111.759 25.82C111.759 28.31 110.079 30.14 107.739 30.14ZM111.789 21.53C110.739 19.07 108.759 17.54 106.299 17.54C102.129 17.54 99.219 20.96 99.219 25.82C99.219 30.68 102.129 34.1 106.299 34.1C108.789 34.1 110.739 32.57 111.819 30.11L111.789 31.22C111.789 33.17 113.109 34.1 115.149 34.1C117.339 34.1 118.419 33.05 118.419 31.55V28.1H117.369V31.7C117.369 32.03 117.159 32.27 116.829 32.27C116.529 32.27 116.319 32.03 116.319 31.7L116.289 18.14H111.789V21.53ZM120.513 18.14V19.04L121.413 19.16V33.5H125.913V18.14H120.513ZM121.053 13.55C121.053 15.05 122.133 16.1 123.663 16.1C125.193 16.1 126.273 15.05 126.273 13.55C126.273 12.08 125.193 11.03 123.663 11.03C122.133 11.03 121.053 12.08 121.053 13.55ZM137.883 21.5C139.653 21.5 140.733 22.82 140.733 24.68V33.5H146.133V32.6L145.233 32.45V23.9C145.233 20.21 142.953 17.54 139.563 17.54C137.433 17.54 135.573 18.92 134.673 21.08V18.14H129.273V19.04L130.173 19.19V33.5H134.673V24.86C134.673 22.91 136.113 21.5 137.883 21.5ZM164.375 23.63C163.895 20.09 160.535 17.54 156.515 17.54C151.655 17.54 148.145 21.02 148.145 25.82C148.145 30.62 151.685 34.1 156.515 34.1C160.475 34.1 163.835 31.55 164.405 28.01L160.205 27.47C159.785 29.12 158.315 30.32 156.545 30.32C154.325 30.32 152.645 28.43 152.645 25.82C152.645 23.21 154.355 21.32 156.545 21.32C158.255 21.32 159.785 22.52 160.175 24.17L164.375 23.63ZM175.235 21.5C177.005 21.5 178.085 22.82 178.085 24.68V33.5H183.515V32.6L182.615 32.45V23.75C182.585 20.15 180.365 17.54 177.035 17.54C174.875 17.54 172.955 18.92 172.055 21.11V11.24H166.655V12.14L167.555 12.29V33.5H172.055V24.86C172.055 22.91 173.465 21.5 175.235 21.5ZM185.318 18.14V19.04L186.218 19.16V33.5H190.718V18.14H185.318ZM185.858 13.55C185.858 15.05 186.938 16.1 188.468 16.1C189.998 16.1 191.078 15.05 191.078 13.55C191.078 12.08 189.998 11.03 188.468 11.03C186.938 11.03 185.858 12.08 185.858 13.55ZM194.047 11.24V12.14L194.947 12.29V33.5H199.447V11.24H194.047ZM207.137 25.82C207.137 23.39 208.817 21.59 211.157 21.59C213.497 21.59 215.177 23.39 215.177 25.82C215.177 28.25 213.497 30.05 211.157 30.05C208.847 30.05 207.137 28.28 207.137 25.82ZM214.997 20.9C213.857 18.8 211.997 17.54 209.657 17.54C205.547 17.54 202.637 20.96 202.637 25.82C202.637 30.68 205.547 34.1 209.657 34.1C212.057 34.1 213.917 32.84 215.057 30.74V33.5H220.427V32.6L219.527 32.45V11.24H214.097V12.14L214.997 12.29V20.9Z" fill="#373839"/>
</svg>
