<svg width="1030" height="449" viewBox="0 0 1030 449" fill="none" xmlns="http://www.w3.org/2000/svg">
    <path d="M1027.23 48.1239C1033.7 66.8965 1025.75 89.7792 1005.53 115.172C985.333 140.542 952.975 168.293 910.927 196.735C826.837 253.614 704.086 313.191 562.608 361.97C421.13 410.749 287.746 439.484 186.469 446.516C135.827 450.033 93.2423 448.12 61.6971 440.592C30.1242 433.056 9.76244 419.934 3.28994 401.162C-3.18256 382.389 4.76545 359.506 24.9852 334.114C45.1873 308.743 77.5447 280.992 119.593 252.551C203.683 195.672 326.434 136.095 467.912 87.3157C609.39 38.5364 742.774 9.80197 844.051 2.7695C894.693 -0.746988 937.278 1.16509 968.823 8.69394C1000.4 16.2294 1020.76 29.3513 1027.23 48.1239Z"
          stroke="url(#paint0_linear_700_1612)"/>
    <defs>
        <linearGradient id="paint0_linear_700_1612" x1="1021.16" y1="59.0929" x2="-2.77526" y2="400.075"
                        gradientUnits="userSpaceOnUse">
            <stop stop-color="#38393A" stop-opacity="0.4"/>
            <stop offset="0.478947" stop-color="#353637" stop-opacity="0"/>
            <stop offset="1" stop-color="#373839" stop-opacity="0.4"/>
        </linearGradient>
    </defs>
</svg>
