<svg width="73" height="74" viewBox="0 0 73 74" fill="none" xmlns="http://www.w3.org/2000/svg">
    <path fill-rule="evenodd" clip-rule="evenodd"
          d="M20.8123 68.018L30.3431 70.8982V67.1318L31.1211 66.2455H36.5673V70.6767V73.7785H30.7321L23.5354 70.2336L20.8123 68.018Z"
          fill="#CDBDB2"/>
    <path fill-rule="evenodd" clip-rule="evenodd"
          d="M51.9334 68.018L42.5971 70.8982V67.1318L41.819 66.2455H36.3728V70.6767V73.7785H42.208L49.4048 70.2336L51.9334 68.018Z"
          fill="#CDBDB2"/>
    <path fill-rule="evenodd" clip-rule="evenodd"
          d="M31.1212 59.8204L30.3431 67.1317L31.3157 66.2455H41.4301L42.5971 67.1317L41.8191 59.8204L40.263 58.7126L32.4827 58.9341L31.1212 59.8204Z"
          fill="#393939"/>
    <path fill-rule="evenodd" clip-rule="evenodd"
          d="M25.8694 10.4132L30.5376 22.8204L32.6772 58.9341H40.263L42.5971 22.8204L46.8762 10.4132H25.8694Z"
          fill="#F89C35"/>
    <path fill-rule="evenodd" clip-rule="evenodd"
          d="M5.4462 37.6646L0 55.6108L13.6155 54.7245H22.3683V46.97L21.9793 31.0179L20.0342 32.7904L5.4462 37.6646Z"
          fill="#F89D35"/>
    <path fill-rule="evenodd" clip-rule="evenodd"
          d="M15.7551 39.6587L31.7047 40.1018L29.9541 49.4072L22.3683 47.1916L15.7551 39.6587Z" fill="#D87C30"/>
    <path fill-rule="evenodd" clip-rule="evenodd" d="M15.7551 39.8802L22.3683 46.9701V54.0599L15.7551 39.8802Z"
          fill="#EA8D3A"/>
    <path fill-rule="evenodd" clip-rule="evenodd"
          d="M22.3683 47.1916L30.1486 49.4072L32.6772 58.9341L30.9267 60.0419L22.3683 54.2814V47.1916Z" fill="#F89D35"/>
    <path fill-rule="evenodd" clip-rule="evenodd" d="M22.3683 54.2814L20.8123 68.018L31.1211 59.8204L22.3683 54.2814Z"
          fill="#EB8F35"/>
    <path fill-rule="evenodd" clip-rule="evenodd" d="M31.7047 40.1018L32.6772 58.9341L29.7596 49.2964L31.7047 40.1018Z"
          fill="#EA8E3A"/>
    <path fill-rule="evenodd" clip-rule="evenodd" d="M13.421 54.503L22.3683 54.2814L20.8122 68.018L13.421 54.503Z"
          fill="#D87C30"/>
    <path fill-rule="evenodd" clip-rule="evenodd" d="M4.27916 74L20.8123 68.018L13.421 54.503L0 55.6108L4.27916 74Z"
          fill="#EB8F35"/>
    <path fill-rule="evenodd" clip-rule="evenodd"
          d="M30.5376 22.8203L22.1738 30.7964L15.7551 39.6587L31.7047 40.3233L30.5376 22.8203Z" fill="#E8821E"/>
    <path fill-rule="evenodd" clip-rule="evenodd"
          d="M20.8123 68.018L31.1211 59.8204L30.3431 66.9102V70.8982L23.3408 69.3473L20.8123 68.018Z" fill="#DFCEC3"/>
    <path fill-rule="evenodd" clip-rule="evenodd"
          d="M51.9334 68.018L41.819 59.8204L42.5971 66.9102V70.8982L49.5993 69.3473L51.9334 68.018Z" fill="#DFCEC3"/>
    <path fill-rule="evenodd" clip-rule="evenodd" d="M27.4255 44.0898L29.5651 49.1856L21.9793 46.9701L27.4255 44.0898Z"
          fill="#393939"/>
    <path fill-rule="evenodd" clip-rule="evenodd" d="M4.08466 0L30.5376 22.8204L26.064 10.4132L4.08466 0Z"
          fill="#E88F35"/>
    <path fill-rule="evenodd" clip-rule="evenodd"
          d="M4.08463 0L0.583496 12.1856L2.52857 25.479L1.16702 26.3653L3.11209 28.3593L1.55603 29.9102L3.69561 32.1257L2.33406 33.4551L5.44618 37.8862L20.0342 32.7904C27.1661 26.2914 30.6673 22.9681 30.5376 22.8204C30.4079 22.6727 21.5903 15.0659 4.08463 0Z"
          fill="#8E5A30"/>
    <path fill-rule="evenodd" clip-rule="evenodd"
          d="M67.2995 37.6646L72.7457 55.6108L59.1302 54.7245H50.3774V46.97L50.7664 31.0179L52.7115 32.7904L67.2995 37.6646Z"
          fill="#F89D35"/>
    <path fill-rule="evenodd" clip-rule="evenodd"
          d="M56.9906 39.6587L41.041 40.1018L42.7916 49.4072L50.3774 47.1916L56.9906 39.6587Z" fill="#D87C30"/>
    <path fill-rule="evenodd" clip-rule="evenodd" d="M56.9906 39.8802L50.3774 46.9701V54.0599L56.9906 39.8802Z"
          fill="#EA8D3A"/>
    <path fill-rule="evenodd" clip-rule="evenodd"
          d="M50.3773 47.1916L42.597 49.4072L40.0684 58.9341L41.819 60.0419L50.3773 54.2814V47.1916Z" fill="#F89D35"/>
    <path fill-rule="evenodd" clip-rule="evenodd" d="M50.3774 54.2814L51.9334 68.018L41.819 60.0419L50.3774 54.2814Z"
          fill="#EB8F35"/>
    <path fill-rule="evenodd" clip-rule="evenodd" d="M41.041 40.1018L40.0685 58.9341L42.9861 49.2964L41.041 40.1018Z"
          fill="#EA8E3A"/>
    <path fill-rule="evenodd" clip-rule="evenodd" d="M59.3247 54.503L50.3774 54.2814L51.9334 68.018L59.3247 54.503Z"
          fill="#D87C30"/>
    <path fill-rule="evenodd" clip-rule="evenodd"
          d="M68.4666 74L51.9334 68.018L59.3247 54.503L72.7457 55.6108L68.4666 74Z" fill="#EB8F35"/>
    <path fill-rule="evenodd" clip-rule="evenodd"
          d="M42.2081 22.8203L50.5719 30.7964L56.9906 39.6587L41.041 40.3233L42.2081 22.8203Z" fill="#E8821E"/>
    <path fill-rule="evenodd" clip-rule="evenodd" d="M45.3202 44.0898L43.1806 49.1856L50.7664 46.9701L45.3202 44.0898Z"
          fill="#393939"/>
    <path fill-rule="evenodd" clip-rule="evenodd" d="M68.6611 0L42.2081 22.8204L46.6818 10.4132L68.6611 0Z"
          fill="#E88F35"/>
    <path fill-rule="evenodd" clip-rule="evenodd"
          d="M68.661 0L72.1622 12.1856L70.2171 25.479L71.5786 26.3653L69.6336 28.3593L71.1896 29.9102L69.0501 32.1257L70.4116 33.4551L67.2995 37.8862L52.7115 32.7904C45.5795 26.2914 42.0784 22.9681 42.2081 22.8204C42.3377 22.6727 51.1554 15.0659 68.661 0Z"
          fill="#8E5A30"/>
</svg>
