<svg width="45" height="45" viewBox="0 0 45 45" fill="none" xmlns="http://www.w3.org/2000/svg">
<path d="M21.9422 10.8985C20.653 9.64095 18.934 8.80261 18.0744 8.80261C12.7742 8.80261 12.8906 14.3915 18.0744 14.3915C20.3665 14.3915 22.3721 8.80261 25.3803 8.80261C32.2565 8.80261 33.2592 16.6271 25.6668 16.6271C21.9422 16.6271 21.7723 11.4573 15.2094 11.4573C5.89785 11.4573 4.03568 23.753 15.2094 23.753C21.7079 23.753 23.8045 12.8546 29.3913 12.8546C39.1326 12.8546 40.9949 26.1283 29.3913 26.1283C24.0695 26.1283 19.2085 18.4435 14.0633 18.4435C4.32229 18.4435 5.89788 31.298 14.0633 31.298C20.1796 31.298 26.1219 19.6938 30.5374 19.5613C39.8487 19.2818 39.1324 31.298 30.2508 30.8788C25.7522 30.6665 21.0385 26.5474 18.3609 26.5474C14.0633 26.5474 14.0633 31.5774 18.3609 31.5774C21.3693 31.5774 26.9703 31.8569 26.9703 34.6513C26.9703 38.0027 19.9988 35.6993 19.9988 38.0047C19.9988 40.3101 23.1646 39.5416 23.1646 41.0786" stroke="#373839" stroke-width="1.21136" stroke-linecap="round"/>
</svg>
