<svg width="175" height="175" viewBox="0 0 175 175" fill="none" xmlns="http://www.w3.org/2000/svg">
<g filter="url(#filter0_b_700_1495)">
<g clip-path="url(#clip0_700_1495)">
<rect width="175" height="175" rx="87.5" fill="url(#paint0_angular_700_1495)" fill-opacity="0.4"/>
<path d="M43.8235 47.908L42.7318 42.0385L52.7948 39.2961L52.062 35.1427L41.999 37.885L41.0392 32.6326L52.453 29.5221L51.6158 24.8529L34.7316 29.4542L39.1563 54.0771L56.412 49.3747L55.5412 44.7147L43.8235 47.908Z" fill="white"/>
<path d="M91.9678 33.074L93.6506 42.552L85.0669 49.7196L91.2083 51.5384L97.6195 45.2971L98.2893 53.6355L104.431 55.4543L102.712 45.2355L110.727 38.6298L104.754 36.8607L98.703 42.6247L97.9413 34.8431L91.9678 33.074Z" fill="white"/>
<path d="M85.333 87.2217C86.8048 89.6571 86.3163 92.6116 84.11 94.2196C81.9038 95.8275 79.2244 95.1818 77.7526 92.7464C76.2808 90.311 76.7976 87.3358 78.9756 85.7485C81.1818 84.1405 83.8406 84.758 85.333 87.2217ZM86.753 107.235L80.9071 97.55C83.227 98.8909 85.7616 98.8626 87.9678 97.2547C91.8429 94.4305 92.5193 89.0003 89.5758 84.1295C86.6322 79.2587 81.8213 77.8277 77.9463 80.6519C75.7118 82.2804 74.6825 84.8496 74.9092 87.7159L73.239 84.9488L69.0245 88.0204L82.482 110.348L86.753 107.235Z" fill="white"/>
<path d="M138.689 67.6844L133.789 65.8009L122.348 89.2259L127.248 91.1094L138.689 67.6844Z" fill="white"/>
<path d="M53.982 119.707C54.472 113.967 50.762 110.047 44.882 110.047C38.967 110.047 34.592 113.967 34.067 119.707C33.577 125.412 37.287 129.367 43.167 129.367C49.082 129.367 53.457 125.412 53.982 119.707ZM48.732 119.707C48.452 122.647 46.317 124.747 43.587 124.747C40.822 124.747 39.072 122.647 39.352 119.707C39.597 116.767 41.697 114.667 44.462 114.667C47.192 114.667 48.977 116.767 48.732 119.707Z" fill="white"/>
<path d="M97.0805 121.412C95.033 121.681 93.4074 123.553 92.5987 126.271L92.4472 122.69L87.2764 123.368L88.0775 141.336L93.283 140.654L92.8791 131.105C92.7372 128.406 94.1574 126.314 96.4132 126.018C97.1766 125.918 98.3491 125.976 99.3754 126.265L99.1871 121.595C98.4566 121.408 97.7051 121.33 97.0805 121.412Z" fill="white"/>
<path d="M127.614 145.958C129.415 144.28 131.736 143.88 133.69 145.111C135.704 146.379 136.171 148.659 135.048 150.64L127.614 145.958ZM132.171 154.288C130.769 155.266 128.691 155.281 127.033 154.237C125.019 152.968 124.563 150.737 125.698 148.474L137.585 156.002C137.85 155.714 138.33 155.148 138.602 154.781C142.039 150.245 141.107 145.025 136.22 141.947C131.363 138.889 125.483 139.818 122.114 144.314C118.592 148.921 119.587 154.304 124.473 157.381C128.175 159.713 132.913 159.677 135.815 157.369L132.171 154.288Z" fill="white"/>
<path d="M48.3172 93.6394L47.771 93.8441L48.3172 93.6394ZM86.1628 109.609L86.4052 109.079L86.1628 109.609ZM106.599 118.314L107.021 118.717L106.599 118.314ZM150.913 93.7002C151.14 93.4724 151.14 93.1031 150.913 92.8753L147.2 89.163C146.973 88.9352 146.603 88.9352 146.375 89.163C146.148 89.3908 146.148 89.7601 146.375 89.9879L149.675 93.2878L146.375 96.5876C146.148 96.8154 146.148 97.1847 146.375 97.4125C146.603 97.6404 146.973 97.6404 147.2 97.4125L150.913 93.7002ZM101.301 66.0863L101.832 66.3287L101.301 66.0863ZM-4.11842 93.8391C0.00447798 82.5247 9.22476 72.2993 19.2161 70.0028C24.1801 68.8619 29.3585 69.6683 34.2672 73.3037C39.1943 76.9526 43.8856 83.4801 47.771 93.8441L48.8634 93.4346C44.9327 82.9497 40.1336 76.1965 34.9616 72.3661C29.7713 68.5222 24.2419 67.6506 18.9548 68.8658C8.44388 71.2817 -1.01147 81.9052 -5.21458 93.4397L-4.11842 93.8391ZM47.771 93.8441C56.5353 117.222 70.1678 123.281 79.7856 122.343C84.5396 121.879 88.3397 119.687 89.907 117.003C90.7004 115.644 90.929 114.135 90.3561 112.697C89.7886 111.273 88.4764 110.025 86.4052 109.079L85.9203 110.14C87.8229 111.009 88.8523 112.075 89.2724 113.129C89.6871 114.17 89.549 115.302 88.8995 116.415C87.5811 118.673 84.1906 120.741 79.6724 121.182C70.7459 122.052 57.5081 116.493 48.8634 93.4346L47.771 93.8441ZM86.4052 109.079C85.0119 108.442 83.8235 108.283 82.9639 108.77C82.0692 109.277 81.8089 110.311 81.8672 111.364C81.9849 113.487 83.4033 116.481 85.6414 119.021C87.8923 121.575 91.0641 123.776 94.7962 124.183C98.5572 124.593 102.762 123.169 107.021 118.717L106.178 117.911C102.11 122.163 98.2454 123.385 94.9228 123.023C91.5713 122.657 88.6461 120.666 86.5167 118.25C84.3748 115.819 83.13 113.064 83.0321 111.299C82.9826 110.407 83.2263 109.962 83.539 109.785C83.8866 109.588 84.6086 109.54 85.9203 110.14L86.4052 109.079ZM107.021 118.717C111.549 113.983 114.011 107.052 115.048 99.701C116.087 92.3398 115.708 84.4881 114.493 77.8355C113.885 74.5081 113.066 71.47 112.105 68.9355C111.147 66.4104 110.033 64.3462 108.816 62.9999C107.604 61.6595 106.169 60.915 104.645 61.3946C103.192 61.852 101.903 63.3638 100.77 65.844L101.832 66.3287C102.935 63.9126 104.041 62.8079 104.995 62.5074C105.88 62.2291 106.868 62.5851 107.95 63.7823C109.027 64.9737 110.079 66.8841 111.014 69.3493C111.945 71.8049 112.747 74.7726 113.345 78.0452C114.541 84.5926 114.912 92.3175 113.893 99.5379C112.873 106.768 110.469 113.424 106.178 117.911L107.021 118.717ZM100.77 65.844C98.0666 71.7637 98.1686 76.5713 100.394 80.4166C102.598 84.2253 106.816 86.9641 112.071 88.9336C122.586 92.8739 137.627 93.8711 150.5 93.8711V92.7044C137.638 92.7044 122.782 91.7014 112.481 87.8412C107.329 85.9105 103.41 83.2989 101.404 79.8323C99.4187 76.4022 99.237 72.0094 101.832 66.3287L100.77 65.844Z" fill="url(#paint1_linear_700_1495)"/>
</g>
<rect x="0.583333" y="0.583333" width="173.833" height="173.833" rx="86.9167" stroke="url(#paint2_linear_700_1495)" stroke-width="1.16667"/>
</g>
<defs>
<filter id="filter0_b_700_1495" x="-116.667" y="-116.667" width="408.333" height="408.333" filterUnits="userSpaceOnUse" color-interpolation-filters="sRGB">
<feFlood flood-opacity="0" result="BackgroundImageFix"/>
<feGaussianBlur in="BackgroundImage" stdDeviation="58.3333"/>
<feComposite in2="SourceAlpha" operator="in" result="effect1_backgroundBlur_700_1495"/>
<feBlend mode="normal" in="SourceGraphic" in2="effect1_backgroundBlur_700_1495" result="shape"/>
</filter>
<radialGradient id="paint0_angular_700_1495" cx="0" cy="0" r="1" gradientUnits="userSpaceOnUse" gradientTransform="translate(87.5 87.5) rotate(90) scale(87.5)">
<stop offset="0.17585" stop-color="white" stop-opacity="0.395276"/>
<stop offset="0.47185" stop-color="white"/>
<stop offset="0.891788" stop-color="white" stop-opacity="0"/>
</radialGradient>
<linearGradient id="paint1_linear_700_1495" x1="181.278" y1="92.2996" x2="-4.92207" y2="92.2996" gradientUnits="userSpaceOnUse">
<stop stop-color="white"/>
<stop offset="1" stop-color="white" stop-opacity="0"/>
</linearGradient>
<linearGradient id="paint2_linear_700_1495" x1="173.416" y1="92.5381" x2="-0.805718" y2="92.0433" gradientUnits="userSpaceOnUse">
<stop stop-color="white" stop-opacity="0.4"/>
<stop offset="0.478947" stop-color="white" stop-opacity="0"/>
<stop offset="1" stop-color="white" stop-opacity="0.4"/>
</linearGradient>
<clipPath id="clip0_700_1495">
<rect width="175" height="175" rx="87.5" fill="white"/>
</clipPath>
</defs>
</svg>
