<svg width="1243" height="702" viewBox="0 0 1243 702" fill="none" xmlns="http://www.w3.org/2000/svg">
<g clip-path="url(#clip0_700_1492)">
<path opacity="0.9" d="M141.944 428.407L158.771 386.456C141.126 390.153 127.337 401.43 120.264 419.065C110.212 444.124 121.474 474.069 150.061 485.535C179.204 497.224 206.445 478.197 216.124 454.066C226.473 428.264 210.82 407.117 195.042 400.789C173.881 392.301 153.665 405.095 141.944 428.407ZM129.03 456.843C121.427 445.175 118.877 432.731 124.163 419.551C128.556 408.599 138.108 400.364 151.366 401.156L129.03 456.843ZM193.666 402.607C210.001 409.159 219.899 427.998 211.188 449.716C202.254 471.991 172.905 481.768 148.402 471.94C140.977 468.962 134.594 464.462 129.883 458.478L138.966 435.832C150.953 405.947 173.99 394.715 193.666 402.607Z" fill="white"/>
<path opacity="0.9" d="M149.444 362.333L155.557 352.24L218.338 390.268C231.681 398.351 247.281 391.899 255.259 378.727C256.192 377.188 257.228 375.477 257.818 373.73L256.517 373.176C255.927 374.923 255.062 376.737 254.129 378.277C249.674 385.632 241.32 390.159 221.989 378.45L161.775 341.976L170.789 327.094L169.592 326.369L160.577 341.251L145.523 332.133L149.444 362.333Z" fill="white"/>
<path opacity="0.9" d="M263.338 264.171C243.756 247.372 221.951 255.28 211.814 271.09C212.836 264.062 210.626 257.423 205.162 252.735C195.902 244.791 182.105 246.13 174.161 255.389C166.087 264.801 166.992 280.333 181.716 292.965L255.487 356.255L256.956 371.744L278.834 346.243L263.301 347.147L207.289 299.094C206.86 287.922 207.384 279.939 213.375 272.956C222.621 262.179 240.8 260.647 254.917 272.758L296.508 308.439L297.977 323.929L319.855 298.428L304.322 299.332L263.338 264.171ZM209.187 275.688C206.19 282.867 205.579 289.722 205.771 297.791L187.252 281.904C174.653 271.095 173.4 260.27 178.739 254.046C184.469 247.367 196.357 247.026 204.25 253.797C210.474 259.137 212.358 267.077 209.187 275.688Z" fill="white"/>
<path opacity="0.9" d="M307.564 211.166L343.325 183.522C326.239 177.77 308.637 180.507 293.605 192.128C272.243 208.641 266.783 240.164 285.62 264.532C304.824 289.375 337.95 286.771 358.52 270.87C380.515 253.867 377.733 227.705 367.335 214.255C353.391 196.216 329.48 197.005 307.564 211.166ZM282.023 229.141C281.38 215.229 285.486 203.207 296.72 194.523C306.056 187.306 318.464 185.045 329.493 192.445L282.023 229.141ZM365.228 215.126C375.992 229.05 374.982 250.307 356.469 264.619C337.481 279.297 307.224 272.858 291.077 251.971C286.185 245.642 282.96 238.528 281.93 230.982L301.235 216.059C326.71 196.366 352.262 198.353 365.228 215.126Z" fill="white"/>
<path opacity="0.9" d="M379.949 167.443L379.772 167.535L368.267 145.339L351.338 162.224L364.24 163.646L398.479 229.7L394.045 244.613L423.875 229.151L409.133 224.177L382.073 171.974C376.551 161.32 387.297 149.892 403.554 142.141L399.959 128.687C382.689 140.567 374.342 150.976 379.949 167.443Z" fill="white"/>
<path opacity="0.9" d="M472.876 126.658L516.124 113.52C502.196 102.074 484.77 98.3799 466.59 103.903C440.756 111.751 424.454 139.278 433.407 168.748C442.534 198.793 474.424 208.126 499.301 200.568C525.901 192.488 532.594 167.043 527.652 150.777C521.025 128.962 498.393 121.206 472.876 126.658ZM442.616 134.388C446.957 121.155 455.065 111.376 468.652 107.248C479.942 103.818 492.344 106.112 500.026 116.947L442.616 134.388ZM525.373 150.843C530.489 167.683 521.994 187.195 499.604 193.997C476.64 200.973 450.644 184.205 442.97 158.945C440.645 151.291 440.158 143.496 441.875 136.076L465.222 128.984C496.031 119.624 519.21 130.558 525.373 150.843Z" fill="white"/>
<path opacity="0.9" d="M613.617 81.0745L591.509 90.1808L602.88 96.4397L608.677 164.594C601.218 173.658 593.59 180.73 583.826 181.561C569.876 182.747 555.872 171.494 554.279 152.761L548.651 86.6L526.544 95.7064L537.915 101.965L542.271 153.18C544.22 176.098 561.544 186.266 578.284 184.842C591.237 183.74 599.878 176.783 608.499 167.218L616.312 181.206L622.092 180.715L613.617 81.0745Z" fill="white"/>
<path opacity="0.9" d="M615.316 175.786L648.499 181.067L639.594 168.309L650.88 97.4016C659.02 90.799 668.842 85.0718 677.73 86.4866C690.371 88.4987 698.234 102.712 695.373 120.685L686.602 175.792L674.175 185.155L707.358 190.436L698.453 177.678L707.099 123.362C707.947 118.029 707.912 113.163 707.19 108.795C717.484 100.105 727.503 94.4094 736.589 95.8556C749.23 97.8678 757.093 112.081 754.232 130.054L745.461 185.161L733.034 194.524L766.217 199.805L757.312 187.047L765.958 132.731C769.542 110.214 757.539 96.5577 742.331 94.1368C727.715 91.8103 716.361 99.5214 706.849 107.121C704.026 94.3176 694.532 86.5284 683.472 84.7678C671.423 82.85 661.561 87.5581 651.226 95.2289L653.521 80.8105L629.873 84.3368L639.407 93.145L627.743 166.423L615.316 175.786Z" fill="white"/>
<path opacity="0.9" d="M903.463 248.332C893.116 258.357 878.895 262.153 866.041 254.04C845.407 241.018 841.453 204.939 857.678 179.231C868.566 161.979 887.618 153.901 903.347 163.828C913.495 170.232 920.263 183.491 921.425 198.887L935.463 207.747C935.093 190.722 925.983 174.803 911.945 165.943C888.435 151.106 856.754 157.836 841.596 181.852C826.546 205.7 833.489 237.043 857.337 252.094C873.912 262.555 893.883 262.388 910.398 252.709L903.463 248.332Z" fill="white"/>
<path opacity="0.9" d="M1019.11 202.97L997.509 192.717L1000.52 205.344L923.976 287.658L908.44 288.506L933.047 311.386L932.764 295.829L1019.11 202.97Z" fill="white"/>
<path opacity="0.9" d="M977.398 282.451C956.037 298.964 951.065 331.12 968.557 353.747C985.193 375.267 1017.07 380.203 1040.17 362.344C1061.53 345.831 1066.5 313.675 1049.01 291.047C1032.38 269.528 1000.5 264.592 977.398 282.451ZM993.246 285.62C1011.13 271.798 1031.07 273.067 1041.71 286.833C1056.39 305.821 1047.42 341.316 1024.32 359.175C1006.44 372.997 986.501 371.728 975.859 357.961C961.181 338.973 970.144 303.479 993.246 285.62Z" fill="white"/>
<path opacity="0.9" d="M1060.47 459C1046.36 461.903 1032.32 457.471 1025.83 443.726C1015.41 421.662 1031.45 389.1 1058.94 376.12C1077.38 367.41 1097.79 370.822 1105.74 387.642C1110.86 398.493 1109.45 413.313 1102.17 426.926L1109.25 441.937C1118.08 427.374 1118.94 409.053 1111.85 394.042C1099.98 368.903 1069.64 357.574 1043.96 369.699C1018.46 381.739 1007.49 411.911 1019.53 437.411C1027.9 455.135 1044.84 465.715 1063.97 466.415L1060.47 459Z" fill="white"/>
<path opacity="0.9" d="M1066.62 549.187L1124.24 501.66C1137.12 511.499 1142.99 518.719 1155.64 534.378L1149.27 508.139L1141.85 515.704C1118.74 490.853 1097.91 485.615 1090.01 485.269L1177.66 464L1165.49 443.493L1161.04 455.686L1051.81 482.191L1038.18 474.384L1046.1 507.036L1054.63 493.852L1080.87 487.486C1091.76 484.845 1104.87 489.689 1113.71 494.747L1062.24 537.078L1052 531.331L1059.07 560.485L1066.62 549.187Z" fill="white"/>
</g>
<g clip-path="url(#clip1_700_1492)">
<path opacity="0.9" d="M176.379 694.814L118.761 742.341C105.878 732.501 100.01 725.281 87.3607 709.622L93.7275 735.861L101.153 728.297C124.265 753.148 145.087 758.385 152.992 758.731L65.3352 780.001L77.5142 800.507L81.9644 788.314L191.195 761.809L204.82 769.617L196.897 736.964L188.365 750.148L162.127 756.515C151.242 759.156 138.13 754.311 129.288 749.253L180.758 706.923L191.002 712.669L183.928 683.515L176.379 694.814Z" fill="white"/>
<path fill-rule="evenodd" clip-rule="evenodd" d="M1173.33 649.472C1165.28 646.957 1160.72 643.741 1157.59 638.355C1156.41 636.326 1155.41 633.83 1154.7 631.169C1154.6 630.816 1154.51 630.528 1154.5 630.527C1154.49 630.527 1154.33 630.906 1154.14 631.37C1151.71 637.42 1148.26 641.535 1143.51 644.051C1140.9 645.433 1137.54 646.513 1133.51 647.268C1133.09 647.347 1132.74 647.422 1132.74 647.434C1132.74 647.447 1133.14 647.582 1133.63 647.736C1141.69 650.25 1146.24 653.466 1149.37 658.852C1150.55 660.881 1151.56 663.378 1152.27 666.039C1152.36 666.391 1152.45 666.68 1152.46 666.68C1152.48 666.681 1152.64 666.302 1152.82 665.838C1155.25 659.788 1158.7 655.673 1163.46 653.156C1166.07 651.774 1169.43 650.695 1173.45 649.939C1173.88 649.86 1174.22 649.785 1174.22 649.773C1174.22 649.761 1173.82 649.625 1173.33 649.472Z" fill="url(#paint0_angular_700_1492)"/>
<path fill-rule="evenodd" clip-rule="evenodd" d="M132.499 587.266C124.445 584.752 119.891 581.536 116.76 576.15C115.581 574.121 114.574 571.624 113.864 568.963C113.769 568.611 113.682 568.322 113.67 568.322C113.658 568.321 113.495 568.7 113.309 569.164C110.883 575.214 107.432 579.329 102.675 581.846C100.064 583.228 96.7084 584.307 92.6792 585.063C92.2577 585.142 91.9123 585.216 91.9116 585.229C91.9109 585.241 92.3118 585.377 92.8024 585.53C100.857 588.045 105.41 591.261 108.541 596.646C109.721 598.676 110.727 601.172 111.438 603.833C111.532 604.185 111.619 604.474 111.632 604.475C111.644 604.475 111.806 604.096 111.992 603.632C114.419 597.582 117.869 593.467 122.626 590.951C125.238 589.569 128.593 588.489 132.622 587.734C133.044 587.655 133.389 587.58 133.39 587.567C133.391 587.555 132.99 587.42 132.499 587.266Z" fill="url(#paint1_angular_700_1492)"/>
</g>
<defs>
<radialGradient id="paint0_angular_700_1492" cx="0" cy="0" r="1" gradientUnits="userSpaceOnUse" gradientTransform="translate(1153.48 648.604) rotate(-176.776) scale(20.7722 18.1052)">
<stop stop-color="white"/>
<stop offset="1" stop-color="white" stop-opacity="0"/>
</radialGradient>
<radialGradient id="paint1_angular_700_1492" cx="0" cy="0" r="1" gradientUnits="userSpaceOnUse" gradientTransform="translate(112.651 586.398) rotate(-176.776) scale(20.7722 18.1052)">
<stop stop-color="white"/>
<stop offset="1" stop-color="white" stop-opacity="0"/>
</radialGradient>
<clipPath id="clip0_700_1492">
<rect width="1243" height="1243" fill="white" transform="translate(1243 0.5) rotate(90)"/>
</clipPath>
<clipPath id="clip1_700_1492">
<rect width="1243" height="1243" fill="white" transform="translate(0 1243.5) rotate(-90)"/>
</clipPath>
</defs>
</svg>
