<svg width="107" height="129" viewBox="0 0 107 129" fill="none" xmlns="http://www.w3.org/2000/svg">
    <path d="M46.0413 78.5417C49.6328 78.5417 53.0772 77.115 55.6168 74.5754C58.1563 72.0359 59.583 68.5915 59.583 65C59.583 57.525 56.8747 54.1667 54.1663 48.75C48.3597 37.1421 52.953 26.7908 64.9997 16.25C67.708 29.7917 75.833 42.7917 86.6664 51.4583C97.4997 60.125 102.916 70.4167 102.916 81.25C102.916 86.2293 101.936 91.1598 100.03 95.7601C98.1246 100.36 95.3317 104.54 91.8108 108.061C88.2899 111.582 84.11 114.375 79.5098 116.28C74.9095 118.186 69.979 119.167 64.9997 119.167C60.0204 119.167 55.0899 118.186 50.4896 116.28C45.8893 114.375 41.7094 111.582 38.1885 108.061C34.6677 104.54 31.8747 100.36 29.9692 95.7601C28.0638 91.1598 27.083 86.2293 27.083 81.25C27.083 75.0046 29.4284 68.8242 32.4997 65C32.4997 68.5915 33.9264 72.0359 36.4659 74.5754C39.0055 77.115 42.4499 78.5417 46.0413 78.5417Z"
          fill="url(#paint0_radial_1663_5473)" fill-opacity="0.6" stroke="url(#paint1_linear_1663_5473)"
          stroke-linecap="round" stroke-linejoin="round"/>
    <defs>
        <radialGradient id="paint0_radial_1663_5473" cx="0" cy="0" r="1" gradientUnits="userSpaceOnUse"
                        gradientTransform="translate(49.9537 96.3001) rotate(-53.886) scale(86.3051 64.5425)">
            <stop stop-color="#AF5F5F" stop-opacity="0.02"/>
            <stop offset="1" stop-color="#AF5F5F"/>
        </radialGradient>
        <linearGradient id="paint1_linear_1663_5473" x1="102.23" y1="70.6712" x2="26.7336" y2="70.5132"
                        gradientUnits="userSpaceOnUse">
            <stop stop-opacity="0.4"/>
            <stop offset="0.478947" stop-opacity="0"/>
            <stop offset="1" stop-opacity="0.4"/>
        </linearGradient>
    </defs>
</svg>
