<svg width="700" height="322" viewBox="0 0 700 322" fill="none" xmlns="http://www.w3.org/2000/svg">
<path fill-rule="evenodd" clip-rule="evenodd" d="M471.898 17.2571C462.66 38.0111 452.639 49.1839 437.259 55.8764C431.464 58.398 424.474 60.31 417.137 61.3802C416.165 61.5219 415.366 61.6647 415.361 61.6974C415.355 61.7302 416.318 62.2826 417.501 62.9248C432.922 71.3023 442.85 81.8137 448.096 95.3193C450.976 102.735 452.816 112.044 453.578 123.055C453.658 124.207 453.75 125.154 453.783 125.159C453.816 125.165 454.304 124.135 454.866 122.871C464.104 102.117 474.126 90.9443 489.506 84.2518C495.301 81.7302 502.291 79.8182 509.628 78.748C510.599 78.6063 511.398 78.4635 511.404 78.4307C511.409 78.398 510.446 77.8456 509.264 77.2034C493.842 68.8258 483.915 58.3145 478.669 44.8088C475.789 37.3936 473.948 28.0838 473.186 17.0735C473.106 15.9217 473.014 14.9745 472.981 14.9688C472.948 14.963 472.461 15.9928 471.898 17.2571Z" fill="url(#paint0_angular_1618_1760)"/>
<path d="M229.442 321.826C229.442 304.002 283.626 289.553 350.465 289.553C417.304 289.553 471.488 304.002 471.488 321.826" stroke="url(#paint1_linear_1618_1760)"/>
<path d="M229.442 347.959C229.442 330.135 283.626 315.686 350.465 315.686C417.304 315.686 471.488 330.135 471.488 347.959" stroke="url(#paint2_linear_1618_1760)"/>
<path d="M229.442 267.613C229.442 249.79 283.626 235.341 350.465 235.341C417.304 235.341 471.488 249.79 471.488 267.613" stroke="url(#paint3_linear_1618_1760)"/>
<path d="M229.442 293.746C229.442 275.922 283.626 261.473 350.465 261.473C417.304 261.473 471.488 275.922 471.488 293.746" stroke="url(#paint4_linear_1618_1760)"/>
<path d="M229.442 213.4C229.442 195.577 283.626 181.128 350.465 181.128C417.304 181.128 471.488 195.577 471.488 213.4" stroke="url(#paint5_linear_1618_1760)"/>
<path d="M229.442 239.535C229.442 221.711 283.626 207.262 350.465 207.262C417.304 207.262 471.488 221.711 471.488 239.535" stroke="url(#paint6_linear_1618_1760)"/>
<path d="M229.442 159.188C229.442 141.364 283.626 126.915 350.465 126.915C417.304 126.915 471.488 141.364 471.488 159.188" stroke="url(#paint7_linear_1618_1760)"/>
<path d="M229.442 185.323C229.442 167.5 283.626 153.051 350.465 153.051C417.304 153.05 471.488 167.499 471.488 185.323" stroke="url(#paint8_linear_1618_1760)"/>
<g filter="url(#filter0_b_1618_1760)">
<path d="M198.512 158.33L349.791 1.00002L501.069 158.33L425.43 158.33L425.43 403.065L274.152 403.065L274.152 158.33L198.512 158.33Z" fill="url(#paint9_radial_1618_1760)" fill-opacity="0.4"/>
<path d="M198.512 158.33L349.791 1.00002L501.069 158.33L425.43 158.33L425.43 403.065L274.152 403.065L274.152 158.33L198.512 158.33Z" stroke="url(#paint10_linear_1618_1760)"/>
</g>
<path d="M471.486 321.826C471.486 339.65 417.302 354.099 350.463 354.099C283.624 354.099 229.44 339.65 229.44 321.826" stroke="url(#paint11_linear_1618_1760)"/>
<path d="M471.486 267.613C471.486 285.437 417.302 299.886 350.463 299.886C283.624 299.886 229.44 285.437 229.44 267.613" stroke="url(#paint12_linear_1618_1760)"/>
<path d="M471.486 293.746C471.486 311.57 417.302 326.019 350.463 326.019C283.624 326.019 229.44 311.57 229.44 293.746" stroke="url(#paint13_linear_1618_1760)"/>
<path d="M471.486 213.4C471.486 231.224 417.302 245.673 350.463 245.673C283.624 245.673 229.44 231.224 229.44 213.4" stroke="url(#paint14_linear_1618_1760)"/>
<path d="M471.486 239.535C471.486 257.359 417.302 271.808 350.463 271.808C283.624 271.808 229.44 257.359 229.44 239.535" stroke="url(#paint15_linear_1618_1760)"/>
<path d="M471.486 159.187C471.486 177.011 417.302 191.46 350.463 191.46C283.624 191.46 229.44 177.011 229.44 159.188" stroke="url(#paint16_linear_1618_1760)"/>
<path d="M471.486 185.323C471.486 203.147 417.302 217.596 350.463 217.596C283.624 217.596 229.44 203.147 229.44 185.323" stroke="url(#paint17_linear_1618_1760)"/>
<path fill-rule="evenodd" clip-rule="evenodd" d="M207.765 291.631C209.702 305.373 208.129 314.406 202.331 322.854C200.146 326.036 197.144 329.291 193.69 332.221C193.233 332.609 192.865 332.942 192.873 332.961C192.881 332.98 193.559 332.954 194.379 332.904C205.08 332.248 213.627 334.478 220.718 339.774C224.612 342.682 228.58 346.909 232.541 352.365C232.955 352.936 233.31 353.396 233.329 353.389C233.348 353.381 233.267 352.69 233.149 351.853C231.212 338.111 232.784 329.078 238.583 320.63C240.768 317.447 243.77 314.193 247.224 311.262C247.681 310.874 248.048 310.541 248.041 310.523C248.033 310.504 247.355 310.53 246.535 310.58C235.833 311.235 227.287 309.006 220.196 303.709C216.302 300.801 212.334 296.575 208.373 291.119C207.958 290.548 207.604 290.087 207.585 290.095C207.566 290.103 207.647 290.794 207.765 291.631Z" fill="url(#paint18_angular_1618_1760)"/>
<path fill-rule="evenodd" clip-rule="evenodd" d="M201.321 109.394C198.439 125.866 193.283 135.636 183.5 143.167C179.813 146.004 175.165 148.62 170.117 150.697C169.449 150.972 168.904 151.217 168.906 151.241C168.908 151.266 169.695 151.488 170.654 151.735C183.164 154.956 192.133 160.685 198.295 169.389C201.678 174.168 204.658 180.486 207.173 188.211C207.436 189.019 207.671 189.679 207.696 189.677C207.72 189.675 207.884 188.853 208.059 187.849C210.941 171.378 216.097 161.608 225.881 154.077C229.567 151.24 234.216 148.624 239.263 146.547C239.931 146.272 240.476 146.027 240.474 146.002C240.472 145.978 239.686 145.756 238.727 145.509C226.217 142.287 217.248 136.559 211.086 127.854C207.702 123.075 204.722 116.758 202.208 109.033C201.945 108.225 201.709 107.565 201.685 107.567C201.66 107.569 201.497 108.391 201.321 109.394Z" fill="url(#paint19_angular_1618_1760)"/>
<path d="M82.7102 370.239C79.5208 357.513 115.622 337.501 163.344 325.54C211.067 313.58 252.339 314.201 255.528 326.927" stroke="url(#paint20_linear_1618_1760)"/>
<path d="M87.3865 388.897C84.1971 376.171 120.298 356.159 168.02 344.199C215.743 332.238 257.015 332.859 260.204 345.585" stroke="url(#paint21_linear_1618_1760)"/>
<path d="M73.0093 331.531C69.8199 318.805 105.921 298.793 153.643 286.832C201.366 274.872 242.638 275.493 245.827 288.219" stroke="url(#paint22_linear_1618_1760)"/>
<path d="M77.6856 350.19C74.4961 337.464 110.597 317.452 158.32 305.492C206.042 293.531 247.314 294.152 250.503 306.878" stroke="url(#paint23_linear_1618_1760)"/>
<path d="M63.3084 292.824C60.1189 280.098 96.22 260.086 143.942 248.125C191.665 236.165 232.937 236.786 236.126 249.512" stroke="url(#paint24_linear_1618_1760)"/>
<path d="M67.9849 311.484C64.7955 298.758 100.897 278.746 148.619 266.786C196.341 254.825 237.613 255.446 240.803 268.172" stroke="url(#paint25_linear_1618_1760)"/>
<path d="M53.6074 254.117C50.418 241.391 86.5191 221.379 134.241 209.418C181.964 197.458 223.236 198.079 226.425 210.805" stroke="url(#paint26_linear_1618_1760)"/>
<path d="M58.2842 272.777C55.0948 260.051 91.1958 240.039 138.918 228.079C186.641 216.118 227.913 216.739 231.102 229.465" stroke="url(#paint27_linear_1618_1760)"/>
<g filter="url(#filter1_b_1618_1760)">
<path d="M31.3704 259.039L111.229 119.637L247.393 204.899L193.387 218.434L237.181 393.172L129.169 420.242L85.376 245.504L31.3704 259.039Z" fill="url(#paint28_radial_1618_1760)" fill-opacity="0.4"/>
<path d="M31.3704 259.039L111.229 119.637L247.393 204.899L193.387 218.434L237.181 393.172L129.169 420.242L85.376 245.504L31.3704 259.039Z" stroke="url(#paint29_linear_1618_1760)"/>
</g>
<path d="M245.826 288.219C249.015 300.945 212.914 320.957 165.192 332.918C117.47 344.878 76.1975 344.257 73.0081 331.531" stroke="url(#paint30_linear_1618_1760)"/>
<path d="M250.502 306.877C253.692 319.603 217.591 339.615 169.868 351.576C122.146 363.536 80.8737 362.915 77.6843 350.189" stroke="url(#paint31_linear_1618_1760)"/>
<path d="M236.125 249.512C239.314 262.238 203.213 282.25 155.491 294.211C107.769 306.171 66.4965 305.55 63.3071 292.824" stroke="url(#paint32_linear_1618_1760)"/>
<path d="M240.802 268.172C243.991 280.898 207.89 300.91 160.168 312.871C112.445 324.831 71.1733 324.21 67.9839 311.484" stroke="url(#paint33_linear_1618_1760)"/>
<path d="M226.424 210.804C229.613 223.53 193.512 243.542 145.79 255.503C98.0677 267.463 56.7956 266.842 53.6062 254.116" stroke="url(#paint34_linear_1618_1760)"/>
<path d="M231.101 229.465C234.29 242.191 198.189 262.203 150.467 274.164C102.744 286.124 61.4724 285.503 58.283 272.777" stroke="url(#paint35_linear_1618_1760)"/>
<path fill-rule="evenodd" clip-rule="evenodd" d="M499.679 109.394C502.561 125.866 507.717 135.636 517.5 143.167C521.187 146.004 525.835 148.62 530.883 150.697C531.551 150.972 532.096 151.217 532.094 151.241C532.092 151.266 531.305 151.488 530.346 151.735C517.836 154.956 508.867 160.685 502.705 169.389C499.322 174.168 496.342 180.486 493.827 188.211C493.564 189.019 493.329 189.679 493.305 189.677C493.28 189.675 493.116 188.853 492.941 187.849C490.059 171.378 484.903 161.608 475.119 154.077C471.433 151.24 466.784 148.624 461.737 146.547C461.069 146.272 460.524 146.027 460.526 146.002C460.528 145.978 461.314 145.756 462.273 145.509C474.783 142.287 483.752 136.559 489.915 127.854C493.298 123.075 496.278 116.758 498.792 109.033C499.055 108.225 499.291 107.565 499.315 107.567C499.34 107.569 499.503 108.391 499.679 109.394Z" fill="url(#paint36_angular_1618_1760)"/>
<path d="M618.29 370.239C621.479 357.513 585.378 337.501 537.656 325.54C489.934 313.58 448.662 314.201 445.472 326.927" stroke="url(#paint37_linear_1618_1760)"/>
<path d="M613.614 388.897C616.803 376.171 580.702 356.159 532.98 344.199C485.257 332.238 443.985 332.859 440.796 345.585" stroke="url(#paint38_linear_1618_1760)"/>
<path d="M627.991 331.531C631.18 318.805 595.079 298.793 547.357 286.832C499.635 274.872 458.363 275.493 455.173 288.219" stroke="url(#paint39_linear_1618_1760)"/>
<path d="M623.315 350.19C626.504 337.464 590.403 317.452 542.681 305.492C494.958 293.531 453.686 294.152 450.497 306.878" stroke="url(#paint40_linear_1618_1760)"/>
<path d="M637.692 292.824C640.881 280.098 604.78 260.086 557.058 248.125C509.335 236.165 468.063 236.786 464.874 249.512" stroke="url(#paint41_linear_1618_1760)"/>
<path d="M633.015 311.484C636.205 298.758 600.104 278.746 552.381 266.786C504.659 254.825 463.387 255.446 460.198 268.172" stroke="url(#paint42_linear_1618_1760)"/>
<path d="M647.393 254.117C650.582 241.391 614.481 221.379 566.759 209.418C519.036 197.458 477.764 198.079 474.575 210.805" stroke="url(#paint43_linear_1618_1760)"/>
<path d="M642.716 272.777C645.905 260.051 609.804 240.039 562.082 228.079C514.36 216.118 473.088 216.739 469.898 229.465" stroke="url(#paint44_linear_1618_1760)"/>
<g filter="url(#filter2_b_1618_1760)">
<path d="M669.63 259.039L589.771 119.637L453.607 204.899L507.613 218.434L463.82 393.172L571.831 420.242L615.624 245.504L669.63 259.039Z" fill="url(#paint45_radial_1618_1760)" fill-opacity="0.4"/>
<path d="M669.63 259.039L589.771 119.637L453.607 204.899L507.613 218.434L463.82 393.172L571.831 420.242L615.624 245.504L669.63 259.039Z" stroke="url(#paint46_linear_1618_1760)"/>
</g>
<path d="M455.174 288.219C451.985 300.945 488.086 320.957 535.808 332.918C583.53 344.878 624.803 344.257 627.992 331.531" stroke="url(#paint47_linear_1618_1760)"/>
<path d="M450.498 306.877C447.308 319.603 483.409 339.615 531.132 351.576C578.854 363.536 620.126 362.915 623.316 350.189" stroke="url(#paint48_linear_1618_1760)"/>
<path d="M464.875 249.512C461.686 262.238 497.787 282.25 545.509 294.211C593.231 306.171 634.503 305.55 637.693 292.824" stroke="url(#paint49_linear_1618_1760)"/>
<path d="M460.199 268.172C457.009 280.898 493.11 300.91 540.832 312.871C588.555 324.831 629.827 324.21 633.016 311.484" stroke="url(#paint50_linear_1618_1760)"/>
<path d="M474.576 210.804C471.387 223.53 507.488 243.542 555.21 255.503C602.932 267.463 644.204 266.842 647.394 254.116" stroke="url(#paint51_linear_1618_1760)"/>
<path d="M469.899 229.465C466.71 242.191 502.811 262.203 550.533 274.164C598.256 286.124 639.528 285.503 642.717 272.777" stroke="url(#paint52_linear_1618_1760)"/>
<defs>
<filter id="filter0_b_1618_1760" x="167.338" y="-29.7217" width="364.906" height="463.287" filterUnits="userSpaceOnUse" color-interpolation-filters="sRGB">
<feFlood flood-opacity="0" result="BackgroundImageFix"/>
<feGaussianBlur in="BackgroundImage" stdDeviation="15"/>
<feComposite in2="SourceAlpha" operator="in" result="effect1_backgroundBlur_1618_1760"/>
<feBlend mode="normal" in="SourceGraphic" in2="effect1_backgroundBlur_1618_1760" result="shape"/>
</filter>
<filter id="filter1_b_1618_1760" x="0.352783" y="88.9375" width="278.301" height="361.911" filterUnits="userSpaceOnUse" color-interpolation-filters="sRGB">
<feFlood flood-opacity="0" result="BackgroundImageFix"/>
<feGaussianBlur in="BackgroundImage" stdDeviation="15"/>
<feComposite in2="SourceAlpha" operator="in" result="effect1_backgroundBlur_1618_1760"/>
<feBlend mode="normal" in="SourceGraphic" in2="effect1_backgroundBlur_1618_1760" result="shape"/>
</filter>
<filter id="filter2_b_1618_1760" x="422.346" y="88.9375" width="278.301" height="361.911" filterUnits="userSpaceOnUse" color-interpolation-filters="sRGB">
<feFlood flood-opacity="0" result="BackgroundImageFix"/>
<feGaussianBlur in="BackgroundImage" stdDeviation="15"/>
<feComposite in2="SourceAlpha" operator="in" result="effect1_backgroundBlur_1618_1760"/>
<feBlend mode="normal" in="SourceGraphic" in2="effect1_backgroundBlur_1618_1760" result="shape"/>
</filter>
<radialGradient id="paint0_angular_1618_1760" cx="0" cy="0" r="1" gradientUnits="userSpaceOnUse" gradientTransform="translate(463.382 70.0641) rotate(99.8798) scale(55.9253 48.7449)">
<stop stop-color="#363738"/>
<stop offset="1" stop-color="#353637" stop-opacity="0"/>
</radialGradient>
<linearGradient id="paint1_linear_1618_1760" x1="231.633" y1="304.761" x2="472.495" y2="309.891" gradientUnits="userSpaceOnUse">
<stop stop-opacity="0.4"/>
<stop offset="0.478947" stop-opacity="0"/>
<stop offset="1"/>
</linearGradient>
<linearGradient id="paint2_linear_1618_1760" x1="231.633" y1="330.894" x2="472.495" y2="336.024" gradientUnits="userSpaceOnUse">
<stop stop-opacity="0.4"/>
<stop offset="0.478947" stop-opacity="0"/>
<stop offset="1"/>
</linearGradient>
<linearGradient id="paint3_linear_1618_1760" x1="231.633" y1="250.548" x2="472.495" y2="255.678" gradientUnits="userSpaceOnUse">
<stop stop-opacity="0.4"/>
<stop offset="0.478947" stop-opacity="0"/>
<stop offset="1"/>
</linearGradient>
<linearGradient id="paint4_linear_1618_1760" x1="231.633" y1="276.681" x2="472.495" y2="281.811" gradientUnits="userSpaceOnUse">
<stop stop-opacity="0.4"/>
<stop offset="0.478947" stop-opacity="0"/>
<stop offset="1"/>
</linearGradient>
<linearGradient id="paint5_linear_1618_1760" x1="231.633" y1="196.335" x2="472.495" y2="201.465" gradientUnits="userSpaceOnUse">
<stop stop-opacity="0.4"/>
<stop offset="0.478947" stop-opacity="0"/>
<stop offset="1"/>
</linearGradient>
<linearGradient id="paint6_linear_1618_1760" x1="231.633" y1="222.47" x2="472.495" y2="227.6" gradientUnits="userSpaceOnUse">
<stop stop-opacity="0.4"/>
<stop offset="0.478947" stop-opacity="0"/>
<stop offset="1"/>
</linearGradient>
<linearGradient id="paint7_linear_1618_1760" x1="231.633" y1="142.122" x2="472.495" y2="147.252" gradientUnits="userSpaceOnUse">
<stop stop-opacity="0.4"/>
<stop offset="0.478947" stop-opacity="0"/>
<stop offset="1"/>
</linearGradient>
<linearGradient id="paint8_linear_1618_1760" x1="231.633" y1="168.258" x2="472.495" y2="173.388" gradientUnits="userSpaceOnUse">
<stop stop-opacity="0.4"/>
<stop offset="0.478947" stop-opacity="0"/>
<stop offset="1"/>
</linearGradient>
<radialGradient id="paint9_radial_1618_1760" cx="0" cy="0" r="1" gradientUnits="userSpaceOnUse" gradientTransform="translate(289.761 313.732) rotate(-53.3103) scale(339.676 255.609)">
<stop stop-color="#AF5F5F" stop-opacity="0.02"/>
<stop offset="1" stop-color="#AF5F5F"/>
</radialGradient>
<linearGradient id="paint10_linear_1618_1760" x1="498.331" y1="213.608" x2="197.118" y2="212.964" gradientUnits="userSpaceOnUse">
<stop stop-opacity="0.4"/>
<stop offset="0.478947" stop-opacity="0"/>
<stop offset="1"/>
</linearGradient>
<linearGradient id="paint11_linear_1618_1760" x1="469.296" y1="338.892" x2="228.433" y2="333.761" gradientUnits="userSpaceOnUse">
<stop stop-opacity="0.4"/>
<stop offset="0.478947" stop-opacity="0"/>
<stop offset="1"/>
</linearGradient>
<linearGradient id="paint12_linear_1618_1760" x1="469.296" y1="284.679" x2="228.433" y2="279.548" gradientUnits="userSpaceOnUse">
<stop stop-opacity="0.4"/>
<stop offset="0.478947" stop-opacity="0"/>
<stop offset="1"/>
</linearGradient>
<linearGradient id="paint13_linear_1618_1760" x1="469.296" y1="310.812" x2="228.433" y2="305.681" gradientUnits="userSpaceOnUse">
<stop stop-opacity="0.4"/>
<stop offset="0.478947" stop-opacity="0"/>
<stop offset="1"/>
</linearGradient>
<linearGradient id="paint14_linear_1618_1760" x1="469.296" y1="230.466" x2="228.433" y2="225.335" gradientUnits="userSpaceOnUse">
<stop stop-opacity="0.4"/>
<stop offset="0.478947" stop-opacity="0"/>
<stop offset="1"/>
</linearGradient>
<linearGradient id="paint15_linear_1618_1760" x1="469.296" y1="256.601" x2="228.433" y2="251.47" gradientUnits="userSpaceOnUse">
<stop stop-opacity="0.4"/>
<stop offset="0.478947" stop-opacity="0"/>
<stop offset="1"/>
</linearGradient>
<linearGradient id="paint16_linear_1618_1760" x1="469.296" y1="176.253" x2="228.433" y2="171.123" gradientUnits="userSpaceOnUse">
<stop stop-opacity="0.4"/>
<stop offset="0.478947" stop-opacity="0"/>
<stop offset="1"/>
</linearGradient>
<linearGradient id="paint17_linear_1618_1760" x1="469.296" y1="202.389" x2="228.433" y2="197.258" gradientUnits="userSpaceOnUse">
<stop stop-opacity="0.4"/>
<stop offset="0.478947" stop-opacity="0"/>
<stop offset="1"/>
</linearGradient>
<radialGradient id="paint18_angular_1618_1760" cx="0" cy="0" r="1" gradientUnits="userSpaceOnUse" gradientTransform="translate(220.457 321.742) rotate(67.8634) scale(34.1646 29.7781)">
<stop stop-color="#363738"/>
<stop offset="1" stop-color="#353637" stop-opacity="0"/>
</radialGradient>
<radialGradient id="paint19_angular_1618_1760" cx="0" cy="0" r="1" gradientUnits="userSpaceOnUse" gradientTransform="translate(204.69 148.622) rotate(85.81) scale(41.1649 35.8797)">
<stop stop-color="#363738"/>
<stop offset="1" stop-color="#353637" stop-opacity="0"/>
</radialGradient>
<linearGradient id="paint20_linear_1618_1760" x1="81.2204" y1="357.662" x2="254.111" y2="318.225" gradientUnits="userSpaceOnUse">
<stop stop-opacity="0.4"/>
<stop offset="0.478947" stop-opacity="0"/>
<stop offset="1"/>
</linearGradient>
<linearGradient id="paint21_linear_1618_1760" x1="85.8967" y1="376.321" x2="258.788" y2="336.883" gradientUnits="userSpaceOnUse">
<stop stop-opacity="0.4"/>
<stop offset="0.478947" stop-opacity="0"/>
<stop offset="1"/>
</linearGradient>
<linearGradient id="paint22_linear_1618_1760" x1="71.5195" y1="318.954" x2="244.411" y2="279.517" gradientUnits="userSpaceOnUse">
<stop stop-opacity="0.4"/>
<stop offset="0.478947" stop-opacity="0"/>
<stop offset="1"/>
</linearGradient>
<linearGradient id="paint23_linear_1618_1760" x1="76.1957" y1="337.614" x2="249.087" y2="298.176" gradientUnits="userSpaceOnUse">
<stop stop-opacity="0.4"/>
<stop offset="0.478947" stop-opacity="0"/>
<stop offset="1"/>
</linearGradient>
<linearGradient id="paint24_linear_1618_1760" x1="61.8185" y1="280.247" x2="234.71" y2="240.81" gradientUnits="userSpaceOnUse">
<stop stop-opacity="0.4"/>
<stop offset="0.478947" stop-opacity="0"/>
<stop offset="1"/>
</linearGradient>
<linearGradient id="paint25_linear_1618_1760" x1="66.4951" y1="298.907" x2="239.386" y2="259.47" gradientUnits="userSpaceOnUse">
<stop stop-opacity="0.4"/>
<stop offset="0.478947" stop-opacity="0"/>
<stop offset="1"/>
</linearGradient>
<linearGradient id="paint26_linear_1618_1760" x1="52.1176" y1="241.54" x2="225.009" y2="202.103" gradientUnits="userSpaceOnUse">
<stop stop-opacity="0.4"/>
<stop offset="0.478947" stop-opacity="0"/>
<stop offset="1"/>
</linearGradient>
<linearGradient id="paint27_linear_1618_1760" x1="56.7944" y1="260.2" x2="229.685" y2="220.763" gradientUnits="userSpaceOnUse">
<stop stop-opacity="0.4"/>
<stop offset="0.478947" stop-opacity="0"/>
<stop offset="1"/>
</linearGradient>
<radialGradient id="paint28_radial_1618_1760" cx="0" cy="0" r="1" gradientUnits="userSpaceOnUse" gradientTransform="translate(124.329 353.666) rotate(-67.3801) scale(250.025 188.146)">
<stop stop-color="#AF5F5F" stop-opacity="0.02"/>
<stop offset="1" stop-color="#AF5F5F"/>
</radialGradient>
<linearGradient id="paint29_linear_1618_1760" x1="255.329" y1="244.856" x2="40.1514" y2="298.296" gradientUnits="userSpaceOnUse">
<stop stop-opacity="0.4"/>
<stop offset="0.478947" stop-opacity="0"/>
<stop offset="1"/>
</linearGradient>
<linearGradient id="paint30_linear_1618_1760" x1="247.316" y1="300.796" x2="74.4247" y2="340.233" gradientUnits="userSpaceOnUse">
<stop stop-opacity="0.4"/>
<stop offset="0.478947" stop-opacity="0"/>
<stop offset="1"/>
</linearGradient>
<linearGradient id="paint31_linear_1618_1760" x1="251.992" y1="319.454" x2="79.101" y2="358.891" gradientUnits="userSpaceOnUse">
<stop stop-opacity="0.4"/>
<stop offset="0.478947" stop-opacity="0"/>
<stop offset="1"/>
</linearGradient>
<linearGradient id="paint32_linear_1618_1760" x1="237.615" y1="262.089" x2="64.7238" y2="301.526" gradientUnits="userSpaceOnUse">
<stop stop-opacity="0.4"/>
<stop offset="0.478947" stop-opacity="0"/>
<stop offset="1"/>
</linearGradient>
<linearGradient id="paint33_linear_1618_1760" x1="242.292" y1="280.749" x2="69.4005" y2="320.186" gradientUnits="userSpaceOnUse">
<stop stop-opacity="0.4"/>
<stop offset="0.478947" stop-opacity="0"/>
<stop offset="1"/>
</linearGradient>
<linearGradient id="paint34_linear_1618_1760" x1="227.914" y1="223.381" x2="55.0228" y2="262.818" gradientUnits="userSpaceOnUse">
<stop stop-opacity="0.4"/>
<stop offset="0.478947" stop-opacity="0"/>
<stop offset="1"/>
</linearGradient>
<linearGradient id="paint35_linear_1618_1760" x1="232.591" y1="242.042" x2="59.6996" y2="281.479" gradientUnits="userSpaceOnUse">
<stop stop-opacity="0.4"/>
<stop offset="0.478947" stop-opacity="0"/>
<stop offset="1"/>
</linearGradient>
<radialGradient id="paint36_angular_1618_1760" cx="0" cy="0" r="1" gradientUnits="userSpaceOnUse" gradientTransform="translate(496.31 148.622) rotate(94.19) scale(41.1649 35.8797)">
<stop stop-color="#363738"/>
<stop offset="1" stop-color="#353637" stop-opacity="0"/>
</radialGradient>
<linearGradient id="paint37_linear_1618_1760" x1="619.78" y1="357.662" x2="446.889" y2="318.225" gradientUnits="userSpaceOnUse">
<stop stop-opacity="0.4"/>
<stop offset="0.478947" stop-opacity="0"/>
<stop offset="1"/>
</linearGradient>
<linearGradient id="paint38_linear_1618_1760" x1="615.104" y1="376.321" x2="442.213" y2="336.883" gradientUnits="userSpaceOnUse">
<stop stop-opacity="0.4"/>
<stop offset="0.478947" stop-opacity="0"/>
<stop offset="1"/>
</linearGradient>
<linearGradient id="paint39_linear_1618_1760" x1="629.481" y1="318.954" x2="456.59" y2="279.517" gradientUnits="userSpaceOnUse">
<stop stop-opacity="0.4"/>
<stop offset="0.478947" stop-opacity="0"/>
<stop offset="1"/>
</linearGradient>
<linearGradient id="paint40_linear_1618_1760" x1="624.804" y1="337.614" x2="451.913" y2="298.176" gradientUnits="userSpaceOnUse">
<stop stop-opacity="0.4"/>
<stop offset="0.478947" stop-opacity="0"/>
<stop offset="1"/>
</linearGradient>
<linearGradient id="paint41_linear_1618_1760" x1="639.181" y1="280.247" x2="466.29" y2="240.81" gradientUnits="userSpaceOnUse">
<stop stop-opacity="0.4"/>
<stop offset="0.478947" stop-opacity="0"/>
<stop offset="1"/>
</linearGradient>
<linearGradient id="paint42_linear_1618_1760" x1="634.505" y1="298.907" x2="461.614" y2="259.47" gradientUnits="userSpaceOnUse">
<stop stop-opacity="0.4"/>
<stop offset="0.478947" stop-opacity="0"/>
<stop offset="1"/>
</linearGradient>
<linearGradient id="paint43_linear_1618_1760" x1="648.883" y1="241.54" x2="475.992" y2="202.103" gradientUnits="userSpaceOnUse">
<stop stop-opacity="0.4"/>
<stop offset="0.478947" stop-opacity="0"/>
<stop offset="1"/>
</linearGradient>
<linearGradient id="paint44_linear_1618_1760" x1="644.206" y1="260.2" x2="471.315" y2="220.763" gradientUnits="userSpaceOnUse">
<stop stop-opacity="0.4"/>
<stop offset="0.478947" stop-opacity="0"/>
<stop offset="1"/>
</linearGradient>
<radialGradient id="paint45_radial_1618_1760" cx="0" cy="0" r="1" gradientUnits="userSpaceOnUse" gradientTransform="translate(576.671 353.666) rotate(-112.62) scale(250.025 188.146)">
<stop stop-color="#AF5F5F" stop-opacity="0.02"/>
<stop offset="1" stop-color="#AF5F5F"/>
</radialGradient>
<linearGradient id="paint46_linear_1618_1760" x1="445.671" y1="244.856" x2="660.849" y2="298.296" gradientUnits="userSpaceOnUse">
<stop stop-opacity="0.4"/>
<stop offset="0.478947" stop-opacity="0"/>
<stop offset="1"/>
</linearGradient>
<linearGradient id="paint47_linear_1618_1760" x1="453.684" y1="300.796" x2="626.575" y2="340.233" gradientUnits="userSpaceOnUse">
<stop stop-opacity="0.4"/>
<stop offset="0.478947" stop-opacity="0"/>
<stop offset="1"/>
</linearGradient>
<linearGradient id="paint48_linear_1618_1760" x1="449.008" y1="319.454" x2="621.899" y2="358.891" gradientUnits="userSpaceOnUse">
<stop stop-opacity="0.4"/>
<stop offset="0.478947" stop-opacity="0"/>
<stop offset="1"/>
</linearGradient>
<linearGradient id="paint49_linear_1618_1760" x1="463.385" y1="262.089" x2="636.276" y2="301.526" gradientUnits="userSpaceOnUse">
<stop stop-opacity="0.4"/>
<stop offset="0.478947" stop-opacity="0"/>
<stop offset="1"/>
</linearGradient>
<linearGradient id="paint50_linear_1618_1760" x1="458.709" y1="280.749" x2="631.6" y2="320.186" gradientUnits="userSpaceOnUse">
<stop stop-opacity="0.4"/>
<stop offset="0.478947" stop-opacity="0"/>
<stop offset="1"/>
</linearGradient>
<linearGradient id="paint51_linear_1618_1760" x1="473.086" y1="223.381" x2="645.977" y2="262.818" gradientUnits="userSpaceOnUse">
<stop stop-opacity="0.4"/>
<stop offset="0.478947" stop-opacity="0"/>
<stop offset="1"/>
</linearGradient>
<linearGradient id="paint52_linear_1618_1760" x1="468.409" y1="242.042" x2="641.3" y2="281.479" gradientUnits="userSpaceOnUse">
<stop stop-opacity="0.4"/>
<stop offset="0.478947" stop-opacity="0"/>
<stop offset="1"/>
</linearGradient>
</defs>
</svg>
