<svg width="130" height="120" viewBox="0 0 130 120" fill="none" xmlns="http://www.w3.org/2000/svg">
<mask id="path-1-inside-1_1663_5449" fill="white">
<path fill-rule="evenodd" clip-rule="evenodd" d="M65.1804 121.369C64.2227 121.369 63.3042 120.989 62.6269 120.312C61.9497 119.634 61.5693 118.716 61.5693 117.758V107.319L57.4167 111.511C56.7401 112.184 55.8248 112.561 54.8708 112.561C53.9168 112.561 53.0016 112.184 52.325 111.511C51.9865 111.175 51.7179 110.776 51.5346 110.336C51.3512 109.896 51.2568 109.424 51.2568 108.947C51.2568 108.47 51.3512 107.998 51.5346 107.558C51.7179 107.118 51.9865 106.719 52.325 106.383L61.5693 97.0863V71.0015L38.6924 84.1997L35.2805 96.8499C35.0617 97.6 34.6056 98.2588 33.9805 98.7276C33.3554 99.1964 32.5952 99.4499 31.8138 99.4499C31.5033 99.5045 31.1855 99.5045 30.875 99.4499C29.9517 99.2041 29.1636 98.6024 28.683 97.7767C28.2025 96.951 28.0687 95.9684 28.3111 95.0443L29.8569 89.2971L19.6446 95.1888C19.0977 95.5134 18.4749 95.6878 17.839 95.6944C17.0394 95.7 16.2606 95.44 15.6247 94.9553C14.9888 94.4706 14.5317 93.7886 14.3252 93.0161C14.1187 92.2437 14.1743 91.4245 14.4835 90.6871C14.7926 89.9497 15.3378 89.3358 16.0334 88.9416L25.9985 83.1925L20.6555 81.7554C20.1792 81.639 19.7316 81.4268 19.34 81.1317C18.9483 80.8367 18.6209 80.4649 18.3776 80.0392C18.1344 79.6135 17.9803 79.1427 17.925 78.6555C17.8696 78.1683 17.914 77.6749 18.0555 77.2054C18.177 76.7444 18.3886 76.3119 18.6781 75.9331C18.9676 75.5542 19.3292 75.2364 19.7421 74.998C20.1551 74.7597 20.6112 74.6055 21.084 74.5443C21.5569 74.4831 22.0372 74.5161 22.4972 74.6415L34.9086 78.0521L57.4962 65.0208L34.8629 51.9631L22.5333 55.3582C22.2532 55.4492 21.9611 55.4978 21.6666 55.5026C20.7089 55.6271 19.7409 55.3661 18.9757 54.7769C18.2104 54.1877 17.7106 53.3187 17.5861 52.361C17.4616 51.4032 17.7226 50.4353 18.3118 49.67C18.901 48.9048 19.77 48.4049 20.7277 48.2804L26.0148 46.8584L15.9611 41.0582C15.1376 40.5696 14.5418 39.774 14.3048 38.8463C14.0678 37.9185 14.2089 36.9346 14.6972 36.111C14.9361 35.7002 15.2538 35.3406 15.6319 35.0528C16.0101 34.7651 16.4414 34.5548 16.901 34.434C17.3606 34.3132 17.8395 34.2844 18.3103 34.349C18.781 34.4137 19.2344 34.5707 19.6444 34.811L29.8704 40.7106L28.3111 35.1359C28.169 34.6726 28.1217 34.1854 28.1719 33.7034C28.2221 33.2213 28.3689 32.7543 28.6034 32.3302C28.8379 31.9061 29.1553 31.5335 29.5369 31.2347C29.9184 30.9358 30.3562 30.7168 30.8241 30.5908C31.2921 30.4647 31.7806 30.4341 32.2607 30.5008C32.7407 30.5675 33.2024 30.7302 33.6182 30.9791C34.034 31.228 34.3955 31.558 34.6811 31.9496C34.9667 32.3411 35.1705 32.7862 35.2805 33.2582L38.6829 45.7947L61.5693 58.9984V32.7266L52.4334 23.6165C51.7608 22.9399 51.3833 22.0247 51.3833 21.0707C51.3833 20.1166 51.7608 19.2014 52.4334 18.5248C53.11 17.8522 54.0252 17.4747 54.9792 17.4747C55.9332 17.4747 56.8485 17.8522 57.5251 18.5248L61.5693 22.5501V12.1694C61.4488 11.6405 61.4489 11.0913 61.5697 10.5626C61.6906 10.0338 61.9289 9.53903 62.2672 9.11502C62.6054 8.69101 63.0349 8.34864 63.5236 8.11334C64.0123 7.87805 64.5477 7.75586 65.0901 7.75586C65.6325 7.75586 66.1679 7.87805 66.6566 8.11334C67.1453 8.34864 67.5748 8.69101 67.913 9.11502C68.2513 9.53903 68.4897 10.0338 68.6105 10.5626C68.7313 11.0913 68.7315 11.6405 68.6109 12.1694V22.7862L72.8723 18.5248C73.5489 17.8522 74.4641 17.4747 75.4181 17.4747C76.3721 17.4747 77.2874 17.8522 77.964 18.5248C78.6365 19.2014 79.014 20.1166 79.014 21.0707C79.014 22.0247 78.6365 22.9399 77.964 23.6165L68.6109 32.9695V58.6084L90.8282 45.7908L94.214 33.1138C94.3078 32.6186 94.5042 32.1485 94.7906 31.7337C95.077 31.319 95.4471 30.9688 95.877 30.7057C96.3069 30.4426 96.7871 30.2724 97.2868 30.2061C97.7864 30.1398 98.2944 30.1787 98.778 30.3206C99.2617 30.4624 99.7103 30.7038 100.095 31.0295C100.48 31.3551 100.792 31.7576 101.012 32.2112C101.232 32.6648 101.354 33.1593 101.371 33.6631C101.388 34.1668 101.3 34.6685 101.111 35.136L99.6016 40.7292L109.922 34.7749C110.747 34.3011 111.726 34.1719 112.645 34.4153C113.565 34.6587 114.351 35.2551 114.833 36.0749C115.074 36.4849 115.231 36.9383 115.295 37.4091C115.36 37.8799 115.331 38.3588 115.21 38.8184C115.09 39.278 114.879 39.7093 114.592 40.0874C114.304 40.4656 113.944 40.7832 113.533 41.0222L103.309 46.9208L108.767 48.3888C109.725 48.5133 110.594 49.0131 111.183 49.7784C111.772 50.5436 112.033 51.5116 111.908 52.4693C111.784 53.427 111.284 54.2961 110.519 54.8853C109.754 55.4744 108.786 55.7355 107.828 55.611L107.9 55.5026C107.589 55.5526 107.272 55.5526 106.961 55.5026L94.549 51.9747L71.972 64.9999L94.6346 78.0745L106.961 74.7499C107.425 74.6079 107.912 74.5605 108.394 74.6107C108.876 74.661 109.343 74.8077 109.767 75.0422C110.191 75.2767 110.564 75.5942 110.862 75.9757C111.161 76.3572 111.38 76.795 111.506 77.263C111.632 77.7309 111.663 78.2195 111.596 78.6995C111.53 79.1795 111.367 79.6412 111.118 80.057C110.869 80.4729 110.539 80.8344 110.148 81.1199C109.756 81.4055 109.311 81.6094 108.839 81.7193L103.46 83.1661L113.533 88.9776C114.229 89.3718 114.774 89.9858 115.083 90.7232C115.392 91.4606 115.448 92.2797 115.242 93.0522C115.035 93.8246 114.578 94.5067 113.942 94.9914C113.306 95.4761 112.527 95.736 111.728 95.7304L111.656 95.6943C111.023 95.6987 110.4 95.5368 109.85 95.2249L99.6606 89.3464L101.183 95.0082C101.426 95.9324 101.292 96.9149 100.812 97.7406C100.331 98.5663 99.5428 99.168 98.6196 99.4138C98.3111 99.4804 97.9933 99.4927 97.6807 99.4499C96.8606 99.4759 96.0562 99.2218 95.3998 98.7295C94.7434 98.2372 94.2743 97.5361 94.0695 96.7416L90.8067 84.2383L68.6109 71.4331V97.2367L77.7833 106.383C78.1218 106.719 78.3904 107.118 78.5738 107.558C78.7571 107.998 78.8515 108.47 78.8515 108.947C78.8515 109.424 78.7571 109.896 78.5738 110.336C78.3904 110.776 78.1218 111.175 77.7833 111.511C77.1196 112.169 76.2265 112.545 75.2917 112.558C74.3443 112.554 73.4365 112.178 72.7639 111.511L68.6109 107.416V117.83C68.5938 118.745 68.2301 119.619 67.5933 120.276C66.9565 120.933 66.0941 121.324 65.1804 121.369Z"/>
</mask>
<path fill-rule="evenodd" clip-rule="evenodd" d="M65.1804 121.369C64.2227 121.369 63.3042 120.989 62.6269 120.312C61.9497 119.634 61.5693 118.716 61.5693 117.758V107.319L57.4167 111.511C56.7401 112.184 55.8248 112.561 54.8708 112.561C53.9168 112.561 53.0016 112.184 52.325 111.511C51.9865 111.175 51.7179 110.776 51.5346 110.336C51.3512 109.896 51.2568 109.424 51.2568 108.947C51.2568 108.47 51.3512 107.998 51.5346 107.558C51.7179 107.118 51.9865 106.719 52.325 106.383L61.5693 97.0863V71.0015L38.6924 84.1997L35.2805 96.8499C35.0617 97.6 34.6056 98.2588 33.9805 98.7276C33.3554 99.1964 32.5952 99.4499 31.8138 99.4499C31.5033 99.5045 31.1855 99.5045 30.875 99.4499C29.9517 99.2041 29.1636 98.6024 28.683 97.7767C28.2025 96.951 28.0687 95.9684 28.3111 95.0443L29.8569 89.2971L19.6446 95.1888C19.0977 95.5134 18.4749 95.6878 17.839 95.6944C17.0394 95.7 16.2606 95.44 15.6247 94.9553C14.9888 94.4706 14.5317 93.7886 14.3252 93.0161C14.1187 92.2437 14.1743 91.4245 14.4835 90.6871C14.7926 89.9497 15.3378 89.3358 16.0334 88.9416L25.9985 83.1925L20.6555 81.7554C20.1792 81.639 19.7316 81.4268 19.34 81.1317C18.9483 80.8367 18.6209 80.4649 18.3776 80.0392C18.1344 79.6135 17.9803 79.1427 17.925 78.6555C17.8696 78.1683 17.914 77.6749 18.0555 77.2054C18.177 76.7444 18.3886 76.3119 18.6781 75.9331C18.9676 75.5542 19.3292 75.2364 19.7421 74.998C20.1551 74.7597 20.6112 74.6055 21.084 74.5443C21.5569 74.4831 22.0372 74.5161 22.4972 74.6415L34.9086 78.0521L57.4962 65.0208L34.8629 51.9631L22.5333 55.3582C22.2532 55.4492 21.9611 55.4978 21.6666 55.5026C20.7089 55.6271 19.7409 55.3661 18.9757 54.7769C18.2104 54.1877 17.7106 53.3187 17.5861 52.361C17.4616 51.4032 17.7226 50.4353 18.3118 49.67C18.901 48.9048 19.77 48.4049 20.7277 48.2804L26.0148 46.8584L15.9611 41.0582C15.1376 40.5696 14.5418 39.774 14.3048 38.8463C14.0678 37.9185 14.2089 36.9346 14.6972 36.111C14.9361 35.7002 15.2538 35.3406 15.6319 35.0528C16.0101 34.7651 16.4414 34.5548 16.901 34.434C17.3606 34.3132 17.8395 34.2844 18.3103 34.349C18.781 34.4137 19.2344 34.5707 19.6444 34.811L29.8704 40.7106L28.3111 35.1359C28.169 34.6726 28.1217 34.1854 28.1719 33.7034C28.2221 33.2213 28.3689 32.7543 28.6034 32.3302C28.8379 31.9061 29.1553 31.5335 29.5369 31.2347C29.9184 30.9358 30.3562 30.7168 30.8241 30.5908C31.2921 30.4647 31.7806 30.4341 32.2607 30.5008C32.7407 30.5675 33.2024 30.7302 33.6182 30.9791C34.034 31.228 34.3955 31.558 34.6811 31.9496C34.9667 32.3411 35.1705 32.7862 35.2805 33.2582L38.6829 45.7947L61.5693 58.9984V32.7266L52.4334 23.6165C51.7608 22.9399 51.3833 22.0247 51.3833 21.0707C51.3833 20.1166 51.7608 19.2014 52.4334 18.5248C53.11 17.8522 54.0252 17.4747 54.9792 17.4747C55.9332 17.4747 56.8485 17.8522 57.5251 18.5248L61.5693 22.5501V12.1694C61.4488 11.6405 61.4489 11.0913 61.5697 10.5626C61.6906 10.0338 61.9289 9.53903 62.2672 9.11502C62.6054 8.69101 63.0349 8.34864 63.5236 8.11334C64.0123 7.87805 64.5477 7.75586 65.0901 7.75586C65.6325 7.75586 66.1679 7.87805 66.6566 8.11334C67.1453 8.34864 67.5748 8.69101 67.913 9.11502C68.2513 9.53903 68.4897 10.0338 68.6105 10.5626C68.7313 11.0913 68.7315 11.6405 68.6109 12.1694V22.7862L72.8723 18.5248C73.5489 17.8522 74.4641 17.4747 75.4181 17.4747C76.3721 17.4747 77.2874 17.8522 77.964 18.5248C78.6365 19.2014 79.014 20.1166 79.014 21.0707C79.014 22.0247 78.6365 22.9399 77.964 23.6165L68.6109 32.9695V58.6084L90.8282 45.7908L94.214 33.1138C94.3078 32.6186 94.5042 32.1485 94.7906 31.7337C95.077 31.319 95.4471 30.9688 95.877 30.7057C96.3069 30.4426 96.7871 30.2724 97.2868 30.2061C97.7864 30.1398 98.2944 30.1787 98.778 30.3206C99.2617 30.4624 99.7103 30.7038 100.095 31.0295C100.48 31.3551 100.792 31.7576 101.012 32.2112C101.232 32.6648 101.354 33.1593 101.371 33.6631C101.388 34.1668 101.3 34.6685 101.111 35.136L99.6016 40.7292L109.922 34.7749C110.747 34.3011 111.726 34.1719 112.645 34.4153C113.565 34.6587 114.351 35.2551 114.833 36.0749C115.074 36.4849 115.231 36.9383 115.295 37.4091C115.36 37.8799 115.331 38.3588 115.21 38.8184C115.09 39.278 114.879 39.7093 114.592 40.0874C114.304 40.4656 113.944 40.7832 113.533 41.0222L103.309 46.9208L108.767 48.3888C109.725 48.5133 110.594 49.0131 111.183 49.7784C111.772 50.5436 112.033 51.5116 111.908 52.4693C111.784 53.427 111.284 54.2961 110.519 54.8853C109.754 55.4744 108.786 55.7355 107.828 55.611L107.9 55.5026C107.589 55.5526 107.272 55.5526 106.961 55.5026L94.549 51.9747L71.972 64.9999L94.6346 78.0745L106.961 74.7499C107.425 74.6079 107.912 74.5605 108.394 74.6107C108.876 74.661 109.343 74.8077 109.767 75.0422C110.191 75.2767 110.564 75.5942 110.862 75.9757C111.161 76.3572 111.38 76.795 111.506 77.263C111.632 77.7309 111.663 78.2195 111.596 78.6995C111.53 79.1795 111.367 79.6412 111.118 80.057C110.869 80.4729 110.539 80.8344 110.148 81.1199C109.756 81.4055 109.311 81.6094 108.839 81.7193L103.46 83.1661L113.533 88.9776C114.229 89.3718 114.774 89.9858 115.083 90.7232C115.392 91.4606 115.448 92.2797 115.242 93.0522C115.035 93.8246 114.578 94.5067 113.942 94.9914C113.306 95.4761 112.527 95.736 111.728 95.7304L111.656 95.6943C111.023 95.6987 110.4 95.5368 109.85 95.2249L99.6606 89.3464L101.183 95.0082C101.426 95.9324 101.292 96.9149 100.812 97.7406C100.331 98.5663 99.5428 99.168 98.6196 99.4138C98.3111 99.4804 97.9933 99.4927 97.6807 99.4499C96.8606 99.4759 96.0562 99.2218 95.3998 98.7295C94.7434 98.2372 94.2743 97.5361 94.0695 96.7416L90.8067 84.2383L68.6109 71.4331V97.2367L77.7833 106.383C78.1218 106.719 78.3904 107.118 78.5738 107.558C78.7571 107.998 78.8515 108.47 78.8515 108.947C78.8515 109.424 78.7571 109.896 78.5738 110.336C78.3904 110.776 78.1218 111.175 77.7833 111.511C77.1196 112.169 76.2265 112.545 75.2917 112.558C74.3443 112.554 73.4365 112.178 72.7639 111.511L68.6109 107.416V117.83C68.5938 118.745 68.2301 119.619 67.5933 120.276C66.9565 120.933 66.0941 121.324 65.1804 121.369Z" fill="url(#paint0_radial_1663_5449)" fill-opacity="0.6"/>
<path d="M62.6269 120.312L61.9198 121.019L62.6269 120.312ZM65.1804 121.369V122.369H65.2053L65.2302 122.368L65.1804 121.369ZM61.5693 107.319H62.5693V104.888L60.8588 106.615L61.5693 107.319ZM57.4167 111.511L58.1217 112.22L58.1271 112.215L57.4167 111.511ZM52.325 111.511L53.03 110.802L53.0292 110.801L52.325 111.511ZM51.5346 110.336L52.4577 109.951L52.4576 109.951L51.5346 110.336ZM51.5346 107.558L52.4576 107.943L51.5346 107.558ZM52.325 106.383L53.0292 107.093L53.0341 107.088L52.325 106.383ZM61.5693 97.0863L62.2784 97.7913L62.5693 97.4988V97.0863H61.5693ZM61.5693 71.0015H62.5693V69.2701L61.0696 70.1353L61.5693 71.0015ZM38.6924 84.1997L38.1927 83.3335L37.8345 83.5401L37.7269 83.9393L38.6924 84.1997ZM35.2805 96.8499L36.2405 97.1299L36.2434 97.1201L36.246 97.1103L35.2805 96.8499ZM33.9805 98.7276L33.3805 97.9276L33.3805 97.9277L33.9805 98.7276ZM31.8138 99.4499V98.4499H31.7265L31.6405 98.465L31.8138 99.4499ZM30.875 99.4499L30.6177 100.416L30.6593 100.427L30.7016 100.435L30.875 99.4499ZM28.683 97.7767L29.5473 97.2737H29.5473L28.683 97.7767ZM28.3111 95.0443L27.3454 94.7846L27.3438 94.7906L28.3111 95.0443ZM29.8569 89.2971L30.8225 89.5568L31.4502 87.2234L29.3571 88.4309L29.8569 89.2971ZM19.6446 95.1888L19.1448 94.3226L19.1342 94.3289L19.6446 95.1888ZM17.839 95.6944L17.846 96.6944L17.8494 96.6943L17.839 95.6944ZM15.6247 94.9553L15.0185 95.7506L15.6247 94.9553ZM14.3252 93.0161L13.3591 93.2744H13.3591L14.3252 93.0161ZM14.4835 90.6871L15.4057 91.0738L14.4835 90.6871ZM16.0334 88.9416L16.5265 89.8116L16.5332 89.8078L16.0334 88.9416ZM25.9985 83.1925L26.4982 84.0587L28.5876 82.8533L26.2583 82.2268L25.9985 83.1925ZM20.6555 81.7554L20.9152 80.7897L20.9041 80.7868L20.893 80.784L20.6555 81.7554ZM19.34 81.1317L19.9417 80.333H19.9417L19.34 81.1317ZM18.3776 80.0392L17.5094 80.5353H17.5094L18.3776 80.0392ZM18.0555 77.2054L19.013 77.494L19.018 77.4772L19.0225 77.4602L18.0555 77.2054ZM19.7421 74.998L19.2422 74.132H19.2422L19.7421 74.998ZM21.084 74.5443L21.2123 75.536H21.2124L21.084 74.5443ZM22.4972 74.6415L22.7621 73.6773L22.7602 73.6768L22.4972 74.6415ZM34.9086 78.0521L34.6436 79.0164L35.0464 79.1271L35.4083 78.9183L34.9086 78.0521ZM57.4962 65.0208L57.996 65.8869L59.4973 65.0208L57.996 64.1546L57.4962 65.0208ZM34.8629 51.9631L35.3626 51.0969L35.0005 50.888L34.5974 50.9989L34.8629 51.9631ZM22.5333 55.3582L22.2678 54.3941L22.2459 54.4001L22.2244 54.4071L22.5333 55.3582ZM21.6666 55.5026L21.6504 54.5028L21.5938 54.5037L21.5377 54.511L21.6666 55.5026ZM18.9757 54.7769L18.3656 55.5693H18.3656L18.9757 54.7769ZM17.5861 52.361L16.5944 52.4899L17.5861 52.361ZM18.3118 49.67L17.5194 49.06H17.5194L18.3118 49.67ZM20.7277 48.2804L20.8566 49.2721L20.9229 49.2634L20.9875 49.2461L20.7277 48.2804ZM26.0148 46.8584L26.2745 47.824L28.6038 47.1975L26.5145 45.9922L26.0148 46.8584ZM15.9611 41.0582L15.4509 41.9183L15.4614 41.9244L15.9611 41.0582ZM14.6972 36.111L15.5574 36.6209L15.5616 36.6137L14.6972 36.111ZM16.901 34.434L17.1551 35.4012V35.4012L16.901 34.434ZM19.6444 34.811L19.1388 35.6738L19.1447 35.6771L19.6444 34.811ZM29.8704 40.7106L29.3707 41.5767L31.4937 42.8015L30.8334 40.4412L29.8704 40.7106ZM28.3111 35.1359L29.2741 34.8666L29.2708 34.8547L29.2671 34.8428L28.3111 35.1359ZM28.1719 33.7034L27.1773 33.5997L27.1773 33.5997L28.1719 33.7034ZM28.6034 32.3302L29.4785 32.8141L29.4785 32.8141L28.6034 32.3302ZM29.5369 31.2347L28.9203 30.4474L28.9202 30.4474L29.5369 31.2347ZM33.6182 30.9791L33.1046 31.8371H33.1046L33.6182 30.9791ZM34.6811 31.9496L35.489 31.3603L34.6811 31.9496ZM35.2805 33.2582L34.3066 33.4851L34.3107 33.5027L34.3154 33.5201L35.2805 33.2582ZM38.6829 45.7947L37.7178 46.0566L37.8259 46.4547L38.1832 46.6609L38.6829 45.7947ZM61.5693 58.9984L61.0696 59.8646L62.5693 60.7298V58.9984H61.5693ZM61.5693 32.7266H62.5693V32.3115L62.2754 32.0185L61.5693 32.7266ZM52.4334 23.6165L51.7242 24.3215L51.7273 24.3246L52.4334 23.6165ZM52.4334 18.5248L51.7284 17.8156L51.7242 17.8198L52.4334 18.5248ZM57.5251 18.5248L58.2305 17.816L58.2301 17.8156L57.5251 18.5248ZM61.5693 22.5501L60.8638 23.2588L62.5693 24.9563V22.5501H61.5693ZM61.5693 12.1694H62.5693V12.0569L62.5443 11.9472L61.5693 12.1694ZM61.5697 10.5626L62.5446 10.7853V10.7853L61.5697 10.5626ZM63.5236 8.11334L63.9574 9.01435L63.9574 9.01435L63.5236 8.11334ZM66.6566 8.11334L66.2228 9.01435L66.2228 9.01435L66.6566 8.11334ZM68.6105 10.5626L67.6356 10.7853V10.7853L68.6105 10.5626ZM68.6109 12.1694L67.6359 11.9472L67.6109 12.0569V12.1694H68.6109ZM68.6109 22.7862H67.6109V25.2004L69.318 23.4933L68.6109 22.7862ZM72.8723 18.5248L72.1673 17.8156L72.1652 17.8177L72.8723 18.5248ZM77.964 18.5248L78.6732 17.8198L78.669 17.8156L77.964 18.5248ZM77.964 23.6165L78.6711 24.3236L78.6732 24.3215L77.964 23.6165ZM68.6109 32.9695L67.9038 32.2624L67.6109 32.5553V32.9695H68.6109ZM68.6109 58.6084H67.6109V60.3398L69.1107 59.4746L68.6109 58.6084ZM90.8282 45.7908L91.3279 46.657L91.6873 46.4496L91.7943 46.0488L90.8282 45.7908ZM94.214 33.1138L95.1801 33.3718L95.1897 33.3361L95.1965 33.2999L94.214 33.1138ZM94.7906 31.7337L93.9678 31.1655V31.1655L94.7906 31.7337ZM95.877 30.7057L96.399 31.5587V31.5587L95.877 30.7057ZM97.2868 30.2061L97.1551 29.2148L97.2868 30.2061ZM101.012 32.2112L100.112 32.6472L100.112 32.6472L101.012 32.2112ZM101.371 33.6631L102.37 33.6291L101.371 33.6631ZM101.111 35.136L100.184 34.7621L100.161 34.8176L100.146 34.8754L101.111 35.136ZM99.6016 40.7292L98.6362 40.4686L98.0058 42.8044L100.101 41.5954L99.6016 40.7292ZM109.922 34.7749L109.424 33.9078L109.423 33.9088L109.922 34.7749ZM112.645 34.4153L112.389 35.382L112.645 34.4153ZM114.833 36.0749L115.696 35.5694L115.695 35.5678L114.833 36.0749ZM115.295 37.4091L114.305 37.5452V37.5452L115.295 37.4091ZM115.21 38.8184L116.178 39.0726L116.178 39.0725L115.21 38.8184ZM114.592 40.0874L115.387 40.693L115.387 40.693L114.592 40.0874ZM113.533 41.0222L114.033 41.8883L114.036 41.8866L113.533 41.0222ZM103.309 46.9208L102.809 46.0546L100.72 47.26L103.049 47.8865L103.309 46.9208ZM108.767 48.3888L108.507 49.3544L108.572 49.3718L108.638 49.3804L108.767 48.3888ZM111.183 49.7784L110.39 50.3884L110.39 50.3884L111.183 49.7784ZM110.519 54.8853L109.909 54.0929L110.519 54.8853ZM107.828 55.611L106.996 55.0563L106.103 56.3952L107.699 56.6026L107.828 55.611ZM107.9 55.5026L108.732 56.0573L110.002 54.1523L107.742 54.5153L107.9 55.5026ZM106.961 55.5026L106.688 56.4645L106.745 56.4807L106.803 56.49L106.961 55.5026ZM94.549 51.9747L94.8224 51.0128L94.4156 50.8972L94.0493 51.1085L94.549 51.9747ZM71.972 64.9999L71.4723 64.1337L69.9709 64.9999L71.4723 65.8661L71.972 64.9999ZM94.6346 78.0745L94.1349 78.9407L94.4943 79.1481L94.895 79.04L94.6346 78.0745ZM106.961 74.7499L107.222 75.7154L107.238 75.711L107.254 75.706L106.961 74.7499ZM108.394 74.6107L108.497 73.6161L108.394 74.6107ZM109.767 75.0422L109.283 75.9173L109.283 75.9174L109.767 75.0422ZM110.862 75.9757L110.075 76.5923L110.075 76.5923L110.862 75.9757ZM111.506 77.263L112.472 77.0028V77.0028L111.506 77.263ZM111.596 78.6995L110.606 78.5618V78.5618L111.596 78.6995ZM110.148 81.1199L110.737 81.9279L110.148 81.1199ZM108.839 81.7193L108.612 80.7454L108.596 80.7493L108.579 80.7537L108.839 81.7193ZM103.46 83.1661L103.2 82.2004L100.871 82.8269L102.96 84.0323L103.46 83.1661ZM113.533 88.9776L113.034 89.8438L113.04 89.8476L113.533 88.9776ZM115.083 90.7232L114.161 91.1098L114.161 91.1098L115.083 90.7232ZM111.728 95.7304L111.281 96.6249L111.488 96.7288L111.721 96.7304L111.728 95.7304ZM111.656 95.6943L112.103 94.7999L111.888 94.6927L111.649 94.6943L111.656 95.6943ZM109.85 95.2249L109.35 96.0911L109.357 96.0948L109.85 95.2249ZM99.6606 89.3464L100.16 88.4802L98.0673 87.2727L98.6949 89.6061L99.6606 89.3464ZM101.183 95.0082L102.151 94.7546L102.149 94.7485L101.183 95.0082ZM100.812 97.7406L101.676 98.2436H101.676L100.812 97.7406ZM98.6196 99.4138L98.8307 100.391L98.8539 100.386L98.8768 100.38L98.6196 99.4138ZM97.6807 99.4499L97.8161 98.4591L97.733 98.4478L97.649 98.4504L97.6807 99.4499ZM94.0695 96.7416L95.0379 96.4921L95.0371 96.4891L94.0695 96.7416ZM90.8067 84.2383L91.7743 83.9858L91.6687 83.5812L91.3064 83.3722L90.8067 84.2383ZM68.6109 71.4331L69.1107 70.5669L67.6109 69.7017V71.4331H68.6109ZM68.6109 97.2367H67.6109V97.6518L67.9048 97.9448L68.6109 97.2367ZM77.7833 106.383L77.0772 107.091L77.0791 107.093L77.7833 106.383ZM78.5738 107.558L79.4969 107.174L79.4968 107.174L78.5738 107.558ZM78.5738 110.336L79.4968 110.72L79.4969 110.72L78.5738 110.336ZM77.7833 111.511L77.0791 110.801L77.079 110.801L77.7833 111.511ZM75.2917 112.558L75.2874 113.558L75.2967 113.558L75.306 113.558L75.2917 112.558ZM72.7639 111.511L73.4681 110.801L73.466 110.799L72.7639 111.511ZM68.6109 107.416L69.3131 106.704L67.6109 105.026V107.416H68.6109ZM68.6109 117.83L69.6108 117.849L69.6109 117.84V117.83H68.6109ZM61.9198 121.019C62.7846 121.884 63.9574 122.369 65.1804 122.369V120.369C64.4879 120.369 63.8237 120.094 63.3341 119.605L61.9198 121.019ZM60.5693 117.758C60.5693 118.981 61.0551 120.154 61.9198 121.019L63.3341 119.605C62.8444 119.115 62.5693 118.451 62.5693 117.758H60.5693ZM60.5693 107.319V117.758H62.5693V107.319H60.5693ZM58.1271 112.215L62.2797 108.023L60.8588 106.615L56.7062 110.807L58.1271 112.215ZM54.8708 113.561C56.089 113.561 57.2577 113.079 58.1217 112.22L56.7117 110.802C56.2224 111.288 55.5606 111.561 54.8708 111.561V113.561ZM51.62 112.22C52.4839 113.079 53.6526 113.561 54.8708 113.561V111.561C54.181 111.561 53.5192 111.288 53.03 110.802L51.62 112.22ZM50.6115 110.72C50.8456 111.282 51.1886 111.792 51.6208 112.221L53.0292 110.801C52.7845 110.558 52.5902 110.269 52.4577 109.951L50.6115 110.72ZM50.2568 108.947C50.2568 109.556 50.3774 110.159 50.6115 110.72L52.4576 109.951C52.3251 109.633 52.2568 109.292 52.2568 108.947H50.2568ZM50.6115 107.174C50.3774 107.736 50.2568 108.338 50.2568 108.947H52.2568C52.2568 108.602 52.3251 108.261 52.4576 107.943L50.6115 107.174ZM51.6208 105.673C51.1886 106.102 50.8456 106.612 50.6115 107.174L52.4576 107.943C52.5902 107.625 52.7845 107.336 53.0292 107.093L51.6208 105.673ZM60.8602 96.3812L51.6159 105.678L53.0341 107.088L62.2784 97.7913L60.8602 96.3812ZM60.5693 71.0015V97.0863H62.5693V71.0015H60.5693ZM39.1921 85.0659L62.069 71.8677L61.0696 70.1353L38.1927 83.3335L39.1921 85.0659ZM36.246 97.1103L39.6579 84.4601L37.7269 83.9393L34.315 96.5895L36.246 97.1103ZM34.5805 99.5276C35.3787 98.929 35.9612 98.0877 36.2405 97.1299L34.3205 96.5699C34.1623 97.1122 33.8325 97.5887 33.3805 97.9276L34.5805 99.5276ZM31.8138 100.45C32.8116 100.45 33.7824 100.126 34.5805 99.5276L33.3805 97.9277C32.9285 98.2666 32.3788 98.4499 31.8138 98.4499V100.45ZM30.7016 100.435C31.1269 100.51 31.5619 100.51 31.9872 100.435L31.6405 98.465C31.4446 98.4995 31.2442 98.4995 31.0483 98.465L30.7016 100.435ZM27.8187 98.2797C28.4323 99.3341 29.4388 100.102 30.6177 100.416L31.1322 98.4835C30.4647 98.3058 29.8948 97.8708 29.5473 97.2737L27.8187 98.2797ZM27.3438 94.7906C27.0343 95.9707 27.2051 97.2253 27.8187 98.2797L29.5473 97.2737C29.1998 96.6766 29.1031 95.9662 29.2784 95.298L27.3438 94.7906ZM28.8912 89.0374L27.3454 94.7846L29.2767 95.304L30.8225 89.5568L28.8912 89.0374ZM20.1443 96.055L30.3566 90.1633L29.3571 88.4309L19.1448 94.3226L20.1443 96.055ZM17.8494 96.6943C18.6613 96.6859 19.4567 96.4632 20.1549 96.0488L19.1342 94.3289C18.7388 94.5636 18.2884 94.6897 17.8286 94.6944L17.8494 96.6943ZM15.0185 95.7506C15.8305 96.3696 16.825 96.7015 17.846 96.6944L17.832 94.6944C17.2539 94.6984 16.6907 94.5105 16.2309 94.16L15.0185 95.7506ZM13.3591 93.2744C13.6229 94.2608 14.2065 95.1317 15.0185 95.7506L16.2309 94.16C15.7711 93.8095 15.4406 93.3164 15.2913 92.7578L13.3591 93.2744ZM13.5613 90.3005C13.1665 91.2421 13.0954 92.2881 13.3591 93.2744L15.2913 92.7578C15.1419 92.1993 15.1822 91.607 15.4057 91.0738L13.5613 90.3005ZM15.5404 88.0716C14.6521 88.5749 13.956 89.3589 13.5613 90.3005L15.4057 91.0738C15.6293 90.5406 16.0234 90.0967 16.5265 89.8116L15.5404 88.0716ZM25.4988 82.3263L15.5337 88.0754L16.5332 89.8078L26.4982 84.0587L25.4988 82.3263ZM20.3958 82.7211L25.7388 84.1582L26.2583 82.2268L20.9152 80.7897L20.3958 82.7211ZM18.7382 81.9304C19.2383 82.3072 19.8098 82.5781 20.4181 82.7268L20.893 80.784C20.5485 80.6998 20.2249 80.5464 19.9417 80.333L18.7382 81.9304ZM17.5094 80.5353C17.82 81.079 18.2381 81.5536 18.7382 81.9304L19.9417 80.333C19.6585 80.1197 19.4218 79.8509 19.2459 79.5431L17.5094 80.5353ZM16.9314 78.7684C17.0021 79.3905 17.1988 79.9917 17.5094 80.5353L19.2459 79.5431C19.07 79.2352 18.9586 78.8948 18.9186 78.5425L16.9314 78.7684ZM17.0981 76.9168C16.9174 77.5163 16.8606 78.1463 16.9314 78.7684L18.9186 78.5425C18.8785 78.1902 18.9106 77.8335 19.013 77.494L17.0981 76.9168ZM17.8835 75.3259C17.5138 75.8097 17.2436 76.3619 17.0885 76.9506L19.0225 77.4602C19.1103 77.1268 19.2633 76.8141 19.4727 76.5402L17.8835 75.3259ZM19.2422 74.132C18.7149 74.4364 18.2531 74.8421 17.8835 75.3259L19.4727 76.5402C19.682 76.2663 19.9435 76.0365 20.2421 75.8641L19.2422 74.132ZM20.9557 73.5525C20.3519 73.6307 19.7695 73.8276 19.2422 74.132L20.2421 75.8641C20.5407 75.6918 20.8704 75.5802 21.2123 75.536L20.9557 73.5525ZM22.7602 73.6768C22.1728 73.5166 21.5595 73.4744 20.9557 73.5525L21.2124 75.536C21.5543 75.4917 21.9015 75.5157 22.2342 75.6063L22.7602 73.6768ZM35.1735 77.0878L22.7621 73.6773L22.2322 75.6058L34.6436 79.0164L35.1735 77.0878ZM56.9965 64.1546L34.4088 77.1859L35.4083 78.9183L57.996 65.8869L56.9965 64.1546ZM34.3632 52.8292L56.9965 65.8869L57.996 64.1546L35.3626 51.0969L34.3632 52.8292ZM22.7988 56.3223L35.1284 52.9272L34.5974 50.9989L22.2678 54.3941L22.7988 56.3223ZM21.6829 56.5025C22.0768 56.4961 22.4675 56.431 22.8422 56.3093L22.2244 54.4071C22.0389 54.4673 21.8454 54.4996 21.6504 54.5028L21.6829 56.5025ZM18.3656 55.5693C19.341 56.3202 20.5748 56.653 21.7955 56.4943L21.5377 54.511C20.843 54.6013 20.1408 54.4119 19.5857 53.9845L18.3656 55.5693ZM16.5944 52.4899C16.7531 53.7106 17.3902 54.8183 18.3656 55.5693L19.5857 53.9845C19.0306 53.5571 18.668 52.9268 18.5777 52.232L16.5944 52.4899ZM17.5194 49.06C16.7685 50.0354 16.4357 51.2691 16.5944 52.4899L18.5777 52.232C18.4874 51.5373 18.6768 50.8352 19.1042 50.2801L17.5194 49.06ZM20.5988 47.2887C19.3781 47.4474 18.2704 48.0846 17.5194 49.06L19.1042 50.2801C19.5315 49.725 20.1619 49.3624 20.8566 49.2721L20.5988 47.2887ZM25.755 45.8927L20.468 47.3147L20.9875 49.2461L26.2745 47.824L25.755 45.8927ZM15.4614 41.9244L25.515 47.7246L26.5145 45.9922L16.4608 40.192L15.4614 41.9244ZM13.3359 39.0938C13.6385 40.2785 14.3993 41.2944 15.4509 41.9182L16.4713 40.1981C15.8758 39.8449 15.445 39.2696 15.2736 38.5987L13.3359 39.0938ZM13.837 35.601C13.2135 36.6528 13.0332 37.9091 13.3359 39.0938L15.2736 38.5987C15.1023 37.9279 15.2043 37.2165 15.5574 36.6209L13.837 35.601ZM15.0264 34.257C14.5435 34.6245 14.1379 35.0837 13.8328 35.6082L15.5616 36.6137C15.7344 36.3167 15.9641 36.0567 16.2375 35.8486L15.0264 34.257ZM16.6468 33.4668C16.0599 33.621 15.5093 33.8896 15.0264 34.257L16.2375 35.8486C16.511 35.6406 16.8228 35.4885 17.1551 35.4012L16.6468 33.4668ZM18.4464 33.3584C17.8452 33.2758 17.2337 33.3126 16.6468 33.4668L17.1551 35.4012C17.4874 35.3138 17.8337 35.293 18.1741 35.3397L18.4464 33.3584ZM20.15 33.9482C19.6265 33.6414 19.0475 33.441 18.4464 33.3584L18.1741 35.3397C18.5146 35.3865 18.8424 35.5 19.1388 35.6737L20.15 33.9482ZM30.3701 39.8444L20.1442 33.9448L19.1447 35.6771L29.3707 41.5767L30.3701 39.8444ZM27.348 35.4053L28.9074 40.9799L30.8334 40.4412L29.2741 34.8666L27.348 35.4053ZM27.1773 33.5997C27.1132 34.2153 27.1736 34.8374 27.355 35.429L29.2671 34.8428C29.1644 34.5078 29.1302 34.1555 29.1665 33.807L27.1773 33.5997ZM27.7282 31.8463C27.4288 32.3879 27.2414 32.9842 27.1773 33.5997L29.1665 33.807C29.2028 33.4584 29.3089 33.1208 29.4785 32.8141L27.7282 31.8463ZM28.9202 30.4474C28.4331 30.829 28.0277 31.3048 27.7282 31.8463L29.4785 32.8141C29.6481 32.5074 29.8776 32.238 30.1535 32.0219L28.9202 30.4474ZM30.564 29.6252C29.9665 29.7862 29.4074 30.0658 28.9203 30.4474L30.1535 32.0219C30.4294 31.8058 30.7459 31.6475 31.0843 31.5563L30.564 29.6252ZM32.3983 29.5103C31.7854 29.4251 31.1615 29.4642 30.564 29.6252L31.0843 31.5563C31.4227 31.4652 31.7759 31.4431 32.123 31.4913L32.3983 29.5103ZM34.1318 30.121C33.6008 29.8032 33.0113 29.5955 32.3983 29.5103L32.123 31.4913C32.4701 31.5395 32.8039 31.6571 33.1046 31.8371L34.1318 30.121ZM35.489 31.3603C35.1244 30.8603 34.6628 30.4389 34.1318 30.121L33.1046 31.8371C33.4053 32.0171 33.6667 32.2557 33.8732 32.5389L35.489 31.3603ZM36.2544 33.0313C36.114 32.4286 35.8537 31.8603 35.489 31.3603L33.8732 32.5389C34.0797 32.822 34.2271 33.1438 34.3066 33.4851L36.2544 33.0313ZM39.648 45.5328L36.2456 32.9963L34.3154 33.5201L37.7178 46.0566L39.648 45.5328ZM62.069 58.1322L39.1826 44.9285L38.1832 46.6609L61.0696 59.8646L62.069 58.1322ZM60.5693 32.7266V58.9984H62.5693V32.7266H60.5693ZM51.7273 24.3246L60.8632 33.4347L62.2754 32.0185L53.1395 22.9084L51.7273 24.3246ZM50.3833 21.0707C50.3833 22.2888 50.8654 23.4575 51.7242 24.3215L53.1426 22.9115C52.6563 22.4223 52.3833 21.7605 52.3833 21.0707H50.3833ZM51.7242 17.8198C50.8654 18.6838 50.3833 19.8525 50.3833 21.0707H52.3833C52.3833 20.3808 52.6563 19.719 53.1426 19.2298L51.7242 17.8198ZM54.9792 16.4747C53.761 16.4747 52.5923 16.9568 51.7284 17.8156L53.1384 19.234C53.6276 18.7477 54.2894 18.4747 54.9792 18.4747V16.4747ZM58.2301 17.8156C57.3661 16.9568 56.1974 16.4747 54.9792 16.4747V18.4747C55.669 18.4747 56.3308 18.7477 56.8201 19.234L58.2301 17.8156ZM62.2747 21.8413L58.2305 17.816L56.8196 19.2336L60.8638 23.2588L62.2747 21.8413ZM60.5693 12.1694V22.5501H62.5693V12.1694H60.5693ZM60.5949 10.3398C60.4406 11.015 60.4404 11.7163 60.5943 12.3916L62.5443 11.9472C62.4571 11.5648 62.4572 11.1677 62.5446 10.7853L60.5949 10.3398ZM61.4855 8.49141C61.0535 9.03284 60.7491 9.66461 60.5949 10.3398L62.5446 10.7853C62.632 10.403 62.8044 10.0452 63.0489 9.73864L61.4855 8.49141ZM63.0898 7.21234C62.4657 7.5128 61.9174 7.94998 61.4855 8.49141L63.0489 9.73864C63.2935 9.43204 63.604 9.18449 63.9574 9.01435L63.0898 7.21234ZM65.0901 6.75586C64.3975 6.75586 63.7138 6.91188 63.0898 7.21234L63.9574 9.01435C64.3107 8.84421 64.6979 8.75586 65.0901 8.75586V6.75586ZM67.0905 7.21234C66.4664 6.91188 65.7827 6.75586 65.0901 6.75586V8.75586C65.4823 8.75586 65.8695 8.84421 66.2228 9.01435L67.0905 7.21234ZM68.6947 8.49141C68.2628 7.94998 67.7145 7.5128 67.0905 7.21234L66.2228 9.01435C66.5762 9.18449 66.8867 9.43204 67.1313 9.73864L68.6947 8.49141ZM69.5854 10.3398C69.4311 9.6646 69.1267 9.03283 68.6947 8.49141L67.1313 9.73864C67.3759 10.0452 67.5482 10.403 67.6356 10.7853L69.5854 10.3398ZM69.5859 12.3916C69.7398 11.7163 69.7396 11.015 69.5854 10.3398L67.6356 10.7853C67.723 11.1677 67.7231 11.5648 67.6359 11.9472L69.5859 12.3916ZM69.6109 22.7862V12.1694H67.6109V22.7862H69.6109ZM72.1652 17.8177L67.9038 22.0791L69.318 23.4933L73.5794 19.2319L72.1652 17.8177ZM75.4181 16.4747C74.1999 16.4747 73.0312 16.9568 72.1673 17.8156L73.5773 19.234C74.0665 18.7477 74.7283 18.4747 75.4181 18.4747V16.4747ZM78.669 17.8156C77.805 16.9568 76.6363 16.4747 75.4181 16.4747V18.4747C76.1079 18.4747 76.7697 18.7477 77.259 19.234L78.669 17.8156ZM80.014 21.0707C80.014 19.8525 79.532 18.6838 78.6732 17.8198L77.2547 19.2298C77.7411 19.719 78.014 20.3808 78.014 21.0707H80.014ZM78.6732 24.3215C79.532 23.4575 80.014 22.2888 80.014 21.0707H78.014C78.014 21.7605 77.7411 22.4223 77.2547 22.9115L78.6732 24.3215ZM69.318 33.6766L78.6711 24.3236L77.2568 22.9094L67.9038 32.2624L69.318 33.6766ZM69.6109 58.6084V32.9695H67.6109V58.6084H69.6109ZM90.3285 44.9246L68.1112 57.7422L69.1107 59.4746L91.3279 46.657L90.3285 44.9246ZM91.7943 46.0488L95.1801 33.3718L93.2479 32.8557L89.8621 45.5327L91.7943 46.0488ZM95.1965 33.2999C95.2644 32.9418 95.4064 32.6019 95.6135 32.302L93.9678 31.1655C93.6021 31.695 93.3512 32.2953 93.2315 32.9277L95.1965 33.2999ZM95.6135 32.302C95.8206 32.0021 96.0882 31.7489 96.399 31.5587L95.355 29.8528C94.806 30.1887 94.3335 30.6359 93.9678 31.1655L95.6135 32.302ZM96.399 31.5587C96.7099 31.3684 97.0571 31.2454 97.4184 31.1974L97.1551 29.2148C96.5171 29.2995 95.9039 29.5168 95.355 29.8528L96.399 31.5587ZM97.4184 31.1974C97.7796 31.1494 98.1469 31.1776 98.4967 31.2802L99.0594 29.3609C98.4418 29.1799 97.7931 29.1301 97.1551 29.2148L97.4184 31.1974ZM98.4967 31.2802C98.8464 31.3827 99.1708 31.5573 99.449 31.7928L100.741 30.2662C100.25 29.8504 99.677 29.542 99.0594 29.3609L98.4967 31.2802ZM99.449 31.7928C99.7271 32.0282 99.9529 32.3193 100.112 32.6472L101.912 31.7752C101.631 31.196 101.232 30.682 100.741 30.2662L99.449 31.7928ZM100.112 32.6472C100.271 32.9752 100.359 33.3328 100.372 33.6971L102.37 33.6291C102.349 32.9859 102.192 32.3543 101.912 31.7752L100.112 32.6472ZM100.372 33.6971C100.384 34.0613 100.32 34.4241 100.184 34.7621L102.039 35.5099C102.279 34.913 102.392 34.2723 102.37 33.6291L100.372 33.6971ZM100.146 34.8754L98.6362 40.4686L100.567 40.9898L102.077 35.3966L100.146 34.8754ZM109.423 33.9088L99.1019 39.863L100.101 41.5954L110.422 35.6411L109.423 33.9088ZM112.901 33.4486C111.727 33.1378 110.477 33.3028 109.424 33.9078L110.42 35.642C111.017 35.2994 111.724 35.206 112.389 35.382L112.901 33.4486ZM115.695 35.5678C115.079 34.521 114.075 33.7594 112.901 33.4486L112.389 35.382C113.054 35.558 113.623 35.9892 113.972 36.582L115.695 35.5678ZM116.286 37.273C116.203 36.6718 116.003 36.0929 115.696 35.5694L113.971 36.5805C114.144 36.877 114.258 37.2048 114.305 37.5452L116.286 37.273ZM116.178 39.0725C116.332 38.4857 116.369 37.8741 116.286 37.273L114.305 37.5452C114.351 37.8856 114.331 38.2319 114.243 38.5643L116.178 39.0725ZM115.387 40.693C115.755 40.2101 116.023 39.6594 116.178 39.0726L114.243 38.5643C114.156 38.8966 114.004 39.2084 113.796 39.4819L115.387 40.693ZM114.036 41.8866C114.561 41.5815 115.02 41.1759 115.387 40.693L113.796 39.4818C113.588 39.7553 113.328 39.985 113.031 40.1577L114.036 41.8866ZM103.809 47.787L114.033 41.8883L113.034 40.156L102.809 46.0546L103.809 47.787ZM103.049 47.8865L108.507 49.3544L109.027 47.4231L103.569 45.9551L103.049 47.8865ZM108.638 49.3804C109.333 49.4707 109.963 49.8333 110.39 50.3884L111.975 49.1683C111.224 48.1929 110.116 47.5558 108.896 47.3971L108.638 49.3804ZM110.39 50.3884C110.818 50.9435 111.007 51.6457 110.917 52.3404L112.9 52.5982C113.059 51.3775 112.726 50.1437 111.975 49.1683L110.39 50.3884ZM110.917 52.3404C110.826 53.0351 110.464 53.6655 109.909 54.0929L111.129 55.6776C112.104 54.9266 112.741 53.819 112.9 52.5982L110.917 52.3404ZM109.909 54.0929C109.354 54.5203 108.652 54.7096 107.957 54.6193L107.699 56.6026C108.92 56.7613 110.153 56.4286 111.129 55.6776L109.909 54.0929ZM108.66 56.1657L108.732 56.0573L107.068 54.948L106.996 55.0563L108.66 56.1657ZM107.742 54.5153C107.536 54.5484 107.326 54.5484 107.12 54.5153L106.803 56.49C107.219 56.5568 107.643 56.5568 108.059 56.49L107.742 54.5153ZM107.235 54.5407L94.8224 51.0128L94.2756 52.9366L106.688 56.4645L107.235 54.5407ZM72.4717 65.8661L95.0488 52.8409L94.0493 51.1085L71.4723 64.1337L72.4717 65.8661ZM95.1343 77.2083L72.4717 64.1337L71.4723 65.8661L94.1349 78.9407L95.1343 77.2083ZM106.701 73.7844L94.3742 77.109L94.895 79.04L107.222 75.7154L106.701 73.7844ZM108.497 73.6161C107.882 73.552 107.26 73.6124 106.668 73.7938L107.254 75.706C107.589 75.6033 107.942 75.5691 108.29 75.6054L108.497 73.6161ZM110.251 74.1671C109.709 73.8676 109.113 73.6803 108.497 73.6161L108.29 75.6054C108.639 75.6417 108.976 75.7478 109.283 75.9173L110.251 74.1671ZM111.65 75.3591C111.268 74.8719 110.792 74.4665 110.251 74.1671L109.283 75.9174C109.59 76.0869 109.859 76.3165 110.075 76.5923L111.65 75.3591ZM112.472 77.0028C112.311 76.4053 112.031 75.8463 111.65 75.3591L110.075 76.5923C110.291 76.8682 110.45 77.1848 110.541 77.5231L112.472 77.0028ZM112.587 78.8372C112.672 78.2242 112.633 77.6004 112.472 77.0028L110.541 77.5231C110.632 77.8615 110.654 78.2147 110.606 78.5618L112.587 78.8372ZM111.976 80.5706C112.294 80.0396 112.502 79.4501 112.587 78.8371L110.606 78.5618C110.558 78.9089 110.44 79.2428 110.26 79.5435L111.976 80.5706ZM110.737 81.9279C111.237 81.5632 111.658 81.1016 111.976 80.5706L110.26 79.5435C110.08 79.8441 109.841 80.1055 109.558 80.312L110.737 81.9279ZM109.066 82.6933C109.669 82.5528 110.237 82.2925 110.737 81.9279L109.558 80.312C109.275 80.5185 108.953 80.6659 108.612 80.7454L109.066 82.6933ZM103.72 84.1318L109.099 82.685L108.579 80.7537L103.2 82.2004L103.72 84.1318ZM114.033 88.1114L103.96 82.2999L102.96 84.0323L113.034 89.8438L114.033 88.1114ZM116.006 90.3365C115.611 89.3949 114.915 88.611 114.026 88.1076L113.04 89.8476C113.543 90.1327 113.938 90.5766 114.161 91.1098L116.006 90.3365ZM116.208 93.3105C116.471 92.3241 116.4 91.2781 116.006 90.3365L114.161 91.1098C114.385 91.643 114.425 92.2353 114.276 92.7939L116.208 93.3105ZM114.548 95.7867C115.36 95.1677 115.944 94.2968 116.208 93.3105L114.276 92.7939C114.126 93.3524 113.796 93.8456 113.336 94.196L114.548 95.7867ZM111.721 96.7304C112.742 96.7375 113.736 96.4056 114.548 95.7867L113.336 94.196C112.876 94.5465 112.313 94.7345 111.735 94.7304L111.721 96.7304ZM111.208 96.5887L111.281 96.6249L112.175 94.836L112.103 94.7999L111.208 96.5887ZM109.357 96.0948C110.06 96.4931 110.855 96.6998 111.662 96.6943L111.649 94.6943C111.191 94.6975 110.741 94.5804 110.343 94.3549L109.357 96.0948ZM99.1609 90.2125L109.35 96.091L110.35 94.3587L100.16 88.4802L99.1609 90.2125ZM102.149 94.7485L100.626 89.0866L98.6949 89.6061L100.218 95.268L102.149 94.7485ZM101.676 98.2436C102.289 97.1892 102.46 95.9346 102.151 94.7546L100.216 95.2619C100.391 95.9301 100.295 96.6406 99.9472 97.2376L101.676 98.2436ZM98.8768 100.38C100.056 100.066 101.062 99.298 101.676 98.2436L99.9472 97.2376C99.5997 97.8347 99.0298 98.2697 98.3623 98.4475L98.8768 100.38ZM97.5452 100.441C97.9733 100.499 98.4084 100.482 98.8307 100.391L98.4084 98.4363C98.2138 98.4784 98.0134 98.4861 97.8161 98.4591L97.5452 100.441ZM94.7998 99.5295C95.6379 100.158 96.6651 100.483 97.7123 100.449L97.649 98.4504C97.0561 98.4692 96.4744 98.2855 95.9998 97.9295L94.7998 99.5295ZM93.1012 96.9911C93.3626 98.0056 93.9617 98.9009 94.7998 99.5295L95.9998 97.9295C95.5252 97.5735 95.1859 97.0666 95.0379 96.4921L93.1012 96.9911ZM89.8391 84.4908L93.102 96.9941L95.0371 96.4891L91.7743 83.9858L89.8391 84.4908ZM68.1112 72.2993L90.307 85.1045L91.3064 83.3722L69.1107 70.5669L68.1112 72.2993ZM69.6109 97.2367V71.4331H67.6109V97.2367H69.6109ZM78.4894 105.675L69.317 96.5286L67.9048 97.9448L77.0772 107.091L78.4894 105.675ZM79.4968 107.174C79.2627 106.612 78.9197 106.102 78.4875 105.673L77.0791 107.093C77.3238 107.336 77.5181 107.625 77.6507 107.943L79.4968 107.174ZM79.8515 108.947C79.8515 108.338 79.7309 107.736 79.4969 107.174L77.6507 107.943C77.7832 108.261 77.8515 108.602 77.8515 108.947H79.8515ZM79.4969 110.72C79.7309 110.159 79.8515 109.556 79.8515 108.947H77.8515C77.8515 109.292 77.7832 109.633 77.6507 109.951L79.4969 110.72ZM78.4875 112.221C78.9197 111.792 79.2627 111.282 79.4968 110.72L77.6507 109.951C77.5181 110.269 77.3239 110.558 77.0791 110.801L78.4875 112.221ZM75.306 113.558C76.4996 113.541 77.6402 113.062 78.4876 112.221L77.079 110.801C76.5991 111.277 75.9533 111.549 75.2774 111.558L75.306 113.558ZM72.0597 112.221C72.9185 113.073 74.0778 113.553 75.2874 113.558L75.2959 111.558C74.6109 111.555 73.9544 111.283 73.4681 110.801L72.0597 112.221ZM67.9088 108.128L72.0618 112.223L73.466 110.799L69.3131 106.704L67.9088 108.128ZM69.6109 117.83V107.416H67.6109V117.83H69.6109ZM68.3113 120.972C69.1244 120.133 69.5888 119.017 69.6108 117.849L67.6111 117.812C67.5987 118.473 67.3357 119.105 66.8753 119.58L68.3113 120.972ZM65.2302 122.368C66.397 122.31 67.4982 121.811 68.3113 120.972L66.8753 119.58C66.4148 120.055 65.7913 120.338 65.1306 120.371L65.2302 122.368Z" fill="url(#paint1_linear_1663_5449)" mask="url(#path-1-inside-1_1663_5449)"/>
<defs>
<radialGradient id="paint0_radial_1663_5449" cx="0" cy="0" r="1" gradientUnits="userSpaceOnUse" gradientTransform="translate(44.7049 96.1261) rotate(-48.5967) scale(102.614 79.9503)">
<stop stop-color="#AF5F5F" stop-opacity="0.02"/>
<stop offset="1" stop-color="#AF5F5F"/>
</radialGradient>
<linearGradient id="paint1_linear_1663_5449" x1="111.736" y1="43.6412" x2="89.4526" y2="43.5856" gradientUnits="userSpaceOnUse">
<stop stop-opacity="0.4"/>
<stop offset="0.478947" stop-opacity="0"/>
<stop offset="1" stop-opacity="0.4"/>
</linearGradient>
</defs>
</svg>
