<svg width="110" height="82" viewBox="0 0 110 82" fill="none" xmlns="http://www.w3.org/2000/svg">
    <mask id="path-1-inside-1_1663_5465" fill="white">
        <path fill-rule="evenodd" clip-rule="evenodd"
              d="M55.0007 0.833626C84.9161 0.833626 109.167 25.0849 109.167 55.0003C109.167 84.9157 84.9161 109.167 55.0007 109.167C25.0852 109.167 0.833984 84.9157 0.833984 55.0003C0.833984 25.0849 25.0852 0.833626 55.0007 0.833626ZM61.5005 83.5004C61.5005 87.0902 58.5903 90.0004 55.0005 90.0004C51.4106 90.0004 48.5005 87.0902 48.5005 83.5004C48.5005 79.9105 51.4106 77.0004 55.0005 77.0004C58.5903 77.0004 61.5005 79.9105 61.5005 83.5004ZM48.57 26.9772L51.7564 66.0103C51.8943 67.6996 53.3055 69.0004 55.0005 69.0004C56.6954 69.0004 58.1067 67.6996 58.2446 66.0103L61.431 26.9772C61.7377 23.2194 58.7708 20.0004 55.0005 20.0004C51.2302 20.0004 48.2633 23.2194 48.57 26.9772Z"/>
    </mask>
    <path fill-rule="evenodd" clip-rule="evenodd"
          d="M55.0007 0.833626C84.9161 0.833626 109.167 25.0849 109.167 55.0003C109.167 84.9157 84.9161 109.167 55.0007 109.167C25.0852 109.167 0.833984 84.9157 0.833984 55.0003C0.833984 25.0849 25.0852 0.833626 55.0007 0.833626ZM61.5005 83.5004C61.5005 87.0902 58.5903 90.0004 55.0005 90.0004C51.4106 90.0004 48.5005 87.0902 48.5005 83.5004C48.5005 79.9105 51.4106 77.0004 55.0005 77.0004C58.5903 77.0004 61.5005 79.9105 61.5005 83.5004ZM48.57 26.9772L51.7564 66.0103C51.8943 67.6996 53.3055 69.0004 55.0005 69.0004C56.6954 69.0004 58.1067 67.6996 58.2446 66.0103L61.431 26.9772C61.7377 23.2194 58.7708 20.0004 55.0005 20.0004C51.2302 20.0004 48.2633 23.2194 48.57 26.9772Z"
          fill="url(#paint0_radial_1663_5465)" fill-opacity="0.6"/>
    <path d="M51.7564 66.0103L50.7597 66.0917L51.7564 66.0103ZM48.57 26.9772L47.5733 27.0585L48.57 26.9772ZM58.2446 66.0103L59.2413 66.0917L58.2446 66.0103ZM61.431 26.9772L62.4276 27.0585L61.431 26.9772ZM108.167 55.0003C108.167 25.6372 84.3638 1.83363 55.0007 1.83363V-0.166374C85.4684 -0.166374 110.167 24.5326 110.167 55.0003H108.167ZM55.0007 108.167C84.3638 108.167 108.167 84.3635 108.167 55.0003H110.167C110.167 85.468 85.4684 110.167 55.0007 110.167V108.167ZM1.83398 55.0003C1.83398 84.3635 25.6375 108.167 55.0007 108.167V110.167C24.5329 110.167 -0.166016 85.468 -0.166016 55.0003H1.83398ZM55.0007 1.83363C25.6375 1.83363 1.83398 25.6372 1.83398 55.0003H-0.166016C-0.166016 24.5326 24.5329 -0.166374 55.0007 -0.166374V1.83363ZM55.0005 89.0004C58.0381 89.0004 60.5005 86.5379 60.5005 83.5004H62.5005C62.5005 87.6425 59.1426 91.0004 55.0005 91.0004V89.0004ZM49.5005 83.5004C49.5005 86.5379 51.9629 89.0004 55.0005 89.0004V91.0004C50.8584 91.0004 47.5005 87.6425 47.5005 83.5004H49.5005ZM55.0005 78.0004C51.9629 78.0004 49.5005 80.4628 49.5005 83.5004H47.5005C47.5005 79.3582 50.8584 76.0004 55.0005 76.0004V78.0004ZM60.5005 83.5004C60.5005 80.4628 58.0381 78.0004 55.0005 78.0004V76.0004C59.1426 76.0004 62.5005 79.3582 62.5005 83.5004H60.5005ZM50.7597 66.0917L47.5733 27.0585L49.5667 26.8958L52.7531 65.9289L50.7597 66.0917ZM55.0005 70.0004C52.7848 70.0004 50.94 68.3 50.7597 66.0917L52.7531 65.9289C52.8486 67.0993 53.8263 68.0004 55.0005 68.0004V70.0004ZM59.2413 66.0917C59.061 68.3 57.2162 70.0004 55.0005 70.0004V68.0004C56.1747 68.0004 57.1524 67.0993 57.2479 65.9289L59.2413 66.0917ZM62.4276 27.0585L59.2413 66.0917L57.2479 65.9289L60.4343 26.8958L62.4276 27.0585ZM55.0005 19.0004C59.3551 19.0004 62.7819 22.7183 62.4276 27.0585L60.4343 26.8958C60.6935 23.7205 58.1864 21.0004 55.0005 21.0004V19.0004ZM47.5733 27.0585C47.219 22.7183 50.6459 19.0004 55.0005 19.0004V21.0004C51.8146 21.0004 49.3075 23.7205 49.5667 26.8958L47.5733 27.0585Z"
          fill="url(#paint1_linear_1663_5465)" mask="url(#path-1-inside-1_1663_5465)"/>
    <defs>
        <radialGradient id="paint0_radial_1663_5465" cx="0" cy="0" r="1" gradientUnits="userSpaceOnUse"
                        gradientTransform="translate(33.5063 24.9037) rotate(45.2835) scale(103.281 81.1041)">
            <stop stop-color="#AF5F5F" stop-opacity="0.02"/>
            <stop offset="1" stop-color="#AF5F5F"/>
        </radialGradient>
        <linearGradient id="paint1_linear_1663_5465" x1="108.187" y1="51.8815" x2="0.335207" y2="52.1878"
                        gradientUnits="userSpaceOnUse">
            <stop stop-opacity="0.4"/>
            <stop offset="0.478947" stop-opacity="0"/>
            <stop offset="1" stop-opacity="0.4"/>
        </linearGradient>
    </defs>
</svg>
