<svg width="110" height="76" viewBox="0 0 110 76" fill="none" xmlns="http://www.w3.org/2000/svg">
    <path d="M1 1L17.25 66H93.0834L109.333 1L76.8334 38.9166L55.1667 1L33.5 38.9166L1 1ZM17.25 90.6666H93.0834H17.25Z"
          fill="url(#paint0_radial_1663_5444)" fill-opacity="0.6"/>
    <path d="M17.25 90.6666H93.0834V73.8334H17.25V90.6666Z" fill="url(#paint1_radial_1663_5444)" fill-opacity="0.6"/>
    <path d="M1 1L17.25 66H93.0834L109.333 1L76.8334 38.9166L55.1667 1L33.5 38.9166L1 1ZM17.25 90.6666H93.0834H17.25Z"
          stroke="url(#paint2_linear_1663_5444)" stroke-linecap="round" stroke-linejoin="round"/>
    <path d="M17.25 90.6666H93.0834V73.8334H17.25V90.6666Z" stroke="url(#paint3_linear_1663_5444)"
          stroke-linecap="round" stroke-linejoin="round"/>
    <defs>
        <radialGradient id="paint0_radial_1663_5444" cx="0" cy="0" r="1" gradientUnits="userSpaceOnUse"
                        gradientTransform="translate(33.6724 70.744) rotate(-39.893) scale(94.7133 73.2013)">
            <stop stop-color="#AF5F5F" stop-opacity="0.02"/>
            <stop offset="1" stop-color="#AF5F5F"/>
        </radialGradient>
        <radialGradient id="paint1_radial_1663_5444" cx="0" cy="0" r="1" gradientUnits="userSpaceOnUse"
                        gradientTransform="translate(33.6724 70.744) rotate(-39.893) scale(94.7133 73.2013)">
            <stop stop-color="#AF5F5F" stop-opacity="0.02"/>
            <stop offset="1" stop-color="#AF5F5F"/>
        </radialGradient>
        <linearGradient id="paint2_linear_1663_5444" x1="108.353" y1="48.4147" x2="0.501622" y2="48.0447"
                        gradientUnits="userSpaceOnUse">
            <stop stop-opacity="0.4"/>
            <stop offset="0.478947" stop-opacity="0"/>
            <stop offset="1" stop-opacity="0.4"/>
        </linearGradient>
        <linearGradient id="paint3_linear_1663_5444" x1="108.353" y1="48.4147" x2="0.501622" y2="48.0447"
                        gradientUnits="userSpaceOnUse">
            <stop stop-opacity="0.4"/>
            <stop offset="0.478947" stop-opacity="0"/>
            <stop offset="1" stop-opacity="0.4"/>
        </linearGradient>
    </defs>
</svg>
