<svg width="689" height="700" viewBox="0 0 689 700" fill="none" xmlns="http://www.w3.org/2000/svg">
    <path d="M178.987 729.97C41.6588 729.97 39.0228 532.717 178.987 532.717C222.682 532.717 288.66 579.018 350.862 624.484C289.081 676.461 225.179 729.97 178.987 729.97Z"
          stroke="url(#paint0_linear_1618_1838)"/>
    <path d="M521.531 729.97C658.859 729.97 661.495 532.717 521.531 532.717C477.836 532.717 411.858 579.018 349.657 624.484C411.437 676.461 475.339 729.97 521.531 729.97Z"
          stroke="url(#paint1_linear_1618_1838)"/>
    <path d="M211.768 711.397C100.395 711.396 98.2573 551.425 211.768 551.425C247.205 551.425 300.712 588.975 351.158 625.848C301.054 668.001 249.23 711.397 211.768 711.397Z"
          stroke="url(#paint2_linear_1618_1838)"/>
    <path d="M489.57 711.397C600.943 711.396 603.081 551.425 489.57 551.425C454.134 551.425 400.626 588.975 350.18 625.848C400.284 668.001 452.109 711.397 489.57 711.397Z"
          stroke="url(#paint3_linear_1618_1838)"/>
    <path d="M247.655 692.3C164.729 692.299 163.137 573.188 247.655 573.188C274.041 573.188 313.882 601.147 351.442 628.601C314.136 659.988 275.549 692.3 247.655 692.3Z"
          stroke="url(#paint4_linear_1618_1838)"/>
    <path d="M454.502 692.3C537.428 692.299 539.02 573.188 454.502 573.188C428.116 573.188 388.275 601.147 350.715 628.601C388.021 659.988 426.608 692.3 454.502 692.3Z"
          stroke="url(#paint5_linear_1618_1838)"/>
    <path d="M279.648 671.895C223.718 671.895 222.645 591.56 279.648 591.56C297.444 591.56 324.315 610.417 349.648 628.934C324.486 650.103 298.461 671.895 279.648 671.895Z"
          stroke="url(#paint6_linear_1618_1838)"/>
    <path d="M419.156 671.895C475.086 671.895 476.159 591.56 419.156 591.56C401.36 591.56 374.489 610.417 349.157 628.934C374.318 650.103 400.343 671.895 419.156 671.895Z"
          stroke="url(#paint7_linear_1618_1838)"/>
    <path d="M313.827 652.213C285.303 652.213 284.755 611.242 313.827 611.242C322.903 611.242 336.607 620.859 349.527 630.303C336.694 641.099 323.421 652.213 313.827 652.213Z"
          stroke="url(#paint8_linear_1618_1838)"/>
    <path d="M384.976 652.213C413.5 652.213 414.047 611.242 384.976 611.242C375.9 611.242 362.196 620.859 349.276 630.303C362.108 641.099 375.381 652.213 384.976 652.213Z"
          stroke="url(#paint9_linear_1618_1838)"/>
    <g filter="url(#filter0_b_1618_1838)">
        <path d="M227.861 472.948L353.265 544.15L484.639 494.46L461.644 679.609L337.701 729.921L220.827 666.086L227.861 472.948Z"
              fill="url(#paint10_linear_1618_1838)"/>
        <path d="M227.861 472.948L353.265 544.15L484.639 494.46L461.644 679.609L337.701 729.921L220.827 666.086L227.861 472.948Z"
              fill="url(#paint11_radial_1618_1838)" fill-opacity="0.4"/>
        <path d="M353.265 544.15L227.861 472.948L220.827 666.086L337.701 729.921M353.265 544.15L484.639 494.46L461.644 679.609L337.701 729.921M353.265 544.15L337.701 729.921"
              stroke="url(#paint12_linear_1618_1838)"/>
    </g>
    <g filter="url(#filter1_b_1618_1838)">
        <path d="M217.129 472.047L208.297 527.846L341.883 610.542L493.561 546.756L494.893 491.161L358.484 412.385L217.129 472.047Z"
              fill="url(#paint13_linear_1618_1838)"/>
        <path d="M217.129 472.047L208.297 527.846L341.883 610.542L493.561 546.756L494.893 491.161L358.484 412.385L217.129 472.047Z"
              fill="url(#paint14_radial_1618_1838)" fill-opacity="0.4"/>
        <path d="M494.893 491.161L345.143 551.782M494.893 491.161L493.561 546.756L341.883 610.542M494.893 491.161L358.484 412.385L217.128 472.047M345.143 551.782L217.128 472.047M345.143 551.782L341.883 610.542M217.128 472.047L208.297 527.846L341.883 610.542"
              stroke="url(#paint15_linear_1618_1838)"/>
    </g>
    <path d="M291.201 659.717L289.308 682.319L287.414 704.922L274.316 697.514L261.218 690.106L247.723 682.473L249.634 659.665L251.544 636.856L253.455 614.047L255.366 591.239L257.277 568.43L259.188 545.622L261.099 522.813L263.01 500.004L280.911 492.254L298.813 484.504L316.715 476.754L334.617 469.004L352.518 461.254L370.42 453.504L388.322 445.754L406.224 438.004L419.31 445.556L432.396 453.108L446.672 461.347L428.658 469.192L410.645 477.036L392.631 484.881L374.617 492.726L356.604 500.57L338.59 508.415L320.576 516.26L302.563 524.104L300.669 546.706L298.776 569.309L296.882 591.911L294.989 614.513L293.095 637.115L291.201 659.717Z"
          fill="url(#paint16_radial_1618_1838)" fill-opacity="0.4"/>
    <path d="M263.01 500.004L261.099 522.813M263.01 500.004L280.911 492.254M263.01 500.004L300.669 546.706M263.01 500.004C264.448 501.788 326.005 501.125 356.604 500.57M406.224 438.004L388.322 445.754M406.224 438.004L428.658 469.192M406.224 438.004L419.31 445.556M446.672 461.347L428.658 469.192M446.672 461.347L352.518 461.254M446.672 461.347L432.396 453.108M302.563 524.104L300.669 546.706M302.563 524.104L320.576 516.26M302.563 524.104L257.277 568.43M302.563 524.104L296.271 514.849M287.414 704.922L289.308 682.319M287.414 704.922L249.634 659.665M287.414 704.922L274.316 697.514M247.723 682.473L249.634 659.665M247.723 682.473L293.095 637.115M247.723 682.473L261.218 690.106M334.617 469.004L316.715 476.754M334.617 469.004L352.518 461.254M334.617 469.004L356.604 500.57M334.617 469.004L428.658 469.192M298.813 484.504L280.911 492.254M298.813 484.504L316.715 476.754M298.813 484.504L320.576 516.26M298.813 484.504C301.229 483.458 362.365 484.32 392.631 484.881M370.42 453.504L352.518 461.254M370.42 453.504L388.322 445.754M370.42 453.504L392.631 484.881M370.42 453.504L432.396 453.108M374.617 492.726L356.604 500.57M374.617 492.726L392.631 484.881M374.617 492.726L352.518 461.254M374.617 492.726L280.911 492.254M338.59 508.415L356.604 500.57M338.59 508.415L316.715 476.754M338.59 508.415L320.576 516.26M338.59 508.415L283.097 508.339L261.099 522.813M410.645 477.036L392.631 484.881M410.645 477.036L428.658 469.192M410.645 477.036L388.322 445.754M410.645 477.036C380.367 477.029 319.192 476.962 316.715 476.754M294.989 614.513L293.095 637.115M294.989 614.513L296.882 591.911M294.989 614.513L257.277 568.43M294.989 614.513L249.634 659.665M298.776 569.309L296.882 591.911M298.776 569.309L300.669 546.706M298.776 569.309L261.099 522.813M298.776 569.309L253.455 614.047M291.201 659.717L289.308 682.319M291.201 659.717L293.095 637.115M291.201 659.717L253.455 614.047M291.201 659.717L261.218 690.106M289.308 682.319L251.544 636.856M289.308 682.319L274.316 697.514M293.095 637.115L255.366 591.239M296.882 591.911L259.188 545.622M296.882 591.911C282.685 605.895 253.74 634.462 251.544 636.856M300.669 546.706L255.366 591.239M255.366 591.239L257.277 568.43M255.366 591.239L253.455 614.047M259.188 545.622L261.099 522.813M259.188 545.622L257.277 568.43M259.188 545.622L296.271 514.849M251.544 636.856L253.455 614.047M251.544 636.856L249.634 659.665M280.911 492.254L296.271 514.849M320.576 516.26L296.271 514.849M388.322 445.754L419.31 445.556M432.396 453.108L419.31 445.556M261.218 690.106L274.316 697.514"
          stroke="url(#paint17_radial_1618_1838)" stroke-width="0.8175"/>
    <path d="M427.258 673.231L425.353 695.971L402.103 705.524L378.854 715.077L380.249 692.225L381.644 669.374L383.039 646.522L384.433 623.67L385.828 600.818L387.223 577.966L388.618 555.114L390.013 532.263L374.14 521.995L358.267 511.727L342.395 501.459L326.522 491.191L310.65 480.924L294.777 470.656L278.904 460.388L263.032 450.12L286.705 440.463L310.379 430.806L326.656 441.212L342.933 451.618L359.21 462.023L375.486 472.429L391.763 482.834L408.04 493.24L424.317 503.646L440.594 514.051L438.689 536.791L436.783 559.531L434.878 582.271L432.973 605.011L431.068 627.751L429.163 650.491L427.258 673.231Z"
          fill="url(#paint18_radial_1618_1838)" fill-opacity="0.4"/>
    <path d="M263.032 450.12L278.904 460.388M263.032 450.12L286.705 440.463M263.032 450.12L342.933 451.618M390.013 532.263L388.618 555.114M390.013 532.263L374.14 521.995M390.013 532.263L408.04 493.24M390.013 532.263L436.783 559.531M378.854 715.077L380.249 692.225M378.854 715.077L429.163 650.491M378.854 715.077L402.103 705.524M425.353 695.971L427.258 673.231M425.353 695.971L402.103 705.524M425.353 695.971L381.644 669.374M440.594 514.051L438.689 536.791M440.594 514.051L424.317 503.646M440.594 514.051L387.223 577.966M440.594 514.051L358.267 511.727M310.379 430.806L326.656 441.212M310.379 430.806L294.777 470.656M310.379 430.806L286.705 440.463M326.522 491.191L342.395 501.459M326.522 491.191L310.65 480.924M326.522 491.191L342.933 451.618M326.522 491.191L408.04 493.24M294.777 470.656L310.65 480.924M294.777 470.656L278.904 460.388M294.777 470.656L375.486 472.429M358.267 511.727L374.14 521.995M358.267 511.727L342.395 501.459M358.267 511.727L375.486 472.429M375.486 472.429L359.21 462.023M375.486 472.429L391.763 482.834M342.933 451.618L326.656 441.212M342.933 451.618L359.21 462.023M408.04 493.24L391.763 482.834M408.04 493.24L424.317 503.646M384.433 623.67L383.039 646.522M384.433 623.67L385.828 600.818M384.433 623.67L436.783 559.531M384.433 623.67L429.163 650.491M381.644 669.374L383.039 646.522M381.644 669.374L380.249 692.225M381.644 669.374L432.973 605.011M387.223 577.966L388.618 555.114M387.223 577.966L385.828 600.818M387.223 577.966L432.973 605.011M432.973 605.011L431.068 627.751M432.973 605.011L434.878 582.271M436.783 559.531L438.689 536.791M436.783 559.531L434.878 582.271M429.163 650.491L427.258 673.231M429.163 650.491L431.068 627.751M427.258 673.231L402.103 705.524M427.258 673.231L383.039 646.522M431.068 627.751L380.249 692.225M431.068 627.751L385.828 600.818M383.039 646.522L434.878 582.271M380.249 692.225L402.103 705.524M388.618 555.114L434.878 582.271M388.618 555.114L413.108 525.259M438.689 536.791L385.828 600.818M438.689 536.791L413.108 525.259M374.14 521.995L391.763 482.834M374.14 521.995L413.108 525.259M342.395 501.459L359.21 462.023M342.395 501.459L424.317 503.646M310.65 480.924L326.656 441.212M310.65 480.924L391.763 482.834M278.904 460.388L286.705 440.463M278.904 460.388L359.21 462.023M326.656 441.212L286.705 440.463M424.317 503.646L415.82 521.953L413.108 525.259"
          stroke="url(#paint19_radial_1618_1838)" stroke-width="0.8175"/>
    <path fill-rule="evenodd" clip-rule="evenodd"
          d="M360.741 391.407C339.007 420.225 345.267 460.027 357.296 484.656C368.593 475.382 382.113 470.801 394.931 466.457C418.382 458.51 439.484 451.36 440.321 417.728C440.461 412.075 439.888 407 438.727 402.48C437.677 398.394 436.147 394.762 434.228 391.569C431.944 387.767 429.111 384.586 425.884 381.998C422.435 379.233 418.537 377.145 414.381 375.703C410.074 374.209 405.49 373.407 400.841 373.261C396.077 373.111 391.245 373.651 386.574 374.84C381.874 376.036 377.337 377.89 373.197 380.361C368.388 383.232 364.114 386.935 360.741 391.407ZM357.296 484.656C366.062 474.11 375.404 464.764 383.791 456.373C397.223 442.936 408.209 431.946 410.47 422.387C410.875 420.673 410.963 419.074 410.783 417.599C410.592 416.027 410.096 414.596 409.356 413.322C408.548 411.932 407.448 410.727 406.136 409.727C404.954 408.826 403.598 408.09 402.127 407.534C400.355 406.864 398.416 406.455 396.408 406.328C394.719 406.221 392.982 406.315 391.257 406.623C389.262 406.98 387.283 407.622 385.411 408.573C383.546 409.52 381.787 410.774 380.227 412.354C368.69 424.037 352.874 448.959 357.296 484.656Z"
          fill="url(#paint20_radial_1618_1838)" fill-opacity="0.4"/>
    <path d="M357.296 484.656C345.267 460.027 339.007 420.225 360.741 391.407C364.114 386.935 368.388 383.232 373.197 380.361C377.337 377.89 381.874 376.036 386.574 374.84C391.245 373.651 396.077 373.111 400.841 373.261C405.49 373.407 410.074 374.209 414.381 375.703C418.537 377.145 422.435 379.233 425.884 381.998C429.111 384.586 431.944 387.767 434.228 391.569C436.147 394.762 437.677 398.394 438.727 402.48C439.888 407 440.461 412.075 440.321 417.728C439.484 451.36 418.382 458.51 394.931 466.457C382.113 470.801 368.593 475.382 357.296 484.656ZM357.296 484.656C352.874 448.959 368.69 424.037 380.227 412.354C381.787 410.774 383.546 409.52 385.411 408.573C387.283 407.622 389.262 406.98 391.257 406.623C392.982 406.315 394.719 406.221 396.408 406.328C398.416 406.455 400.355 406.864 402.127 407.534C403.598 408.09 404.954 408.826 406.136 409.727C407.448 410.727 408.548 411.932 409.356 413.322C410.096 414.596 410.592 416.027 410.783 417.599C410.963 419.074 410.875 420.673 410.47 422.387C408.209 431.946 397.223 442.936 383.791 456.373C375.404 464.764 366.062 474.11 357.296 484.656Z"
          stroke="url(#paint21_radial_1618_1838)" stroke-width="0.8175"/>
    <path fill-rule="evenodd" clip-rule="evenodd"
          d="M336.775 410.563C359.494 428.48 362.745 460.614 358.434 482.159C347.787 477.269 336.372 476.47 325.549 475.713C305.749 474.327 287.933 473.08 280.435 447.175C268.84 407.111 314.056 392.646 336.775 410.563ZM358.434 482.159C349.49 475.767 340.345 470.424 332.133 465.626C318.983 457.943 308.227 451.659 304.528 444.708C298.519 433.417 314.609 424.062 325.933 430.771C337.257 437.48 354.593 453.582 358.434 482.159Z"
          fill="url(#paint22_radial_1618_1838)" fill-opacity="0.4"/>
    <path d="M358.434 482.159C362.745 460.614 359.494 428.48 336.775 410.563C314.056 392.646 268.84 407.111 280.435 447.175C287.933 473.08 305.749 474.327 325.549 475.713C336.372 476.47 347.787 477.269 358.434 482.159ZM358.434 482.159C354.593 453.582 337.257 437.48 325.933 430.771C314.609 424.062 298.519 433.417 304.528 444.708C308.227 451.659 318.983 457.943 332.133 465.626C340.345 470.424 349.49 475.767 358.434 482.159Z"
          stroke="url(#paint23_radial_1618_1838)" stroke-width="0.8175"/>
    <g filter="url(#filter2_b_1618_1838)">
        <path d="M-13.5046 571.391L90.0335 589.271L167.844 522.798L197.751 655.406L125.189 720.472L29.3148 705.538L-13.5046 571.391Z"
              fill="url(#paint24_linear_1618_1838)"/>
        <path d="M-13.5046 571.391L90.0335 589.271L167.844 522.798L197.751 655.406L125.189 720.472L29.3148 705.538L-13.5046 571.391Z"
              fill="url(#paint25_radial_1618_1838)" fill-opacity="0.4"/>
        <path d="M90.0335 589.271L-13.5046 571.391L29.3148 705.538L125.189 720.472M90.0335 589.271L167.844 522.798L197.751 655.406L125.189 720.472M90.0335 589.271L125.189 720.472"
              stroke="url(#paint26_linear_1618_1838)"/>
    </g>
    <g filter="url(#filter3_b_1618_1838)">
        <path d="M-21.0856 573.421L-13.3764 613.854L98.6071 637.596L186.861 556.45L174.06 518.007L61.1083 497.649L-21.0856 573.421Z"
              fill="url(#paint27_linear_1618_1838)"/>
        <path d="M-21.0856 573.421L-13.3764 613.854L98.6071 637.596L186.861 556.45L174.06 518.007L61.1083 497.649L-21.0856 573.421Z"
              fill="url(#paint28_radial_1618_1838)" fill-opacity="0.4"/>
        <path d="M174.06 518.007L86.3475 596.508M174.06 518.007L186.861 556.45L98.6071 637.596M174.06 518.007L61.1083 497.649L-21.0855 573.421M86.3475 596.508L-21.0855 573.421M86.3475 596.508L98.6071 637.596M-21.0855 573.421L-13.3764 613.854L98.6071 637.596"
              stroke="url(#paint29_linear_1618_1838)"/>
    </g>
    <path d="M75.9914 683.813L80.2686 699.775L84.5458 715.738L73.7385 713.89L62.9312 712.043L51.7964 710.139L47.4801 694.03L43.1638 677.922L38.8476 661.813L34.5313 645.705L30.215 629.596L25.8987 613.487L21.5825 597.379L17.2662 581.27L27.6276 571.541L37.989 561.812L48.3504 552.083L58.7118 542.353L69.0733 532.624L79.4347 522.895L89.7961 513.166L100.158 503.436L110.992 505.386L121.827 507.336L133.646 509.463L123.231 519.284L112.817 529.106L102.402 538.928L91.9872 548.749L81.5724 558.571L71.1576 568.393L60.7429 578.214L50.3281 588.036L54.6053 603.999L58.8825 619.962L63.1597 635.924L67.4369 651.887L71.7142 667.85L75.9914 683.813Z"
          fill="url(#paint30_radial_1618_1838)" fill-opacity="0.4"/>
    <path d="M17.2662 581.27L21.5825 597.379M17.2662 581.27L27.6276 571.541M17.2662 581.27L54.6053 603.999M17.2662 581.27C18.692 582.138 60.7311 566.499 81.5724 558.571M100.157 503.436L89.7961 513.166M100.157 503.436L123.231 519.284M100.157 503.436L110.992 505.386M133.646 509.463L123.231 519.284M133.646 509.463L69.0733 532.624M133.646 509.463L121.827 507.336M50.3281 588.036L54.6053 603.999M50.3281 588.036L60.7429 578.214M50.3281 588.036L30.215 629.596M50.3281 588.036L43.7314 583.243M84.5458 715.738L80.2686 699.775M84.5458 715.738L47.4801 694.03M84.5458 715.738L73.7385 713.89M51.7964 710.139L47.4801 694.03M51.7964 710.139L71.7142 667.85M51.7964 710.139L62.9312 712.043M58.7118 542.353L48.3504 552.083M58.7118 542.353L69.0733 532.624M58.7118 542.353L81.5724 558.571M58.7118 542.353L123.231 519.284M37.989 561.812L27.6276 571.541M37.989 561.812L48.3504 552.083M37.989 561.812L60.7429 578.214M37.989 561.812C39.3872 560.499 81.5135 546.009 102.402 538.928M79.4347 522.895L69.0733 532.624M79.4347 522.895L89.7961 513.166M79.4347 522.895L102.402 538.928M79.4347 522.895L121.827 507.336M91.9872 548.749L81.5724 558.571M91.9872 548.749L102.402 538.928M91.9872 548.749L69.0733 532.624M91.9872 548.749L27.6276 571.541M71.1576 568.393L81.5724 558.571M71.1576 568.393L48.3504 552.083M71.1576 568.393L60.7429 578.214M71.1576 568.393L33.094 582.029L21.5825 597.379M112.817 529.106L102.402 538.928M112.817 529.106L123.231 519.284M112.817 529.106L89.7961 513.166M112.817 529.106C92.0569 536.57 50.0998 551.614 48.3504 552.083M67.4369 651.887L71.7142 667.85M67.4369 651.887L63.1597 635.924M67.4369 651.887L30.215 629.596M67.4369 651.887L47.4801 694.03M58.8825 619.962L63.1597 635.924M58.8825 619.962L54.6053 603.999M58.8825 619.962L21.5825 597.379M58.8825 619.962L38.8476 661.813M75.9914 683.813L80.2686 699.775M75.9914 683.813L71.7142 667.85M75.9914 683.813L38.8476 661.813M75.9914 683.813L62.9312 712.043M80.2686 699.775L43.1638 677.922M80.2686 699.775L73.7385 713.89M71.7142 667.85L34.5313 645.705M63.1597 635.924L25.8987 613.487M63.1597 635.924C56.8757 649.014 44.079 675.739 43.1638 677.922M54.6053 603.999L34.5313 645.705M34.5313 645.705L30.215 629.596M34.5313 645.705L38.8476 661.813M25.8987 613.487L21.5825 597.379M25.8987 613.487L30.215 629.596M25.8987 613.487L43.7314 583.243M43.1638 677.922L38.8476 661.813M43.1638 677.922L47.4801 694.03M27.6276 571.541L43.7314 583.243M60.7429 578.214L43.7314 583.243M89.7961 513.166L110.992 505.386M121.827 507.336L110.992 505.386M62.9312 712.043L73.7385 713.89"
          stroke="url(#paint31_radial_1618_1838)" stroke-width="0.8175"/>
    <path d="M172.603 659.515L176.907 675.575L163.324 687.86L149.741 700.144L145.06 684.133L140.379 668.122L135.699 652.112L131.018 636.101L126.337 620.09L121.657 604.079L116.976 588.068L112.295 572.057L98.8803 568.933L85.4654 565.809L72.0506 562.685L58.6358 559.561L45.2209 556.437L31.8061 553.313L18.3913 550.189L4.97643 547.065L18.8247 534.604L32.6729 522.144L46.3988 525.263L60.1248 528.381L73.8507 531.5L87.5766 534.619L101.303 537.738L115.028 540.857L128.754 543.976L142.48 547.094L146.784 563.154L151.087 579.215L155.39 595.275L159.693 611.335L163.997 627.395L168.3 643.455L172.603 659.515Z"
          fill="url(#paint32_radial_1618_1838)" fill-opacity="0.4"/>
    <path d="M4.97643 547.065L18.3913 550.189M4.97643 547.065L18.8247 534.604M4.97643 547.065L60.1248 528.381M112.295 572.057L116.976 588.068M112.295 572.057L98.8803 568.933M112.295 572.057L115.028 540.857M112.295 572.057L151.087 579.215M149.741 700.144L145.06 684.133M149.741 700.144L168.3 643.455M149.741 700.144L163.324 687.86M176.907 675.575L172.603 659.515M176.907 675.575L163.324 687.86M176.907 675.575L140.379 668.122M142.48 547.094L146.784 563.154M142.48 547.094L128.754 543.976M142.48 547.094L121.657 604.079M142.48 547.094L85.4654 565.809M32.6729 522.144L46.3988 525.263M32.6729 522.144L31.8061 553.313M32.6729 522.144L18.8247 534.604M58.6358 559.561L72.0506 562.685M58.6358 559.561L45.2209 556.437M58.6358 559.561L60.1248 528.381M58.6358 559.561L115.028 540.857M31.8061 553.313L45.2209 556.437M31.8061 553.313L18.3913 550.189M31.8061 553.313L87.5766 534.619M85.4654 565.809L98.8803 568.933M85.4654 565.809L72.0506 562.685M85.4654 565.809L87.5766 534.619M87.5766 534.619L73.8507 531.5M87.5766 534.619L101.303 537.738M60.1248 528.381L46.3988 525.263M60.1248 528.381L73.8507 531.5M115.028 540.857L101.303 537.738M115.028 540.857L128.754 543.976M131.018 636.101L135.699 652.112M131.018 636.101L126.337 620.09M131.018 636.101L151.087 579.215M131.018 636.101L168.3 643.455M140.379 668.122L135.699 652.112M140.379 668.122L145.06 684.133M140.379 668.122L159.693 611.335M121.657 604.079L116.976 588.068M121.657 604.079L126.337 620.09M121.657 604.079L159.693 611.335M159.693 611.335L163.997 627.395M159.693 611.335L155.39 595.275M151.087 579.215L146.784 563.154M151.087 579.215L155.39 595.275M168.3 643.455L172.603 659.515M168.3 643.455L163.997 627.395M172.603 659.515L163.324 687.86M172.603 659.515L135.699 652.112M163.997 627.395L145.06 684.133M163.997 627.395L126.337 620.09M135.699 652.112L155.39 595.275M145.06 684.133L163.324 687.86M116.976 588.068L155.39 595.275M116.976 588.068L126.401 561.559M146.784 563.154L126.337 620.09M146.784 563.154L126.401 561.559M98.8803 568.933L101.303 537.738M98.8803 568.933L126.401 561.559M72.0506 562.685L73.8507 531.5M72.0506 562.685L128.754 543.976M45.2209 556.437L46.3988 525.263M45.2209 556.437L101.303 537.738M18.3913 550.189L18.8247 534.604M18.3913 550.189L73.8507 531.5M46.3988 525.263L18.8247 534.604M128.754 543.976L127.445 558.623L126.401 561.559"
          stroke="url(#paint33_radial_1618_1838)" stroke-width="0.8175"/>
    <path fill-rule="evenodd" clip-rule="evenodd"
          d="M57.4809 482.709C49.6893 507.828 63.7993 533.571 78.1217 547.489C83.5788 538.344 91.7179 531.868 99.4345 525.728C113.552 514.495 126.255 504.388 118.532 481.124C117.234 477.214 115.59 473.875 113.678 471.063C111.951 468.521 110.006 466.409 107.903 464.693C105.399 462.649 102.672 461.167 99.8212 460.189C96.7745 459.144 93.5871 458.675 90.3819 458.711C87.0604 458.749 83.7199 459.33 80.497 460.377C77.1938 461.449 74.0142 463.011 71.1053 464.978C68.178 466.958 65.5249 469.348 63.296 472.064C60.7069 475.218 58.6901 478.811 57.4809 482.709ZM78.1217 547.489C81.5299 538.096 85.6291 529.385 89.3097 521.563C95.2037 509.037 100.025 498.792 99.2162 491.681C99.0713 490.407 98.7371 489.288 98.2503 488.322C97.731 487.291 97.0383 486.433 96.2165 485.742C95.3194 484.988 94.2687 484.433 93.1224 484.071C92.0893 483.745 90.9787 483.575 89.8329 483.557C88.4529 483.535 87.022 483.732 85.6145 484.14C84.4302 484.484 83.2625 484.977 82.1557 485.614C80.876 486.35 79.6776 487.279 78.629 488.392C77.5836 489.502 76.6871 490.795 76.0071 492.263C70.9797 503.119 66.2845 524.106 78.1217 547.489Z"
          fill="url(#paint34_radial_1618_1838)" fill-opacity="0.4"/>
    <path d="M78.1217 547.489C63.7993 533.571 49.6893 507.828 57.4809 482.709C58.6901 478.811 60.7069 475.218 63.296 472.064C65.5249 469.348 68.178 466.958 71.1053 464.978C74.0142 463.011 77.1938 461.449 80.497 460.377C83.7199 459.33 87.0604 458.749 90.3819 458.711C93.5871 458.675 96.7745 459.144 99.8212 460.189C102.672 461.167 105.399 462.649 107.903 464.693C110.006 466.409 111.951 468.521 113.678 471.063C115.59 473.875 117.234 477.214 118.532 481.124C126.255 504.388 113.552 514.495 99.4345 525.728C91.7179 531.868 83.5788 538.344 78.1217 547.489ZM78.1217 547.489C66.2845 524.106 70.9797 503.119 76.0071 492.263C76.6871 490.795 77.5836 489.502 78.629 488.392C79.6776 487.279 80.876 486.35 82.1557 485.614C83.2625 484.977 84.4302 484.484 85.6145 484.14C87.022 483.732 88.4529 483.535 89.8329 483.557C90.9787 483.575 92.0893 483.745 93.1224 484.071C94.2687 484.433 95.3194 484.988 96.2165 485.742C97.0383 486.433 97.731 487.291 98.2503 488.322C98.7371 489.288 99.0713 490.407 99.2162 491.681C100.025 498.792 95.2037 509.037 89.3097 521.563C85.6291 529.385 81.5299 538.096 78.1217 547.489Z"
          stroke="url(#paint35_radial_1618_1838)" stroke-width="0.8175"/>
    <path fill-rule="evenodd" clip-rule="evenodd"
          d="M45.7759 501.755C65.7713 508.434 75.9271 529.663 78.286 545.497C69.7805 544.771 61.7572 547.039 54.1505 549.189C40.2341 553.123 27.7119 556.663 16.1818 540.753C-1.65071 516.146 25.7806 495.075 45.7759 501.755ZM78.286 545.497C70.5774 543.321 62.9893 541.914 56.1759 540.65C45.2653 538.627 36.3413 536.972 32.0907 533.119C25.1857 526.86 33.9092 516.477 43.3275 518.284C52.7459 520.09 68.6034 526.852 78.286 545.497Z"
          fill="url(#paint36_radial_1618_1838)" fill-opacity="0.4"/>
    <path d="M78.286 545.497C75.9271 529.663 65.7713 508.434 45.7759 501.755C25.7806 495.075 -1.65071 516.146 16.1818 540.753C27.7119 556.663 40.2341 553.123 54.1505 549.189C61.7572 547.039 69.7805 544.771 78.286 545.497ZM78.286 545.497C68.6034 526.852 52.7459 520.09 43.3275 518.284C33.9092 516.477 25.1857 526.86 32.0907 533.119C36.3413 536.972 45.2653 538.627 56.1759 540.65C62.9893 541.914 70.5774 543.321 78.286 545.497Z"
          stroke="url(#paint37_radial_1618_1838)" stroke-width="0.8175"/>
    <g filter="url(#filter4_b_1618_1838)">
        <path d="M635.29 582.95L585.435 615.296L530.179 598.055L544.149 673.663L596.363 691.341L642.889 662.233L635.29 582.95Z"
              fill="url(#paint38_linear_1618_1838)"/>
        <path d="M635.29 582.95L585.435 615.296L530.179 598.055L544.149 673.663L596.363 691.341L642.889 662.233L635.29 582.95Z"
              fill="url(#paint39_radial_1618_1838)" fill-opacity="0.4"/>
        <path d="M585.435 615.296L635.29 582.95L642.889 662.233L596.363 691.341M585.435 615.296L530.179 598.055L544.149 673.663L596.363 691.341M585.435 615.296L596.363 691.341"
              stroke="url(#paint40_linear_1618_1838)"/>
    </g>
    <g filter="url(#filter5_b_1618_1838)">
        <path d="M639.684 582.319L644.676 605.059L591.735 642.333L527.782 619.787L525.88 596.949L580.078 561.219L639.684 582.319Z"
              fill="url(#paint41_linear_1618_1838)"/>
        <path d="M639.684 582.319L644.676 605.059L591.735 642.333L527.782 619.787L525.88 596.949L580.078 561.219L639.684 582.319Z"
              fill="url(#paint42_radial_1618_1838)" fill-opacity="0.4"/>
        <path d="M525.88 596.949L588.962 618.24M525.88 596.949L527.782 619.787L591.735 642.333M525.88 596.949L580.078 561.219L639.684 582.319M588.962 618.24L639.684 582.319M588.962 618.24L591.735 642.333M639.684 582.319L644.676 605.059L591.735 642.333"
              stroke="url(#paint43_linear_1618_1838)"/>
    </g>
    <path d="M613.782 661.328L615.112 670.58L616.441 679.833L621.649 676.466L626.857 673.099L632.223 669.631L630.882 660.294L629.54 650.957L628.198 641.621L626.856 632.284L625.515 622.947L624.173 613.611L622.831 604.274L621.49 594.937L613.936 592.185L606.383 589.433L598.829 586.681L591.276 583.929L583.723 581.176L576.169 578.424L568.616 575.672L561.063 572.92L555.863 576.345L550.664 579.771L544.991 583.508L552.593 586.297L560.195 589.085L567.796 591.873L575.398 594.662L583 597.45L590.602 600.239L598.203 603.027L605.805 605.815L607.134 615.067L608.464 624.32L609.794 633.572L611.123 642.824L612.453 652.076L613.782 661.328Z"
          fill="url(#paint44_radial_1618_1838)" fill-opacity="0.4"/>
    <path d="M621.49 594.937L622.831 604.274M621.49 594.937L613.936 592.185M621.49 594.937L607.134 615.067M621.49 594.937C620.941 595.706 595.601 596.933 583 597.45M561.063 572.92L568.616 575.672M561.063 572.92L552.593 586.297M561.063 572.92L555.863 576.345M544.991 583.508L552.593 586.297M544.991 583.508L583.723 581.176M544.991 583.508L550.664 579.771M605.805 605.815L607.134 615.067M605.805 605.815L598.203 603.027M605.805 605.815L625.515 622.947M605.805 605.815L608.168 601.854M616.441 679.833L615.112 670.58M616.441 679.833L630.882 660.294M616.441 679.833L621.649 676.466M632.223 669.631L630.882 660.294M632.223 669.631L612.453 652.076M632.223 669.631L626.857 673.099M591.276 583.929L598.829 586.681M591.276 583.929L583.723 581.176M591.276 583.929L583 597.45M591.276 583.929L552.593 586.297M606.383 589.433L613.936 592.185M606.383 589.433L598.829 586.681M606.383 589.433L598.203 603.027M606.383 589.433C605.364 589.062 580.234 590.905 567.796 591.873M576.169 578.424L583.723 581.176M576.169 578.424L568.616 575.672M576.169 578.424L567.796 591.873M576.169 578.424L550.664 579.771M575.398 594.662L583 597.45M575.398 594.662L567.796 591.873M575.398 594.662L583.723 581.176M575.398 594.662L613.936 592.185M590.602 600.239L583 597.45M590.602 600.239L598.829 586.681M590.602 600.239L598.203 603.027M590.602 600.239L613.429 598.855L622.831 604.274M560.195 589.085L567.796 591.873M560.195 589.085L552.593 586.297M560.195 589.085L568.616 575.672M560.195 589.085C572.651 588.344 597.816 586.827 598.829 586.681M611.123 642.824L612.453 652.076M611.123 642.824L609.794 633.572M611.123 642.824L625.515 622.947M611.123 642.824L630.882 660.294M608.464 624.32L609.794 633.572M608.464 624.32L607.134 615.067M608.464 624.32L622.831 604.274M608.464 624.32L628.198 641.621M613.782 661.328L615.112 670.58M613.782 661.328L612.453 652.076M613.782 661.328L628.198 641.621M613.782 661.328L626.857 673.099M615.112 670.58L629.54 650.957M615.112 670.58L621.649 676.466M612.453 652.076L626.856 632.284M609.794 633.572L624.173 613.611M609.794 633.572C615.975 638.979 628.578 650.026 629.54 650.957M607.134 615.067L626.856 632.284M626.856 632.284L625.515 622.947M626.856 632.284L628.198 641.621M624.173 613.611L622.831 604.274M624.173 613.611L625.515 622.947M624.173 613.611L608.168 601.854M629.54 650.957L628.198 641.621M629.54 650.957L630.882 660.294M613.936 592.185L608.168 601.854M598.203 603.027L608.168 601.854M568.616 575.672L555.863 576.345M550.664 579.771L555.863 576.345M626.857 673.099L621.649 676.466"
          stroke="url(#paint45_radial_1618_1838)" stroke-width="0.8175"/>
    <path d="M558.139 670.202L559.477 679.511L569.274 682.874L579.071 686.238L577.941 676.871L576.81 667.504L575.68 658.137L574.549 648.77L573.419 639.403L572.289 630.036L571.158 620.669L570.028 611.302L576.307 606.691L582.587 602.081L588.867 597.47L595.146 592.859L601.426 588.249L607.706 583.638L613.985 579.027L620.265 574.417L610.291 571.02L600.316 567.624L593.874 572.302L587.431 576.979L580.989 581.656L574.546 586.333L568.103 591.011L561.661 595.688L555.218 600.365L548.776 605.042L550.113 614.351L551.451 623.659L552.789 632.968L554.126 642.276L555.464 651.585L556.802 660.894L558.139 670.202Z"
          fill="url(#paint46_radial_1618_1838)" fill-opacity="0.4"/>
    <path d="M620.265 574.417L613.985 579.027M620.265 574.417L610.291 571.02M620.265 574.417L587.431 576.979M570.028 611.302L571.158 620.669M570.028 611.302L576.307 606.691M570.028 611.302L561.661 595.688M570.028 611.302L551.451 623.659M579.071 686.238L577.941 676.871M579.071 686.238L556.802 660.894M579.071 686.238L569.274 682.874M559.477 679.511L558.139 670.202M559.477 679.511L569.274 682.874M559.477 679.511L576.81 667.504M548.776 605.042L550.113 614.351M548.776 605.042L555.218 600.365M548.776 605.042L572.289 630.036M548.776 605.042L582.587 602.081M600.316 567.624L593.874 572.302M600.316 567.624L607.706 583.638M600.316 567.624L610.291 571.02M595.146 592.859L588.867 597.47M595.146 592.859L601.426 588.249M595.146 592.859L587.431 576.979M595.146 592.859L561.661 595.688M607.706 583.638L601.426 588.249M607.706 583.638L613.985 579.027M607.706 583.638L574.546 586.333M582.587 602.081L576.307 606.691M582.587 602.081L588.867 597.47M582.587 602.081L574.546 586.333M574.546 586.333L580.989 581.656M574.546 586.333L568.103 591.011M587.431 576.979L593.874 572.302M587.431 576.979L580.989 581.656M561.661 595.688L568.103 591.011M561.661 595.688L555.218 600.365M574.549 648.77L575.68 658.137M574.549 648.77L573.419 639.403M574.549 648.77L551.451 623.659M574.549 648.77L556.802 660.894M576.81 667.504L575.68 658.137M576.81 667.504L577.941 676.871M576.81 667.504L554.126 642.276M572.289 630.036L571.158 620.669M572.289 630.036L573.419 639.403M572.289 630.036L554.126 642.276M554.126 642.276L555.464 651.585M554.126 642.276L552.789 632.968M551.451 623.659L550.113 614.351M551.451 623.659L552.789 632.968M556.802 660.894L558.139 670.202M556.802 660.894L555.464 651.585M558.139 670.202L569.274 682.874M558.139 670.202L575.68 658.137M555.464 651.585L577.941 676.871M555.464 651.585L573.419 639.403M575.68 658.137L552.789 632.968M577.941 676.871L569.274 682.874M571.158 620.669L552.789 632.968M571.158 620.669L560.356 608.984M550.113 614.351L573.419 639.403M550.113 614.351L560.356 608.984M576.307 606.691L568.103 591.011M576.307 606.691L560.356 608.984M588.867 597.47L580.989 581.656M588.867 597.47L555.218 600.365M601.426 588.249L593.874 572.302M601.426 588.249L568.103 591.011M613.985 579.027L610.291 571.02M613.985 579.027L580.989 581.656M593.874 572.302L610.291 571.02M555.218 600.365L559.16 607.69L560.356 608.984"
          stroke="url(#paint47_radial_1618_1838)" stroke-width="0.8175"/>
    <path fill-rule="evenodd" clip-rule="evenodd"
          d="M578.639 552.643C588.282 563.969 586.676 580.496 582.327 590.921C577.454 587.381 571.78 585.825 566.401 584.351C556.56 581.653 547.705 579.225 546.541 565.41C546.346 563.088 546.458 560.986 546.826 559.098C547.158 557.392 547.699 555.86 548.411 554.5C549.258 552.88 550.346 551.502 551.61 550.359C552.962 549.138 554.514 548.184 556.189 547.489C557.925 546.77 559.791 546.328 561.7 546.155C563.656 545.977 565.657 546.082 567.607 546.457C569.57 546.835 571.482 547.487 573.245 548.402C575.294 549.466 577.142 550.885 578.639 552.643ZM582.327 590.921C578.464 586.796 574.393 583.179 570.738 579.931C564.885 574.73 560.098 570.477 558.935 566.599C558.727 565.904 558.652 565.248 558.69 564.637C558.73 563.986 558.899 563.385 559.173 562.843C559.471 562.251 559.894 561.729 560.41 561.286C560.874 560.886 561.414 560.55 562.006 560.286C562.718 559.967 563.506 559.751 564.329 559.65C565.021 559.565 565.738 559.562 566.455 559.646C567.285 559.744 568.114 559.961 568.908 560.306C569.698 560.65 570.452 561.123 571.133 561.735C576.163 566.26 583.277 576.128 582.327 590.921Z"
          fill="url(#paint48_radial_1618_1838)" fill-opacity="0.4"/>
    <path d="M582.327 590.921C586.676 580.496 588.282 563.969 578.639 552.643C577.142 550.885 575.294 549.466 573.245 548.402C571.482 547.487 569.57 546.835 567.607 546.457C565.657 546.082 563.656 545.977 561.7 546.155C559.791 546.328 557.925 546.77 556.189 547.489C554.514 548.184 552.962 549.138 551.61 550.359C550.346 551.502 549.258 552.88 548.411 554.5C547.699 555.86 547.158 557.392 546.826 559.098C546.458 560.986 546.346 563.088 546.541 565.41C547.705 579.225 556.56 581.653 566.401 584.351C571.78 585.825 577.454 587.381 582.327 590.921ZM582.327 590.921C583.277 576.128 576.163 566.26 571.133 561.735C570.452 561.123 569.698 560.65 568.908 560.306C568.114 559.961 567.285 559.744 566.455 559.646C565.738 559.562 565.021 559.565 564.329 559.65C563.506 559.751 562.718 559.967 562.006 560.286C561.414 560.55 560.874 560.886 560.41 561.286C559.894 561.729 559.471 562.251 559.173 562.843C558.899 563.385 558.73 563.986 558.69 564.637C558.652 565.248 558.727 565.904 558.935 566.599C560.098 570.477 564.885 574.73 570.738 579.931C574.393 583.179 578.464 586.796 582.327 590.921Z"
          stroke="url(#paint49_radial_1618_1838)" stroke-width="0.8175"/>
    <path fill-rule="evenodd" clip-rule="evenodd"
          d="M588.965 559.94C580.055 567.864 579.5 581.163 581.798 589.921C586.059 587.65 590.736 587.043 595.17 586.468C603.281 585.416 610.581 584.469 613.034 573.629C616.828 556.865 597.874 552.015 588.965 559.94ZM581.798 589.921C585.322 587.074 588.954 584.653 592.216 582.479C597.438 578.998 601.71 576.151 603.062 573.201C605.259 568.41 598.412 564.953 593.917 567.989C589.422 571.025 582.682 578.071 581.798 589.921Z"
          fill="url(#paint50_radial_1618_1838)" fill-opacity="0.4"/>
    <path d="M581.798 589.921C579.5 581.163 580.055 567.864 588.965 559.94C597.874 552.015 616.828 556.865 613.034 573.629C610.581 584.469 603.281 585.416 595.17 586.468C590.736 587.043 586.059 587.65 581.798 589.921ZM581.798 589.921C582.682 578.071 589.422 571.025 593.917 567.989C598.412 564.953 605.259 568.41 603.062 573.201C601.71 576.151 597.438 578.998 592.216 582.479C588.954 584.653 585.322 587.074 581.798 589.921Z"
          stroke="url(#paint51_radial_1618_1838)" stroke-width="0.8175"/>
    <g filter="url(#filter6_b_1618_1838)">
        <path d="M543.354 279.306L597.632 324.525L665.287 311.978L638.121 399.248L573.994 412.741L523.189 371.813L543.354 279.306Z"
              fill="url(#paint52_linear_1618_1838)"/>
        <path d="M543.354 279.306L597.632 324.525L665.287 311.978L638.121 399.248L573.994 412.741L523.189 371.813L543.354 279.306Z"
              fill="url(#paint53_radial_1618_1838)" fill-opacity="0.4"/>
        <path d="M597.632 324.525L543.354 279.306L523.189 371.813L573.994 412.741M597.632 324.525L665.287 311.978L638.121 399.248L573.994 412.741M597.632 324.525L573.994 412.741"
              stroke="url(#paint54_linear_1618_1838)"/>
    </g>
    <g filter="url(#filter7_b_1618_1838)">
        <path d="M538.257 277.94L529.153 304.075L586.378 355.547L665.047 337.967L670.518 311.278L611.591 261.451L538.257 277.94Z"
              fill="url(#paint55_linear_1618_1838)"/>
        <path d="M538.257 277.94L529.153 304.075L586.378 355.547L665.047 337.967L670.518 311.278L611.591 261.451L538.257 277.94Z"
              fill="url(#paint56_radial_1618_1838)" fill-opacity="0.4"/>
        <path d="M670.518 311.278L593.053 327.5M670.518 311.278L665.047 337.967L586.378 355.547M670.518 311.278L611.591 261.451L538.257 277.94M593.053 327.5L538.257 277.94M593.053 327.5L586.378 355.547M538.257 277.94L529.153 304.075L586.378 355.547"
              stroke="url(#paint57_linear_1618_1838)"/>
    </g>
    <path d="M557.672 374.856L554.796 385.589L551.92 396.321L546.248 391.612L540.577 386.903L534.733 382.051L537.635 371.22L540.537 360.389L543.439 349.558L546.341 338.728L549.244 327.897L552.146 317.066L555.048 306.235L557.95 295.404L567.254 293.222L576.558 291.04L585.862 288.858L595.167 286.676L604.471 284.494L613.775 282.313L623.079 280.131L632.383 277.949L638.037 282.727L643.69 287.504L649.857 292.716L640.491 294.934L631.125 297.152L621.759 299.37L612.392 301.587L603.026 303.805L593.66 306.023L584.293 308.241L574.927 310.458L572.051 321.191L569.175 331.924L566.299 342.657L563.424 353.39L560.548 364.123L557.672 374.856Z"
          fill="url(#paint58_radial_1618_1838)" fill-opacity="0.4"/>
    <path d="M557.95 295.404L555.048 306.235M557.95 295.404L567.254 293.222M557.95 295.404L572.051 321.191M557.95 295.404C558.488 296.389 588.225 301.415 603.026 303.805M632.383 277.949L623.079 280.131M632.383 277.949L640.491 294.934M632.383 277.949L638.037 282.727M649.857 292.716L640.491 294.934M649.857 292.716L604.471 284.494M649.857 292.716L643.69 287.504M574.927 310.458L572.051 321.191M574.927 310.458L584.293 308.241M574.927 310.458L549.244 327.897M574.927 310.458L572.697 305.449M551.92 396.321L554.796 385.589M551.92 396.321L537.635 371.22M551.92 396.321L546.248 391.612M534.733 382.051L537.635 371.22M534.733 382.051L560.548 364.123M534.733 382.051L540.577 386.903M595.167 286.676L585.862 288.858M595.167 286.676L604.471 284.494M595.167 286.676L603.026 303.805M595.167 286.676L640.491 294.934M576.558 291.04L567.254 293.222M576.558 291.04L585.862 288.858M576.558 291.04L584.293 308.241M576.558 291.04C577.814 290.746 607.215 296.47 621.759 299.37M613.775 282.313L604.471 284.494M613.775 282.313L623.079 280.131M613.775 282.313L621.759 299.37M613.775 282.313L643.69 287.504M612.392 301.587L603.026 303.805M612.392 301.587L621.759 299.37M612.392 301.587L604.471 284.494M612.392 301.587L567.254 293.222M593.66 306.023L603.026 303.805M593.66 306.023L585.862 288.858M593.66 306.023L584.293 308.241M593.66 306.023L566.911 301.167L555.048 306.235M631.125 297.152L621.759 299.37M631.125 297.152L640.491 294.934M631.125 297.152L623.079 280.131M631.125 297.152C616.527 294.519 587.039 289.173 585.862 288.858M563.424 353.39L560.548 364.123M563.424 353.39L566.299 342.657M563.424 353.39L549.244 327.897M563.424 353.39L537.635 371.22M569.175 331.924L566.299 342.657M569.175 331.924L572.051 321.191M569.175 331.924L555.048 306.235M569.175 331.924L543.439 349.558M557.672 374.856L554.796 385.589M557.672 374.856L560.548 364.123M557.672 374.856L543.439 349.558M557.672 374.856L540.577 386.903M554.796 385.589L540.537 360.389M554.796 385.589L546.248 391.612M560.548 364.123L546.341 338.728M566.299 342.657L552.146 317.066M566.299 342.657C558.24 348.166 541.804 359.426 540.537 360.389M572.051 321.191L546.341 338.728M546.341 338.728L549.244 327.897M546.341 338.728L543.439 349.558M552.146 317.066L555.048 306.235M552.146 317.066L549.244 327.897M552.146 317.066L572.697 305.449M540.537 360.389L543.439 349.558M540.537 360.389L537.635 371.22M567.254 293.222L572.697 305.449M584.293 308.241L572.697 305.449M623.079 280.131L638.037 282.727M643.69 287.504L638.037 282.727M540.577 386.903L546.248 391.612"
          stroke="url(#paint59_radial_1618_1838)" stroke-width="0.8175"/>
    <path d="M622.096 393.186L619.203 403.985L607.164 406.571L595.125 409.158L597.782 398.262L600.439 387.365L603.096 376.468L605.753 365.572L608.41 354.675L611.067 343.779L613.724 332.882L616.381 321.986L609.62 315.657L602.859 309.328L596.098 302.999L589.337 296.67L582.576 290.341L575.815 284.012L569.054 277.683L562.293 271.354L574.546 268.754L586.798 266.154L593.742 272.584L600.686 279.015L607.63 285.445L614.574 291.876L621.518 298.306L628.462 304.737L635.406 311.167L642.35 317.598L639.457 328.396L636.563 339.195L633.67 349.993L630.776 360.791L627.883 371.59L624.99 382.388L622.096 393.186Z"
          fill="url(#paint60_radial_1618_1838)" fill-opacity="0.4"/>
    <path d="M562.293 271.354L569.054 277.683M562.293 271.354L574.546 268.754M562.293 271.354L600.686 279.015M616.381 321.986L613.724 332.882M616.381 321.986L609.62 315.657M616.381 321.986L628.462 304.737M616.381 321.986L636.563 339.195M595.125 409.158L597.782 398.262M595.125 409.158L624.99 382.388M595.125 409.158L607.164 406.571M619.203 403.985L622.096 393.186M619.203 403.985L607.164 406.571M619.203 403.985L600.439 387.365M642.35 317.598L639.457 328.396M642.35 317.598L635.406 311.167M642.35 317.598L611.067 343.779M642.35 317.598L602.859 309.328M586.798 266.154L593.742 272.584M586.798 266.154L575.815 284.012M586.798 266.154L574.546 268.754M589.337 296.67L596.098 302.999M589.337 296.67L582.576 290.341M589.337 296.67L600.686 279.015M589.337 296.67L628.462 304.737M575.815 284.012L582.576 290.341M575.815 284.012L569.054 277.683M575.815 284.012L614.574 291.876M602.859 309.328L609.62 315.657M602.859 309.328L596.098 302.999M602.859 309.328L614.574 291.876M614.574 291.876L607.63 285.445M614.574 291.876L621.518 298.306M600.686 279.015L593.742 272.584M600.686 279.015L607.63 285.445M628.462 304.737L621.518 298.306M628.462 304.737L635.406 311.167M605.753 365.572L603.096 376.468M605.753 365.572L608.41 354.675M605.753 365.572L636.563 339.195M605.753 365.572L624.99 382.388M600.439 387.365L603.096 376.468M600.439 387.365L597.782 398.262M600.439 387.365L630.776 360.791M611.067 343.779L613.724 332.882M611.067 343.779L608.41 354.675M611.067 343.779L630.776 360.791M630.776 360.791L627.883 371.59M630.776 360.791L633.67 349.993M636.563 339.195L639.457 328.396M636.563 339.195L633.67 349.993M624.99 382.388L622.096 393.186M624.99 382.388L627.883 371.59M622.096 393.186L607.164 406.571M622.096 393.186L603.096 376.468M627.883 371.59L597.782 398.262M627.883 371.59L608.41 354.675M603.096 376.468L633.67 349.993M597.782 398.262L607.164 406.571M613.724 332.882L633.67 349.993M613.724 332.882L628.125 320.615M639.457 328.396L608.41 354.675M639.457 328.396L628.125 320.615M609.62 315.657L621.518 298.306M609.62 315.657L628.125 320.615M596.098 302.999L607.63 285.445M596.098 302.999L635.406 311.167M582.576 290.341L593.742 272.584M582.576 290.341L621.518 298.306M569.054 277.683L574.546 268.754M569.054 277.683L607.63 285.445M593.742 272.584L574.546 268.754M635.406 311.167L629.719 319.256L628.125 320.615"
          stroke="url(#paint61_radial_1618_1838)" stroke-width="0.8175"/>
    <path fill-rule="evenodd" clip-rule="evenodd"
          d="M614.501 251.532C601.52 263.539 601.081 283.272 604.742 296.191C610.994 292.701 617.91 291.667 624.468 290.685C636.465 288.891 647.259 287.276 650.584 271.133C651.142 268.42 651.307 265.923 651.139 263.643C650.988 261.582 650.566 259.698 649.918 257.992C649.147 255.961 648.057 254.181 646.726 252.653C645.304 251.02 643.605 249.675 641.727 248.619C639.78 247.524 637.64 246.74 635.411 246.266C633.127 245.78 630.75 245.62 628.395 245.788C626.025 245.956 623.677 246.456 621.466 247.288C618.898 248.254 616.516 249.669 614.501 251.532ZM604.742 296.191C609.884 291.868 615.2 288.173 619.973 284.856C627.616 279.544 633.867 275.199 635.787 270.787C636.131 269.996 636.312 269.233 636.354 268.506C636.398 267.731 636.283 266.999 636.037 266.32C635.768 265.579 635.343 264.903 634.797 264.307C634.305 263.77 633.715 263.297 633.054 262.902C632.258 262.425 631.359 262.059 630.402 261.823C629.597 261.625 628.751 261.52 627.892 261.518C626.9 261.517 625.89 261.655 624.905 261.951C623.923 262.245 622.966 262.697 622.077 263.323C615.5 267.954 605.71 278.596 604.742 296.191Z"
          fill="url(#paint62_radial_1618_1838)" fill-opacity="0.4"/>
    <path d="M604.742 296.191C601.081 283.272 601.52 263.539 614.501 251.532C616.516 249.669 618.898 248.254 621.466 247.288C623.677 246.456 626.025 245.956 628.395 245.788C630.75 245.62 633.127 245.78 635.411 246.266C637.64 246.74 639.78 247.524 641.727 248.619C643.605 249.675 645.304 251.02 646.726 252.653C648.057 254.181 649.147 255.961 649.918 257.992C650.566 259.698 650.988 261.582 651.139 263.643C651.307 265.923 651.142 268.42 650.584 271.133C647.259 287.276 636.465 288.891 624.468 290.685C617.91 291.667 610.994 292.701 604.742 296.191ZM604.742 296.191C605.71 278.596 615.5 267.954 622.077 263.323C622.966 262.697 623.923 262.245 624.905 261.951C625.89 261.655 626.9 261.517 627.892 261.518C628.751 261.52 629.597 261.625 630.402 261.823C631.359 262.059 632.258 262.425 633.054 262.902C633.715 263.297 634.305 263.77 634.797 264.307C635.343 264.903 635.768 265.579 636.037 266.32C636.283 266.999 636.398 267.731 636.354 268.506C636.312 269.233 636.131 269.996 635.787 270.787C633.867 275.199 627.616 279.544 619.973 284.856C615.2 288.173 609.884 291.868 604.742 296.191Z"
          stroke="url(#paint63_radial_1618_1838)" stroke-width="0.8175"/>
    <path fill-rule="evenodd" clip-rule="evenodd"
          d="M601.282 258.687C610.68 269.298 609.457 285.073 605.507 295.086C600.799 291.804 595.364 290.428 590.212 289.123C580.786 286.735 572.305 284.586 570.939 271.446C568.828 251.122 591.885 248.075 601.282 258.687ZM605.507 295.086C601.75 291.228 597.805 287.858 594.262 284.831C588.589 279.985 583.949 276.021 582.77 272.349C580.853 266.383 589.423 263.27 594.3 267.488C599.177 271.706 606.137 280.975 605.507 295.086Z"
          fill="url(#paint64_radial_1618_1838)" fill-opacity="0.4"/>
    <path d="M605.507 295.086C609.457 285.073 610.68 269.298 601.282 258.687C591.885 248.075 568.828 251.122 570.939 271.446C572.305 284.586 580.786 286.735 590.212 289.123C595.364 290.428 600.799 291.804 605.507 295.086ZM605.507 295.086C606.137 280.975 599.177 271.706 594.3 267.488C589.423 263.27 580.853 266.383 582.77 272.349C583.949 276.021 588.589 279.985 594.262 284.831C597.805 287.858 601.75 291.228 605.507 295.086Z"
          stroke="url(#paint65_radial_1618_1838)" stroke-width="0.8175"/>
    <g filter="url(#filter8_b_1618_1838)">
        <path d="M500.233 17.5801L463.803 47.931L418.393 39.5092L436.626 98.0839L479.668 107.14L513.768 79.6703L500.233 17.5801Z"
              fill="url(#paint66_linear_1618_1838)"/>
        <path d="M500.233 17.5801L463.803 47.931L418.393 39.5092L436.626 98.0839L479.668 107.14L513.768 79.6703L500.233 17.5801Z"
              fill="url(#paint67_radial_1618_1838)" fill-opacity="0.4"/>
        <path d="M463.803 47.931L500.233 17.5801L513.768 79.6703L479.668 107.14M463.803 47.931L418.393 39.5092L436.626 98.0839L479.668 107.14M463.803 47.931L479.668 107.14"
              stroke="url(#paint68_linear_1618_1838)"/>
    </g>
    <g filter="url(#filter9_b_1618_1838)">
        <path d="M503.654 16.6631L509.765 34.2049L471.356 68.7525L418.554 56.9524L414.882 39.0392L454.433 5.59583L503.654 16.6631Z"
              fill="url(#paint69_linear_1618_1838)"/>
        <path d="M503.654 16.6631L509.765 34.2049L471.356 68.7525L418.554 56.9524L414.882 39.0392L454.433 5.59583L503.654 16.6631Z"
              fill="url(#paint70_radial_1618_1838)" fill-opacity="0.4"/>
        <path d="M414.882 39.0392L466.876 49.9276M414.882 39.0392L418.554 56.9524L471.356 68.7525M414.882 39.0392L454.433 5.59583L503.654 16.6631M466.876 49.9276L503.654 16.6631M466.876 49.9276L471.356 68.7525M503.654 16.6631L509.765 34.2049L471.356 68.7525"
              stroke="url(#paint71_linear_1618_1838)"/>
    </g>
    <path d="M490.623 81.7117L492.553 88.9155L494.484 96.1193L498.29 92.9585L502.097 89.7977L506.019 86.5412L504.072 79.2716L502.124 72.002L500.176 64.7324L498.228 57.4628L496.28 50.1932L494.332 42.9236L492.384 35.654L490.436 28.3844L484.192 26.92L477.947 25.4555L471.702 23.9911L465.457 22.5266L459.212 21.0622L452.967 19.5977L446.722 18.1332L440.478 16.6688L436.683 19.8755L432.889 23.0823L428.749 26.5805L435.036 28.0691L441.322 29.5576L447.609 31.0461L453.895 32.5347L460.182 34.0232L466.468 35.5118L472.755 37.0003L479.042 38.4888L480.972 45.6926L482.902 52.8964L484.832 60.1002L486.763 67.3041L488.693 74.5079L490.623 81.7117Z"
          fill="url(#paint72_radial_1618_1838)" fill-opacity="0.4"/>
    <path d="M490.436 28.3844L492.384 35.654M490.436 28.3844L484.192 26.92M490.436 28.3844L480.972 45.6926M490.436 28.3844C490.075 29.0454 470.116 32.419 460.182 34.0232M440.478 16.6688L446.722 18.1332M440.478 16.6688L435.036 28.0691M440.478 16.6688L436.683 19.8755M428.749 26.5805L435.036 28.0691M428.749 26.5805L459.212 21.0622M428.749 26.5805L432.889 23.0823M479.042 38.4888L480.972 45.6926M479.042 38.4888L472.755 37.0003M479.042 38.4888L496.28 50.1932M479.042 38.4888L480.538 35.127M494.484 96.1193L492.553 88.9155M494.484 96.1193L504.072 79.2716M494.484 96.1193L498.29 92.9585M506.019 86.5412L504.072 79.2716M506.019 86.5412L488.693 74.5079M506.019 86.5412L502.097 89.7977M465.457 22.5266L471.702 23.9911M465.457 22.5266L459.212 21.0622M465.457 22.5266L460.182 34.0232M465.457 22.5266L435.036 28.0691M477.947 25.4555L484.192 26.92M477.947 25.4555L471.702 23.9911M477.947 25.4555L472.755 37.0003M477.947 25.4555C477.104 25.2579 457.37 29.1003 447.609 31.0461M452.967 19.5977L459.212 21.0622M452.967 19.5977L446.722 18.1332M452.967 19.5977L447.609 31.0461M452.967 19.5977L432.889 23.0823M453.895 32.5347L460.182 34.0232M453.895 32.5347L447.609 31.0461M453.895 32.5347L459.212 21.0622M453.895 32.5347L484.192 26.92M466.468 35.5118L460.182 34.0232M466.468 35.5118L471.702 23.9911M466.468 35.5118L472.755 37.0003M466.468 35.5118L484.422 32.2525L492.384 35.654M441.322 29.5576L447.609 31.0461M441.322 29.5576L435.036 28.0691M441.322 29.5576L446.722 18.1332M441.322 29.5576C451.12 27.7902 470.912 24.2026 471.702 23.9911M486.763 67.3041L488.693 74.5079M486.763 67.3041L484.832 60.1002M486.763 67.3041L496.28 50.1932M486.763 67.3041L504.072 79.2716M482.902 52.8964L484.832 60.1002M482.902 52.8964L480.972 45.6926M482.902 52.8964L492.384 35.654M482.902 52.8964L500.176 64.7324M490.623 81.7117L492.553 88.9155M490.623 81.7117L488.693 74.5079M490.623 81.7117L500.176 64.7324M490.623 81.7117L502.097 89.7977M492.553 88.9155L502.124 72.002M492.553 88.9155L498.29 92.9585M488.693 74.5079L498.228 57.4628M484.832 60.1002L494.332 42.9236M484.832 60.1002C490.242 63.7981 501.274 71.3554 502.124 72.002M480.972 45.6926L498.228 57.4628M498.228 57.4628L496.28 50.1932M498.228 57.4628L500.176 64.7324M494.332 42.9236L492.384 35.654M494.332 42.9236L496.28 50.1932M494.332 42.9236L480.538 35.127M502.124 72.002L500.176 64.7324M502.124 72.002L504.072 79.2716M484.192 26.92L480.538 35.127M472.755 37.0003L480.538 35.127M446.722 18.1332L436.683 19.8755M432.889 23.0823L436.683 19.8755M502.097 89.7977L498.29 92.9585"
          stroke="url(#paint73_radial_1618_1838)" stroke-width="0.8175"/>
    <path d="M447.382 94.0149L449.324 101.263L457.404 102.999L465.485 104.735L463.701 97.4214L461.918 90.1077L460.135 82.7941L458.351 75.4804L456.568 68.1668L454.784 60.8531L453.001 53.5394L451.218 46.2258L455.756 41.9778L460.294 37.7299L464.831 33.482L469.369 29.234L473.907 24.9861L478.445 20.7382L482.983 16.4902L487.521 12.2423L479.297 10.4972L471.073 8.75216L466.413 13.0682L461.752 17.3843L457.091 21.7004L452.431 26.0165L447.77 30.3326L443.109 34.6487L438.449 38.9648L433.788 43.2808L435.73 50.5286L437.672 57.7763L439.614 65.024L441.556 72.2717L443.498 79.5195L445.44 86.7672L447.382 94.0149Z"
          fill="url(#paint74_radial_1618_1838)" fill-opacity="0.4"/>
    <path d="M487.521 12.2423L482.983 16.4902M487.521 12.2423L479.297 10.4972M487.521 12.2423L461.752 17.3843M451.218 46.2258L453.001 53.5394M451.218 46.2258L455.756 41.9778M451.218 46.2258L443.109 34.6487M451.218 46.2258L437.672 57.7763M465.485 104.735L463.701 97.4214M465.485 104.735L445.44 86.7672M465.485 104.735L457.404 102.999M449.324 101.263L447.382 94.0149M449.324 101.263L457.404 102.999M449.324 101.263L461.918 90.1077M433.788 43.2808L435.73 50.5286M433.788 43.2808L438.449 38.9648M433.788 43.2808L454.784 60.8531M433.788 43.2808L460.294 37.7299M471.073 8.75216L466.413 13.0682M471.073 8.75216L478.445 20.7382M471.073 8.75216L479.297 10.4972M469.369 29.234L464.831 33.482M469.369 29.234L473.907 24.9861M469.369 29.234L461.752 17.3843M469.369 29.234L443.109 34.6487M478.445 20.7382L473.907 24.9861M478.445 20.7382L482.983 16.4902M478.445 20.7382L452.431 26.0165M460.294 37.7299L455.756 41.9778M460.294 37.7299L464.831 33.482M460.294 37.7299L452.431 26.0165M452.431 26.0165L457.091 21.7004M452.431 26.0165L447.77 30.3326M461.752 17.3843L466.413 13.0682M461.752 17.3843L457.091 21.7004M443.109 34.6487L447.77 30.3326M443.109 34.6487L438.449 38.9648M458.351 75.4804L460.135 82.7941M458.351 75.4804L456.568 68.1668M458.351 75.4804L437.672 57.7763M458.351 75.4804L445.44 86.7672M461.918 90.1077L460.135 82.7941M461.918 90.1077L463.701 97.4214M461.918 90.1077L441.556 72.2717M454.784 60.8531L453.001 53.5394M454.784 60.8531L456.568 68.1668M454.784 60.8531L441.556 72.2717M441.556 72.2717L443.498 79.5195M441.556 72.2717L439.614 65.024M437.672 57.7763L435.73 50.5286M437.672 57.7763L439.614 65.024M445.44 86.7672L447.382 94.0149M445.44 86.7672L443.498 79.5195M447.382 94.0149L457.404 102.999M447.382 94.0149L460.135 82.7941M443.498 79.5195L463.701 97.4214M443.498 79.5195L456.568 68.1668M460.135 82.7941L439.614 65.024M463.701 97.4214L457.404 102.999M453.001 53.5394L439.614 65.024M453.001 53.5394L443.336 45.3057M435.73 50.5286L456.568 68.1668M435.73 50.5286L443.336 45.3057M455.756 41.9778L447.77 30.3326M455.756 41.9778L443.336 45.3057M464.831 33.482L457.091 21.7004M464.831 33.482L438.449 38.9648M473.907 24.9861L466.413 13.0682M473.907 24.9861L447.77 30.3326M482.983 16.4902L479.297 10.4972M482.983 16.4902L457.091 21.7004M466.413 13.0682L479.297 10.4972M438.449 38.9648L442.265 44.3938L443.336 45.3057"
          stroke="url(#paint75_radial_1618_1838)" stroke-width="0.8175"/>
    <path fill-rule="evenodd" clip-rule="evenodd"
          d="M452.48 -1.0615C461.193 6.99733 461.487 20.2423 459.03 28.9135C454.834 26.5709 450.191 25.8764 445.79 25.218C437.738 24.0133 430.493 22.9294 428.262 12.0948C427.887 10.2737 427.776 8.59785 427.889 7.06755C427.99 5.68417 428.274 4.41972 428.708 3.27441C429.226 1.91097 429.957 0.716372 430.851 -0.309029C431.806 -1.40504 432.945 -2.30775 434.206 -3.01673C435.513 -3.75142 436.95 -4.27809 438.445 -4.59625C439.978 -4.92233 441.573 -5.02941 443.154 -4.91695C444.745 -4.80379 446.321 -4.4683 447.805 -3.90998C449.529 -3.26144 451.128 -2.31222 452.48 -1.0615ZM459.03 28.9135C455.579 26.0116 452.011 23.5319 448.807 21.3054C443.678 17.7401 439.482 14.8239 438.193 11.8623C437.962 11.3315 437.84 10.819 437.813 10.3314C437.783 9.81131 437.86 9.31956 438.025 8.86416C438.206 8.36698 438.491 7.91312 438.857 7.51298C439.188 7.15237 439.583 6.8354 440.027 6.56969C440.561 6.24964 441.165 6.00396 441.807 5.84597C442.348 5.71303 442.915 5.64218 443.492 5.64134C444.158 5.64036 444.836 5.73298 445.497 5.93144C446.156 6.1293 446.798 6.43234 447.395 6.85274C451.81 9.96106 458.38 17.1039 459.03 28.9135Z"
          fill="url(#paint76_radial_1618_1838)" fill-opacity="0.4"/>
    <path d="M459.03 28.9135C461.487 20.2423 461.193 6.99733 452.48 -1.0615C451.128 -2.31222 449.529 -3.26144 447.805 -3.90998C446.321 -4.4683 444.745 -4.80379 443.154 -4.91695C441.573 -5.02941 439.978 -4.92233 438.445 -4.59625C436.95 -4.27809 435.513 -3.75142 434.206 -3.01673C432.945 -2.30775 431.806 -1.40504 430.851 -0.309029C429.957 0.716372 429.226 1.91097 428.708 3.27441C428.274 4.41972 427.99 5.68417 427.889 7.06755C427.776 8.59785 427.887 10.2737 428.262 12.0948C430.493 22.9294 437.738 24.0133 445.79 25.218C450.191 25.8764 454.834 26.5709 459.03 28.9135ZM459.03 28.9135C458.38 17.1039 451.81 9.96106 447.395 6.85274C446.798 6.43234 446.156 6.1293 445.497 5.93144C444.836 5.73298 444.158 5.64036 443.492 5.64134C442.915 5.64218 442.348 5.71303 441.807 5.84597C441.165 6.00396 440.561 6.24964 440.027 6.56969C439.583 6.8354 439.188 7.15237 438.857 7.51298C438.491 7.91312 438.206 8.36698 438.025 8.86416C437.86 9.31956 437.783 9.81131 437.813 10.3314C437.84 10.819 437.962 11.3315 438.193 11.8623C439.482 14.8239 443.678 17.7401 448.807 21.3054C452.011 23.5319 455.579 26.0116 459.03 28.9135Z"
          stroke="url(#paint77_radial_1618_1838)" stroke-width="0.8175"/>
    <path fill-rule="evenodd" clip-rule="evenodd"
          d="M461.352 3.74067C455.045 10.8631 455.866 21.4512 458.517 28.1719C461.677 25.9689 465.324 25.0449 468.782 24.169C475.109 22.5664 480.802 21.1244 481.718 12.3045C483.135 -1.33633 467.66 -3.38174 461.352 3.74067ZM458.517 28.1719C461.038 25.5821 463.686 23.3199 466.064 21.2887C469.872 18.036 472.986 15.3755 473.778 12.9105C475.064 8.90625 469.312 6.81699 466.039 9.64811C462.765 12.4792 458.094 18.7003 458.517 28.1719Z"
          fill="url(#paint78_radial_1618_1838)" fill-opacity="0.4"/>
    <path d="M458.517 28.1719C455.866 21.4512 455.045 10.8631 461.352 3.74067C467.66 -3.38174 483.135 -1.33633 481.718 12.3045C480.802 21.1244 475.109 22.5664 468.782 24.169C465.324 25.0449 461.677 25.9689 458.517 28.1719ZM458.517 28.1719C458.094 18.7003 462.765 12.4792 466.039 9.64811C469.312 6.81699 475.064 8.90625 473.778 12.9105C472.986 15.3755 469.872 18.036 466.064 21.2887C463.686 23.3199 461.038 25.5821 458.517 28.1719Z"
          stroke="url(#paint79_radial_1618_1838)" stroke-width="0.8175"/>
    <defs>
        <filter id="filter0_b_1618_1838" x="190.316" y="442.106" width="324.921" height="318.367"
                filterUnits="userSpaceOnUse" color-interpolation-filters="sRGB">
            <feFlood flood-opacity="0" result="BackgroundImageFix"/>
            <feGaussianBlur in="BackgroundImage" stdDeviation="15"/>
            <feComposite in2="SourceAlpha" operator="in" result="effect1_backgroundBlur_1618_1838"/>
            <feBlend mode="normal" in="SourceGraphic" in2="effect1_backgroundBlur_1618_1838" result="shape"/>
        </filter>
        <filter id="filter1_b_1618_1838" x="177.751" y="381.828" width="347.649" height="259.274"
                filterUnits="userSpaceOnUse" color-interpolation-filters="sRGB">
            <feFlood flood-opacity="0" result="BackgroundImageFix"/>
            <feGaussianBlur in="BackgroundImage" stdDeviation="15"/>
            <feComposite in2="SourceAlpha" operator="in" result="effect1_backgroundBlur_1618_1838"/>
            <feBlend mode="normal" in="SourceGraphic" in2="effect1_backgroundBlur_1618_1838" result="shape"/>
        </filter>
        <filter id="filter2_b_1618_1838" x="-44.2314" y="491.88" width="272.535" height="259.123"
                filterUnits="userSpaceOnUse" color-interpolation-filters="sRGB">
            <feFlood flood-opacity="0" result="BackgroundImageFix"/>
            <feGaussianBlur in="BackgroundImage" stdDeviation="15"/>
            <feComposite in2="SourceAlpha" operator="in" result="effect1_backgroundBlur_1618_1838"/>
            <feBlend mode="normal" in="SourceGraphic" in2="effect1_backgroundBlur_1618_1838" result="shape"/>
        </filter>
        <filter id="filter3_b_1618_1838" x="-51.6287" y="467.112" width="269.066" height="201.026"
                filterUnits="userSpaceOnUse" color-interpolation-filters="sRGB">
            <feFlood flood-opacity="0" result="BackgroundImageFix"/>
            <feGaussianBlur in="BackgroundImage" stdDeviation="15"/>
            <feComposite in2="SourceAlpha" operator="in" result="effect1_backgroundBlur_1618_1838"/>
            <feBlend mode="normal" in="SourceGraphic" in2="effect1_backgroundBlur_1618_1838" result="shape"/>
        </filter>
        <filter id="filter4_b_1618_1838" x="499.537" y="552.082" width="173.879" height="169.809"
                filterUnits="userSpaceOnUse" color-interpolation-filters="sRGB">
            <feFlood flood-opacity="0" result="BackgroundImageFix"/>
            <feGaussianBlur in="BackgroundImage" stdDeviation="15"/>
            <feComposite in2="SourceAlpha" operator="in" result="effect1_backgroundBlur_1618_1838"/>
            <feBlend mode="normal" in="SourceGraphic" in2="effect1_backgroundBlur_1618_1838" result="shape"/>
        </filter>
        <filter id="filter5_b_1618_1838" x="495.357" y="530.664" width="179.879" height="142.227"
                filterUnits="userSpaceOnUse" color-interpolation-filters="sRGB">
            <feFlood flood-opacity="0" result="BackgroundImageFix"/>
            <feGaussianBlur in="BackgroundImage" stdDeviation="15"/>
            <feComposite in2="SourceAlpha" operator="in" result="effect1_backgroundBlur_1618_1838"/>
            <feBlend mode="normal" in="SourceGraphic" in2="effect1_backgroundBlur_1618_1838" result="shape"/>
        </filter>
        <filter id="filter6_b_1618_1838" x="492.635" y="248.395" width="203.376" height="194.885"
                filterUnits="userSpaceOnUse" color-interpolation-filters="sRGB">
            <feFlood flood-opacity="0" result="BackgroundImageFix"/>
            <feGaussianBlur in="BackgroundImage" stdDeviation="15"/>
            <feComposite in2="SourceAlpha" operator="in" result="effect1_backgroundBlur_1618_1838"/>
            <feBlend mode="normal" in="SourceGraphic" in2="effect1_backgroundBlur_1618_1838" result="shape"/>
        </filter>
        <filter id="filter7_b_1618_1838" x="498.572" y="230.908" width="202.495" height="155.184"
                filterUnits="userSpaceOnUse" color-interpolation-filters="sRGB">
            <feFlood flood-opacity="0" result="BackgroundImageFix"/>
            <feGaussianBlur in="BackgroundImage" stdDeviation="15"/>
            <feComposite in2="SourceAlpha" operator="in" result="effect1_backgroundBlur_1618_1838"/>
            <feBlend mode="normal" in="SourceGraphic" in2="effect1_backgroundBlur_1618_1838" result="shape"/>
        </filter>
        <filter id="filter8_b_1618_1838" x="387.669" y="-13.3311" width="156.653" height="151.01"
                filterUnits="userSpaceOnUse" color-interpolation-filters="sRGB">
            <feFlood flood-opacity="0" result="BackgroundImageFix"/>
            <feGaussianBlur in="BackgroundImage" stdDeviation="15"/>
            <feComposite in2="SourceAlpha" operator="in" result="effect1_backgroundBlur_1618_1838"/>
            <feBlend mode="normal" in="SourceGraphic" in2="effect1_backgroundBlur_1618_1838" result="shape"/>
        </filter>
        <filter id="filter9_b_1618_1838" x="384.333" y="-24.9463" width="156.013" height="124.243"
                filterUnits="userSpaceOnUse" color-interpolation-filters="sRGB">
            <feFlood flood-opacity="0" result="BackgroundImageFix"/>
            <feGaussianBlur in="BackgroundImage" stdDeviation="15"/>
            <feComposite in2="SourceAlpha" operator="in" result="effect1_backgroundBlur_1618_1838"/>
            <feBlend mode="normal" in="SourceGraphic" in2="effect1_backgroundBlur_1618_1838" result="shape"/>
        </filter>
        <linearGradient id="paint0_linear_1618_1838" x1="348.365" y1="637.022" x2="73.732" y2="635.931"
                        gradientUnits="userSpaceOnUse">
            <stop stop-opacity="0.4"/>
            <stop offset="0.612268" stop-opacity="0.2"/>
            <stop offset="1" stop-opacity="0.265083"/>
        </linearGradient>
        <linearGradient id="paint1_linear_1618_1838" x1="352.153" y1="637.022" x2="626.786" y2="635.931"
                        gradientUnits="userSpaceOnUse">
            <stop stop-opacity="0.4"/>
            <stop offset="0.612268" stop-opacity="0.2"/>
            <stop offset="1" stop-opacity="0.265083"/>
        </linearGradient>
        <linearGradient id="paint2_linear_1618_1838" x1="349.133" y1="636.016" x2="126.406" y2="635.132"
                        gradientUnits="userSpaceOnUse">
            <stop stop-opacity="0.4"/>
            <stop offset="0.612268" stop-opacity="0.2"/>
            <stop offset="1" stop-opacity="0.265083"/>
        </linearGradient>
        <linearGradient id="paint3_linear_1618_1838" x1="352.205" y1="636.016" x2="574.932" y2="635.132"
                        gradientUnits="userSpaceOnUse">
            <stop stop-opacity="0.4"/>
            <stop offset="0.612268" stop-opacity="0.2"/>
            <stop offset="1" stop-opacity="0.265083"/>
        </linearGradient>
        <linearGradient id="paint4_linear_1618_1838" x1="349.935" y1="636.173" x2="184.097" y2="635.514"
                        gradientUnits="userSpaceOnUse">
            <stop stop-opacity="0.4"/>
            <stop offset="0.612268" stop-opacity="0.2"/>
            <stop offset="1" stop-opacity="0.265083"/>
        </linearGradient>
        <linearGradient id="paint5_linear_1618_1838" x1="352.222" y1="636.173" x2="518.06" y2="635.514"
                        gradientUnits="userSpaceOnUse">
            <stop stop-opacity="0.4"/>
            <stop offset="0.612268" stop-opacity="0.2"/>
            <stop offset="1" stop-opacity="0.265083"/>
        </linearGradient>
        <linearGradient id="paint6_linear_1618_1838" x1="348.631" y1="634.04" x2="236.781" y2="633.596"
                        gradientUnits="userSpaceOnUse">
            <stop stop-opacity="0.4"/>
            <stop offset="0.612268" stop-opacity="0.2"/>
            <stop offset="1" stop-opacity="0.265083"/>
        </linearGradient>
        <linearGradient id="paint7_linear_1618_1838" x1="350.173" y1="634.04" x2="462.023" y2="633.596"
                        gradientUnits="userSpaceOnUse">
            <stop stop-opacity="0.4"/>
            <stop offset="0.612268" stop-opacity="0.2"/>
            <stop offset="1" stop-opacity="0.265083"/>
        </linearGradient>
        <linearGradient id="paint8_linear_1618_1838" x1="349.008" y1="632.907" x2="291.964" y2="632.681"
                        gradientUnits="userSpaceOnUse">
            <stop stop-opacity="0.4"/>
            <stop offset="0.612268" stop-opacity="0.2"/>
            <stop offset="1" stop-opacity="0.265083"/>
        </linearGradient>
        <linearGradient id="paint9_linear_1618_1838" x1="349.794" y1="632.907" x2="406.838" y2="632.681"
                        gradientUnits="userSpaceOnUse">
            <stop stop-opacity="0.4"/>
            <stop offset="0.612268" stop-opacity="0.2"/>
            <stop offset="1" stop-opacity="0.265083"/>
        </linearGradient>
        <linearGradient id="paint10_linear_1618_1838" x1="500.899" y1="532.359" x2="328.737" y2="766.842"
                        gradientUnits="userSpaceOnUse">
            <stop stop-color="#38393A" stop-opacity="0.4"/>
            <stop offset="0.478947" stop-color="#353637" stop-opacity="0"/>
            <stop offset="1" stop-color="#373839" stop-opacity="0.4"/>
        </linearGradient>
        <radialGradient id="paint11_radial_1618_1838" cx="0" cy="0" r="1" gradientUnits="userSpaceOnUse"
                        gradientTransform="translate(289.27 670.813) rotate(-39.2715) scale(240.528 188.789)">
            <stop stop-color="#AF5F5F" stop-opacity="0.02"/>
            <stop offset="1" stop-color="#AF5F5F"/>
        </radialGradient>
        <linearGradient id="paint12_linear_1618_1838" x1="500.899" y1="532.359" x2="328.737" y2="766.842"
                        gradientUnits="userSpaceOnUse">
            <stop stop-color="#38393A"/>
            <stop offset="0.478947" stop-color="#353637" stop-opacity="0.2"/>
            <stop offset="1" stop-color="#373839"/>
        </linearGradient>
        <linearGradient id="paint13_linear_1618_1838" x1="195.091" y1="428.122" x2="277.624" y2="665.212"
                        gradientUnits="userSpaceOnUse">
            <stop stop-color="#38393A" stop-opacity="0.4"/>
            <stop offset="0.478947" stop-color="#353637" stop-opacity="0"/>
            <stop offset="1" stop-color="#373839" stop-opacity="0.4"/>
        </linearGradient>
        <radialGradient id="paint14_radial_1618_1838" cx="0" cy="0" r="1" gradientUnits="userSpaceOnUse"
                        gradientTransform="translate(404.978 571.491) rotate(-140.12) scale(234.333 173.126)">
            <stop stop-color="#AF5F5F" stop-opacity="0.02"/>
            <stop offset="1" stop-color="#AF5F5F"/>
        </radialGradient>
        <linearGradient id="paint15_linear_1618_1838" x1="195.091" y1="428.122" x2="277.624" y2="665.212"
                        gradientUnits="userSpaceOnUse">
            <stop stop-color="#38393A"/>
            <stop offset="0.478947" stop-color="#353637" stop-opacity="0.2"/>
            <stop offset="1" stop-color="#373839"/>
        </linearGradient>
        <radialGradient id="paint16_radial_1618_1838" cx="0" cy="0" r="1" gradientUnits="userSpaceOnUse"
                        gradientTransform="translate(347.232 571.497) rotate(94.7889) scale(137.952 89.8969)">
            <stop stop-color="#373839" stop-opacity="0"/>
            <stop offset="1" stop-color="#373839" stop-opacity="0.4"/>
        </radialGradient>
        <radialGradient id="paint17_radial_1618_1838" cx="0" cy="0" r="1" gradientUnits="userSpaceOnUse"
                        gradientTransform="translate(342.805 557.472) rotate(147.28) scale(137.399 2674.34)">
            <stop stop-color="#38393A"/>
            <stop offset="0.633102" stop-color="#353637" stop-opacity="0.2"/>
            <stop offset="0.961227" stop-color="#373839" stop-opacity="0.4"/>
        </radialGradient>
        <radialGradient id="paint18_radial_1618_1838" cx="0" cy="0" r="1" gradientUnits="userSpaceOnUse"
                        gradientTransform="translate(344.204 572.907) rotate(94.7889) scale(138.781 91.1397)">
            <stop stop-color="#373839" stop-opacity="0"/>
            <stop offset="1" stop-color="#373839" stop-opacity="0.4"/>
        </radialGradient>
        <radialGradient id="paint19_radial_1618_1838" cx="0" cy="0" r="1" gradientUnits="userSpaceOnUse"
                        gradientTransform="translate(339.707 558.794) rotate(147.494) scale(138.901 2698.1)">
            <stop stop-color="#38393A"/>
            <stop offset="0.633102" stop-color="#353637" stop-opacity="0.2"/>
            <stop offset="0.961227" stop-color="#373839" stop-opacity="0.4"/>
        </radialGradient>
        <radialGradient id="paint20_radial_1618_1838" cx="0" cy="0" r="1" gradientUnits="userSpaceOnUse"
                        gradientTransform="translate(387.022 429.415) rotate(130.495) scale(61.3121 44.7413)">
            <stop stop-color="#373839" stop-opacity="0"/>
            <stop offset="1" stop-color="#373839" stop-opacity="0.4"/>
        </radialGradient>
        <radialGradient id="paint21_radial_1618_1838" cx="0" cy="0" r="1" gradientUnits="userSpaceOnUse"
                        gradientTransform="translate(388.837 423.012) rotate(-173.934) scale(65.7653 1235.9)">
            <stop stop-color="#38393A"/>
            <stop offset="0.633102" stop-color="#353637" stop-opacity="0.2"/>
            <stop offset="0.961227" stop-color="#373839" stop-opacity="0.4"/>
        </radialGradient>
        <radialGradient id="paint22_radial_1618_1838" cx="0" cy="0" r="1" gradientUnits="userSpaceOnUse"
                        gradientTransform="translate(324.138 445.383) rotate(34.7889) scale(49.1483 35.865)">
            <stop stop-color="#373839" stop-opacity="0"/>
            <stop offset="1" stop-color="#373839" stop-opacity="0.4"/>
        </radialGradient>
        <radialGradient id="paint23_radial_1618_1838" cx="0" cy="0" r="1" gradientUnits="userSpaceOnUse"
                        gradientTransform="translate(321.428 440.788) rotate(-20.7823) scale(52.718 990.709)">
            <stop stop-color="#38393A"/>
            <stop offset="0.633102" stop-color="#353637" stop-opacity="0.2"/>
            <stop offset="0.961227" stop-color="#373839" stop-opacity="0.4"/>
        </radialGradient>
        <linearGradient id="paint24_linear_1618_1838" x1="188.341" y1="544.77" x2="128.15" y2="747.996"
                        gradientUnits="userSpaceOnUse">
            <stop stop-color="#38393A" stop-opacity="0.4"/>
            <stop offset="0.478947" stop-color="#353637" stop-opacity="0"/>
            <stop offset="1" stop-color="#373839" stop-opacity="0.4"/>
        </linearGradient>
        <radialGradient id="paint25_radial_1618_1838" cx="0" cy="0" r="1" gradientUnits="userSpaceOnUse"
                        gradientTransform="translate(77.4044 691.895) rotate(-59.0604) scale(175.251 137.554)">
            <stop stop-color="#AF5F5F" stop-opacity="0.02"/>
            <stop offset="1" stop-color="#AF5F5F"/>
        </radialGradient>
        <linearGradient id="paint26_linear_1618_1838" x1="188.341" y1="544.77" x2="128.15" y2="747.996"
                        gradientUnits="userSpaceOnUse">
            <stop stop-color="#38393A"/>
            <stop offset="0.478947" stop-color="#353637" stop-opacity="0.2"/>
            <stop offset="1" stop-color="#373839"/>
        </linearGradient>
        <linearGradient id="paint27_linear_1618_1838" x1="-47.0296" y1="548.743" x2="68.038" y2="690.929"
                        gradientUnits="userSpaceOnUse">
            <stop stop-color="#38393A" stop-opacity="0.4"/>
            <stop offset="0.478947" stop-color="#353637" stop-opacity="0"/>
            <stop offset="1" stop-color="#373839" stop-opacity="0.4"/>
        </linearGradient>
        <radialGradient id="paint28_radial_1618_1838" cx="0" cy="0" r="1" gradientUnits="userSpaceOnUse"
                        gradientTransform="translate(132.231 595.26) rotate(-159.909) scale(170.738 126.142)">
            <stop stop-color="#AF5F5F" stop-opacity="0.02"/>
            <stop offset="1" stop-color="#AF5F5F"/>
        </radialGradient>
        <linearGradient id="paint29_linear_1618_1838" x1="-47.0296" y1="548.743" x2="68.038" y2="690.929"
                        gradientUnits="userSpaceOnUse">
            <stop stop-color="#38393A"/>
            <stop offset="0.478947" stop-color="#353637" stop-opacity="0.2"/>
            <stop offset="1" stop-color="#373839"/>
        </linearGradient>
        <radialGradient id="paint30_radial_1618_1838" cx="0" cy="0" r="1" gradientUnits="userSpaceOnUse"
                        gradientTransform="translate(92.6432 609.509) rotate(75) scale(100.514 65.4999)">
            <stop stop-color="#373839" stop-opacity="0"/>
            <stop offset="1" stop-color="#373839" stop-opacity="0.4"/>
        </radialGradient>
        <radialGradient id="paint31_radial_1618_1838" cx="0" cy="0" r="1" gradientUnits="userSpaceOnUse"
                        gradientTransform="translate(86.1489 600.986) rotate(127.491) scale(100.11 1948.55)">
            <stop stop-color="#38393A"/>
            <stop offset="0.633102" stop-color="#353637" stop-opacity="0.2"/>
            <stop offset="0.961227" stop-color="#373839" stop-opacity="0.4"/>
        </radialGradient>
        <radialGradient id="paint32_radial_1618_1838" cx="0" cy="0" r="1" gradientUnits="userSpaceOnUse"
                        gradientTransform="translate(90.9153 611.222) rotate(75) scale(101.117 66.4054)">
            <stop stop-color="#373839" stop-opacity="0"/>
            <stop offset="1" stop-color="#373839" stop-opacity="0.4"/>
        </radialGradient>
        <radialGradient id="paint33_radial_1618_1838" cx="0" cy="0" r="1" gradientUnits="userSpaceOnUse"
                        gradientTransform="translate(84.3513 602.656) rotate(127.705) scale(101.205 1965.86)">
            <stop stop-color="#38393A"/>
            <stop offset="0.633102" stop-color="#353637" stop-opacity="0.2"/>
            <stop offset="0.961227" stop-color="#373839" stop-opacity="0.4"/>
        </radialGradient>
        <radialGradient id="paint34_radial_1618_1838" cx="0" cy="0" r="1" gradientUnits="userSpaceOnUse"
                        gradientTransform="translate(84.8747 502.284) rotate(110.706) scale(44.6727 32.599)">
            <stop stop-color="#373839" stop-opacity="0"/>
            <stop offset="1" stop-color="#373839" stop-opacity="0.4"/>
        </radialGradient>
        <radialGradient id="paint35_radial_1618_1838" cx="0" cy="0" r="1" gradientUnits="userSpaceOnUse"
                        gradientTransform="translate(84.5392 497.447) rotate(166.277) scale(47.9173 900.492)">
            <stop stop-color="#38393A"/>
            <stop offset="0.633102" stop-color="#353637" stop-opacity="0.2"/>
            <stop offset="0.961227" stop-color="#373839" stop-opacity="0.4"/>
        </radialGradient>
        <radialGradient id="paint36_radial_1618_1838" cx="0" cy="0" r="1" gradientUnits="userSpaceOnUse"
                        gradientTransform="translate(45.7017 528.744) rotate(15) scale(35.81 26.1316)">
            <stop stop-color="#373839" stop-opacity="0"/>
            <stop offset="1" stop-color="#373839" stop-opacity="0.4"/>
        </radialGradient>
        <radialGradient id="paint37_radial_1618_1838" cx="0" cy="0" r="1" gradientUnits="userSpaceOnUse"
                        gradientTransform="translate(42.7099 526.262) rotate(-40.5712) scale(38.4109 721.842)">
            <stop stop-color="#38393A"/>
            <stop offset="0.633102" stop-color="#353637" stop-opacity="0.2"/>
            <stop offset="0.961227" stop-color="#373839" stop-opacity="0.4"/>
        </radialGradient>
        <linearGradient id="paint38_linear_1618_1838" x1="524.413" y1="614.042" x2="600.95" y2="706.312"
                        gradientUnits="userSpaceOnUse">
            <stop stop-color="#38393A" stop-opacity="0.4"/>
            <stop offset="0.478947" stop-color="#353637" stop-opacity="0"/>
            <stop offset="1" stop-color="#373839" stop-opacity="0.4"/>
        </linearGradient>
        <radialGradient id="paint39_radial_1618_1838" cx="0" cy="0" r="1" gradientUnits="userSpaceOnUse"
                        gradientTransform="translate(614.847 665.845) rotate(-144.117) scale(99.1237 77.8018)">
            <stop stop-color="#AF5F5F" stop-opacity="0.02"/>
            <stop offset="1" stop-color="#AF5F5F"/>
        </radialGradient>
        <linearGradient id="paint40_linear_1618_1838" x1="524.413" y1="614.042" x2="600.95" y2="706.312"
                        gradientUnits="userSpaceOnUse">
            <stop stop-color="#38393A"/>
            <stop offset="0.478947" stop-color="#353637" stop-opacity="0.2"/>
            <stop offset="1" stop-color="#373839"/>
        </linearGradient>
        <linearGradient id="paint41_linear_1618_1838" x1="647.68" y1="563.712" x2="619.502" y2="663.259"
                        gradientUnits="userSpaceOnUse">
            <stop stop-color="#38393A" stop-opacity="0.4"/>
            <stop offset="0.478947" stop-color="#353637" stop-opacity="0"/>
            <stop offset="1" stop-color="#373839" stop-opacity="0.4"/>
        </linearGradient>
        <radialGradient id="paint42_radial_1618_1838" cx="0" cy="0" r="1" gradientUnits="userSpaceOnUse"
                        gradientTransform="translate(564.827 627.805) rotate(-43.2683) scale(96.5707 71.3469)">
            <stop stop-color="#AF5F5F" stop-opacity="0.02"/>
            <stop offset="1" stop-color="#AF5F5F"/>
        </radialGradient>
        <linearGradient id="paint43_linear_1618_1838" x1="647.68" y1="563.712" x2="619.502" y2="663.259"
                        gradientUnits="userSpaceOnUse">
            <stop stop-color="#38393A"/>
            <stop offset="0.478947" stop-color="#353637" stop-opacity="0.2"/>
            <stop offset="1" stop-color="#373839"/>
        </linearGradient>
        <radialGradient id="paint44_radial_1618_1838" cx="0" cy="0" r="1" gradientUnits="userSpaceOnUse"
                        gradientTransform="translate(588.583 626.4) rotate(81.8224) scale(56.8514 37.0473)">
            <stop stop-color="#373839" stop-opacity="0"/>
            <stop offset="1" stop-color="#373839" stop-opacity="0.4"/>
        </radialGradient>
        <radialGradient id="paint45_radial_1618_1838" cx="0" cy="0" r="1" gradientUnits="userSpaceOnUse"
                        gradientTransform="translate(590.062 620.523) rotate(29.3315) scale(56.6233 1102.12)">
            <stop stop-color="#38393A"/>
            <stop offset="0.633102" stop-color="#353637" stop-opacity="0.2"/>
            <stop offset="0.961227" stop-color="#373839" stop-opacity="0.4"/>
        </radialGradient>
        <radialGradient id="paint46_radial_1618_1838" cx="0" cy="0" r="1" gradientUnits="userSpaceOnUse"
                        gradientTransform="translate(589.863 626.907) rotate(81.8224) scale(57.1928 37.5595)">
            <stop stop-color="#373839" stop-opacity="0"/>
            <stop offset="1" stop-color="#373839" stop-opacity="0.4"/>
        </radialGradient>
        <radialGradient id="paint47_radial_1618_1838" cx="0" cy="0" r="1" gradientUnits="userSpaceOnUse"
                        gradientTransform="translate(591.369 620.992) rotate(29.1175) scale(57.2424 1111.91)">
            <stop stop-color="#38393A"/>
            <stop offset="0.633102" stop-color="#353637" stop-opacity="0.2"/>
            <stop offset="0.961227" stop-color="#373839" stop-opacity="0.4"/>
        </radialGradient>
        <radialGradient id="paint48_radial_1618_1838" cx="0" cy="0" r="1" gradientUnits="userSpaceOnUse"
                        gradientTransform="translate(568.753 568.919) rotate(46.1166) scale(25.2673 18.4383)">
            <stop stop-color="#373839" stop-opacity="0"/>
            <stop offset="1" stop-color="#373839" stop-opacity="0.4"/>
        </radialGradient>
        <radialGradient id="paint49_radial_1618_1838" cx="0" cy="0" r="1" gradientUnits="userSpaceOnUse"
                        gradientTransform="translate(567.85 566.33) rotate(-9.45465) scale(27.1025 509.326)">
            <stop stop-color="#38393A"/>
            <stop offset="0.633102" stop-color="#353637" stop-opacity="0.2"/>
            <stop offset="0.961227" stop-color="#373839" stop-opacity="0.4"/>
        </radialGradient>
        <radialGradient id="paint50_radial_1618_1838" cx="0" cy="0" r="1" gradientUnits="userSpaceOnUse"
                        gradientTransform="translate(595.011 573.956) rotate(141.822) scale(20.2544 14.7803)">
            <stop stop-color="#373839" stop-opacity="0"/>
            <stop offset="1" stop-color="#373839" stop-opacity="0.4"/>
        </radialGradient>
        <radialGradient id="paint51_radial_1618_1838" cx="0" cy="0" r="1" gradientUnits="userSpaceOnUse"
                        gradientTransform="translate(596.014 572) rotate(-162.606) scale(21.7255 408.28)">
            <stop stop-color="#38393A"/>
            <stop offset="0.633102" stop-color="#353637" stop-opacity="0.2"/>
            <stop offset="0.961227" stop-color="#373839" stop-opacity="0.4"/>
        </radialGradient>
        <linearGradient id="paint52_linear_1618_1838" x1="669.836" y1="331.662" x2="566.466" y2="429.763"
                        gradientUnits="userSpaceOnUse">
            <stop stop-color="#38393A" stop-opacity="0.4"/>
            <stop offset="0.478947" stop-color="#353637" stop-opacity="0"/>
            <stop offset="1" stop-color="#373839" stop-opacity="0.4"/>
        </linearGradient>
        <radialGradient id="paint53_radial_1618_1838" cx="0" cy="0" r="1" gradientUnits="userSpaceOnUse"
                        gradientTransform="translate(555.777 380.036) rotate(-29.0604) scale(117.834 92.4871)">
            <stop stop-color="#AF5F5F" stop-opacity="0.02"/>
            <stop offset="1" stop-color="#AF5F5F"/>
        </radialGradient>
        <linearGradient id="paint54_linear_1618_1838" x1="669.836" y1="331.662" x2="566.466" y2="429.763"
                        gradientUnits="userSpaceOnUse">
            <stop stop-color="#38393A"/>
            <stop offset="0.478947" stop-color="#353637" stop-opacity="0.2"/>
            <stop offset="1" stop-color="#373839"/>
        </linearGradient>
        <linearGradient id="paint55_linear_1618_1838" x1="531.447" y1="254.848" x2="550.648" y2="376.326"
                        gradientUnits="userSpaceOnUse">
            <stop stop-color="#38393A" stop-opacity="0.4"/>
            <stop offset="0.478947" stop-color="#353637" stop-opacity="0"/>
            <stop offset="1" stop-color="#373839" stop-opacity="0.4"/>
        </linearGradient>
        <radialGradient id="paint56_radial_1618_1838" cx="0" cy="0" r="1" gradientUnits="userSpaceOnUse"
                        gradientTransform="translate(620.19 342.199) rotate(-129.909) scale(114.799 84.8139)">
            <stop stop-color="#AF5F5F" stop-opacity="0.02"/>
            <stop offset="1" stop-color="#AF5F5F"/>
        </radialGradient>
        <linearGradient id="paint57_linear_1618_1838" x1="531.447" y1="254.848" x2="550.648" y2="376.326"
                        gradientUnits="userSpaceOnUse">
            <stop stop-color="#38393A"/>
            <stop offset="0.478947" stop-color="#353637" stop-opacity="0.2"/>
            <stop offset="1" stop-color="#373839"/>
        </linearGradient>
        <radialGradient id="paint58_radial_1618_1838" cx="0" cy="0" r="1" gradientUnits="userSpaceOnUse"
                        gradientTransform="translate(592.348 337.188) rotate(105) scale(67.5823 44.0401)">
            <stop stop-color="#373839" stop-opacity="0"/>
            <stop offset="1" stop-color="#373839" stop-opacity="0.4"/>
        </radialGradient>
        <radialGradient id="paint59_radial_1618_1838" cx="0" cy="0" r="1" gradientUnits="userSpaceOnUse"
                        gradientTransform="translate(591.432 330.041) rotate(157.491) scale(67.3112 1310.15)">
            <stop stop-color="#38393A"/>
            <stop offset="0.633102" stop-color="#353637" stop-opacity="0.2"/>
            <stop offset="0.961227" stop-color="#373839" stop-opacity="0.4"/>
        </radialGradient>
        <radialGradient id="paint60_radial_1618_1838" cx="0" cy="0" r="1" gradientUnits="userSpaceOnUse"
                        gradientTransform="translate(590.766 337.604) rotate(105) scale(67.9882 44.649)">
            <stop stop-color="#373839" stop-opacity="0"/>
            <stop offset="1" stop-color="#373839" stop-opacity="0.4"/>
        </radialGradient>
        <radialGradient id="paint61_radial_1618_1838" cx="0" cy="0" r="1" gradientUnits="userSpaceOnUse"
                        gradientTransform="translate(589.823 330.409) rotate(157.705) scale(68.0471 1321.79)">
            <stop stop-color="#38393A"/>
            <stop offset="0.633102" stop-color="#353637" stop-opacity="0.2"/>
            <stop offset="0.961227" stop-color="#373839" stop-opacity="0.4"/>
        </radialGradient>
        <radialGradient id="paint62_radial_1618_1838" cx="0" cy="0" r="1" gradientUnits="userSpaceOnUse"
                        gradientTransform="translate(623.871 272.139) rotate(140.706) scale(30.0366 21.9186)">
            <stop stop-color="#373839" stop-opacity="0"/>
            <stop offset="1" stop-color="#373839" stop-opacity="0.4"/>
        </radialGradient>
        <radialGradient id="paint63_radial_1618_1838" cx="0" cy="0" r="1" gradientUnits="userSpaceOnUse"
                        gradientTransform="translate(625.302 269.21) rotate(-163.723) scale(32.2181 605.463)">
            <stop stop-color="#38393A"/>
            <stop offset="0.633102" stop-color="#353637" stop-opacity="0.2"/>
            <stop offset="0.961227" stop-color="#373839" stop-opacity="0.4"/>
        </radialGradient>
        <radialGradient id="paint64_radial_1618_1838" cx="0" cy="0" r="1" gradientUnits="userSpaceOnUse"
                        gradientTransform="translate(592.166 274.377) rotate(45) scale(24.0775 17.5701)">
            <stop stop-color="#373839" stop-opacity="0"/>
            <stop offset="1" stop-color="#373839" stop-opacity="0.4"/>
        </radialGradient>
        <radialGradient id="paint65_radial_1618_1838" cx="0" cy="0" r="1" gradientUnits="userSpaceOnUse"
                        gradientTransform="translate(591.258 271.926) rotate(-10.5712) scale(25.8263 485.344)">
            <stop stop-color="#38393A"/>
            <stop offset="0.633102" stop-color="#353637" stop-opacity="0.2"/>
            <stop offset="0.961227" stop-color="#373839" stop-opacity="0.4"/>
        </radialGradient>
        <linearGradient id="paint66_linear_1618_1838" x1="415.34" y1="52.7213" x2="484.721" y2="118.566"
                        gradientUnits="userSpaceOnUse">
            <stop stop-color="#38393A" stop-opacity="0.4"/>
            <stop offset="0.478947" stop-color="#353637" stop-opacity="0"/>
            <stop offset="1" stop-color="#373839" stop-opacity="0.4"/>
        </linearGradient>
        <radialGradient id="paint67_radial_1618_1838" cx="0" cy="0" r="1" gradientUnits="userSpaceOnUse"
                        gradientTransform="translate(491.895 85.1895) rotate(-150.94) scale(79.0887 62.0764)">
            <stop stop-color="#AF5F5F" stop-opacity="0.02"/>
            <stop offset="1" stop-color="#AF5F5F"/>
        </radialGradient>
        <linearGradient id="paint68_linear_1618_1838" x1="415.34" y1="52.7213" x2="484.721" y2="118.566"
                        gradientUnits="userSpaceOnUse">
            <stop stop-color="#38393A"/>
            <stop offset="0.478947" stop-color="#353637" stop-opacity="0.2"/>
            <stop offset="1" stop-color="#373839"/>
        </linearGradient>
        <linearGradient id="paint69_linear_1618_1838" x1="508.225" y1="1.16406" x2="495.337" y2="82.6985"
                        gradientUnits="userSpaceOnUse">
            <stop stop-color="#38393A" stop-opacity="0.4"/>
            <stop offset="0.478947" stop-color="#353637" stop-opacity="0"/>
            <stop offset="1" stop-color="#373839" stop-opacity="0.4"/>
        </linearGradient>
        <radialGradient id="paint70_radial_1618_1838" cx="0" cy="0" r="1" gradientUnits="userSpaceOnUse"
                        gradientTransform="translate(448.662 59.7934) rotate(-50.0908) scale(77.0517 56.9262)">
            <stop stop-color="#AF5F5F" stop-opacity="0.02"/>
            <stop offset="1" stop-color="#AF5F5F"/>
        </radialGradient>
        <linearGradient id="paint71_linear_1618_1838" x1="508.225" y1="1.16406" x2="495.337" y2="82.6985"
                        gradientUnits="userSpaceOnUse">
            <stop stop-color="#38393A"/>
            <stop offset="0.478947" stop-color="#353637" stop-opacity="0.2"/>
            <stop offset="1" stop-color="#373839"/>
        </linearGradient>
        <radialGradient id="paint72_radial_1618_1838" cx="0" cy="0" r="1" gradientUnits="userSpaceOnUse"
                        gradientTransform="translate(467.349 56.4293) rotate(75) scale(45.3605 29.5593)">
            <stop stop-color="#373839" stop-opacity="0"/>
            <stop offset="1" stop-color="#373839" stop-opacity="0.4"/>
        </radialGradient>
        <radialGradient id="paint73_radial_1618_1838" cx="0" cy="0" r="1" gradientUnits="userSpaceOnUse"
                        gradientTransform="translate(467.964 51.6327) rotate(22.5091) scale(45.1786 879.357)">
            <stop stop-color="#38393A"/>
            <stop offset="0.633102" stop-color="#353637" stop-opacity="0.2"/>
            <stop offset="0.961227" stop-color="#373839" stop-opacity="0.4"/>
        </radialGradient>
        <radialGradient id="paint74_radial_1618_1838" cx="0" cy="0" r="1" gradientUnits="userSpaceOnUse"
                        gradientTransform="translate(468.411 56.7084) rotate(75) scale(45.633 29.9679)">
            <stop stop-color="#373839" stop-opacity="0"/>
            <stop offset="1" stop-color="#373839" stop-opacity="0.4"/>
        </radialGradient>
        <radialGradient id="paint75_radial_1618_1838" cx="0" cy="0" r="1" gradientUnits="userSpaceOnUse"
                        gradientTransform="translate(469.043 51.8792) rotate(22.2951) scale(45.6725 887.169)">
            <stop stop-color="#38393A"/>
            <stop offset="0.633102" stop-color="#353637" stop-opacity="0.2"/>
            <stop offset="0.961227" stop-color="#373839" stop-opacity="0.4"/>
        </radialGradient>
        <radialGradient id="paint76_radial_1618_1838" cx="0" cy="0" r="1" gradientUnits="userSpaceOnUse"
                        gradientTransform="translate(446.191 12.77) rotate(39.2942) scale(20.1602 14.7115)">
            <stop stop-color="#373839" stop-opacity="0"/>
            <stop offset="1" stop-color="#373839" stop-opacity="0.4"/>
        </radialGradient>
        <radialGradient id="paint77_radial_1618_1838" cx="0" cy="0" r="1" gradientUnits="userSpaceOnUse"
                        gradientTransform="translate(445.23 10.8038) rotate(-16.2771) scale(21.6245 406.381)">
            <stop stop-color="#38393A"/>
            <stop offset="0.633102" stop-color="#353637" stop-opacity="0.2"/>
            <stop offset="0.961227" stop-color="#373839" stop-opacity="0.4"/>
        </radialGradient>
        <radialGradient id="paint78_radial_1618_1838" cx="0" cy="0" r="1" gradientUnits="userSpaceOnUse"
                        gradientTransform="translate(467.471 14.2719) rotate(135) scale(16.1606 11.7929)">
            <stop stop-color="#373839" stop-opacity="0"/>
            <stop offset="1" stop-color="#373839" stop-opacity="0.4"/>
        </radialGradient>
        <radialGradient id="paint79_radial_1618_1838" cx="0" cy="0" r="1" gradientUnits="userSpaceOnUse"
                        gradientTransform="translate(468.08 12.6271) rotate(-169.429) scale(17.3343 325.758)">
            <stop stop-color="#38393A"/>
            <stop offset="0.633102" stop-color="#353637" stop-opacity="0.2"/>
            <stop offset="0.961227" stop-color="#373839" stop-opacity="0.4"/>
        </radialGradient>
    </defs>
</svg>
