<svg width="1243" height="1243" viewBox="0 0 1243 1243" fill="none" xmlns="http://www.w3.org/2000/svg">
<g clip-path="url(#clip0_1594_362)">
<path opacity="0.9" d="M141.944 427.906L158.771 385.955C141.126 389.652 127.337 400.929 120.264 418.564C110.213 443.623 121.475 473.568 150.061 485.034C179.204 496.723 206.445 477.696 216.124 453.565C226.473 427.763 210.82 406.616 195.042 400.288C173.881 391.8 153.665 404.594 141.944 427.906ZM129.03 456.343C121.428 444.674 118.877 432.23 124.163 419.05C128.556 408.098 138.108 399.863 151.366 400.655L129.03 456.343ZM193.666 402.106C210.001 408.658 219.9 427.497 211.189 449.215C202.254 471.49 172.905 481.267 148.403 471.439C140.978 468.461 134.594 463.961 129.883 457.977L138.966 435.331C150.953 405.446 173.99 394.214 193.666 402.106Z" fill="white"/>
<path opacity="0.9" d="M149.444 361.832L155.558 351.74L218.339 389.768C231.682 397.85 247.281 391.399 255.26 378.227C256.192 376.687 257.228 374.976 257.819 373.23L256.518 372.675C255.927 374.422 255.062 376.236 254.13 377.776C249.674 385.132 241.32 389.658 221.99 377.95L161.775 341.476L170.79 326.593L169.592 325.868L160.577 340.75L145.524 331.632L149.444 361.832Z" fill="white"/>
<path opacity="0.9" d="M263.338 263.67C243.757 246.871 221.952 254.78 211.814 270.589C212.837 263.561 210.627 256.922 205.162 252.234C195.903 244.29 182.106 245.629 174.162 254.889C166.088 264.3 166.992 279.832 181.716 292.464L255.488 355.754L256.956 371.243L278.834 345.742L263.301 346.646L207.29 298.593C206.861 287.421 207.385 279.438 213.375 272.456C222.621 261.678 240.801 260.146 254.917 272.257L296.509 307.939L297.977 323.428L319.855 297.927L304.322 298.831L263.338 263.67ZM209.187 275.187C206.19 282.366 205.58 289.221 205.772 297.291L187.253 281.403C174.654 270.595 173.4 259.769 178.74 253.546C184.47 246.867 196.358 246.525 204.251 253.297C210.474 258.636 212.358 266.576 209.187 275.187Z" fill="white"/>
<path opacity="0.9" d="M307.565 210.665L343.325 183.021C326.24 177.269 308.638 180.006 293.606 191.627C272.244 208.14 266.783 239.663 285.621 264.031C304.825 288.874 337.951 286.27 358.521 270.369C380.515 253.366 377.733 227.204 367.336 213.754C353.392 195.715 329.481 196.504 307.565 210.665ZM282.024 228.64C281.381 214.728 285.486 202.706 296.721 194.022C306.057 186.805 318.465 184.544 329.494 191.944L282.024 228.64ZM365.229 214.625C375.993 228.549 374.983 249.806 356.469 264.118C337.482 278.796 307.224 272.357 291.078 251.47C286.185 245.141 282.961 238.027 281.931 230.481L301.235 215.558C326.711 195.865 352.263 197.852 365.229 214.625Z" fill="white"/>
<path opacity="0.9" d="M379.95 166.942L379.772 167.034L368.267 144.839L351.338 161.724L364.24 163.146L398.479 229.199L394.045 244.113L423.875 228.65L409.133 223.677L382.073 171.474C376.551 160.82 387.297 149.392 403.554 141.641L399.959 128.186C382.689 140.067 374.343 150.475 379.95 166.942Z" fill="white"/>
<path opacity="0.9" d="M472.876 126.157L516.124 113.018C502.196 101.573 484.77 97.8787 466.59 103.402C440.756 111.25 424.454 138.777 433.407 168.247C442.534 198.291 474.424 207.625 499.301 200.067C525.901 191.986 532.594 166.542 527.652 150.276C521.025 128.461 498.393 120.704 472.876 126.157ZM442.616 133.886C446.957 120.653 455.065 110.874 468.652 106.747C479.942 103.317 492.344 105.611 500.026 116.446L442.616 133.886ZM525.373 150.342C530.489 167.182 521.994 186.694 499.604 193.495C476.64 200.472 450.644 183.704 442.97 158.444C440.645 150.79 440.158 142.994 441.875 135.575L465.222 128.482C496.031 119.123 519.21 130.057 525.373 150.342Z" fill="white"/>
<path opacity="0.9" d="M613.618 80.5738L591.51 89.6801L602.881 95.9389L608.678 164.093C601.219 173.158 593.591 180.229 583.826 181.06C569.877 182.246 555.873 170.993 554.279 152.26L548.652 86.0993L526.544 95.2056L537.916 101.464L542.272 152.68C544.221 175.597 561.545 185.765 578.285 184.341C591.238 183.24 599.879 176.282 608.5 166.717L616.313 180.706L622.092 180.214L613.618 80.5738Z" fill="white"/>
<path opacity="0.9" d="M615.317 175.285L648.499 180.567L639.594 167.808L650.881 96.9009C659.02 90.2982 668.842 84.5711 677.73 85.9859C690.371 87.998 698.235 102.211 695.374 120.185L686.602 175.291L674.176 184.654L707.358 189.936L698.453 177.177L707.099 122.861C707.948 117.528 707.912 112.662 707.19 108.294C717.484 99.6044 727.504 93.9087 736.589 95.3549C749.23 97.3671 757.094 111.58 754.233 129.554L745.461 184.66L733.035 194.023L766.217 199.305L757.312 186.546L765.958 132.23C769.542 109.714 757.539 96.057 742.331 93.6361C727.715 91.3096 716.362 99.0207 706.849 106.62C704.026 93.8169 694.533 86.0277 683.472 84.2671C671.424 82.3492 661.561 87.0574 651.227 94.7282L653.522 80.3097L629.873 83.8361L639.407 92.6443L627.743 165.922L615.317 175.285Z" fill="white"/>
<path opacity="0.9" d="M903.464 247.831C893.116 257.856 878.896 261.652 866.042 253.539C845.407 240.517 841.453 204.438 857.678 178.73C868.566 161.478 887.618 153.4 903.347 163.327C913.495 169.731 920.263 182.99 921.425 198.386L935.463 207.246C935.093 190.221 925.983 174.302 911.945 165.442C888.436 150.605 856.754 157.335 841.597 181.351C826.546 205.199 833.489 236.542 857.337 251.593C873.912 262.054 893.883 261.887 910.398 252.208L903.464 247.831Z" fill="white"/>
<path opacity="0.9" d="M1019.11 202.47L997.509 192.217L1000.52 204.844L923.977 287.158L908.441 288.005L933.047 310.885L932.765 295.329L1019.11 202.47Z" fill="white"/>
<path opacity="0.9" d="M977.399 281.95C956.037 298.463 951.066 330.619 968.558 353.247C985.193 374.766 1017.07 379.702 1040.17 361.843C1061.53 345.33 1066.5 313.174 1049.01 290.547C1032.38 269.027 1000.5 264.091 977.399 281.95ZM993.247 285.119C1011.13 271.297 1031.07 272.566 1041.71 286.333C1056.39 305.321 1047.42 340.815 1024.32 358.674C1006.44 372.496 986.502 371.227 975.86 357.461C961.181 338.473 970.145 302.978 993.247 285.119Z" fill="white"/>
<path opacity="0.9" d="M1060.47 458.499C1046.36 461.402 1032.32 456.97 1025.83 443.225C1015.41 421.161 1031.45 388.599 1058.94 375.619C1077.38 366.909 1097.79 370.321 1105.74 387.141C1110.86 397.992 1109.45 412.812 1102.17 426.425L1109.25 441.436C1118.08 426.873 1118.94 408.552 1111.85 393.541C1099.98 368.402 1069.64 357.073 1043.96 369.198C1018.46 381.238 1007.49 411.41 1019.53 436.91C1027.9 454.634 1044.84 465.214 1063.97 465.914L1060.47 458.499Z" fill="white"/>
<path opacity="0.9" d="M1066.62 548.686L1124.24 501.159C1137.12 510.999 1142.99 518.219 1155.64 533.878L1149.27 507.639L1141.85 515.203C1118.74 490.352 1097.91 485.115 1090.01 484.769L1177.67 463.499L1165.49 442.993L1161.04 455.186L1051.81 481.691L1038.18 473.883L1046.1 506.536L1054.64 493.352L1080.87 486.985C1091.76 484.344 1104.87 489.189 1113.71 494.247L1062.24 536.577L1052 530.831L1059.07 559.985L1066.62 548.686Z" fill="white"/>
</g>
<g clip-path="url(#clip1_1594_362)">
<path opacity="0.9" d="M1101.06 815.094L1084.23 857.045C1101.87 853.348 1115.66 842.071 1122.74 824.436C1132.79 799.377 1121.53 769.432 1092.94 757.966C1063.8 746.277 1036.56 765.304 1026.88 789.435C1016.53 815.237 1032.18 836.384 1047.96 842.712C1069.12 851.2 1089.34 838.406 1101.06 815.094ZM1113.97 786.657C1121.57 798.326 1124.12 810.77 1118.84 823.95C1114.44 834.902 1104.89 843.137 1091.63 842.345L1113.97 786.657ZM1049.33 840.894C1033 834.342 1023.1 815.503 1031.81 793.785C1040.75 771.51 1070.1 761.733 1094.6 771.561C1102.02 774.539 1108.41 779.039 1113.12 785.023L1104.03 807.669C1092.05 837.554 1069.01 848.786 1049.33 840.894Z" fill="white"/>
<path opacity="0.9" d="M1093.56 881.168L1087.44 891.26L1024.66 853.232C1011.32 845.15 995.72 851.601 987.741 864.773C986.808 866.313 985.772 868.024 985.182 869.77L986.483 870.325C987.073 868.578 987.938 866.764 988.871 865.224C993.327 857.868 1001.68 853.342 1021.01 865.05L1081.23 901.524L1072.21 916.407L1073.41 917.132L1082.42 902.25L1097.48 911.368L1093.56 881.168Z" fill="white"/>
<path opacity="0.9" d="M979.662 979.33C999.244 996.129 1021.05 988.22 1031.19 972.411C1030.16 979.439 1032.37 986.078 1037.84 990.766C1047.1 998.71 1060.89 997.371 1068.84 988.111C1076.91 978.7 1076.01 963.168 1061.28 950.536L987.513 887.246L986.044 871.757L964.166 897.258L979.699 896.354L1035.71 944.407C1036.14 955.579 1035.62 963.562 1029.63 970.544C1020.38 981.322 1002.2 982.854 988.083 970.743L946.492 935.061L945.023 919.572L923.145 945.073L938.678 944.169L979.662 979.33ZM1033.81 967.813C1036.81 960.634 1037.42 953.779 1037.23 945.709L1055.75 961.597C1068.35 972.405 1069.6 983.231 1064.26 989.454C1058.53 996.133 1046.64 996.475 1038.75 989.703C1032.53 984.364 1030.64 976.424 1033.81 967.813Z" fill="white"/>
<path opacity="0.9" d="M935.436 1032.33L899.675 1059.98C916.761 1065.73 934.363 1062.99 949.395 1051.37C970.756 1034.86 976.217 1003.34 957.38 978.969C938.175 954.126 905.05 956.73 884.48 972.631C862.485 989.634 865.267 1015.8 875.664 1029.25C889.609 1047.28 913.52 1046.5 935.436 1032.33ZM960.976 1014.36C961.619 1028.27 957.514 1040.29 946.28 1048.98C936.944 1056.2 924.536 1058.46 913.506 1051.06L960.976 1014.36ZM877.772 1028.38C867.008 1014.45 868.018 993.194 886.531 978.882C905.519 964.204 935.776 970.643 951.922 991.53C956.815 997.859 960.039 1004.97 961.069 1012.52L941.765 1027.44C916.29 1047.14 890.738 1045.15 877.772 1028.38Z" fill="white"/>
<path opacity="0.9" d="M863.051 1076.06L863.228 1075.97L874.733 1098.16L891.662 1081.28L878.76 1079.85L844.521 1013.8L848.955 998.887L819.125 1014.35L833.867 1019.32L860.927 1071.53C866.449 1082.18 855.703 1093.61 839.446 1101.36L843.041 1114.81C860.311 1102.93 868.658 1092.52 863.051 1076.06Z" fill="white"/>
<path opacity="0.9" d="M770.124 1116.84L726.876 1129.98C740.804 1141.43 758.23 1145.12 776.41 1139.6C802.244 1131.75 818.546 1104.22 809.593 1074.75C800.466 1044.71 768.576 1035.38 743.699 1042.93C717.099 1051.01 710.406 1076.46 715.348 1092.72C721.975 1114.54 744.607 1122.3 770.124 1116.84ZM800.384 1109.11C796.043 1122.35 787.935 1132.13 774.348 1136.25C763.058 1139.68 750.656 1137.39 742.974 1126.55L800.384 1109.11ZM717.627 1092.66C712.511 1075.82 721.006 1056.31 743.396 1049.5C766.36 1042.53 792.356 1059.3 800.03 1084.56C802.355 1092.21 802.842 1100.01 801.125 1107.43L777.778 1114.52C746.969 1123.88 723.79 1112.94 717.627 1092.66Z" fill="white"/>
<path opacity="0.9" d="M629.383 1162.43L651.491 1153.32L640.119 1147.06L634.323 1078.91C641.781 1069.84 649.409 1062.77 659.174 1061.94C673.124 1060.75 687.128 1072.01 688.721 1090.74L694.348 1156.9L716.456 1147.79L705.085 1141.54L700.729 1090.32C698.78 1067.4 681.456 1057.23 664.716 1058.66C651.763 1059.76 643.121 1066.72 634.501 1076.28L626.687 1062.29L620.908 1062.79L629.383 1162.43Z" fill="white"/>
<path opacity="0.9" d="M627.684 1067.72L594.501 1062.43L603.406 1075.19L592.12 1146.1C583.98 1152.7 574.158 1158.43 565.27 1157.01C552.629 1155 544.766 1140.79 547.627 1122.82L556.398 1067.71L568.825 1058.35L535.642 1053.06L544.547 1065.82L535.901 1120.14C535.053 1125.47 535.088 1130.34 535.81 1134.71C525.516 1143.4 515.497 1149.09 506.411 1147.65C493.77 1145.63 485.907 1131.42 488.768 1113.45L497.539 1058.34L509.966 1048.98L476.783 1043.7L485.688 1056.45L477.042 1110.77C473.458 1133.29 485.461 1146.94 500.669 1149.36C515.285 1151.69 526.639 1143.98 536.151 1136.38C538.974 1149.18 548.468 1156.97 559.528 1158.73C571.577 1160.65 581.439 1155.94 591.774 1148.27L589.479 1162.69L613.127 1159.16L603.593 1150.36L615.257 1077.08L627.684 1067.72Z" fill="white"/>
<path opacity="0.9" d="M339.537 995.169C349.884 985.144 364.105 981.348 376.959 989.461C397.593 1002.48 401.547 1038.56 385.322 1064.27C374.434 1081.52 355.382 1089.6 339.653 1079.67C329.505 1073.27 322.737 1060.01 321.575 1044.61L307.537 1035.75C307.907 1052.78 317.017 1068.7 331.055 1077.56C354.565 1092.4 386.246 1085.67 401.404 1061.65C416.454 1037.8 409.511 1006.46 385.663 991.407C369.088 980.946 349.117 981.113 332.602 990.792L339.537 995.169Z" fill="white"/>
<path opacity="0.9" d="M223.891 1040.53L245.491 1050.78L242.485 1038.16L319.024 955.842L334.559 954.995L309.953 932.115L310.236 947.671L223.891 1040.53Z" fill="white"/>
<path opacity="0.9" d="M265.602 961.05C286.963 944.537 291.935 912.381 274.443 889.753C257.807 868.234 225.932 863.298 202.83 881.157C181.468 897.67 176.497 929.826 193.989 952.453C210.624 973.973 242.5 978.909 265.602 961.05ZM249.754 957.881C231.873 971.703 211.933 970.434 201.291 956.667C186.612 937.679 195.576 902.185 218.678 884.326C236.558 870.504 256.499 871.773 267.141 885.539C281.819 904.527 272.856 940.022 249.754 957.881Z" fill="white"/>
<path opacity="0.9" d="M182.531 784.501C196.642 781.598 210.678 786.03 217.168 799.775C227.586 821.839 211.554 854.401 184.064 867.381C165.617 876.091 145.206 872.679 137.264 855.859C132.141 845.008 133.548 830.188 140.833 816.575L133.746 801.564C124.919 816.127 124.059 834.448 131.146 849.459C143.016 874.598 173.358 885.927 199.039 873.802C224.539 861.762 235.507 831.59 223.467 806.09C215.099 788.366 198.16 777.786 179.03 777.086L182.531 784.501Z" fill="white"/>
<path opacity="0.9" d="M176.379 694.314L118.761 741.841C105.878 732.001 100.01 724.781 87.3605 709.122L93.7272 735.361L101.153 727.797C124.265 752.648 145.087 757.885 152.991 758.231L65.335 779.501L77.5139 800.007L81.9642 787.814L191.195 761.309L204.82 769.117L196.897 736.464L188.365 749.648L162.126 756.015C151.242 758.656 138.13 753.811 129.288 748.753L180.758 706.423L191.002 712.169L183.927 683.015L176.379 694.314Z" fill="white"/>
<path fill-rule="evenodd" clip-rule="evenodd" d="M1173.33 648.972C1165.28 646.458 1160.72 643.242 1157.59 637.856C1156.41 635.827 1155.41 633.33 1154.7 630.669C1154.6 630.317 1154.51 630.028 1154.5 630.028C1154.49 630.027 1154.33 630.406 1154.14 630.87C1151.71 636.92 1148.26 641.035 1143.51 643.552C1140.9 644.934 1137.54 646.013 1133.51 646.769C1133.09 646.848 1132.74 646.922 1132.74 646.935C1132.74 646.947 1133.14 647.083 1133.63 647.236C1141.69 649.751 1146.24 652.967 1149.37 658.353C1150.55 660.382 1151.56 662.878 1152.27 665.539C1152.36 665.891 1152.45 666.18 1152.46 666.181C1152.48 666.181 1152.64 665.802 1152.82 665.338C1155.25 659.288 1158.7 655.173 1163.46 652.657C1166.07 651.275 1169.43 650.195 1173.45 649.44C1173.88 649.361 1174.22 649.286 1174.22 649.274C1174.22 649.261 1173.82 649.126 1173.33 648.972Z" fill="url(#paint0_angular_1594_362)"/>
<path fill-rule="evenodd" clip-rule="evenodd" d="M132.499 586.767C124.445 584.252 119.892 581.036 116.761 575.65C115.581 573.621 114.574 571.124 113.864 568.464C113.77 568.111 113.683 567.823 113.67 567.822C113.658 567.822 113.496 568.201 113.31 568.664C110.883 574.715 107.432 578.83 102.676 581.346C100.064 582.728 96.7086 583.808 92.6795 584.563C92.2579 584.642 91.9125 584.717 91.9118 584.729C91.9111 584.742 92.312 584.877 92.8027 585.03C100.857 587.545 105.41 590.761 108.542 596.147C109.721 598.176 110.728 600.673 111.438 603.334C111.532 603.686 111.619 603.975 111.632 603.975C111.644 603.976 111.806 603.597 111.992 603.133C114.419 597.083 117.87 592.968 122.626 590.451C125.238 589.069 128.593 587.989 132.623 587.234C133.044 587.155 133.39 587.08 133.39 587.068C133.391 587.056 132.99 586.92 132.499 586.767Z" fill="url(#paint1_angular_1594_362)"/>
</g>
<defs>
<radialGradient id="paint0_angular_1594_362" cx="0" cy="0" r="1" gradientUnits="userSpaceOnUse" gradientTransform="translate(1153.48 648.104) rotate(-176.776) scale(20.7722 18.1052)">
<stop stop-color="white"/>
<stop offset="1" stop-color="white" stop-opacity="0"/>
</radialGradient>
<radialGradient id="paint1_angular_1594_362" cx="0" cy="0" r="1" gradientUnits="userSpaceOnUse" gradientTransform="translate(112.651 585.899) rotate(-176.776) scale(20.7722 18.1052)">
<stop stop-color="white"/>
<stop offset="1" stop-color="white" stop-opacity="0"/>
</radialGradient>
<clipPath id="clip0_1594_362">
<rect width="1243" height="1243" fill="white" transform="translate(1243) rotate(90)"/>
</clipPath>
<clipPath id="clip1_1594_362">
<rect width="1243" height="1243" fill="white" transform="translate(0 1243) rotate(-90)"/>
</clipPath>
</defs>
</svg>
