<svg width="1261" height="1276" viewBox="0 0 1261 1276" fill="none" xmlns="http://www.w3.org/2000/svg">
    <path d="M114.033 497.082C114.033 497.082 135.893 507.248 130.655 534.143C126.947 553.185 111.865 564.715 89.8777 560.433C84.5773 559.4 79.6644 557.425 75.6131 555.21L90.1797 480.415C73.1976 480.775 52.843 489.036 46.5729 521.232C40.341 553.23 57.8341 576.402 85.7104 581.831C117.513 588.024 139.764 566.888 145.078 539.601C153.718 495.234 121.334 482.611 121.334 482.611L114.033 497.082ZM61.6889 524.175C64.7092 508.667 73.8895 501.286 85.255 499.424L74.5117 554.588C64.3594 548.128 59.0508 537.721 61.6889 524.175Z"
          fill="white"/>
    <path d="M161.063 403.643C161.063 403.643 168.408 414.08 164.074 425.492C160.096 435.534 151.663 438.08 138.006 432.375L84.4883 410.018L99.3673 374.401L97.5218 373.63L82.6429 409.247L50.5321 395.833L55.4186 418.899L75.1649 427.148L66.7617 447.264L68.6072 448.035L76.7019 428.657L132.25 451.862C154.026 460.959 168.51 453.788 176.296 435.149C184.314 415.956 175.418 402.487 175.418 402.487L161.063 403.643Z"
          fill="white"/>
    <path d="M146.844 289.74C125.761 320.631 162.049 350.482 174.708 359.606L93.7636 304.362L82.3765 321.046L191.074 395.232L202.461 378.547L190.732 370.542C185.942 367.273 133.814 335.086 154.671 304.525C161.887 293.953 173.012 291.134 186.063 300.04L233.804 332.623L245.303 315.773L197.232 282.965C177.574 269.549 158.682 272.394 146.844 289.74Z"
          fill="white"/>
    <path d="M295.208 220.37C295.208 220.37 306.864 241.473 286.771 260.101C272.545 273.291 253.565 273.705 238.336 257.279C234.664 253.319 231.862 248.826 229.898 244.647L285.777 192.841C271.851 183.115 250.541 177.78 226.488 200.08C202.582 222.244 203.041 251.274 222.349 272.1C244.377 295.86 274.812 291.916 295.199 273.016C328.345 242.285 309.64 212.99 309.64 212.99L295.208 220.37ZM236.958 211.374C248.545 200.632 260.312 200.086 270.588 205.286L229.375 243.495C224.987 232.291 226.839 220.756 236.958 211.374Z"
          fill="white"/>
    <path d="M339.817 117.473C315.12 132.288 334.221 175.404 341.903 188.988L310.832 137.192L296.082 146.04L293.51 147.583L341.967 228.364L359.29 217.973L351.882 205.624C349.002 200.822 317.519 148.34 338.101 135.994C345.818 131.365 355.113 133.252 363.036 144.126L380.529 133.632C368.286 115.555 354.052 108.933 339.817 117.473Z"
          fill="white"/>
    <path d="M492.477 120.239C492.477 120.239 494.61 144.252 468.702 153.171C450.359 159.486 432.831 152.194 425.539 131.014C423.782 125.908 423.034 120.666 422.926 116.05L494.976 91.2462C486.169 76.7221 468.833 63.2302 437.819 73.9067C406.995 84.5181 395.682 111.257 404.927 138.11C415.473 168.745 444.905 177.438 471.191 168.389C513.93 153.677 508.66 119.321 508.66 119.321L492.477 120.239ZM442.832 88.468C457.772 83.3251 468.755 87.5816 476.053 96.4915L422.914 114.785C423.428 102.763 429.784 92.96 442.832 88.468Z"
          fill="white"/>
    <path d="M595.98 58.5657C596.578 64.1337 605.896 124.685 569.107 128.635C556.38 130.002 547.04 123.562 545.353 107.852L539.161 50.1837L519.076 52.3402L525.311 110.406C527.83 133.872 542.251 146.404 562.932 144.183C600.118 140.19 599.319 93.4084 598.052 77.8548L604.521 138.109L621.8 136.052L624.783 135.732L614.727 42.0702L594.443 44.248L595.98 58.5657Z"
          fill="white"/>
    <path d="M796.543 63.1744C760.225 56.1014 746.955 100.177 743.504 115.806L748.092 92.2485C752.641 68.8874 742.557 52.6605 721.945 48.6461C685.431 41.5348 672.204 86.4343 668.829 101.67L680.375 42.3841L663.492 39.0961L660.548 38.5226L642.54 130.985L662.368 134.847L665.082 120.909C666.191 115.216 675.142 54.6091 711.459 61.6821C724.023 64.1289 731.05 73.0365 728.03 88.5451L716.942 145.475L736.966 149.375L741.516 126.014C745.502 107.637 757.004 70.552 786.058 76.2104C798.622 78.6572 805.61 87.7611 802.59 103.27L791.541 160.004L811.368 163.865L822.494 106.739C827.043 83.3775 816.959 67.1505 796.543 63.1744Z"
          fill="white"/>
    <path d="M965.279 219.427C965.279 219.427 947.178 235.351 924.662 219.737C908.72 208.682 904.231 190.236 916.996 171.829C928.506 155.229 945.423 149.436 961.529 160.605C975.006 169.951 977.843 181.653 974.356 193.351L990.133 204.292C996.634 188.599 997.258 166.641 970.305 147.95C943.516 129.373 915.265 136.068 899.081 159.406C880.619 186.031 891.019 214.904 913.864 230.746C951.007 256.503 975.591 231.932 975.591 231.932L965.279 219.427Z"
          fill="white"/>
    <path d="M1058.05 172.616L967.277 267.904L981.904 281.836L1072.67 186.549L1058.05 172.616Z" fill="white"/>
    <path d="M1105.13 276.539C1084.93 249.937 1055.59 247.349 1033.61 264.038C1011.47 280.848 1006.24 309.679 1026.44 336.281C1046.75 363.042 1075.93 365.752 1098.07 348.941C1120.05 332.252 1125.44 303.3 1105.13 276.539ZM1038.38 327.211C1026.53 311.6 1030.43 293.577 1046.67 281.242C1062.92 268.906 1081.17 270.119 1093.02 285.73C1104.75 301.181 1101.26 319.402 1085.01 331.738C1068.76 344.073 1050.11 342.662 1038.38 327.211Z"
          fill="white"/>
    <path d="M1133.88 454.142C1133.88 454.142 1110.15 458.384 1098.98 433.364C1091.07 415.649 1096.79 397.546 1117.24 388.415C1135.69 380.181 1153.16 383.99 1161.15 401.888C1167.83 416.863 1164.2 428.343 1155.15 436.541L1162.98 454.074C1176.67 444.02 1188.58 425.562 1175.21 395.61C1161.92 365.842 1134.29 356.932 1108.36 368.509C1078.77 381.716 1072.71 411.8 1084.04 437.186C1102.46 478.46 1136.22 470.18 1136.22 470.18L1133.88 454.142Z"
          fill="white"/>
    <path d="M1167.86 541.146C1171.72 547.902 1175.1 553.329 1180.03 557.41C1185.6 562.584 1192.08 564.3 1200.5 562.55C1212.65 560.025 1221.32 550.663 1217.58 532.648C1215.46 522.466 1208.06 514.403 1198.14 508.909C1191.76 505.741 1184.52 503.364 1176.71 502.129C1173.96 501.679 1171.05 501.466 1168.15 501.253L1244.12 485.456L1240.01 465.679L1111.17 492.468L1115.28 512.245L1152.68 504.469C1155.13 512.334 1157.73 518.944 1159.41 523.089L1159.26 523.325L1124.82 560.105L1129.34 581.84L1167.86 541.146ZM1165.8 501.741C1169.49 501.792 1172.86 502.315 1175.85 502.92C1183.98 504.702 1190.21 508.106 1194.48 512.937C1197.96 516.912 1200.15 521.563 1201.29 527.046C1203.94 539.773 1199.17 547.301 1189.97 549.215C1181.16 551.047 1174.77 546.859 1169.34 539.409C1166.17 534.961 1163.34 529.217 1160.63 523.04C1160.59 522.844 1160.35 522.689 1160.31 522.493C1158.63 518.348 1156.07 511.935 1153.66 504.265L1165.8 501.741Z"
          fill="white"/>
    <path d="M1146.97 778.874C1146.97 778.874 1125.11 768.708 1130.35 741.813C1134.05 722.771 1149.14 711.242 1171.12 715.524C1176.42 716.556 1181.34 718.532 1185.39 720.747L1170.82 795.542C1187.8 795.181 1208.16 786.92 1214.43 754.725C1220.66 722.726 1203.17 699.555 1175.29 694.126C1143.49 687.932 1121.24 709.068 1115.92 736.356C1107.28 780.722 1139.67 793.346 1139.67 793.346L1146.97 778.874ZM1199.31 751.781C1196.29 767.29 1187.11 774.671 1175.75 776.533L1186.49 721.369C1196.64 727.829 1201.95 738.236 1199.31 751.781Z"
          fill="white"/>
    <path d="M1099.94 872.314C1099.94 872.314 1092.59 861.877 1096.93 850.465C1100.9 840.423 1109.34 837.877 1122.99 843.582L1176.51 865.939L1161.63 901.556L1163.48 902.327L1178.36 866.71L1210.47 880.124L1205.58 857.058L1185.84 848.809L1194.24 828.693L1192.39 827.923L1184.3 847.3L1128.75 824.095C1106.97 814.998 1092.49 822.169 1084.7 840.808C1076.69 860.001 1085.58 873.47 1085.58 873.47L1099.94 872.314Z"
          fill="white"/>
    <path d="M1114.16 986.218C1135.24 955.326 1098.95 925.475 1086.29 916.351L1167.24 971.595L1178.62 954.911L1069.93 880.725L1058.54 897.41L1070.27 905.415C1075.06 908.684 1127.19 940.871 1106.33 971.432C1099.11 982.004 1087.99 984.823 1074.94 975.917L1027.2 943.334L1015.7 960.184L1063.77 992.992C1083.43 1006.41 1102.32 1003.56 1114.16 986.218Z"
          fill="white"/>
    <path d="M965.792 1055.59C965.792 1055.59 954.136 1034.48 974.229 1015.86C988.455 1002.67 1007.43 1002.25 1022.66 1018.68C1026.34 1022.64 1029.14 1027.13 1031.1 1031.31L975.223 1083.12C989.149 1092.84 1010.46 1098.18 1034.51 1075.88C1058.42 1053.71 1057.96 1024.68 1038.65 1003.86C1016.62 980.097 986.188 984.041 965.801 1002.94C932.655 1033.67 951.36 1062.97 951.36 1062.97L965.792 1055.59ZM1024.04 1064.58C1012.46 1075.33 1000.69 1075.87 990.412 1070.67L1031.62 1032.46C1036.01 1043.67 1034.16 1055.2 1024.04 1064.58Z"
          fill="white"/>
    <path fill-rule="evenodd" clip-rule="evenodd"
          d="M1146.91 633.833C1155.09 635.891 1159.82 638.846 1163.25 644.047C1164.54 646.007 1165.68 648.443 1166.54 651.059C1166.66 651.406 1166.76 651.689 1166.77 651.689C1166.78 651.689 1166.92 651.301 1167.08 650.828C1169.17 644.651 1172.38 640.348 1176.99 637.568C1179.52 636.041 1182.81 634.775 1186.79 633.794C1187.2 633.692 1187.54 633.597 1187.54 633.585C1187.54 633.573 1187.14 633.46 1186.64 633.334C1178.45 631.277 1173.73 628.322 1170.3 623.121C1169.01 621.161 1167.86 618.725 1167 616.108C1166.89 615.762 1166.79 615.478 1166.77 615.479C1166.76 615.479 1166.62 615.866 1166.46 616.34C1164.38 622.517 1161.16 626.819 1156.56 629.6C1154.03 631.126 1150.74 632.393 1146.76 633.373C1146.34 633.476 1146 633.57 1146 633.583C1146 633.595 1146.41 633.708 1146.91 633.833Z"
          fill="url(#paint0_angular_1777_5939)"/>
    <path fill-rule="evenodd" clip-rule="evenodd"
          d="M116.638 633.833C108.455 635.891 103.728 638.846 100.299 644.047C99.007 646.007 97.8619 648.443 97.0026 651.059C96.8889 651.406 96.7857 651.689 96.7734 651.689C96.7611 651.689 96.6203 651.301 96.4607 650.828C94.378 644.651 91.1644 640.348 86.5567 637.568C84.0269 636.041 80.7375 634.775 76.7572 633.794C76.3408 633.692 76.0001 633.597 76.0001 633.585C76.0001 633.573 76.408 633.46 76.9065 633.334C85.0895 631.277 89.8165 628.322 93.2456 623.121C94.5376 621.161 95.6827 618.725 96.5419 616.108C96.6557 615.762 96.7588 615.478 96.7712 615.479C96.7835 615.479 96.9243 615.866 97.0839 616.34C99.1666 622.517 102.38 626.819 106.988 629.6C109.518 631.126 112.807 632.393 116.787 633.373C117.204 633.476 117.544 633.57 117.544 633.583C117.544 633.595 117.137 633.708 116.638 633.833Z"
          fill="url(#paint1_angular_1777_5939)"/>
    <path d="M921.183 1158.48C945.88 1143.67 926.779 1100.55 919.098 1086.97L950.168 1138.76L964.918 1129.92L967.491 1128.37L919.033 1047.59L901.71 1057.98L909.118 1070.33C911.999 1075.13 943.481 1127.62 922.9 1139.96C915.182 1144.59 905.887 1142.7 897.965 1131.83L880.471 1142.32C892.714 1160.4 906.948 1167.02 921.183 1158.48Z"
          fill="white"/>
    <path d="M768.523 1155.72C768.523 1155.72 766.39 1131.7 792.298 1122.79C810.642 1116.47 828.17 1123.76 835.461 1144.94C837.219 1150.05 837.966 1155.29 838.074 1159.91L766.024 1184.71C774.831 1199.23 792.167 1212.73 823.181 1202.05C854.005 1191.44 865.318 1164.7 856.074 1137.85C845.527 1107.21 816.095 1098.52 789.809 1107.57C747.07 1122.28 752.34 1156.64 752.34 1156.64L768.523 1155.72ZM818.168 1187.49C803.229 1192.63 792.245 1188.38 784.947 1179.47L838.087 1161.17C837.572 1173.19 831.217 1183 818.168 1187.49Z"
          fill="white"/>
    <path d="M665.02 1217.39C664.422 1211.82 655.104 1151.27 691.893 1147.32C704.62 1145.96 713.96 1152.4 715.647 1168.1L721.839 1225.77L741.924 1223.62L735.689 1165.55C733.17 1142.09 718.749 1129.55 698.068 1131.77C660.882 1135.77 661.681 1182.55 662.948 1198.1L656.479 1137.85L639.2 1139.9L636.217 1140.23L646.273 1233.89L666.557 1231.71L665.02 1217.39Z"
          fill="white"/>
    <path d="M464.457 1212.78C500.775 1219.86 514.045 1175.78 517.497 1160.15L512.909 1183.71C508.359 1207.07 518.443 1223.3 539.056 1227.31C575.57 1234.42 588.797 1189.52 592.172 1174.29L580.625 1233.57L597.508 1236.86L600.453 1237.43L618.46 1144.97L598.633 1141.11L595.918 1155.05C594.81 1160.74 585.859 1221.35 549.541 1214.27C536.977 1211.83 529.95 1202.92 532.971 1187.41L544.058 1130.48L524.034 1126.58L519.485 1149.94C515.498 1168.32 503.997 1205.4 474.943 1199.75C462.379 1197.3 455.39 1188.2 458.411 1172.69L469.46 1115.95L449.632 1112.09L438.507 1169.22C433.957 1192.58 444.041 1208.81 464.457 1212.78Z"
          fill="white"/>
    <path d="M295.722 1056.53C295.722 1056.53 313.822 1040.61 336.338 1056.22C352.28 1067.27 356.769 1085.72 344.005 1104.13C332.494 1120.73 315.578 1126.52 299.471 1115.35C285.995 1106.01 283.157 1094.3 286.645 1082.61L270.867 1071.66C264.366 1087.36 263.742 1109.32 290.696 1128.01C317.485 1146.58 345.736 1139.89 361.919 1116.55C380.382 1089.93 369.981 1061.05 347.136 1045.21C309.993 1019.45 285.41 1044.02 285.41 1044.02L295.722 1056.53Z"
          fill="white"/>
    <path d="M202.955 1103.34L293.723 1008.05L279.097 994.12L188.329 1089.41L202.955 1103.34Z" fill="white"/>
    <path d="M155.874 999.418C176.07 1026.02 205.406 1028.61 227.388 1011.92C249.53 995.109 254.761 966.278 234.565 939.676C214.248 912.915 185.071 910.206 162.929 927.016C140.947 943.705 135.556 972.657 155.874 999.418ZM222.618 948.746C234.469 964.357 230.575 982.38 214.327 994.715C198.079 1007.05 179.832 1005.84 167.98 990.227C156.249 974.776 159.742 956.555 175.99 944.219C192.238 931.884 210.887 933.295 222.618 948.746Z"
          fill="white"/>
    <path d="M127.12 821.815C127.12 821.815 150.852 817.573 162.021 842.593C169.929 860.308 164.212 878.411 143.757 887.542C125.312 895.776 107.841 891.967 99.8518 874.069C93.1666 859.094 96.8031 847.614 105.847 839.416L98.02 821.883C84.3292 831.937 72.419 850.396 85.7894 880.347C99.0783 910.115 126.71 919.025 152.644 907.449C182.23 894.241 188.293 864.157 176.96 838.771C158.535 797.497 124.778 805.777 124.778 805.777L127.12 821.815Z"
          fill="white"/>
    <path d="M93.1359 734.811C89.2797 728.055 85.9044 722.628 80.9703 718.547C75.4003 713.373 68.9153 711.657 60.4953 713.407C48.355 715.932 39.6791 725.294 43.4248 743.309C45.5419 753.491 52.9381 761.554 62.8644 767.048C69.2429 770.216 76.4782 772.593 84.2933 773.828C87.0424 774.278 89.9466 774.491 92.8508 774.704L16.8757 790.501L20.9877 810.278L149.832 783.489L145.72 763.712L108.32 771.488C105.868 763.623 103.268 757.013 101.589 752.868L101.744 752.632L136.178 715.852L131.659 694.117L93.1359 734.811ZM95.2006 774.216C91.5131 774.165 88.1358 773.642 85.1502 773.037C77.0172 771.255 70.7939 767.851 66.5209 763.02C63.0389 759.045 60.8462 754.394 59.7063 748.911C57.0599 736.184 61.8272 728.656 71.0304 726.742C79.842 724.91 86.2282 729.098 91.6586 736.548C94.8303 740.996 97.6589 746.74 100.373 752.917C100.414 753.113 100.65 753.268 100.691 753.464C102.37 757.609 104.929 764.022 107.341 771.692L95.2006 774.216Z"
          fill="white"/>
    <defs>
        <radialGradient id="paint0_angular_1777_5939" cx="0" cy="0" r="1" gradientUnits="userSpaceOnUse"
                        gradientTransform="translate(1166.77 633.584) scale(20.7722 18.1052)">
            <stop stop-color="white"/>
            <stop offset="1" stop-color="white" stop-opacity="0"/>
        </radialGradient>
        <radialGradient id="paint1_angular_1777_5939" cx="0" cy="0" r="1" gradientUnits="userSpaceOnUse"
                        gradientTransform="translate(96.7723 633.584) rotate(-180) scale(20.7722 18.1052)">
            <stop stop-color="white"/>
            <stop offset="1" stop-color="white" stop-opacity="0"/>
        </radialGradient>
    </defs>
</svg>
