<svg width="28" height="30" viewBox="0 0 28 30" fill="none" xmlns="http://www.w3.org/2000/svg">
<path d="M13.9306 0.387931C13.9359 0.415261 13.9417 0.443525 13.9482 0.4727L13.6044 0.464375C13.6057 0.459419 13.607 0.454483 13.6083 0.449568L13.787 0.415394L13.9306 0.387931ZM13.9306 0.387931C13.8899 0.174621 13.8252 0 13.787 0C13.752 0 13.6747 0.196676 13.6083 0.449548L13.787 0.415386L13.9306 0.387931ZM6.32759 13.8144L6.15474 13.7552C6.38442 13.5624 6.63087 13.3268 6.87558 13.0751C7.36175 12.5751 7.8952 11.954 8.36944 11.3218C9.46558 9.86059 10.7548 7.7407 11.8331 5.72583C12.6459 4.20717 13.3583 2.71248 13.7751 1.58682C13.8888 1.89078 14.0242 2.22113 14.1752 2.56813C14.5451 3.4187 15.025 4.40627 15.5558 5.41947C16.6149 7.44127 17.8922 9.59499 18.9247 10.986C19.802 12.1678 20.7122 13.1852 21.4145 13.741L20.4008 14.0802C19.3351 14.4366 17.3709 15.0828 16.037 15.5157L13.7642 16.2533L10.7025 15.2572L10.7025 15.2571C8.93322 14.6816 6.96475 14.0323 6.32764 13.8144C6.32762 13.8144 6.32761 13.8144 6.32759 13.8144ZM18.1529 18.1157C18.9841 17.8425 19.6496 17.6248 20.1786 17.4543C20.1677 17.4668 20.1568 17.4794 20.1459 17.4921L20.5242 17.819L20.1458 17.4921C18.5689 19.3177 16.4902 22.603 15.0777 25.487L15.0777 25.487C14.6961 26.266 14.3194 27.1103 14.0238 27.8335C13.9376 28.0443 13.8566 28.249 13.7835 28.4417C13.5589 27.834 13.2442 27.102 12.8787 26.3223C12.2966 25.0805 11.5688 23.682 10.8248 22.4037L10.8248 22.4036C10.0861 21.1345 9.20576 19.8172 8.38966 18.7264C8.03947 18.2584 7.69367 17.8219 7.37059 17.4453C7.96508 17.6372 8.65221 17.8616 9.38663 18.104L13.6215 19.5021L13.7779 19.5538L13.9344 19.5023L18.1529 18.1157L17.9968 17.6407L18.1529 18.1157Z" stroke="#373839"/>
<path d="M13.75 1.66699L14.1771 13.8232L20.625 3.50914L14.9167 14.2503L25.6578 8.54199L15.3438 14.9899L27.5 15.417L15.3438 15.844L25.6578 22.292L14.9167 16.5837L20.625 27.3248L14.1771 17.0108L13.75 29.167L13.3229 17.0108L6.875 27.3248L12.5833 16.5837L1.84215 22.292L12.1562 15.844L0 15.417L12.1562 14.9899L1.84215 8.54199L12.5833 14.2503L6.875 3.50914L13.3229 13.8232L13.75 1.66699Z" fill="#373839"/>
</svg>
