<svg width="493" height="586" viewBox="0 0 493 586" fill="none" xmlns="http://www.w3.org/2000/svg">
    <path d="M344.906 439.613L201.567 582.952L273.237 439.613L344.906 439.613ZM345.304 438.613L273.737 438.613L309.521 367.046L345.304 438.613ZM308.961 365.928L272.619 438.613L200.949 438.613L297.186 342.377L308.961 365.928ZM346.25 438.269L310.08 365.928L346.422 293.242L491.277 293.242L346.25 438.269ZM345.613 147.578L345.613 292.535L297.46 340.688L249.141 244.051L345.613 147.578ZM309.52 364.81L297.931 341.631L344.288 295.274L309.52 364.81ZM248.396 244.796L296.715 341.434L200.242 437.906V292.949L248.396 244.796ZM199.242 292.949L199.242 438.613L126.866 438.613L90.5229 365.928L151.089 244.796L199.242 292.949ZM272.119 439.613L200.242 583.366L200.242 439.613L272.119 439.613ZM89.9638 367.046L125.748 438.613H54.1801L89.9638 367.046ZM89.4048 365.928L53.2341 438.269L-91.7929 293.242H53.0621L89.4048 365.928ZM52.8711 292.242H-91.7929L52.8711 147.578V292.242ZM53.8711 292.624V147.578L150.343 244.051L89.9638 364.81L53.8711 292.624ZM199.242 291.535L151.56 243.853L199.242 148.489L199.242 291.535ZM200.242 291.535L200.242 148.489L247.924 243.853L200.242 291.535ZM344.906 146.871L248.67 243.108L200.551 146.871L344.906 146.871ZM344.906 145.871L200.242 145.871L200.242 1.20708L344.906 145.871ZM346.613 292.242L346.613 147.578L491.277 292.242L346.613 292.242ZM150.815 243.108L54.5782 146.871L198.933 146.871L150.815 243.108ZM199.242 1.20709L199.242 145.871H54.5782L199.242 1.20709Z"
          stroke="url(#paint0_radial_431_5359)"/>
    <defs>
        <radialGradient id="paint0_radial_431_5359" cx="0" cy="0" r="1" gradientUnits="userSpaceOnUse"
                        gradientTransform="translate(129 293) rotate(18.1672) scale(338.367 4019.16)">
            <stop stop-color="#38393A" stop-opacity="0.4"/>
            <stop offset="0.810947" stop-color="#353637" stop-opacity="0"/>
            <stop offset="1" stop-color="#373839" stop-opacity="0.4"/>
        </radialGradient>
    </defs>
</svg>
