<svg width="319" height="319" viewBox="0 0 319 319" fill="none" xmlns="http://www.w3.org/2000/svg">
<path d="M51.2207 100.405C49.7979 99.6221 48.4446 100.011 47.6445 101.424C46.8444 102.838 46.9487 104.341 47.8104 105.762L48.2391 105.005C48.8296 103.962 49.8728 103.375 50.9941 103.121C50.5322 103.348 50.016 103.789 49.5683 104.58C48.6158 106.262 48.9759 108.177 50.6751 109.139C52.3071 110.063 54.3331 109.388 55.238 107.79C55.9905 106.461 55.9103 104.993 54.8047 103.768L56.8236 104.911L57.9095 102.993L56.453 103.368L51.2207 100.405ZM50.5314 101.348L53.3747 102.958C51.7855 102.547 49.4617 103.12 48.4026 104.52C47.4878 103.624 47.2631 102.608 47.8251 101.616C48.3966 100.606 49.3369 100.672 50.5314 101.348ZM54.1391 103.413C55.2831 104.061 55.8858 105.468 55.1429 106.781C54.3523 108.177 52.3739 108.768 50.8597 107.91C49.5642 107.177 49.0574 105.757 49.8289 104.394C50.8195 102.644 52.9109 102.718 54.1391 103.413Z" fill="white"/>
<path d="M58.2794 88.6464L58.2676 88.6618L56.3449 87.1977L55.5635 89.3729L56.7497 88.9639L62.4717 93.3209L62.7006 94.8075L64.6683 92.2233L63.1744 92.398L58.6522 88.9546C57.7293 88.2518 58.1961 86.8091 59.2964 85.4598L58.4261 84.4327C57.408 86.1846 57.1088 87.4392 58.2794 88.6464Z" fill="white"/>
<path d="M69.4796 74.5518L72.6027 71.4961C70.8976 71.1357 69.2384 71.5962 67.9256 72.8806C66.06 74.706 65.8896 77.7939 67.9719 79.922C70.0947 82.0916 73.2459 81.4697 75.0423 79.712C76.9632 77.8326 76.4023 75.3519 75.2531 74.1773C73.7117 72.6019 71.4248 72.9461 69.4796 74.5518ZM67.2292 76.5644C67.0113 75.2359 67.2704 74.0356 68.2516 73.0756C69.0669 72.2779 70.2329 71.9214 71.3749 72.5081L67.2292 76.5644ZM75.0605 74.2846C76.2503 75.5006 76.392 77.5529 74.7752 79.1348C73.1169 80.7574 70.1396 80.4788 68.3548 78.6547C67.814 78.102 67.4246 77.4551 67.2409 76.7422L68.9268 75.0927C71.1517 72.9158 73.6273 72.8197 75.0605 74.2846Z" fill="white"/>
<path d="M98.6144 50.5022L99.3949 57.6114L93.5425 53.2757L93.939 51.8248L90.8857 53.4945L92.3212 53.9435L99.1155 58.9541L96.8743 61.061C95.8708 62.0064 95.5095 63.2396 96.0011 64.1386C96.5576 65.1564 97.7506 65.3635 98.8701 64.7513C100.227 64.0092 100.603 62.239 99.9509 59.5549L100.375 59.3231L99.6329 57.966L98.801 50.4002L99.1975 48.9494L97.1789 50.0532L98.6144 50.5022ZM99.8536 59.498C99.8817 61.2014 99.4501 63.112 98.0761 63.8634C97.194 64.3457 96.4935 64.3541 96.1503 63.7265C95.7237 62.9462 96.2625 61.8363 96.9901 61.152L99.2313 59.045L99.8536 59.498Z" fill="white"/>
<path d="M110.479 48.3239C111.341 50.7875 114.138 52.2262 116.748 51.3135C119.23 50.4456 120.656 47.6732 119.725 45.0087C118.863 42.545 116.066 41.1064 113.456 42.019C110.974 42.887 109.548 45.6594 110.479 48.3239ZM111.254 46.9673C110.533 44.9051 111.259 43.1152 112.847 42.5599C115.037 41.7941 118.018 43.7008 118.95 46.3653C119.671 48.4275 118.945 50.2174 117.357 50.7727C115.167 51.5385 112.186 49.6318 111.254 46.9673Z" fill="white"/>
<path d="M137.035 35.4477L134.984 36.513L136.132 37.0187L137.272 43.5318C136.631 44.4683 135.957 45.2143 135.023 45.3775C133.69 45.6107 132.246 44.6465 131.933 42.8564L130.827 36.5337L128.776 37.599L129.924 38.1047L130.78 42.9991C131.163 45.1892 132.918 46.0206 134.518 45.7407C135.756 45.5242 136.528 44.7806 137.277 43.7861L138.148 45.0664L138.701 44.9698L137.035 35.4477Z" fill="white"/>
<path d="M170.714 36.3449C170.851 34.7266 169.945 33.6484 168.329 33.4921C166.713 33.3358 165.382 34.0423 164.434 35.4074L165.3 35.4911C166.493 35.6065 167.453 36.3209 168.141 37.2421C167.746 36.9125 167.133 36.6201 166.229 36.5327C164.304 36.3466 162.702 37.4542 162.514 39.3978C162.333 41.2644 163.773 42.841 165.602 43.0178C167.122 43.1648 168.43 42.4949 169.1 40.9864L168.877 43.2956L171.07 43.5078L170.135 42.3296L170.714 36.3449ZM169.573 36.0985L169.258 39.3507C168.987 37.7318 167.519 35.8417 165.81 35.4433C166.256 34.2433 167.092 33.625 168.228 33.7348C169.382 33.8464 169.705 34.7322 169.573 36.0985ZM169.153 40.234C169.027 41.5426 167.986 42.6656 166.485 42.5205C164.888 42.366 163.544 40.7987 163.711 39.0668C163.854 37.585 164.946 36.5446 166.504 36.6953C168.506 36.8888 169.289 38.8293 169.153 40.234Z" fill="white"/>
<path d="M190.083 40.2674C190.64 38.1149 189.405 36.637 187.833 36.2301C186.616 35.9153 185.676 36.231 184.465 36.8963L184.819 35.5299L182.511 35.6515L183.347 36.5869L181.55 43.5308L180.268 44.3173L183.412 45.1311L182.673 43.8214L184.412 37.1021C185.388 36.4959 186.305 36.1143 187.222 36.3517C188.533 36.6908 189.43 38.1612 188.98 39.9019L187.633 45.1051L186.351 45.8916L189.495 46.7054L188.756 45.3957L190.083 40.2674Z" fill="white"/>
<path d="M220.67 51.5905C221.464 50.1735 221.084 48.8174 219.677 48.0069C218.27 47.1964 216.766 47.2896 215.339 48.1409L216.093 48.575C217.131 49.1733 217.71 50.2208 217.956 51.3439C217.732 50.8803 217.295 50.3609 216.508 49.9074C214.832 48.9425 212.915 49.2885 211.941 50.9806C211.005 52.6057 211.664 54.6366 213.256 55.5533C214.58 56.3155 216.047 56.2462 217.281 55.1496L216.123 57.1601L218.033 58.26L217.669 56.8008L220.67 51.5905ZM219.732 50.8943L218.101 53.7256C218.524 52.1396 217.968 49.8116 216.576 48.7422C217.479 47.834 218.496 47.6168 219.485 48.1861C220.49 48.765 220.417 49.7048 219.732 50.8943ZM217.641 54.4866C216.985 55.6258 215.573 56.2182 214.266 55.4656C212.875 54.6647 212.299 52.682 213.168 51.1742C213.911 49.8842 215.334 49.3878 216.692 50.1694C218.434 51.1728 218.345 53.2636 217.641 54.4866Z" fill="white"/>
<path d="M232.459 58.7607L232.444 58.7488L233.929 56.8422L231.763 56.037L232.159 57.2276L227.739 62.9016L226.25 63.1142L228.813 65.1101L228.654 63.6144L232.147 59.1301C232.86 58.215 234.297 58.6975 235.635 59.8125L236.671 58.9535C234.931 57.9163 233.679 57.6034 232.459 58.7607Z" fill="white"/>
<path d="M243.752 64.6873L244.568 65.4851L239.605 70.5566C238.551 71.6345 238.814 73.2449 239.878 74.286C240.003 74.4077 240.141 74.5429 240.292 74.6369L240.373 74.5267C240.222 74.4326 240.07 74.3112 239.946 74.1895C239.352 73.6081 239.109 72.7221 240.637 71.1606L245.397 66.2963L246.599 67.4727L246.694 67.3759L245.491 66.1996L246.681 64.9835L243.752 64.6873Z" fill="white"/>
<path d="M256.243 75.1867C256.551 75.5592 257.096 75.6108 257.468 75.3028C257.841 74.9948 257.892 74.4504 257.584 74.0779C257.276 73.7054 256.732 73.6538 256.359 73.9618C255.987 74.2698 255.935 74.8142 256.243 75.1867ZM255.668 76.6152L253.728 75.3601L253.857 76.6082L248.314 81.191L246.814 81.0763L248.884 83.5795L249.053 82.085L255.668 76.6152Z" fill="white"/>
<path d="M260.757 89.3373C260.577 88.3044 260.38 86.3863 261.308 85.7914C262.057 85.3112 263.092 85.8872 263.687 86.8148C263.927 87.1891 264.081 87.5726 264.153 88.078L263.731 90.7145L265.298 89.1118L263.785 86.7522C263.085 85.6619 261.9 85.0671 260.68 85.85C259.313 86.7268 259.436 88.8527 259.619 89.9982C259.799 91.3529 260.087 93.3047 259.11 93.931C258.231 94.4947 257.009 93.8778 256.289 92.7549C256.017 92.3318 255.766 91.6892 255.668 91.178L256.08 88.4555L254.448 90.0999L256.191 92.8175C257.026 94.1194 258.48 94.7028 259.651 93.9513C261.458 92.7926 261.004 90.8325 260.757 89.3373Z" fill="white"/>
<path d="M271.582 99.3691L272.073 100.399L265.668 103.452C264.307 104.101 264 105.704 264.64 107.047C264.715 107.204 264.798 107.379 264.908 107.519L265.022 107.444C264.912 107.303 264.812 107.137 264.737 106.98C264.379 106.23 264.457 105.314 266.429 104.374L272.572 101.446L273.296 102.964L273.418 102.906L272.694 101.388L274.23 100.656L271.582 99.3691Z" fill="white"/>
<path d="M280.707 118.225C282.47 117.645 283.442 116.146 282.815 114.235C282.44 113.097 281.916 112.618 281.606 112.292L280.522 111.163L278.264 111.783L281.83 112.727C282.177 113.102 282.499 113.708 282.686 114.278C283.066 115.435 282.243 116.397 280.902 116.838C279.506 117.297 278.517 116.95 277.286 116.114C275.524 114.902 274.355 115.123 272.2 116.056L272.26 116.178C274.282 115.27 275.254 115.256 276.757 116.796C277.738 117.797 279.183 118.726 280.707 118.225ZM269.383 117.145C269.534 117.604 270.022 117.85 270.481 117.699C270.94 117.549 271.187 117.06 271.036 116.601C270.885 116.142 270.397 115.896 269.937 116.047C269.478 116.197 269.232 116.686 269.383 117.145Z" fill="white"/>
<path d="M269.16 219.913C270.583 220.696 271.936 220.307 272.736 218.894C273.536 217.481 273.432 215.978 272.57 214.557L272.142 215.314C271.551 216.357 270.508 216.944 269.387 217.198C269.849 216.97 270.365 216.529 270.813 215.739C271.765 214.056 271.405 212.142 269.706 211.18C268.074 210.256 266.048 210.93 265.143 212.529C264.39 213.858 264.471 215.325 265.576 216.551L263.557 215.408L262.471 217.326L263.928 216.951L269.16 219.913ZM269.849 218.97L267.006 217.36C268.595 217.771 270.919 217.199 271.978 215.799C272.893 216.694 273.118 217.71 272.556 218.703C271.984 219.712 271.044 219.646 269.849 218.97ZM266.242 216.905C265.098 216.258 264.495 214.85 265.238 213.538C266.029 212.141 268.007 211.551 269.521 212.408C270.817 213.142 271.323 214.562 270.552 215.924C269.561 217.674 267.47 217.601 266.242 216.905Z" fill="white"/>
<path d="M262.102 231.674L262.113 231.659L264.036 233.123L264.818 230.947L263.631 231.356L257.909 226.999L257.68 225.513L255.713 228.097L257.207 227.922L261.729 231.366C262.652 232.068 262.185 233.511 261.085 234.86L261.955 235.888C262.973 234.136 263.272 232.881 262.102 231.674Z" fill="white"/>
<path d="M250.901 245.768L247.778 248.824C249.483 249.185 251.143 248.724 252.455 247.44C254.321 245.614 254.491 242.526 252.409 240.398C250.286 238.229 247.135 238.851 245.339 240.608C243.418 242.488 243.979 244.968 245.128 246.143C246.669 247.718 248.956 247.374 250.901 245.768ZM253.152 243.756C253.37 245.084 253.111 246.285 252.129 247.245C251.314 248.042 250.148 248.399 249.006 247.812L253.152 243.756ZM245.321 246.036C244.131 244.82 243.989 242.767 245.606 241.185C247.264 239.563 250.241 239.842 252.026 241.666C252.567 242.218 252.956 242.865 253.14 243.578L251.454 245.228C249.229 247.405 246.754 247.501 245.321 246.036Z" fill="white"/>
<path d="M221.766 269.818L220.986 262.709L226.838 267.045L226.442 268.495L229.495 266.826L228.06 266.377L221.265 261.366L223.507 259.259C224.51 258.314 224.871 257.081 224.38 256.182C223.823 255.164 222.63 254.957 221.511 255.569C220.154 256.311 219.778 258.081 220.43 260.765L220.006 260.997L220.748 262.354L221.58 269.92L221.183 271.371L223.202 270.267L221.766 269.818ZM220.527 260.822C220.499 259.119 220.931 257.208 222.305 256.457C223.187 255.975 223.887 255.966 224.231 256.594C224.657 257.374 224.118 258.484 223.391 259.168L221.15 261.275L220.527 260.822Z" fill="white"/>
<path d="M209.902 271.996C209.04 269.533 206.243 268.094 203.633 269.007C201.151 269.875 199.725 272.647 200.656 275.312C201.518 277.775 204.315 279.214 206.925 278.301C209.407 277.433 210.833 274.661 209.902 271.996ZM209.127 273.353C209.848 275.415 209.122 277.205 207.534 277.76C205.344 278.526 202.363 276.619 201.431 273.955C200.71 271.893 201.436 270.103 203.024 269.548C205.214 268.782 208.195 270.689 209.127 273.353Z" fill="white"/>
<path d="M183.346 284.871L185.397 283.805L184.249 283.3L183.109 276.787C183.75 275.85 184.424 275.104 185.358 274.941C186.691 274.708 188.135 275.672 188.448 277.462L189.554 283.785L191.605 282.719L190.457 282.214L189.601 277.319C189.218 275.129 187.463 274.298 185.863 274.578C184.625 274.794 183.853 275.538 183.104 276.532L182.232 275.252L181.68 275.349L183.346 284.871Z" fill="white"/>
<path d="M149.667 283.975C149.53 285.594 150.435 286.672 152.052 286.828C153.668 286.985 154.999 286.278 155.947 284.913L155.081 284.829C153.888 284.714 152.927 283.999 152.24 283.078C152.635 283.408 153.248 283.7 154.152 283.788C156.077 283.974 157.679 282.866 157.867 280.923C158.048 279.056 156.607 277.479 154.779 277.303C153.259 277.156 151.951 277.825 151.281 279.334L151.504 277.025L149.31 276.813L150.245 277.991L149.667 283.975ZM150.808 284.222L151.123 280.97C151.393 282.589 152.862 284.479 154.571 284.877C154.125 286.077 153.288 286.695 152.153 286.586C150.998 286.474 150.676 285.588 150.808 284.222ZM151.228 280.086C151.354 278.778 152.395 277.655 153.896 277.8C155.493 277.954 156.837 279.522 156.67 281.254C156.527 282.735 155.435 283.776 153.877 283.625C151.875 283.431 151.092 281.491 151.228 280.086Z" fill="white"/>
<path d="M130.298 280.053C129.741 282.205 130.976 283.683 132.548 284.09C133.764 284.405 134.705 284.089 135.916 283.424L135.562 284.79L137.87 284.669L137.034 283.733L138.831 276.79L140.113 276.003L136.968 275.189L137.708 276.499L135.969 283.218C134.993 283.824 134.076 284.206 133.158 283.969C131.848 283.63 130.951 282.159 131.401 280.418L132.748 275.215L134.03 274.429L130.885 273.615L131.625 274.925L130.298 280.053Z" fill="white"/>
<path d="M99.711 268.728C98.9173 270.145 99.2964 271.501 100.704 272.311C102.111 273.122 103.615 273.029 105.042 272.178L104.288 271.743C103.25 271.145 102.67 270.098 102.425 268.974C102.649 269.438 103.086 269.958 103.873 270.411C105.548 271.376 107.466 271.03 108.44 269.338C109.376 267.713 108.716 265.682 107.125 264.765C105.801 264.003 104.333 264.072 103.1 265.169L104.257 263.158L102.347 262.058L102.712 263.518L99.711 268.728ZM100.649 269.424L102.279 266.593C101.857 268.179 102.412 270.507 103.804 271.576C102.902 272.484 101.885 272.702 100.896 272.132C99.8909 271.553 99.9636 270.614 100.649 269.424ZM102.74 265.832C103.396 264.693 104.808 264.1 106.115 264.853C107.505 265.654 108.081 267.636 107.213 269.144C106.47 270.434 105.046 270.931 103.689 270.149C101.947 269.146 102.036 267.055 102.74 265.832Z" fill="white"/>
<path d="M87.9215 261.56L87.9367 261.571L86.4517 263.478L88.6182 264.283L88.2222 263.093L92.6416 257.419L94.1305 257.206L91.5681 255.21L91.7264 256.706L88.2337 261.19C87.5209 262.105 86.0833 261.623 84.7462 260.508L83.7096 261.367C85.4503 262.404 86.7015 262.717 87.9215 261.56Z" fill="white"/>
<path d="M76.6286 255.633L75.8132 254.835L80.7754 249.764C81.8301 248.686 81.5664 247.075 80.5024 246.034C80.378 245.913 80.2398 245.777 80.0884 245.683L80.0076 245.794C80.159 245.888 80.3107 246.009 80.435 246.131C81.0293 246.712 81.2713 247.598 79.7435 249.16L74.9841 254.024L73.7819 252.848L73.6872 252.944L74.8895 254.121L73.6996 255.337L76.6286 255.633Z" fill="white"/>
<path d="M64.1373 245.132C63.8293 244.759 63.2849 244.708 62.9124 245.016C62.5399 245.324 62.4883 245.868 62.7963 246.24C63.1043 246.613 63.6487 246.665 64.0212 246.357C64.3937 246.049 64.4453 245.504 64.1373 245.132ZM64.7122 243.703L66.653 244.958L66.5241 243.71L72.0669 239.127L73.5666 239.242L71.4969 236.739L71.3278 238.233L64.7122 243.703Z" fill="white"/>
<path d="M59.6237 230.981C59.8038 232.014 60.0005 233.932 59.073 234.527C58.3244 235.007 57.2888 234.431 56.6938 233.504C56.4537 233.129 56.2996 232.746 56.2281 232.24L56.6501 229.604L55.0826 231.207L56.5962 233.566C57.2955 234.656 58.481 235.251 59.7015 234.468C61.0684 233.592 60.9451 231.466 60.7616 230.32C60.5817 228.965 60.2944 227.014 61.2708 226.387C62.1496 225.824 63.3722 226.441 64.0924 227.563C64.3638 227.987 64.6152 228.629 64.7135 229.14L64.3007 231.863L65.9332 230.218L64.19 227.501C63.355 226.199 61.9012 225.616 60.7295 226.367C58.9232 227.526 59.3766 229.486 59.6237 230.981Z" fill="white"/>
<path d="M48.7991 220.951L48.3083 219.922L54.7131 216.868C56.0743 216.219 56.3812 214.617 55.7406 213.273C55.6657 213.116 55.5825 212.941 55.4728 212.801L55.3589 212.877C55.4687 213.017 55.5693 213.183 55.6442 213.34C56.002 214.091 55.9242 215.006 53.9522 215.946L47.8091 218.874L47.0853 217.356L46.9632 217.414L47.687 218.933L46.1512 219.665L48.7991 220.951Z" fill="white"/>
<path d="M39.6738 202.093C37.9106 202.673 36.9384 204.173 37.5663 206.083C37.9406 207.222 38.4644 207.701 38.7749 208.026L39.8584 209.156L42.117 208.535L38.5505 207.591C38.2035 207.217 37.882 206.61 37.6949 206.041C37.3145 204.884 38.1378 203.921 39.4785 203.48C40.8744 203.021 41.8634 203.368 43.0949 204.205C44.8567 205.416 46.0254 205.195 48.1813 204.262L48.1207 204.14C46.0993 205.049 45.1272 205.063 43.6235 203.522C42.6433 202.521 41.1982 201.592 39.6738 202.093ZM50.9982 203.174C50.8472 202.715 50.3592 202.468 49.9 202.619C49.4408 202.77 49.1943 203.258 49.3452 203.717C49.4961 204.176 49.9842 204.423 50.4434 204.272C50.9025 204.121 51.1491 203.633 50.9982 203.174Z" fill="white"/>
<g filter="url(#filter0_b_829_4299)">
<g clip-path="url(#clip0_829_4299)">
<rect x="56.619" y="56.6191" width="207.143" height="207.143" rx="103.571" fill="url(#paint0_angular_829_4299)" fill-opacity="0.4"/>
<path opacity="0.4" d="M145.08 201.887C145.426 200.968 145.078 199.385 144.297 198.329C143.803 197.661 143.58 197.544 142.154 197.202M145.08 201.887L144.434 201.644M145.08 201.887L144.434 201.644C144.434 201.644 144.434 201.644 144.434 201.644M145.08 201.887C144.674 202.965 143.955 203.54 142.428 204.007L139.803 207.575M144.434 201.644C144.542 201.357 144.563 200.88 144.437 200.308C144.314 199.749 144.068 199.181 143.742 198.74L143.742 198.74C143.514 198.432 143.41 198.337 143.254 198.254C143.048 198.146 142.725 198.049 141.993 197.873L142.154 197.202M144.434 201.644C144.268 202.085 144.054 202.389 143.743 202.637C143.418 202.897 142.95 203.125 142.226 203.346C141.475 203.576 140.824 203.836 140.418 204.331C139.981 204.862 139.937 205.515 139.978 206.189L139.978 206.19C140.013 206.771 139.986 207.132 139.927 207.352C139.877 207.538 139.823 207.565 139.805 207.574L139.803 207.575M142.154 197.202L141.993 197.873C141.052 197.647 140.384 197.453 139.791 197.085C139.198 196.716 138.728 196.203 138.108 195.458C137.626 194.88 136.773 194.1 136.251 193.752M142.154 197.202C140.27 196.749 139.88 196.507 138.638 195.016C138.12 194.395 137.219 193.568 136.634 193.178M136.251 193.752L152.311 193.793C152.186 193.86 152.067 193.872 152.015 193.874C151.914 193.878 151.84 193.858 151.82 193.852C151.789 193.844 151.767 193.835 151.759 193.831M136.251 193.752C135.656 193.356 134.926 192.782 134.631 192.449L134.631 192.449C134.364 192.146 134.077 191.701 133.879 191.338C133.779 191.156 133.686 190.966 133.627 190.803C133.601 190.731 133.563 190.614 133.552 190.486C133.547 190.427 133.542 190.295 133.597 190.147C133.666 189.963 133.831 189.763 134.104 189.698C134.258 189.662 134.386 189.688 134.414 189.694L134.416 189.695C134.463 189.704 134.503 189.717 134.526 189.726C134.575 189.743 134.622 189.763 134.658 189.78C134.733 189.815 134.823 189.862 134.917 189.913C135.107 190.018 135.349 190.161 135.601 190.318L135.601 190.318C136.426 190.834 137.44 190.989 139.457 190.681M136.251 193.752L136.634 193.178M136.634 193.178C136.05 192.788 135.381 192.254 135.149 191.991C135.009 191.833 134.854 191.616 134.712 191.392C134.537 191.285 134.377 191.193 134.252 191.124C134.17 191.079 134.111 191.048 134.076 191.032C134.065 191.027 134.061 191.026 134.061 191.026C134.061 191.026 134.065 191.027 134.071 191.029C134.077 191.031 134.102 191.04 134.138 191.047C134.156 191.051 134.187 191.057 134.227 191.059C134.263 191.061 134.334 191.063 134.422 191.042C134.447 191.036 134.47 191.029 134.492 191.022C134.439 190.925 134.392 190.832 134.353 190.749C134.253 190.536 134.209 190.383 134.263 190.37C134.298 190.362 134.546 190.491 134.869 190.681C134.877 190.664 134.884 190.647 134.89 190.631C134.939 190.502 134.931 190.398 134.929 190.373C134.926 190.343 134.922 190.323 134.92 190.315M136.634 193.178L153.69 195.981M134.92 190.315C134.921 190.318 134.923 190.324 134.926 190.333C134.95 190.4 135.005 190.519 135.091 190.676C135.129 190.746 135.17 190.818 135.213 190.89C135.221 190.895 135.228 190.899 135.235 190.904C136.27 191.551 137.488 191.68 139.561 191.364M134.92 190.315C134.919 190.313 134.919 190.311 134.919 190.311L134.92 190.315ZM139.561 191.364C141.148 191.122 141.409 191.212 142.494 192.374M139.561 191.364L139.457 190.681M139.561 191.364L139.457 190.681C139.457 190.681 139.457 190.681 139.457 190.681M142.494 192.374C143.529 193.482 143.916 193.658 145.667 193.821L147.184 193.962L147.793 194.878M142.494 192.374L142.998 191.902C142.998 191.902 142.998 191.902 142.998 191.902M142.494 192.374L142.998 191.902M147.793 194.878C149.02 196.725 149.955 197.426 151.4 197.582M147.793 194.878L148.368 194.496C148.964 195.393 149.453 195.955 149.929 196.311C150.386 196.654 150.86 196.829 151.474 196.895L151.4 197.582M147.793 194.878L148.368 194.496L147.759 193.58L147.577 193.305L147.248 193.274L145.731 193.134C144.85 193.052 144.425 192.972 144.098 192.824C143.786 192.681 143.509 192.449 142.998 191.902M151.4 197.582C152.56 197.707 153.114 197.549 153.763 196.909C154.703 195.983 154.692 195.81 153.643 195.084C153.579 195.04 153.512 194.99 153.443 194.935C153.124 194.77 152.807 194.566 152.486 194.325C152.254 194.152 152.045 194.007 151.898 193.913C151.821 193.865 151.776 193.84 151.759 193.831M151.4 197.582L151.474 196.895C152.022 196.954 152.346 196.936 152.584 196.868C152.804 196.806 153.008 196.684 153.279 196.417C153.479 196.22 153.609 196.083 153.69 195.981M151.759 193.831C151.759 193.831 151.759 193.831 151.759 193.831C151.756 193.83 151.755 193.829 151.755 193.829L151.759 193.831ZM153.69 195.981C153.6 195.902 153.461 195.798 153.25 195.652C152.835 195.365 152.348 194.891 151.986 194.479C151.804 194.271 151.634 194.057 151.512 193.869C151.454 193.778 151.389 193.667 151.344 193.55C151.322 193.492 151.293 193.405 151.283 193.3C151.274 193.202 151.274 193.015 151.391 192.826C151.57 192.535 151.863 192.498 151.96 192.495C152.07 192.49 152.156 192.513 152.19 192.522C152.269 192.544 152.335 192.576 152.371 192.593C152.454 192.634 152.547 192.69 152.637 192.747C152.824 192.865 153.063 193.032 153.314 193.22L153.314 193.22C153.903 193.661 154.382 193.89 154.816 193.976C155.239 194.06 155.675 194.02 156.201 193.827L156.201 193.827C157.052 193.514 157.37 193.374 157.529 193.249C157.598 193.194 157.643 193.157 157.742 192.753L157.742 192.753C157.788 192.561 157.814 192.444 157.827 192.359C157.833 192.316 157.835 192.292 157.835 192.281C157.832 192.275 157.827 192.266 157.818 192.252C157.786 192.199 157.731 192.127 157.625 191.993L157.624 191.993C157.492 191.828 157.411 191.77 157.328 191.732C157.224 191.685 157.055 191.642 156.698 191.61L156.698 191.61C155.16 191.473 153.754 190.4 152.315 188.603C151.736 187.88 151.003 187.122 150.714 186.911L150.714 186.911C150.293 186.603 149.414 185.771 148.747 185.064L148.746 185.064C148.426 184.724 148.084 184.388 147.795 184.122C147.65 183.989 147.522 183.877 147.419 183.793C147.368 183.751 147.325 183.718 147.293 183.694C147.27 183.678 147.257 183.669 147.251 183.666C147.248 183.664 147.247 183.663 147.249 183.664L147.249 183.664C146.956 183.503 146.57 183.224 146.371 182.998L146.37 182.998C146.339 182.962 146.291 182.907 146.249 182.843C146.215 182.793 146.126 182.654 146.109 182.46C146.085 182.196 146.201 181.959 146.388 181.811C146.528 181.7 146.678 181.663 146.746 181.647C146.897 181.614 147.08 181.608 147.252 181.606C147.439 181.603 147.682 181.607 147.984 181.613L147.984 181.613C148.75 181.628 149.822 181.772 150.407 181.952L150.204 182.612L150.407 181.952C152.055 182.459 154.585 182.219 156.457 181.329L156.754 181.953L156.457 181.329C156.836 181.149 157.2 180.847 157.447 180.537C157.569 180.382 157.648 180.245 157.689 180.14C157.699 180.116 157.705 180.096 157.71 180.079C157.688 180.057 157.658 180.03 157.618 179.997C157.475 179.88 157.257 179.737 156.971 179.582C156.402 179.275 155.635 178.962 154.833 178.733C153.993 178.494 152.732 177.915 151.984 177.426M153.69 195.981L151.984 177.426M151.984 177.426C151.2 176.914 150.244 176.506 148.929 176.145C146.712 175.535 144.424 174.778 143.045 174.191L143.045 174.191C142.719 174.052 142.51 173.993 142.185 173.978C141.819 173.961 141.308 173.998 140.373 174.098C139.194 174.225 137.652 174.379 136.944 174.441L151.984 177.426ZM142.998 191.902C142.474 191.34 142.027 190.891 141.44 190.689C140.855 190.488 140.224 190.564 139.457 190.681M139.803 207.575L140.121 208.188L139.803 207.575M139.803 207.575L139.803 207.575M139.803 207.575C139.631 207.664 139.238 207.669 138.686 207.315C138.168 206.983 137.675 206.425 137.408 205.776L137.408 205.775C137.318 205.559 137.217 205.342 137.124 205.163C137.078 205.074 137.03 204.989 136.983 204.914C136.948 204.857 136.88 204.751 136.79 204.664M139.803 207.575L74.7432 242.572C75.0077 243.179 75.2942 244.095 75.7408 245.803C76.1901 247.521 76.8107 250.079 77.7387 253.997L79.8581 262.943C80.1703 262.687 80.5774 262.314 81.0213 261.87C81.6894 261.203 82.3782 260.439 82.8493 259.822L83.3981 260.241L82.8493 259.822C84.4233 257.761 88.4662 251.419 89.4001 249.554C89.8661 248.623 90.7937 246.524 91.4564 244.898C92.89 241.38 93.7754 238.847 94.3925 236.105C95.0108 233.357 95.3651 230.377 95.7158 225.958C96.1123 220.961 96.3879 219.148 97.2641 215.872C97.6777 214.326 97.9653 213.336 98.3173 212.453C98.6722 211.563 99.0854 210.799 99.73 209.696C99.73 209.696 99.7301 209.696 99.7301 209.696L100.652 208.118L100.962 207.585L101.527 207.834L103.639 208.766L103.36 209.398L103.639 208.766C106.103 209.853 107.938 210.279 109.739 210.234L109.756 210.917L109.739 210.234C111.347 210.193 112.273 209.872 116.036 207.802C121.355 204.875 123.126 204.046 125.317 203.532C126.433 203.27 127.184 203.125 128.129 203.144C129.047 203.162 130.129 203.334 131.912 203.647L131.912 203.647C132.626 203.773 133.297 203.881 133.802 203.954C134.055 203.991 134.261 204.018 134.408 204.034C134.477 204.041 134.526 204.045 134.559 204.048C134.748 204.022 134.949 204.045 135.078 204.063C135.265 204.088 135.473 204.131 135.671 204.181C135.869 204.231 136.072 204.292 136.247 204.358C136.334 204.39 136.423 204.428 136.506 204.469C136.576 204.505 136.69 204.568 136.79 204.664M136.79 204.664C136.79 204.664 136.79 204.664 136.79 204.664L136.311 205.162L136.79 204.664ZM74.471 241.943C74.5484 242.124 74.6387 242.332 74.7432 242.572L74.471 241.943ZM74.471 241.943C74.5532 241.903 74.6341 241.843 74.7055 241.759C74.8518 241.586 74.8778 241.397 74.885 241.318C74.8934 241.225 74.8869 241.14 74.8808 241.081C74.8686 240.965 74.8413 240.818 74.8145 240.674L74.8143 240.673M74.471 241.943L71.0904 229.231C71.2259 229.297 71.3819 229.383 71.5288 229.517C71.6805 229.655 71.7918 229.816 71.8819 229.998C72.043 230.324 72.1678 230.791 72.3294 231.441L72.3294 231.441C72.5325 232.259 72.9862 233.858 73.3357 234.985L72.6763 235.19L73.3357 234.985L73.9759 237.05L74.4786 238.671L74.1998 238.52C74.4607 239.143 74.6675 239.885 74.8143 240.673M74.8143 240.673L74.1355 240.8L74.8143 240.673ZM118.134 176.013L118.439 176.632C114.661 178.493 113.416 179.318 109.62 182.495C107.302 184.435 106.613 184.92 105.221 185.5L105.221 185.5C102.016 186.833 98.5533 188.39 95.6309 189.811L95.6309 189.811C93.9378 190.634 91.6046 191.666 90.4339 192.107L90.1905 191.461L90.4339 192.107C89.8708 192.32 89.2936 192.551 88.8189 192.753C88.3269 192.962 87.9897 193.12 87.8742 193.189C87.133 193.63 86.162 194.305 85.2764 194.979C84.3802 195.66 83.6226 196.302 83.2807 196.675C82.9904 196.991 82.5352 197.645 81.9784 198.546C81.4308 199.432 80.8098 200.517 80.1902 201.663C78.9468 203.962 77.7307 206.468 77.1264 208.086L77.1264 208.086C76.1613 210.67 74.3146 213.501 72.5084 215.126L72.5084 215.126C71.4697 216.061 70.8842 216.786 69.9068 218.382L69.9068 218.382L68.7926 220.202L69.0384 220.773L69.0384 220.773C69.1171 220.956 69.187 221.091 69.2415 221.18C69.4278 221.237 69.5602 221.356 69.6127 221.411C69.7287 221.533 69.8065 221.679 69.8563 221.785C69.9639 222.013 70.0553 222.307 70.1251 222.595C70.1964 222.889 70.2535 223.212 70.2818 223.51C70.3069 223.774 70.3173 224.093 70.2536 224.363C70.2533 224.368 70.253 224.374 70.2528 224.382C70.2515 224.421 70.2519 224.479 70.2552 224.559C70.2618 224.717 70.2785 224.931 70.3051 225.188C70.3582 225.7 70.4476 226.354 70.5607 227.023L70.5607 227.023C70.7732 228.281 70.8694 228.827 70.9627 229.105C70.9753 229.142 70.9854 229.167 70.9922 229.182C71.0086 229.191 71.0386 229.206 71.0903 229.231L118.134 176.013ZM118.134 176.013L118.439 176.632C119.202 176.256 119.961 176.167 121.509 176.42L121.62 175.739M118.134 176.013L121.62 175.739M121.62 175.739L121.509 176.42C123.861 176.804 124.657 177.004 125.254 177.289C125.468 177.391 125.708 177.483 126.008 177.511C126.299 177.538 126.599 177.5 126.936 177.417C127.585 177.257 128.54 176.884 130.12 176.243C132.494 175.279 135.059 174.608 136.944 174.441L121.62 175.739ZM127.12 193.201C127.311 193.199 127.536 193.179 127.682 193.144C127.889 193.095 128.194 193.039 128.488 193.136C128.66 193.192 128.814 193.295 128.932 193.445C129.026 193.565 129.079 193.693 129.111 193.804C129.115 193.812 129.122 193.823 129.131 193.837C129.167 193.893 129.224 193.971 129.3 194.066C129.451 194.255 129.656 194.483 129.874 194.698C130.119 194.938 130.34 195.169 130.501 195.35C130.579 195.439 130.653 195.526 130.709 195.602C130.735 195.636 130.773 195.69 130.805 195.75C130.82 195.778 130.851 195.838 130.872 195.916L130.872 195.918C130.884 195.961 130.952 196.212 130.793 196.47M127.12 193.201L129.14 195.917C129.209 195.988 129.274 196.056 129.332 196.118M127.12 193.201C127.125 193.166 127.128 193.132 127.13 193.098C127.134 193.031 127.136 192.939 127.121 192.843C127.114 192.796 127.099 192.721 127.064 192.639C127.031 192.564 126.953 192.413 126.778 192.305L126.415 192.893L126.778 192.305C126.616 192.205 126.459 192.197 126.38 192.199C126.295 192.202 126.227 192.218 126.186 192.23C126.105 192.253 126.037 192.286 125.994 192.308C125.902 192.355 125.805 192.418 125.715 192.479C125.529 192.607 125.302 192.781 125.076 192.965C124.644 193.316 124.118 193.784 123.886 194.085L123.886 194.085C123.882 194.09 123.878 194.095 123.874 194.1C123.816 194.175 123.716 194.304 123.653 194.438C123.613 194.522 123.568 194.647 123.565 194.802C123.562 194.968 123.608 195.12 123.685 195.247C123.81 195.455 124.009 195.58 124.111 195.642C124.237 195.719 124.401 195.805 124.582 195.899L127.12 193.201ZM130.793 196.47L130.205 196.108L130.794 196.469C130.794 196.469 130.793 196.47 130.793 196.47ZM130.793 196.47C130.682 196.651 130.525 196.726 130.458 196.753C130.381 196.785 130.314 196.797 130.278 196.802C130.202 196.813 130.135 196.811 130.096 196.81C130.01 196.806 129.916 196.793 129.829 196.779C129.651 196.75 129.426 196.7 129.193 196.638L129.332 196.118M129.332 196.118C129.332 196.118 129.332 196.118 129.332 196.118L129.371 195.971L129.332 196.118ZM152.658 193.169C152.664 193.228 152.668 193.376 152.575 193.537L151.121 186.354C151.488 186.622 152.268 187.44 152.854 188.172C154.262 189.93 155.513 190.811 156.759 190.922C157.515 190.989 157.815 191.126 158.164 191.562C158.582 192.085 158.596 192.162 158.413 192.916C158.206 193.765 158.061 193.88 156.439 194.475C155.509 194.816 154.702 194.788 153.82 194.352C153.573 194.147 153.285 193.864 153.04 193.586C153.035 193.58 153.029 193.574 153.024 193.568C152.864 193.386 152.742 193.228 152.672 193.119C152.642 193.073 152.632 193.052 152.632 193.052C152.632 193.052 152.632 193.053 152.633 193.056C152.636 193.062 152.652 193.103 152.658 193.169ZM157.757 180.133C157.757 180.133 157.756 180.132 157.755 180.13C157.756 180.132 157.757 180.133 157.757 180.133ZM73.5092 237.328C73.5092 237.328 73.5092 237.328 73.5092 237.328L73.0777 237.694L73.5092 237.328ZM71.0023 229.201C71.0023 229.201 71.0019 229.201 71.0012 229.2C71.0019 229.201 71.0023 229.201 71.0023 229.201ZM70.245 224.397C70.2452 224.396 70.2455 224.396 70.2457 224.395C70.2455 224.396 70.2452 224.396 70.245 224.397L70.245 224.397ZM69.3166 221.288C69.3166 221.288 69.3161 221.287 69.3151 221.286C69.3161 221.287 69.3166 221.288 69.3166 221.288ZM129.251 202.719L129.251 202.719C129.392 202.814 129.549 202.849 129.604 202.861L129.605 202.861C129.691 202.881 129.786 202.895 129.879 202.905C130.067 202.926 130.29 202.938 130.51 202.935C130.73 202.933 130.959 202.919 131.136 202.873C131.184 202.86 131.254 202.839 131.328 202.801C131.386 202.771 131.54 202.686 131.644 202.501C131.783 202.253 131.75 201.98 131.633 201.785C131.544 201.636 131.424 201.556 131.373 201.524C131.241 201.442 131.099 201.407 131.021 201.389C130.926 201.369 130.825 201.355 130.73 201.345C130.539 201.327 130.325 201.321 130.132 201.326C129.949 201.331 129.74 201.346 129.575 201.383C129.531 201.393 129.474 201.408 129.415 201.431C129.367 201.449 129.257 201.495 129.152 201.593C129.03 201.707 128.859 201.962 128.948 202.297C129.016 202.553 129.197 202.682 129.251 202.719ZM130.74 202.742C130.74 202.742 130.737 202.742 130.732 202.74C130.737 202.741 130.74 202.742 130.74 202.742ZM130.507 202.576L130.503 202.245L130.507 202.576Z" stroke="white" stroke-width="1.38095"/>
<g opacity="0.4">
<mask id="path-34-inside-1_829_4299" fill="white">
<path fill-rule="evenodd" clip-rule="evenodd" d="M238.44 56.0618C238.088 56.4895 237.459 57.3316 237.042 57.9328C236.556 58.6322 236.234 58.9507 236.145 58.8169C236.048 58.6688 235.754 58.8542 235.138 59.4529C233.238 61.3003 230.387 65.3547 226.809 71.298C225.385 73.664 223.885 75.9791 223.476 76.4422C222.536 77.5069 222.022 78.4676 221.534 80.0708C220.813 82.4395 220.316 83.4474 219.272 84.6567C216.862 87.4497 214.557 90.5642 212.964 93.1825C210.835 96.6808 208.629 99.7193 207.141 101.203C204.946 103.391 204.489 103.979 203.971 105.287C203.685 106.008 203.227 106.934 202.955 107.344C202.682 107.754 201.038 110.324 199.3 113.055C196.033 118.191 195.161 119.329 192.311 122.174C191.386 123.098 190.036 124.519 189.312 125.332C188.588 126.145 187.679 126.984 187.291 127.195C185.486 128.182 184.321 129.033 183.361 130.063C182.788 130.678 181.915 131.589 181.422 132.087C180.929 132.584 180.269 133.538 179.955 134.206C179.153 135.912 178.188 137.519 177.258 138.696C176.82 139.25 175.983 140.433 175.399 141.325C174.542 142.632 174.316 143.155 174.233 144.026C174.176 144.62 174.18 145.297 174.243 145.531C174.384 146.057 175.873 146.854 177.065 147.04C177.9 147.171 177.944 147.159 179.074 146.491C179.709 146.116 180.979 145.208 181.895 144.473C183.26 143.38 183.721 142.872 184.444 141.668C185.062 140.637 185.762 139.81 186.782 138.9C187.714 138.07 188.546 137.11 189.096 136.231C190.037 134.726 190.462 134.409 192.571 133.635C194.266 133.014 196.447 131.847 196.934 131.3C197.223 130.976 197.539 130.845 198.268 130.745C198.794 130.673 199.897 130.503 200.72 130.367C201.542 130.231 202.329 130.154 202.467 130.195C202.781 130.29 202.956 130.894 202.737 131.126C202.648 131.222 202.517 131.697 202.448 132.182C202.378 132.667 202.156 133.585 201.954 134.222C201.752 134.859 201.506 135.779 201.407 136.266C201.307 136.753 200.937 137.861 200.584 138.727C199.905 140.397 199.734 141.828 200.126 142.566C200.487 143.245 201.561 144.265 202.207 144.543C202.635 144.726 203.047 144.72 203.8 144.519C205.108 144.168 206.131 144.369 206.521 145.051C206.68 145.329 207.268 146.458 207.828 147.561C209 149.869 209.401 150.356 211.672 152.232C212.584 152.986 213.766 154.013 214.296 154.514C215.413 155.568 216.443 155.895 217.049 155.388L217.411 155.085L216.861 155.022C216.559 154.987 216.304 154.931 216.295 154.897C216.286 154.864 216.758 154.744 217.345 154.632C218.378 154.433 218.426 154.4 218.895 153.559C219.343 152.755 219.458 152.668 220.47 152.369C221.936 151.935 222.392 151.364 222.355 150.007C222.317 148.576 221.359 145.815 220.619 145.008L220.057 144.395L220.165 143.276C220.261 142.279 220.217 142.038 219.764 141.06C219.484 140.457 218.994 139.609 218.674 139.177C218.024 138.298 217.987 137.951 218.363 136.264C218.488 135.705 218.515 134.955 218.424 134.597C218.227 133.826 218.197 132.206 218.377 132.106C218.706 131.925 218.843 132.014 219.45 132.806C219.954 133.464 220.199 134.021 220.537 135.282C221.04 137.159 221.398 137.83 222.313 138.606C222.674 138.912 223.468 139.922 224.079 140.849C224.689 141.777 225.37 142.697 225.591 142.895C226.211 143.45 228.603 143.684 228.467 143.177C228.444 143.091 228.64 143.005 228.902 142.986C229.689 142.929 230.308 142.312 230.406 141.486C230.69 139.099 229.761 136.437 228.545 136.152C228.313 136.098 228.036 135.778 227.839 135.337C227.661 134.938 227.238 134.418 226.899 134.181L226.284 133.751L226.598 133.393C226.865 133.091 226.865 132.857 226.601 131.872C226.415 131.178 226.118 130.52 225.866 130.243C225.633 129.987 225.474 129.674 225.511 129.547C225.549 129.421 226.262 128.747 227.094 128.05C229.213 126.277 229.962 125.29 230.073 124.125C230.203 122.758 230.374 122.337 231.21 121.319C232.271 120.026 232.708 119.311 232.998 118.397C233.336 117.33 233.251 115.216 232.832 114.253C232.554 113.614 232.547 113.36 232.787 112.613C232.943 112.127 233.273 111.4 233.52 110.998C233.831 110.493 233.972 109.915 233.976 109.129C233.983 107.554 234.014 107.472 234.95 106.582C235.406 106.147 236.102 105.189 236.495 104.451C237.995 101.641 239.142 100.791 245.396 97.8471C246.39 97.3793 247.707 96.5968 248.322 96.1083C248.938 95.6196 249.623 95.1689 249.845 95.1065L250.249 94.9931L245.095 76.1358C242.26 65.7642 239.827 56.8539 239.688 56.3347C239.549 55.8158 239.356 55.367 239.257 55.3374C239.16 55.3079 238.792 55.6338 238.44 56.0618Z"/>
</mask>
<path d="M238.44 56.0618L239.507 56.9389L239.507 56.9386L238.44 56.0618ZM237.042 57.9328L235.907 57.1454L235.907 57.1455L237.042 57.9328ZM236.145 58.8169L237.299 58.057L237.298 58.0558L236.145 58.8169ZM235.138 59.4529L234.176 58.4626L234.176 58.4627L235.138 59.4529ZM226.809 71.298L225.626 70.5857L225.626 70.5857L226.809 71.298ZM223.476 76.4422L222.441 75.5281L222.44 75.5283L223.476 76.4422ZM221.534 80.0708L222.855 80.473L222.855 80.473L221.534 80.0708ZM219.272 84.6567L220.318 85.559L220.318 85.5589L219.272 84.6567ZM212.964 93.1825L214.144 93.9004L214.144 93.9003L212.964 93.1825ZM207.141 101.203L208.116 102.181L208.116 102.181L207.141 101.203ZM203.971 105.287L205.254 105.796L205.255 105.796L203.971 105.287ZM199.3 113.055L198.135 112.314L198.135 112.314L199.3 113.055ZM192.311 122.174L191.335 121.197L191.335 121.197L192.311 122.174ZM189.312 125.332L190.343 126.251L190.343 126.25L189.312 125.332ZM187.291 127.195L186.629 125.984L186.629 125.984L187.291 127.195ZM183.361 130.063L184.372 131.004L184.372 131.004L183.361 130.063ZM181.422 132.087L182.403 133.059L182.403 133.059L181.422 132.087ZM179.955 134.206L181.205 134.793L181.205 134.793L179.955 134.206ZM177.258 138.696L178.341 139.553L178.341 139.553L177.258 138.696ZM175.399 141.325L176.554 142.082L176.554 142.082L175.399 141.325ZM174.233 144.026L172.858 143.894L172.858 143.894L174.233 144.026ZM177.065 147.04L176.852 148.405L176.852 148.405L177.065 147.04ZM179.074 146.491L178.371 145.302L178.371 145.302L179.074 146.491ZM181.895 144.473L182.759 145.551L182.759 145.551L181.895 144.473ZM184.444 141.668L183.26 140.957L183.26 140.958L184.444 141.668ZM186.782 138.9L185.863 137.869L185.863 137.869L186.782 138.9ZM189.096 136.231L187.925 135.498L187.925 135.498L189.096 136.231ZM192.571 133.635L193.046 134.932L193.047 134.932L192.571 133.635ZM196.934 131.3L197.965 132.22L197.965 132.219L196.934 131.3ZM198.268 130.745L198.081 129.377L198.081 129.377L198.268 130.745ZM200.72 130.367L200.495 129.004L200.495 129.004L200.72 130.367ZM202.467 130.195L202.865 128.873L202.864 128.873L202.467 130.195ZM202.737 131.126L201.732 130.18L201.731 130.181L202.737 131.126ZM202.448 132.182L203.815 132.378L203.815 132.378L202.448 132.182ZM201.954 134.222L203.271 134.639L203.271 134.639L201.954 134.222ZM201.407 136.266L202.76 136.543L202.76 136.542L201.407 136.266ZM200.584 138.727L201.864 139.248L201.864 139.248L200.584 138.727ZM200.126 142.566L201.345 141.918L201.345 141.918L200.126 142.566ZM202.207 144.543L201.662 145.812L201.662 145.812L202.207 144.543ZM203.8 144.519L204.157 145.853L204.157 145.853L203.8 144.519ZM206.521 145.051L205.322 145.736L205.322 145.736L206.521 145.051ZM207.828 147.561L209.059 146.936L209.059 146.935L207.828 147.561ZM211.672 152.232L210.792 153.297L210.792 153.297L211.672 152.232ZM214.296 154.514L213.348 155.518L213.348 155.518L214.296 154.514ZM217.049 155.388L217.935 156.447L217.936 156.447L217.049 155.388ZM217.411 155.085L218.297 156.144L220.765 154.08L217.569 153.713L217.411 155.085ZM216.861 155.022L217.019 153.65L217.018 153.65L216.861 155.022ZM217.345 154.632L217.605 155.988L217.605 155.988L217.345 154.632ZM218.895 153.559L217.688 152.887L217.688 152.887L218.895 153.559ZM220.47 152.369L220.862 153.693L220.862 153.693L220.47 152.369ZM222.355 150.007L220.975 150.044L220.975 150.044L222.355 150.007ZM220.619 145.008L219.601 145.941L219.601 145.941L220.619 145.008ZM220.057 144.395L218.683 144.263L218.624 144.875L219.039 145.328L220.057 144.395ZM220.165 143.276L218.79 143.144L218.79 143.144L220.165 143.276ZM219.764 141.06L221.017 140.479L221.017 140.479L219.764 141.06ZM218.674 139.177L219.784 138.355L219.784 138.355L218.674 139.177ZM218.363 136.264L217.015 135.963L217.015 135.963L218.363 136.264ZM218.424 134.597L217.085 134.939L217.085 134.939L218.424 134.597ZM218.377 132.106L217.709 130.898L217.709 130.898L218.377 132.106ZM219.45 132.806L220.546 131.966L220.546 131.965L219.45 132.806ZM222.313 138.606L221.419 139.659L221.419 139.659L222.313 138.606ZM225.591 142.895L224.67 143.925L224.67 143.925L225.591 142.895ZM228.902 142.986L229.002 144.364L229.002 144.364L228.902 142.986ZM230.406 141.486L229.035 141.323L229.035 141.324L230.406 141.486ZM228.545 136.152L228.23 137.497L228.23 137.497L228.545 136.152ZM227.839 135.337L229.1 134.774L229.1 134.774L227.839 135.337ZM226.899 134.181L227.691 133.05L227.691 133.05L226.899 134.181ZM226.284 133.751L225.247 132.838L224.226 133.997L225.492 134.882L226.284 133.751ZM226.598 133.393L227.635 134.306L227.635 134.306L226.598 133.393ZM225.866 130.243L224.844 131.172L224.845 131.172L225.866 130.243ZM225.511 129.547L224.189 129.151L224.188 129.152L225.511 129.547ZM227.094 128.05L226.208 126.991L226.208 126.991L227.094 128.05ZM230.073 124.125L228.698 123.994L228.698 123.994L230.073 124.125ZM231.21 121.319L232.277 122.195L232.277 122.195L231.21 121.319ZM232.998 118.397L231.681 117.98L231.681 117.98L232.998 118.397ZM232.832 114.253L234.099 113.702L234.099 113.702L232.832 114.253ZM232.787 112.613L231.472 112.191L231.472 112.191L232.787 112.613ZM233.52 110.998L232.344 110.274L232.344 110.275L233.52 110.998ZM233.976 109.129L235.357 109.135L235.357 109.135L233.976 109.129ZM234.95 106.582L233.998 105.581L233.998 105.581L234.95 106.582ZM236.495 104.451L235.277 103.801L235.277 103.801L236.495 104.451ZM245.396 97.8471L245.984 99.0966L245.984 99.0966L245.396 97.8471ZM248.322 96.1083L249.181 97.1899L249.181 97.1897L248.322 96.1083ZM249.845 95.1065L249.471 93.777L249.471 93.777L249.845 95.1065ZM250.249 94.9931L250.622 96.3226L251.942 95.9517L251.581 94.629L250.249 94.9931ZM245.095 76.1358L246.427 75.7717L246.427 75.7717L245.095 76.1358ZM239.688 56.3347L241.022 55.9778L241.022 55.9773L239.688 56.3347ZM239.257 55.3374L239.657 54.0155L239.656 54.0152L239.257 55.3374ZM237.373 55.1847C236.992 55.649 236.34 56.5226 235.907 57.1454L238.176 58.7202C238.579 58.1405 239.185 57.3301 239.507 56.9389L237.373 55.1847ZM235.907 57.1455C235.677 57.4771 235.534 57.6462 235.475 57.7042C235.426 57.7528 235.51 57.6519 235.701 57.5683C235.803 57.5239 236.057 57.4297 236.394 57.4803C236.795 57.5405 237.112 57.7737 237.299 58.057L234.992 59.5768C235.201 59.8935 235.547 60.1461 235.985 60.2117C236.358 60.2678 236.656 60.1652 236.808 60.0988C237.099 59.9713 237.311 59.7722 237.414 59.6704C237.66 59.4278 237.921 59.088 238.176 58.7201L235.907 57.1455ZM237.298 58.0558C237.155 57.8403 236.939 57.634 236.642 57.5071C236.354 57.3841 236.08 57.374 235.874 57.3978C235.509 57.4402 235.23 57.6042 235.099 57.6872C234.803 57.8742 234.485 58.1616 234.176 58.4626L236.101 60.4432C236.243 60.3052 236.354 60.2024 236.441 60.1281C236.484 60.0913 236.517 60.0647 236.541 60.0461C236.566 60.0271 236.576 60.0208 236.574 60.0224C236.573 60.023 236.544 60.0411 236.493 60.0631C236.446 60.0835 236.341 60.1241 236.193 60.1413C236.038 60.1593 235.808 60.1543 235.557 60.0472C235.297 59.9361 235.111 59.7564 234.993 59.578L237.298 58.0558ZM234.176 58.4627C232.13 60.451 229.197 64.6533 225.626 70.5857L227.992 72.0102C231.576 66.0562 234.345 62.1496 236.101 60.4431L234.176 58.4627ZM225.626 70.5857C224.921 71.7571 224.198 72.9144 223.603 73.8328C222.977 74.7981 222.562 75.3911 222.441 75.5281L224.511 77.3563C224.799 77.0302 225.338 76.2342 225.92 75.3346C226.534 74.3882 227.273 73.2049 227.992 72.0102L225.626 70.5857ZM222.44 75.5283C221.348 76.7655 220.748 77.9101 220.213 79.6687L222.855 80.473C223.295 79.0251 223.723 78.2483 224.511 77.3562L222.44 75.5283ZM220.213 79.6687C219.52 81.9441 219.094 82.7488 218.227 83.7546L220.318 85.5589C221.537 84.1461 222.105 82.9349 222.855 80.473L220.213 79.6687ZM218.227 83.7545C215.776 86.5939 213.424 89.7698 211.785 92.4646L214.144 93.9003C215.691 91.3586 217.947 88.3055 220.318 85.559L218.227 83.7545ZM211.785 92.4646C209.67 95.9398 207.533 98.8621 206.166 100.225L208.116 102.181C209.726 100.577 212.001 97.4219 214.144 93.9004L211.785 92.4646ZM206.166 100.225C205.076 101.312 204.351 102.064 203.836 102.728C203.285 103.438 202.982 104.033 202.687 104.778L205.255 105.796C205.478 105.232 205.663 104.88 206.018 104.422C206.41 103.917 207.011 103.282 208.116 102.181L206.166 100.225ZM202.687 104.777C202.419 105.455 202.003 106.282 201.805 106.58L204.105 108.109C204.452 107.587 204.95 106.562 205.254 105.796L202.687 104.777ZM201.805 106.58C201.523 107.004 199.868 109.59 198.135 112.314L200.465 113.796C202.208 111.057 203.842 108.504 204.105 108.109L201.805 106.58ZM198.135 112.314C194.898 117.403 194.087 118.45 191.335 121.197L193.286 123.151C196.234 120.209 197.169 118.979 200.465 113.796L198.135 112.314ZM191.335 121.197C190.394 122.136 189.026 123.577 188.281 124.413L190.343 126.25C191.046 125.461 192.377 124.06 193.286 123.151L191.335 121.197ZM188.281 124.413C187.949 124.785 187.573 125.166 187.239 125.474C187.072 125.628 186.924 125.756 186.805 125.852C186.671 125.959 186.617 125.99 186.629 125.984L187.954 128.407C188.314 128.21 188.751 127.837 189.111 127.504C189.51 127.137 189.95 126.692 190.343 126.251L188.281 124.413ZM186.629 125.984C184.748 127.012 183.446 127.946 182.351 129.122L184.372 131.004C185.196 130.12 186.224 129.353 187.954 128.407L186.629 125.984ZM182.351 129.122C181.785 129.729 180.923 130.629 180.441 131.115L182.403 133.059C182.908 132.549 183.791 131.628 184.372 131.004L182.351 129.122ZM180.442 131.115C179.831 131.73 179.082 132.816 178.705 133.619L181.205 134.793C181.455 134.26 182.027 133.439 182.403 133.059L180.442 131.115ZM178.705 133.619C177.938 135.252 177.025 136.764 176.174 137.84L178.341 139.553C179.351 138.275 180.369 136.572 181.205 134.793L178.705 133.619ZM176.174 137.84C175.702 138.438 174.841 139.657 174.244 140.568L176.554 142.082C177.126 141.209 177.938 140.063 178.341 139.553L176.174 137.84ZM174.244 140.568C173.347 141.936 172.974 142.688 172.858 143.894L175.607 144.158C175.659 143.623 175.738 143.327 176.554 142.082L174.244 140.568ZM172.858 143.894C172.825 144.239 172.81 144.604 172.812 144.923C172.814 145.188 172.826 145.58 172.909 145.888L175.577 145.174C175.595 145.239 175.59 145.254 175.584 145.172C175.579 145.108 175.575 145.018 175.574 144.904C175.572 144.678 175.584 144.407 175.607 144.158L172.858 143.894ZM172.909 145.888C173.058 146.445 173.457 146.824 173.681 147.014C173.956 147.248 174.282 147.456 174.609 147.631C175.257 147.978 176.075 148.283 176.852 148.405L177.279 145.676C176.864 145.611 176.341 145.425 175.911 145.195C175.699 145.082 175.552 144.98 175.471 144.911C175.431 144.877 175.428 144.869 175.445 144.89C175.456 144.904 175.53 145 175.577 145.174L172.909 145.888ZM176.852 148.405C177.22 148.462 177.735 148.558 178.323 148.397C178.803 148.266 179.286 147.97 179.777 147.68L178.371 145.302C178.081 145.474 177.897 145.582 177.756 145.656C177.617 145.729 177.582 145.737 177.595 145.733C177.67 145.713 177.746 145.749 177.279 145.676L176.852 148.405ZM179.776 147.68C180.491 147.258 181.818 146.305 182.759 145.551L181.032 143.396C180.14 144.11 178.928 144.974 178.371 145.302L179.776 147.68ZM182.759 145.551C183.456 144.993 183.981 144.538 184.433 144.041C184.894 143.533 185.243 143.021 185.628 142.378L183.26 140.958C182.922 141.52 182.68 141.863 182.388 142.184C182.087 142.515 181.7 142.861 181.032 143.396L182.759 145.551ZM185.628 142.379C186.166 141.483 186.77 140.76 187.701 139.931L185.863 137.869C184.753 138.859 183.959 139.792 183.26 140.957L185.628 142.379ZM187.7 139.932C188.711 139.031 189.635 137.973 190.267 136.963L187.925 135.498C187.457 136.247 186.717 137.109 185.863 137.869L187.7 139.932ZM190.267 136.963C190.721 136.237 190.951 135.968 191.222 135.765C191.527 135.537 191.981 135.323 193.046 134.932L192.096 132.339C191.052 132.721 190.238 133.052 189.569 133.552C188.865 134.078 188.413 134.719 187.925 135.498L190.267 136.963ZM193.047 134.932C193.965 134.595 194.993 134.12 195.857 133.657C196.29 133.425 196.699 133.188 197.041 132.964C197.352 132.76 197.713 132.502 197.965 132.22L195.904 130.381C195.912 130.372 195.817 130.464 195.529 130.653C195.273 130.82 194.939 131.016 194.554 131.222C193.782 131.635 192.872 132.054 192.096 132.339L193.047 134.932ZM197.965 132.219C197.984 132.198 197.986 132.199 197.975 132.207C197.963 132.216 197.957 132.218 197.967 132.213C198.006 132.197 198.126 132.158 198.456 132.113L198.081 129.377C197.681 129.431 197.278 129.508 196.905 129.664C196.489 129.837 196.172 130.08 195.903 130.381L197.965 132.219ZM198.456 132.113C198.999 132.038 200.116 131.866 200.945 131.729L200.495 129.004C199.679 129.139 198.589 129.307 198.081 129.377L198.456 132.113ZM200.945 131.729C201.331 131.665 201.703 131.616 201.985 131.589C202.127 131.575 202.232 131.568 202.297 131.566C202.33 131.565 202.337 131.565 202.325 131.565C202.318 131.565 202.296 131.563 202.263 131.559C202.237 131.556 202.164 131.546 202.069 131.518L202.864 128.873C202.673 128.815 202.5 128.808 202.447 128.806C202.362 128.802 202.278 128.803 202.206 128.805C202.058 128.81 201.889 128.823 201.715 128.84C201.364 128.875 200.931 128.932 200.495 129.004L200.945 131.729ZM202.068 131.518C201.793 131.435 201.642 131.273 201.582 131.195C201.517 131.112 201.489 131.041 201.476 130.995C201.462 130.949 201.446 130.868 201.458 130.754C201.469 130.647 201.517 130.408 201.732 130.18L203.743 132.073C204.067 131.729 204.175 131.327 204.205 131.038C204.236 130.742 204.197 130.462 204.128 130.224C204.019 129.85 203.683 129.12 202.865 128.873L202.068 131.518ZM201.731 130.181C201.511 130.415 201.407 130.687 201.38 130.755C201.33 130.883 201.288 131.018 201.253 131.142C201.184 131.395 201.123 131.692 201.081 131.986L203.815 132.378C203.842 132.187 203.881 132.004 203.917 131.874C203.925 131.843 203.933 131.818 203.939 131.799C203.945 131.78 203.948 131.771 203.948 131.772C203.948 131.772 203.946 131.777 203.942 131.786C203.938 131.794 203.931 131.809 203.921 131.829C203.911 131.848 203.894 131.878 203.869 131.915C203.845 131.951 203.804 132.008 203.744 132.072L201.731 130.181ZM201.081 131.985C201.025 132.374 200.824 133.216 200.638 133.806L203.271 134.639C203.488 133.954 203.731 132.959 203.815 132.378L201.081 131.985ZM200.638 133.805C200.426 134.474 200.165 135.442 200.054 135.99L202.76 136.542C202.847 136.116 203.079 135.245 203.271 134.639L200.638 133.805ZM200.054 135.989C199.98 136.35 199.649 137.363 199.305 138.207L201.864 139.248C202.225 138.358 202.634 137.157 202.76 136.543L200.054 135.989ZM199.305 138.207C198.932 139.124 198.679 140.021 198.582 140.832C198.49 141.604 198.517 142.481 198.906 143.214L201.345 141.918C201.351 141.929 201.325 141.882 201.31 141.742C201.295 141.604 201.295 141.411 201.325 141.16C201.385 140.654 201.557 140.001 201.864 139.248L199.305 138.207ZM198.906 143.214C199.188 143.744 199.668 144.288 200.108 144.706C200.54 145.116 201.112 145.575 201.662 145.812L202.752 143.274C202.655 143.232 202.367 143.043 202.01 142.704C201.662 142.373 201.425 142.067 201.345 141.918L198.906 143.214ZM201.662 145.812C202.511 146.176 203.289 146.085 204.157 145.853L203.443 143.185C203.11 143.274 202.945 143.293 202.861 143.294C202.808 143.295 202.791 143.291 202.752 143.274L201.662 145.812ZM204.157 145.853C204.677 145.714 205.038 145.713 205.24 145.753C205.429 145.79 205.378 145.833 205.322 145.736L207.72 144.366C207.275 143.586 206.517 143.188 205.77 143.042C205.036 142.899 204.231 142.974 203.443 143.185L204.157 145.853ZM205.322 145.736C205.46 145.978 206.031 147.073 206.597 148.186L209.059 146.935C208.504 145.843 207.899 144.68 207.72 144.366L205.322 145.736ZM206.596 148.186C207.186 149.347 207.637 150.165 208.271 150.936C208.897 151.696 209.662 152.363 210.792 153.297L212.551 151.167C211.411 150.225 210.84 149.711 210.404 149.181C209.978 148.663 209.642 148.083 209.059 146.936L206.596 148.186ZM210.792 153.297C211.694 154.041 212.849 155.047 213.348 155.518L215.244 153.51C214.682 152.979 213.475 151.93 212.551 151.167L210.792 153.297ZM213.348 155.518C213.991 156.125 214.704 156.617 215.447 156.853C216.212 157.096 217.16 157.096 217.935 156.447L216.163 154.328C216.332 154.187 216.462 154.277 216.282 154.22C216.079 154.156 215.718 153.958 215.244 153.51L213.348 155.518ZM217.936 156.447L218.297 156.144L216.525 154.026L216.163 154.329L217.936 156.447ZM217.569 153.713L217.019 153.65L216.704 156.394L217.254 156.457L217.569 153.713ZM217.018 153.65C216.901 153.636 216.81 153.621 216.764 153.61C216.735 153.604 216.756 153.607 216.803 153.624C216.821 153.63 216.899 153.657 216.996 153.713C217.043 153.74 217.138 153.798 217.241 153.894C217.33 153.977 217.534 154.188 217.629 154.54L214.961 155.255C215.056 155.611 215.264 155.827 215.358 155.914C215.466 156.015 215.567 156.077 215.623 156.109C215.737 156.174 215.838 156.212 215.886 156.229C215.993 156.267 216.098 156.292 216.172 156.308C216.331 156.343 216.519 156.373 216.704 156.394L217.018 153.65ZM217.629 154.54C217.742 154.963 217.631 155.324 217.515 155.542C217.409 155.742 217.279 155.867 217.215 155.924C217.086 156.038 216.967 156.098 216.939 156.112C216.894 156.135 216.859 156.149 216.845 156.155C216.829 156.161 216.818 156.165 216.816 156.165C216.813 156.167 216.821 156.164 216.845 156.157C216.867 156.151 216.897 156.143 216.935 156.133C217.092 156.093 217.329 156.041 217.605 155.988L217.085 153.275C216.774 153.335 216.481 153.399 216.258 153.455C216.151 153.482 216.033 153.515 215.929 153.55C215.886 153.564 215.791 153.597 215.687 153.65C215.647 153.671 215.518 153.737 215.383 153.857C215.316 153.916 215.183 154.044 215.076 154.246C214.959 154.466 214.847 154.83 214.961 155.255L217.629 154.54ZM217.605 155.988C218.015 155.909 218.625 155.813 219.117 155.472C219.636 155.114 219.916 154.564 220.101 154.231L217.688 152.887C217.564 153.11 217.507 153.207 217.466 153.266C217.439 153.305 217.467 153.255 217.546 153.201C217.619 153.15 217.661 153.148 217.584 153.169C217.493 153.195 217.355 153.224 217.085 153.275L217.605 155.988ZM220.101 154.232C220.213 154.031 220.272 153.934 220.313 153.877C220.343 153.834 220.337 153.851 220.303 153.876C220.276 153.897 220.275 153.888 220.364 153.854C220.462 153.815 220.608 153.768 220.862 153.693L220.078 151.045C219.624 151.179 219.085 151.335 218.638 151.673C218.161 152.033 217.896 152.515 217.688 152.887L220.101 154.232ZM220.862 153.693C221.67 153.454 222.491 153.102 223.055 152.396C223.645 151.658 223.758 150.784 223.736 149.97L220.975 150.044C220.982 150.311 220.962 150.47 220.94 150.564C220.92 150.645 220.901 150.667 220.897 150.673C220.875 150.7 220.735 150.85 220.078 151.045L220.862 153.693ZM223.736 149.971C223.711 149.046 223.409 147.841 223.055 146.82C222.872 146.293 222.66 145.774 222.436 145.318C222.223 144.886 221.956 144.423 221.638 144.075L219.601 145.941C219.653 145.997 219.782 146.181 219.958 146.539C220.123 146.872 220.292 147.284 220.446 147.727C220.765 148.646 220.961 149.537 220.975 150.044L223.736 149.971ZM221.638 144.075L221.076 143.462L219.039 145.328L219.601 145.941L221.638 144.075ZM221.432 144.527L221.539 143.408L218.79 143.144L218.683 144.263L221.432 144.527ZM221.539 143.408C221.588 142.904 221.622 142.427 221.529 141.915C221.438 141.414 221.241 140.964 221.017 140.479L218.511 141.64C218.74 142.134 218.791 142.294 218.811 142.407C218.83 142.509 218.838 142.65 218.79 143.144L221.539 143.408ZM221.017 140.479C220.707 139.81 220.171 138.878 219.784 138.355L217.564 139.998C217.817 140.34 218.262 141.103 218.511 141.641L221.017 140.479ZM219.784 138.355C219.498 137.968 219.51 137.908 219.507 137.877C219.491 137.732 219.515 137.445 219.711 136.564L217.015 135.963C216.835 136.77 216.689 137.5 216.761 138.17C216.844 138.954 217.2 139.506 217.564 139.998L219.784 138.355ZM219.711 136.564C219.794 136.189 219.841 135.777 219.854 135.405C219.867 135.062 219.856 134.628 219.762 134.256L217.085 134.939C217.079 134.915 217.087 134.936 217.092 135.019C217.097 135.094 217.098 135.192 217.094 135.305C217.086 135.538 217.056 135.78 217.015 135.963L219.711 136.564ZM219.762 134.256C219.701 134.02 219.649 133.543 219.64 133.075C219.636 132.849 219.643 132.677 219.654 132.58C219.66 132.525 219.662 132.54 219.646 132.595C219.638 132.622 219.613 132.704 219.556 132.808C219.511 132.89 219.364 133.139 219.046 133.315L217.709 130.898C217.368 131.087 217.2 131.36 217.136 131.477C217.06 131.616 217.017 131.744 216.993 131.826C216.945 131.992 216.922 132.156 216.908 132.279C216.88 132.538 216.873 132.838 216.878 133.126C216.889 133.686 216.949 134.404 217.085 134.939L219.762 134.256ZM219.046 133.315C219.076 133.298 218.931 133.389 218.695 133.405C218.564 133.415 218.433 133.4 218.309 133.363C218.19 133.328 218.105 133.281 218.055 133.248C217.973 133.195 217.959 133.163 218.038 133.252C218.107 133.33 218.205 133.452 218.354 133.646L220.546 131.965C220.391 131.764 220.244 131.578 220.107 131.422C219.979 131.277 219.796 131.086 219.564 130.935C219.294 130.759 218.933 130.62 218.502 130.65C218.128 130.676 217.844 130.824 217.709 130.898L219.046 133.315ZM218.354 133.646C218.703 134.101 218.888 134.464 219.203 135.64L221.871 134.925C221.51 133.578 221.205 132.826 220.546 131.966L218.354 133.646ZM219.203 135.64C219.459 136.597 219.707 137.362 220.052 138.008C220.42 138.695 220.864 139.187 221.419 139.659L223.207 137.553C222.848 137.249 222.655 137.017 222.488 136.706C222.3 136.353 222.117 135.845 221.871 134.925L219.203 135.64ZM221.419 139.659C221.419 139.659 221.424 139.663 221.436 139.674C221.447 139.685 221.462 139.699 221.48 139.718C221.518 139.757 221.565 139.808 221.621 139.871C221.734 139.998 221.869 140.161 222.017 140.349C222.314 140.726 222.642 141.179 222.925 141.608L225.232 140.09C224.905 139.592 224.53 139.076 224.187 138.641C223.869 138.236 223.504 137.806 223.206 137.553L221.419 139.659ZM222.925 141.608C223.243 142.092 223.58 142.574 223.87 142.967C224.121 143.305 224.433 143.712 224.67 143.925L226.512 141.866C226.547 141.898 226.524 141.881 226.419 141.752C226.332 141.645 226.221 141.5 226.091 141.325C225.833 140.976 225.525 140.534 225.232 140.09L222.925 141.608ZM224.67 143.925C225.06 144.273 225.569 144.462 225.927 144.568C226.331 144.688 226.772 144.769 227.178 144.809C227.563 144.847 228.018 144.858 228.419 144.782C228.597 144.748 228.937 144.668 229.248 144.43C229.42 144.298 229.625 144.085 229.75 143.768C229.88 143.437 229.877 143.103 229.801 142.82L227.133 143.535C227.074 143.314 227.069 143.038 227.179 142.759C227.283 142.495 227.45 142.328 227.569 142.237C227.684 142.149 227.784 142.108 227.827 142.091C227.876 142.074 227.905 142.068 227.905 142.068C227.908 142.068 227.897 142.07 227.871 142.072C227.846 142.074 227.812 142.076 227.768 142.076C227.68 142.077 227.571 142.072 227.447 142.06C227.195 142.035 226.93 141.985 226.715 141.921C226.454 141.843 226.432 141.795 226.511 141.866L224.67 143.925ZM229.801 142.82C229.963 143.422 229.669 143.875 229.494 144.06C229.334 144.231 229.175 144.303 229.132 144.321C229.026 144.368 228.975 144.366 229.002 144.364L228.802 141.609C228.567 141.626 228.288 141.676 228.023 141.792C227.902 141.845 227.682 141.956 227.483 142.167C227.27 142.394 226.96 142.889 227.133 143.535L229.801 142.82ZM229.002 144.364C230.499 144.255 231.608 143.08 231.778 141.649L229.035 141.324C229.022 141.435 228.978 141.507 228.937 141.547C228.899 141.585 228.855 141.605 228.802 141.609L229.002 144.364ZM231.778 141.649C231.945 140.242 231.758 138.768 231.342 137.576C231.133 136.979 230.85 136.401 230.48 135.924C230.12 135.461 229.588 134.978 228.86 134.808L228.23 137.497C228.11 137.468 228.149 137.426 228.298 137.617C228.435 137.794 228.594 138.083 228.734 138.486C229.016 139.293 229.151 140.344 229.035 141.323L231.778 141.649ZM228.86 134.808C229.029 134.847 229.134 134.916 229.173 134.944C229.217 134.976 229.231 134.995 229.223 134.986C229.216 134.978 229.199 134.956 229.175 134.918C229.152 134.88 229.126 134.832 229.1 134.774L226.578 135.901C226.721 136.22 226.908 136.531 227.135 136.794C227.332 137.02 227.696 137.371 228.23 137.497L228.86 134.808ZM229.1 134.774C228.947 134.431 228.721 134.098 228.501 133.827C228.284 133.56 228.002 133.267 227.691 133.05L226.108 135.313C226.136 135.333 226.235 135.418 226.358 135.57C226.479 135.719 226.554 135.845 226.578 135.901L229.1 134.774ZM227.691 133.05L227.075 132.619L225.492 134.882L226.108 135.313L227.691 133.05ZM227.32 134.664L227.635 134.306L225.562 132.48L225.247 132.838L227.32 134.664ZM227.635 134.306C227.758 134.166 227.911 133.967 228.023 133.699C228.138 133.422 228.179 133.148 228.179 132.891C228.18 132.457 228.058 131.975 227.935 131.514L225.267 132.229C225.331 132.468 225.371 132.632 225.395 132.752C225.42 132.876 225.417 132.907 225.418 132.886C225.418 132.849 225.425 132.752 225.474 132.635C225.519 132.526 225.572 132.47 225.562 132.481L227.635 134.306ZM227.935 131.514C227.824 131.1 227.679 130.691 227.517 130.333C227.368 130.003 227.16 129.612 226.887 129.313L224.845 131.172C224.824 131.15 224.891 131.228 225 131.469C225.096 131.682 225.192 131.95 225.267 132.229L227.935 131.514ZM226.887 129.313C226.87 129.294 226.853 129.273 226.838 129.252C226.823 129.231 226.817 129.219 226.818 129.22C226.818 129.22 226.822 129.228 226.828 129.243C226.834 129.258 226.844 129.286 226.855 129.327C226.865 129.365 226.88 129.434 226.885 129.525C226.89 129.613 226.888 129.763 226.835 129.943L224.188 129.152C224.071 129.544 224.145 129.882 224.181 130.02C224.227 130.197 224.295 130.352 224.357 130.474C224.482 130.719 224.653 130.961 224.844 131.172L226.887 129.313ZM226.834 129.944C226.785 130.11 226.715 130.221 226.699 130.247C226.673 130.289 226.653 130.315 226.648 130.322C226.637 130.335 226.641 130.328 226.671 130.297C226.726 130.236 226.821 130.142 226.954 130.016C227.217 129.767 227.581 129.444 227.981 129.109L226.208 126.991C225.775 127.354 225.367 127.715 225.056 128.009C224.902 128.155 224.759 128.296 224.645 128.419C224.589 128.48 224.525 128.552 224.465 128.629C224.449 128.649 224.276 128.858 224.189 129.151L226.834 129.944ZM227.981 129.109C230.077 127.354 231.278 126.042 231.448 124.256L228.698 123.994C228.647 124.538 228.349 125.199 226.208 126.991L227.981 129.109ZM231.448 124.256C231.511 123.594 231.573 123.316 231.657 123.109C231.738 122.908 231.878 122.681 232.277 122.195L230.142 120.443C229.705 120.975 229.342 121.467 229.097 122.073C228.854 122.672 228.766 123.288 228.698 123.994L231.448 124.256ZM232.277 122.195C233.379 120.852 233.946 119.976 234.314 118.814L231.681 117.98C231.47 118.646 231.162 119.2 230.142 120.443L232.277 122.195ZM234.314 118.814C234.553 118.061 234.613 117.083 234.579 116.231C234.545 115.387 234.409 114.416 234.099 113.702L231.566 114.804C231.674 115.053 231.79 115.621 231.819 116.341C231.847 117.053 231.781 117.666 231.681 117.98L234.314 118.814ZM234.099 113.702C233.978 113.424 233.995 113.4 233.996 113.436C233.996 113.45 233.988 113.391 234.102 113.035L231.472 112.191C231.347 112.582 231.222 113.024 231.235 113.512C231.249 114.021 231.409 114.443 231.566 114.804L234.099 113.702ZM234.102 113.035C234.227 112.646 234.512 112.021 234.697 111.721L232.344 110.275C232.034 110.779 231.66 111.608 231.472 112.191L234.102 113.035ZM234.697 111.721C235.177 110.941 235.352 110.095 235.357 109.135L232.595 109.122C232.592 109.736 232.486 110.044 232.344 110.274L234.697 111.721ZM235.357 109.135C235.358 108.731 235.362 108.482 235.376 108.297C235.39 108.122 235.408 108.083 235.404 108.092C235.398 108.11 235.377 108.082 235.902 107.582L233.998 105.581C233.587 105.972 233.083 106.43 232.825 107.105C232.589 107.722 232.598 108.432 232.595 109.122L235.357 109.135ZM235.902 107.582C236.494 107.019 237.272 105.929 237.714 105.101L235.277 103.801C234.932 104.448 234.319 105.276 233.998 105.581L235.902 107.582ZM237.714 105.101C238.403 103.809 238.945 103.08 239.985 102.308C241.112 101.472 242.834 100.579 245.984 99.0966L244.808 96.5976C241.703 98.0588 239.725 99.0625 238.34 100.09C236.868 101.182 236.087 102.283 235.277 103.801L237.714 105.101ZM245.984 99.0966C247.04 98.5999 248.457 97.765 249.181 97.1899L247.464 95.0267C246.957 95.4286 245.741 96.1586 244.808 96.5976L245.984 99.0966ZM249.181 97.1897C249.459 96.9694 249.75 96.7589 249.99 96.6012C250.111 96.522 250.206 96.4636 250.273 96.4264C250.289 96.4175 250.302 96.4108 250.311 96.4059C250.316 96.4035 250.319 96.4016 250.322 96.4004C250.323 96.3997 250.324 96.3992 250.325 96.3989C250.325 96.3986 250.326 96.3984 250.326 96.3984C250.326 96.3985 250.325 96.3986 250.325 96.399C250.324 96.3993 250.323 96.3999 250.321 96.4006C250.318 96.402 250.312 96.4043 250.305 96.4073C250.292 96.4125 250.262 96.4239 250.219 96.4359L249.471 93.777C249.246 93.8404 249.038 93.9525 248.927 94.0149C248.783 94.095 248.628 94.1916 248.472 94.2939C248.16 94.4994 247.801 94.7585 247.464 95.0269L249.181 97.1897ZM250.218 96.436L250.622 96.3226L249.875 93.6636L249.471 93.777L250.218 96.436ZM251.581 94.629L246.427 75.7717L243.763 76.4998L248.916 95.3572L251.581 94.629ZM246.427 75.7717C243.591 65.3962 241.16 56.4922 241.022 55.9778L238.354 56.6917C238.494 57.2156 240.929 66.1321 243.763 76.4998L246.427 75.7717ZM241.022 55.9773C240.939 55.6664 240.835 55.3591 240.725 55.105C240.672 54.9825 240.603 54.8364 240.516 54.6984C240.474 54.6311 240.406 54.5309 240.311 54.4283C240.243 54.3553 240.024 54.1265 239.657 54.0155L238.858 56.6593C238.67 56.6025 238.535 56.5167 238.458 56.4594C238.377 56.3998 238.32 56.3431 238.286 56.3067C238.221 56.2363 238.185 56.18 238.177 56.1671C238.159 56.1378 238.165 56.1419 238.19 56.2001C238.236 56.3076 238.299 56.4841 238.354 56.6921L241.022 55.9773ZM239.656 54.0152C239.227 53.8859 238.873 53.9977 238.759 54.0368C238.606 54.0893 238.486 54.1573 238.414 54.202C238.264 54.2944 238.13 54.4038 238.028 54.4944C237.814 54.684 237.584 54.9279 237.373 55.185L239.507 56.9386C239.647 56.7677 239.777 56.6347 239.86 56.5617C239.906 56.521 239.904 56.5277 239.862 56.5539C239.843 56.5655 239.771 56.6095 239.658 56.6482C239.6 56.6684 239.505 56.6961 239.383 56.7091C239.262 56.722 239.075 56.7248 238.859 56.6596L239.656 54.0152Z" fill="white" mask="url(#path-34-inside-1_829_4299)"/>
</g>
<path d="M125.134 125.586C122.388 129.16 117.338 130.772 113.061 129.374C107.072 127.418 104.744 121.503 107.472 115.083C110.201 108.662 116.333 105.511 122.416 107.498C126.741 108.911 129.328 113.07 128.532 117.439L136.416 119.067C138.345 111.229 133.587 103.573 125.032 100.778C114.576 97.3624 103.822 102.265 99.4876 112.474C95.1057 122.667 99.5606 132.539 110.064 135.97C118.667 138.78 127.978 135.878 132.222 129.006L125.134 125.586Z" fill="white"/>
<path d="M186.173 99.337C182.764 91.8464 175.4 89.5631 168.078 93.6804C160.713 97.8222 158.01 105.767 161.375 113.282C164.76 120.729 172.149 123.056 179.471 118.938C186.836 114.797 189.514 106.808 186.173 99.337ZM179.636 103.013C181.346 106.87 180.158 110.98 176.759 112.892C173.316 114.828 169.666 113.438 167.956 109.581C166.203 105.749 167.347 101.663 170.79 99.7273C174.189 97.8157 177.882 99.1807 179.636 103.013Z" fill="white"/>
<path d="M210.326 134.15C212.186 131.796 214.873 131.944 217.151 134.062L227.879 144.195L232.529 138.31L220.873 127.253C216.357 123.049 210.758 122.958 207.286 127.352C205.054 130.177 204.813 134.192 206.522 137.836L202.956 134.445L198.276 140.37L217 157.966L221.649 152.081L211.125 142.173C208.761 139.923 208.528 136.426 210.326 134.15Z" fill="white"/>
<path d="M109.745 173.366C112.655 174.094 113.625 176.604 112.63 179.551L107.803 193.497L115.079 195.316L120.367 180.146C122.344 174.301 120.125 169.159 114.692 167.8C111.2 166.927 107.441 168.358 104.821 171.414L106.446 166.769L99.1218 164.938L90.7776 189.24L98.0536 191.059L102.759 177.392C103.839 174.312 106.931 172.663 109.745 173.366Z" fill="white"/>
<path d="M155.418 167.19C154.855 163.718 156.222 160.645 159.236 159.301C162.342 157.917 165.42 159.172 166.88 162.079L155.418 167.19ZM168.928 168.392C168.977 170.834 167.345 173.314 164.788 174.454C161.682 175.838 158.67 174.608 156.885 171.463L175.263 163.323C175.13 162.78 174.84 161.76 174.621 161.146C171.962 153.463 165.024 150.425 157.489 153.785C149.999 157.124 146.434 164.844 149.098 172.416C151.772 180.256 158.955 183.35 166.49 179.99C172.198 177.445 175.918 171.791 175.48 166.511L168.928 168.392Z" fill="white"/>
<path d="M219.412 197.982C220.535 192.182 216.457 186.797 209.952 185.191C202.137 183.261 194.533 187.358 191.936 194.957C189.338 202.556 193.19 209.481 201.006 211.411C207.413 212.993 214.257 210.305 217.079 204.925L210.548 202.385C208.966 204.827 205.962 206.146 203.098 205.438C199.506 204.551 197.834 200.894 199.217 196.755C200.648 192.627 204.413 190.312 207.956 191.187C210.772 191.883 212.574 194.388 212.303 197.153L219.412 197.982Z" fill="white"/>
<path d="M163.658 235.829C162.98 237.175 161.817 237.693 160.744 237.281C159.67 236.868 159.293 235.759 159.989 234.366L166.77 220.474L172.185 222.553L174.695 217.412L169.281 215.332L172.107 209.508L166.225 207.249L162.606 212.769L158.919 211.352L156.408 216.494L159.769 217.785L153.339 230.902C151.614 234.417 153.162 237.636 157.13 239.16C160.491 240.451 163.782 239.412 165.245 236.438L167.268 232.288L165.681 231.678L163.658 235.829Z" fill="white"/>
</g>
<rect x="57.3095" y="57.3096" width="205.762" height="205.762" rx="102.881" stroke="url(#paint1_linear_829_4299)" stroke-width="1.38095"/>
</g>
<defs>
<filter id="filter0_b_829_4299" x="-81.4762" y="-81.4761" width="483.333" height="483.333" filterUnits="userSpaceOnUse" color-interpolation-filters="sRGB">
<feFlood flood-opacity="0" result="BackgroundImageFix"/>
<feGaussianBlur in="BackgroundImage" stdDeviation="69.0476"/>
<feComposite in2="SourceAlpha" operator="in" result="effect1_backgroundBlur_829_4299"/>
<feBlend mode="normal" in="SourceGraphic" in2="effect1_backgroundBlur_829_4299" result="shape"/>
</filter>
<radialGradient id="paint0_angular_829_4299" cx="0" cy="0" r="1" gradientUnits="userSpaceOnUse" gradientTransform="translate(160.19 160.191) rotate(90) scale(103.571)">
<stop offset="0.17585" stop-color="white" stop-opacity="0.395276"/>
<stop offset="0.47185" stop-color="white"/>
<stop offset="0.891788" stop-color="white" stop-opacity="0"/>
</radialGradient>
<linearGradient id="paint1_linear_829_4299" x1="261.887" y1="166.154" x2="55.6653" y2="165.568" gradientUnits="userSpaceOnUse">
<stop stop-color="white" stop-opacity="0.4"/>
<stop offset="0.478947" stop-color="white" stop-opacity="0"/>
<stop offset="1" stop-color="white" stop-opacity="0.4"/>
</linearGradient>
<clipPath id="clip0_829_4299">
<rect x="56.619" y="56.6191" width="207.143" height="207.143" rx="103.571" fill="white"/>
</clipPath>
</defs>
</svg>
