<svg width="401" height="401" viewBox="0 0 401 401" fill="none" xmlns="http://www.w3.org/2000/svg">
    <path d="M64.687 126.384C62.8985 125.399 61.1973 125.888 60.1915 127.665C59.1858 129.441 59.3169 131.331 60.4002 133.117L60.939 132.165C61.6813 130.854 62.9927 130.116 64.4022 129.797C63.8215 130.083 63.1726 130.637 62.6099 131.631C61.4125 133.746 61.8652 136.153 64.0012 137.362C66.0527 138.524 68.5995 137.675 69.737 135.666C70.6829 133.996 70.5821 132.151 69.1923 130.61L71.7302 132.047L73.0952 129.636L71.2643 130.108L64.687 126.384ZM63.8206 127.569L67.3947 129.592C65.3971 129.076 62.4759 129.796 61.1445 131.556C59.9946 130.43 59.7121 129.153 60.4186 127.905C61.137 126.636 62.319 126.719 63.8206 127.569ZM68.3556 130.164C69.7937 130.979 70.5513 132.748 69.6174 134.398C68.6236 136.153 66.1366 136.895 64.2332 135.818C62.6048 134.896 61.9676 133.111 62.9375 131.398C64.1827 129.198 66.8117 129.29 68.3556 130.164Z"
          fill="white"/>
    <path d="M73.5343 111.642L73.5196 111.662L71.1027 109.821L70.1203 112.556L71.6114 112.041L78.8043 117.518L79.092 119.387L81.5655 116.139L79.6877 116.358L74.003 112.03C72.8429 111.146 73.4297 109.333 74.8128 107.637L73.7188 106.345C72.4389 108.548 72.0629 110.125 73.5343 111.642Z"
          fill="white"/>
    <path d="M87.5806 93.9605L91.5065 90.1193C89.3632 89.6663 87.2774 90.245 85.6271 91.8597C83.282 94.1542 83.0679 98.0359 85.6853 100.711C88.3538 103.438 92.315 102.657 94.5733 100.447C96.9879 98.0845 96.2829 94.9662 94.8382 93.4897C92.9006 91.5093 90.0258 91.942 87.5806 93.9605ZM84.7517 96.4903C84.4778 94.8203 84.8036 93.3115 86.0369 92.1048C87.0618 91.102 88.5275 90.6539 89.9631 91.3914L84.7517 96.4903ZM94.5961 93.6245C96.0918 95.1532 96.2699 97.733 94.2375 99.7216C92.153 101.761 88.4102 101.411 86.1667 99.118C85.4868 98.4232 84.9973 97.6101 84.7665 96.7139L86.8858 94.6404C89.6825 91.9039 92.7945 91.7832 94.5961 93.6245Z"
          fill="white"/>
    <path d="M124.129 63.7866L125.11 72.7232L117.753 67.273L118.252 65.4492L114.413 67.548L116.218 68.1125L124.759 74.411L121.941 77.0596C120.68 78.248 120.226 79.7982 120.844 80.9283C121.543 82.2077 123.043 82.468 124.45 81.6984C126.156 80.7656 126.629 78.5404 125.809 75.1664L126.342 74.8749L125.409 73.169L124.363 63.6583L124.862 61.8346L122.324 63.2222L124.129 63.7866ZM125.686 75.0947C125.722 77.236 125.179 79.6378 123.452 80.5823C122.343 81.1886 121.463 81.1992 121.031 80.4103C120.495 79.4294 121.172 78.0341 122.087 77.1739L124.904 74.5253L125.686 75.0947Z"
          fill="white"/>
    <path d="M138.992 61.0711C140.075 64.1681 143.591 65.9766 146.872 64.8293C149.992 63.7383 151.785 60.2532 150.614 56.9039C149.531 53.8069 146.015 51.9984 142.734 53.1457C139.614 54.2367 137.821 57.7218 138.992 61.0711ZM139.966 59.3659C139.06 56.7736 139.972 54.5236 141.968 53.8256C144.721 52.8629 148.468 55.2598 149.64 58.6091C150.546 61.2014 149.634 63.4514 147.638 64.1494C144.885 65.1121 141.138 62.7152 139.966 59.3659Z"
          fill="white"/>
    <path d="M172.32 44.9003L169.741 46.2395L171.185 46.8752L172.617 55.0625C171.811 56.2397 170.964 57.1774 169.791 57.3826C168.115 57.6757 166.299 56.4637 165.906 54.2134L164.515 46.2655L161.937 47.6047L163.381 48.2404L164.457 54.3928C164.938 57.1459 167.144 58.191 169.155 57.8392C170.711 57.567 171.683 56.6323 172.624 55.3821L173.719 56.9915L174.414 56.8701L172.32 44.9003Z"
          fill="white"/>
    <path d="M214.564 46.0301C214.736 43.9958 213.597 42.6404 211.565 42.4439C209.533 42.2475 207.86 43.1356 206.669 44.8516L207.757 44.9569C209.257 45.1019 210.464 46 211.329 47.1579C210.832 46.7436 210.062 46.3761 208.925 46.2662C206.506 46.0322 204.491 47.4245 204.255 49.8677C204.028 52.2142 205.839 54.196 208.137 54.4183C210.048 54.6031 211.692 53.761 212.534 51.8647L212.254 54.7675L215.011 55.0342L213.836 53.5532L214.564 46.0301ZM213.128 45.7204L212.733 49.8085C212.393 47.7735 210.547 45.3975 208.398 44.8967C208.959 43.3883 210.011 42.611 211.438 42.7491C212.889 42.8894 213.295 44.0029 213.128 45.7204ZM212.601 50.919C212.442 52.5639 211.134 53.9756 209.247 53.7931C207.239 53.599 205.55 51.6288 205.76 49.4517C205.94 47.589 207.312 46.2811 209.271 46.4706C211.787 46.7139 212.772 49.1531 212.601 50.919Z"
          fill="white"/>
    <path d="M238.858 50.9503C239.558 48.2445 238.006 46.3867 236.029 45.8752C234.5 45.4794 233.318 45.8764 231.796 46.7126L232.24 44.9951L229.339 45.1479L230.39 46.3237L228.131 55.0525L226.52 56.0413L230.472 57.0643L229.543 55.4179L231.729 46.9714C232.955 46.2094 234.109 45.7297 235.262 46.028C236.909 46.4543 238.037 48.3027 237.471 50.4908L235.778 57.0315L234.166 58.0203L238.119 59.0433L237.19 57.3969L238.858 50.9503Z"
          fill="white"/>
    <path d="M277.221 65.1512C278.219 63.3701 277.743 61.6653 275.974 60.6464C274.205 59.6276 272.314 59.7448 270.52 60.8148L271.468 61.3607C272.773 62.1127 273.501 63.4294 273.81 64.8412C273.529 64.2585 272.979 63.6055 271.99 63.0354C269.884 61.8225 267.474 62.2575 266.249 64.3845C265.072 66.4273 265.901 68.9804 267.902 70.1326C269.566 71.0908 271.411 71.0036 272.962 69.6253L271.506 72.1525L273.907 73.5352L273.449 71.7009L277.221 65.1512ZM276.043 64.2761L273.993 67.8352C274.524 65.8414 273.826 62.9151 272.076 61.5707C273.21 60.4291 274.489 60.1561 275.732 60.8717C276.995 61.5994 276.904 62.7808 276.043 64.2761ZM273.414 68.7918C272.589 70.2239 270.814 70.9685 269.171 70.0224C267.424 69.0157 266.699 66.5233 267.791 64.6279C268.725 63.0063 270.515 62.3823 272.221 63.3648C274.411 64.6262 274.299 67.2544 273.414 68.7918Z"
          fill="white"/>
    <path d="M292.002 74.1365L291.982 74.1215L293.849 71.7248L291.126 70.7126L291.623 72.2093L286.068 79.3418L284.196 79.6091L287.418 82.118L287.218 80.2378L291.609 74.6009C292.505 73.4504 294.312 74.057 295.993 75.4586L297.296 74.3788C295.108 73.075 293.535 72.6817 292.002 74.1365Z"
          fill="white"/>
    <path d="M306.168 81.5618L307.193 82.5646L300.955 88.9398C299.63 90.2947 299.961 92.319 301.299 93.6278C301.455 93.7807 301.629 93.9507 301.819 94.0689L301.921 93.9303C301.73 93.8121 301.54 93.6595 301.383 93.5065C300.636 92.7757 300.332 91.6619 302.253 89.699L308.235 83.5844L309.747 85.063L309.866 84.9415L308.354 83.4628L309.85 81.9341L306.168 81.5618Z"
          fill="white"/>
    <path d="M321.846 94.7333C322.233 95.2016 322.917 95.2665 323.385 94.8793C323.854 94.4922 323.918 93.8078 323.531 93.3396C323.144 92.8713 322.46 92.8065 321.992 93.1936C321.523 93.5808 321.458 94.2651 321.846 94.7333ZM321.123 96.5291L318.683 94.9514L318.845 96.5203L311.878 102.281L309.992 102.137L312.594 105.284L312.807 103.405L321.123 96.5291Z"
          fill="white"/>
    <path d="M327.495 112.489C327.269 111.191 327.022 108.78 328.188 108.032C329.129 107.428 330.43 108.153 331.178 109.319C331.48 109.789 331.674 110.271 331.764 110.906L331.233 114.221L333.204 112.206L331.301 109.24C330.422 107.869 328.932 107.122 327.398 108.106C325.679 109.208 325.834 111.88 326.065 113.32C326.291 115.023 326.652 117.477 325.425 118.264C324.32 118.973 322.783 118.197 321.878 116.786C321.537 116.254 321.221 115.446 321.097 114.803L321.616 111.381L319.564 113.448L321.755 116.864C322.805 118.501 324.632 119.234 326.105 118.289C328.376 116.833 327.806 114.369 327.495 112.489Z"
          fill="white"/>
    <path d="M341.082 125.06L341.699 126.354L333.647 130.192C331.936 131.008 331.55 133.023 332.356 134.712C332.45 134.909 332.554 135.129 332.692 135.305L332.836 135.21C332.698 135.034 332.571 134.825 332.477 134.627C332.027 133.684 332.125 132.534 334.604 131.352L342.326 127.671L343.236 129.579L343.389 129.506L342.48 127.597L344.41 126.677L341.082 125.06Z"
          fill="white"/>
    <path d="M352.536 148.723C354.752 147.994 355.975 146.108 355.185 143.707C354.715 142.276 354.056 141.674 353.666 141.265L352.304 139.845L349.465 140.625L353.948 141.812C354.384 142.282 354.788 143.045 355.024 143.76C355.502 145.215 354.467 146.425 352.782 146.979C351.027 147.556 349.784 147.12 348.236 146.069C346.021 144.545 344.552 144.824 341.842 145.996L341.918 146.15C344.459 145.008 345.681 144.99 347.571 146.927C348.803 148.184 350.62 149.352 352.536 148.723ZM338.301 147.364C338.49 147.942 339.104 148.252 339.681 148.062C340.258 147.872 340.568 147.259 340.379 146.681C340.189 146.104 339.575 145.794 338.998 145.984C338.421 146.174 338.111 146.787 338.301 147.364Z"
          fill="white"/>
    <path d="M338.048 276.272C339.837 277.257 341.538 276.768 342.544 274.991C343.55 273.215 343.418 271.325 342.335 269.539L341.796 270.491C341.054 271.802 339.743 272.54 338.333 272.859C338.914 272.573 339.563 272.019 340.126 271.025C341.323 268.91 340.87 266.503 338.734 265.294C336.683 264.133 334.136 264.981 332.998 266.99C332.052 268.661 332.153 270.505 333.543 272.046L331.005 270.609L329.64 273.02L331.471 272.549L338.048 276.272ZM338.915 275.087L335.341 273.064C337.338 273.58 340.259 272.86 341.591 271.101C342.741 272.226 343.023 273.503 342.317 274.751C341.598 276.02 340.416 275.937 338.915 275.087ZM334.38 272.492C332.942 271.678 332.184 269.908 333.118 268.259C334.112 266.503 336.599 265.761 338.502 266.838C340.131 267.76 340.768 269.545 339.798 271.258C338.553 273.458 335.924 273.366 334.38 272.492Z"
          fill="white"/>
    <path d="M329.201 291.018L329.216 290.999L331.633 292.839L332.615 290.105L331.124 290.619L323.931 285.142L323.644 283.273L321.17 286.521L323.048 286.302L328.733 290.63C329.893 291.514 329.306 293.327 327.923 295.024L329.017 296.315C330.297 294.112 330.673 292.535 329.201 291.018Z"
          fill="white"/>
    <path d="M315.155 308.698L311.229 312.539C313.372 312.992 315.458 312.413 317.108 310.798C319.454 308.504 319.668 304.622 317.05 301.947C314.382 299.22 310.421 300.002 308.162 302.211C305.748 304.574 306.453 307.692 307.897 309.169C309.835 311.149 312.71 310.716 315.155 308.698ZM317.984 306.168C318.258 307.838 317.932 309.347 316.699 310.553C315.674 311.556 314.208 312.004 312.773 311.267L317.984 306.168ZM308.139 309.034C306.644 307.505 306.466 304.925 308.498 302.937C310.583 300.897 314.325 301.247 316.569 303.54C317.249 304.235 317.738 305.048 317.969 305.944L315.85 308.018C313.053 310.754 309.941 310.875 308.139 309.034Z"
          fill="white"/>
    <path d="M278.607 338.872L277.625 329.935L284.982 335.385L284.484 337.209L288.322 335.11L286.518 334.546L277.977 328.247L280.794 325.599C282.056 324.41 282.51 322.86 281.892 321.73C281.192 320.45 279.693 320.19 278.285 320.96C276.579 321.893 276.106 324.118 276.927 327.492L276.394 327.783L277.326 329.489L278.372 339L277.874 340.824L280.411 339.436L278.607 338.872ZM277.049 327.563C277.014 325.422 277.556 323.02 279.283 322.076C280.392 321.47 281.273 321.459 281.704 322.248C282.24 323.229 281.563 324.624 280.649 325.484L277.831 328.133L277.049 327.563Z"
          fill="white"/>
    <path d="M263.744 341.587C262.661 338.49 259.144 336.682 255.864 337.829C252.744 338.92 250.951 342.405 252.122 345.754C253.205 348.851 256.721 350.66 260.001 349.513C263.121 348.421 264.915 344.936 263.744 341.587ZM262.769 343.292C263.676 345.885 262.764 348.135 260.768 348.833C258.015 349.795 254.267 347.398 253.096 344.049C252.189 341.457 253.102 339.207 255.098 338.509C257.851 337.546 261.598 339.943 262.769 343.292Z"
          fill="white"/>
    <path d="M230.416 357.758L232.994 356.419L231.55 355.783L230.118 347.596C230.924 346.419 231.771 345.481 232.945 345.276C234.62 344.982 236.436 346.195 236.83 348.445L238.22 356.393L240.798 355.054L239.355 354.418L238.279 348.265C237.797 345.512 235.591 344.467 233.58 344.819C232.024 345.091 231.053 346.026 230.112 347.276L229.016 345.667L228.322 345.788L230.416 357.758Z"
          fill="white"/>
    <path d="M188.172 356.628C188 358.662 189.138 360.018 191.17 360.214C193.202 360.411 194.875 359.523 196.066 357.807L194.978 357.701C193.478 357.556 192.271 356.658 191.406 355.5C191.903 355.915 192.674 356.282 193.81 356.392C196.229 356.626 198.244 355.234 198.48 352.79C198.707 350.444 196.897 348.462 194.599 348.24C192.688 348.055 191.044 348.897 190.201 350.793L190.482 347.891L187.724 347.624L188.899 349.105L188.172 356.628ZM189.607 356.938L190.002 352.85C190.343 354.885 192.188 357.261 194.337 357.761C193.776 359.27 192.725 360.047 191.297 359.909C189.846 359.769 189.441 358.655 189.607 356.938ZM190.134 351.739C190.293 350.094 191.602 348.683 193.488 348.865C195.496 349.059 197.186 351.029 196.975 353.207C196.795 355.069 195.423 356.377 193.464 356.188C190.948 355.944 189.963 353.505 190.134 351.739Z"
          fill="white"/>
    <path d="M163.877 351.708C163.177 354.414 164.73 356.271 166.706 356.783C168.235 357.179 169.418 356.782 170.939 355.946L170.495 357.663L173.396 357.51L172.345 356.334L174.604 347.606L176.216 346.617L172.263 345.594L173.192 347.24L171.006 355.687C169.78 356.449 168.626 356.929 167.474 356.63C165.827 356.204 164.698 354.356 165.265 352.167L166.958 345.627L168.569 344.638L164.616 343.615L165.546 345.261L163.877 351.708Z"
          fill="white"/>
    <path d="M125.514 337.507C124.516 339.288 124.993 340.993 126.762 342.012C128.531 343.031 130.421 342.913 132.215 341.843L131.268 341.298C129.962 340.546 129.234 339.229 128.925 337.817C129.207 338.4 129.756 339.053 130.746 339.623C132.852 340.836 135.262 340.401 136.487 338.274C137.663 336.231 136.834 333.678 134.833 332.526C133.17 331.567 131.324 331.655 129.773 333.033L131.229 330.506L128.828 329.123L129.286 330.957L125.514 337.507ZM126.693 338.382L128.742 334.823C128.211 336.817 128.91 339.743 130.659 341.087C129.525 342.229 128.246 342.502 127.004 341.787C125.74 341.059 125.831 339.877 126.693 338.382ZM129.321 333.866C130.146 332.434 131.921 331.69 133.564 332.636C135.312 333.643 136.036 336.135 134.944 338.03C134.01 339.652 132.221 340.276 130.515 339.293C128.325 338.032 128.436 335.404 129.321 333.866Z"
          fill="white"/>
    <path d="M110.734 328.522L110.753 328.537L108.886 330.933L111.61 331.946L111.112 330.449L116.667 323.316L118.539 323.049L115.318 320.54L115.517 322.42L111.126 328.057C110.23 329.208 108.423 328.601 106.742 327.2L105.439 328.279C107.627 329.583 109.2 329.977 110.734 328.522Z"
          fill="white"/>
    <path d="M96.5672 321.096L95.5423 320.094L101.78 313.718C103.106 312.363 102.774 310.339 101.437 309.03C101.28 308.877 101.107 308.708 100.916 308.589L100.815 308.728C101.005 308.846 101.196 308.999 101.352 309.152C102.099 309.883 102.403 310.996 100.483 312.959L94.5 319.074L92.9887 317.595L92.8697 317.717L94.381 319.195L92.8853 320.724L96.5672 321.096Z"
          fill="white"/>
    <path d="M80.8895 307.925C80.5024 307.457 79.818 307.392 79.3498 307.779C78.8815 308.166 78.8166 308.85 79.2038 309.319C79.5909 309.787 80.2753 309.852 80.7435 309.465C81.2118 309.077 81.2767 308.393 80.8895 307.925ZM81.6121 306.129L84.0518 307.707L83.8899 306.138L90.8575 300.377L92.7426 300.521L90.1409 297.375L89.9283 299.253L81.6121 306.129Z"
          fill="white"/>
    <path d="M75.24 290.171C75.4665 291.469 75.7138 293.88 74.5478 294.628C73.6068 295.232 72.305 294.508 71.5571 293.342C71.2553 292.871 71.0616 292.389 70.9717 291.754L71.5021 288.44L69.5317 290.454L71.4343 293.42C72.3135 294.791 73.8036 295.539 75.3378 294.554C77.0562 293.452 76.9012 290.78 76.6704 289.34C76.4444 287.637 76.0832 285.183 77.3106 284.396C78.4153 283.688 79.9521 284.463 80.8575 285.875C81.1986 286.406 81.5147 287.214 81.6382 287.857L81.1193 291.279L83.1715 289.212L80.9802 285.796C79.9305 284.159 78.103 283.426 76.6302 284.371C74.3595 285.827 74.9294 288.291 75.24 290.171Z"
          fill="white"/>
    <path d="M61.6543 277.598L61.0373 276.304L69.0885 272.466C70.7996 271.65 71.1854 269.635 70.3801 267.946C70.286 267.749 70.1814 267.529 70.0434 267.353L69.9003 267.448C70.0383 267.625 70.1648 267.833 70.2589 268.031C70.7086 268.974 70.6109 270.125 68.1319 271.306L60.4098 274.988L59.5 273.079L59.3464 273.152L60.2562 275.061L58.3257 275.981L61.6543 277.598Z"
          fill="white"/>
    <path d="M50.1993 253.934C47.9829 254.662 46.7608 256.548 47.55 258.949C48.0206 260.38 48.679 260.983 49.0693 261.391L50.4313 262.811L53.2705 262.031L48.7872 260.845C48.3511 260.374 47.9469 259.612 47.7116 258.896C47.2335 257.441 48.2684 256.231 49.9538 255.677C51.7085 255.1 52.9517 255.536 54.4997 256.588C56.7145 258.111 58.1835 257.833 60.8937 256.66L60.8174 256.506C58.2765 257.649 57.0545 257.667 55.1643 255.73C53.9321 254.472 52.1156 253.304 50.1993 253.934ZM64.4346 255.292C64.2449 254.715 63.6314 254.405 63.0542 254.594C62.477 254.784 62.167 255.398 62.3567 255.975C62.5465 256.552 63.16 256.862 63.7372 256.672C64.3144 256.483 64.6244 255.869 64.4346 255.292Z"
          fill="white"/>
    <g filter="url(#filter0_b_829_4439)">
        <g clip-path="url(#clip0_829_4439)">
            <rect x="71.1733" y="71.1738" width="260.39" height="260.39" rx="130.195"
                  fill="url(#paint0_angular_829_4439)" fill-opacity="0.4"/>
            <path opacity="0.4"
                  d="M148.501 221.258L148.884 222.036C144.135 224.375 142.571 225.413 137.798 229.407C134.884 231.845 134.019 232.455 132.268 233.183L132.268 233.183C128.239 234.86 123.887 236.817 120.213 238.603L120.213 238.603C118.085 239.638 115.152 240.935 113.68 241.49L113.374 240.678L113.68 241.49C112.972 241.756 112.247 242.048 111.65 242.301C111.031 242.564 110.608 242.763 110.462 242.85C109.531 243.404 108.31 244.252 107.197 245.099C106.071 245.956 105.118 246.762 104.688 247.231C104.323 247.629 103.751 248.451 103.051 249.583C102.363 250.698 101.582 252.061 100.803 253.501C99.2405 256.392 97.7117 259.542 96.9521 261.576L96.9521 261.576C95.739 264.824 93.4175 268.382 91.1471 270.426L91.147 270.426C89.8414 271.601 89.1053 272.513 87.8767 274.519L87.1377 274.066L87.8767 274.519L86.4761 276.806L86.785 277.524L86.7851 277.525C86.884 277.755 86.9719 277.923 87.0403 278.036C87.2745 278.108 87.441 278.257 87.507 278.326C87.6528 278.479 87.7506 278.663 87.8133 278.796C87.9485 279.083 88.0634 279.453 88.1511 279.815C88.2408 280.184 88.3126 280.59 88.3481 280.965C88.3796 281.297 88.3927 281.698 88.3126 282.037C88.3123 282.043 88.3119 282.051 88.3116 282.06C88.3101 282.109 88.3106 282.182 88.3147 282.283C88.3229 282.482 88.3439 282.751 88.3774 283.074C88.4441 283.718 88.5565 284.54 88.6987 285.381L88.6987 285.381C88.9658 286.962 89.0867 287.648 89.204 287.997C89.2198 288.045 89.2325 288.075 89.2411 288.094C89.2617 288.105 89.2994 288.125 89.3644 288.156C89.3644 288.156 89.3645 288.156 89.3645 288.156L88.9874 288.938C89.5358 289.203 89.6594 289.452 90.0796 291.144L148.501 221.258ZM148.501 221.258L148.884 222.036C149.843 221.564 150.797 221.452 152.744 221.77L152.884 220.913L152.744 221.77C155.7 222.253 156.7 222.504 157.451 222.862C157.72 222.99 158.022 223.106 158.398 223.141C158.765 223.176 159.142 223.128 159.566 223.024C160.382 222.822 161.582 222.353 163.568 221.547C166.552 220.335 169.777 219.492 172.146 219.282C173.036 219.204 174.974 219.01 176.456 218.851L176.364 217.988L176.456 218.851C177.631 218.726 178.274 218.678 178.734 218.7C179.143 218.72 179.406 218.793 179.815 218.968L179.815 218.968C181.549 219.705 184.425 220.658 187.212 221.424C188.865 221.878 190.067 222.391 191.052 223.034C191.993 223.649 193.578 224.377 194.633 224.678C195.641 224.965 196.605 225.359 197.321 225.745C197.681 225.939 197.955 226.119 198.135 226.267C198.184 226.308 198.222 226.342 198.25 226.37C198.244 226.39 198.236 226.416 198.224 226.446C198.172 226.578 198.073 226.751 197.919 226.945C197.609 227.335 197.152 227.714 196.675 227.941L197.048 228.725L196.675 227.941C194.321 229.06 191.142 229.361 189.069 228.724L188.814 229.553L189.069 228.724C188.335 228.498 186.987 228.317 186.024 228.297L186.024 228.297C185.645 228.29 185.339 228.285 185.103 228.288C184.888 228.291 184.657 228.3 184.468 228.341C184.382 228.36 184.194 228.408 184.018 228.547C183.783 228.733 183.637 229.031 183.667 229.362C183.688 229.606 183.8 229.781 183.843 229.844C183.896 229.924 183.956 229.994 183.995 230.039L183.996 230.039C184.247 230.323 184.732 230.673 185.099 230.876C185.095 230.873 185.111 230.882 185.155 230.914C185.196 230.944 185.249 230.985 185.314 231.038C185.443 231.144 185.604 231.285 185.786 231.452C186.15 231.786 186.579 232.209 186.982 232.636L186.982 232.636C187.821 233.524 188.926 234.571 189.455 234.958L189.456 234.958C189.819 235.223 190.74 236.175 191.468 237.085C193.277 239.344 195.045 240.692 196.977 240.864L196.978 240.864C197.427 240.904 197.639 240.958 197.769 241.018C197.874 241.065 197.976 241.138 198.142 241.346L198.143 241.346C198.276 241.514 198.345 241.605 198.386 241.671C198.397 241.689 198.403 241.701 198.407 241.708C198.407 241.722 198.405 241.752 198.397 241.806C198.381 241.913 198.349 242.06 198.29 242.301L198.29 242.301C198.166 242.809 198.11 242.855 198.022 242.925C197.823 243.082 197.423 243.258 196.353 243.651L196.353 243.651C195.692 243.894 195.143 243.944 194.612 243.838C194.067 243.73 193.464 243.443 192.724 242.888L192.723 242.888M148.501 221.258L192.723 242.888M100.386 330.533L97.7218 319.288C96.5552 314.364 95.7751 311.148 95.2104 308.988C94.6489 306.84 94.2888 305.689 93.9563 304.926C93.825 304.625 93.7114 304.363 93.6141 304.136C93.7175 304.085 93.8192 304.01 93.9089 303.904C94.0928 303.687 94.1255 303.45 94.1346 303.35C94.1452 303.234 94.137 303.126 94.1293 303.053C94.1139 302.906 94.0796 302.722 94.0459 302.541L94.0457 302.54C93.8611 301.549 93.6012 300.617 93.2732 299.833L100.386 330.533ZM100.386 330.533C100.778 330.212 101.29 329.743 101.848 329.186C102.688 328.346 103.554 327.386 104.146 326.61L104.836 327.137L104.146 326.61C106.125 324.019 111.207 316.048 112.381 313.703C112.967 312.532 114.133 309.895 114.966 307.851C116.768 303.429 117.881 300.244 118.657 296.796C119.434 293.343 119.879 289.596 120.32 284.042C120.818 277.76 121.165 275.482 122.266 271.364C122.786 269.419 123.148 268.176 123.59 267.066C124.036 265.947 124.556 264.986 125.366 263.599L126.524 261.615L126.915 260.946L127.624 261.259L130.28 262.43L129.929 263.225L130.28 262.43C133.378 263.797 135.685 264.332 137.947 264.275C139.969 264.225 141.133 263.821 145.863 261.219C152.55 257.54 154.776 256.498 157.531 255.851C158.933 255.521 159.878 255.34 161.065 255.363C162.219 255.386 163.579 255.602 165.82 255.996L165.82 255.996C166.718 256.154 167.561 256.29 168.196 256.382C168.514 256.428 168.774 256.462 168.959 256.482C169.044 256.491 169.106 256.497 169.147 256.499C169.385 256.467 169.638 256.496 169.8 256.518C170.035 256.55 170.297 256.604 170.546 256.667C170.795 256.73 171.05 256.806 171.27 256.889C171.379 256.93 171.491 256.977 171.595 257.029C171.684 257.075 171.827 257.154 171.953 257.274M100.386 330.533L175.739 260.934C175.523 261.046 175.03 261.051 174.336 260.607C173.685 260.189 173.065 259.487 172.729 258.671L172.729 258.671C172.617 258.399 172.49 258.126 172.372 257.902C172.314 257.79 172.254 257.682 172.196 257.589C172.151 257.516 172.065 257.383 171.953 257.274M171.953 257.274L171.351 257.9L171.952 257.274C171.952 257.274 171.953 257.274 171.953 257.274ZM169.239 241.919L169.239 241.919C168.903 241.539 168.542 240.979 168.293 240.522C168.168 240.294 168.051 240.055 167.977 239.851C167.944 239.76 167.896 239.612 167.882 239.452C167.876 239.377 167.869 239.212 167.939 239.025C168.025 238.794 168.232 238.543 168.576 238.461C168.77 238.416 168.93 238.449 168.965 238.456L168.968 238.457C169.028 238.469 169.077 238.485 169.107 238.496C169.168 238.517 169.227 238.543 169.272 238.564C169.367 238.608 169.48 238.667 169.597 238.732C169.837 238.863 170.141 239.043 170.458 239.241L170.458 239.241C171.494 239.889 172.769 240.084 175.305 239.697C176.269 239.55 177.062 239.454 177.798 239.707C178.536 239.961 179.097 240.526 179.757 241.232M169.239 241.919L179.757 241.232M169.239 241.919C169.609 242.337 170.527 243.059 171.275 243.558L169.239 241.919ZM179.757 241.232L179.122 241.824L179.757 241.232C179.757 241.232 179.757 241.232 179.757 241.232ZM192.723 242.888C192.408 242.652 192.107 242.442 191.873 242.294C191.76 242.222 191.643 242.152 191.539 242.101C191.494 242.078 191.41 242.038 191.312 242.011C191.269 241.999 191.16 241.971 191.022 241.976C190.899 241.981 190.532 242.027 190.306 242.393L190.306 242.393C190.16 242.631 190.16 242.865 190.171 242.989C190.184 243.12 190.219 243.23 190.247 243.303C190.304 243.45 190.385 243.59 190.459 243.704C190.612 243.941 190.826 244.21 191.055 244.471C191.51 244.989 192.121 245.585 192.643 245.946C192.909 246.129 193.083 246.26 193.197 246.359M192.723 242.888L192.886 245.044C192.972 245.113 193.057 245.176 193.137 245.232C194.456 246.145 194.47 246.362 193.289 247.526C192.472 248.33 191.776 248.528 190.318 248.371L190.411 247.508C191.1 247.583 191.507 247.559 191.806 247.474C192.083 247.396 192.339 247.243 192.68 246.907C192.932 246.659 193.094 246.487 193.197 246.359M193.197 246.359C193.226 246.384 193.251 246.407 193.272 246.428C193.305 246.461 193.32 246.48 193.325 246.486M193.197 246.359C193.216 246.336 193.232 246.314 193.247 246.294C193.282 246.246 193.296 246.219 193.3 246.211M193.325 246.486C193.326 246.488 193.326 246.488 193.326 246.488C193.326 246.488 193.326 246.488 193.325 246.486ZM193.325 246.486C193.318 246.475 193.29 246.425 193.284 246.342C193.28 246.269 193.295 246.223 193.3 246.211M193.3 246.211C193.301 246.21 193.301 246.209 193.301 246.209C193.301 246.209 193.3 246.21 193.3 246.211ZM159.797 242.864C159.802 242.82 159.806 242.777 159.809 242.735C159.814 242.65 159.816 242.535 159.798 242.415C159.789 242.355 159.77 242.261 159.726 242.158C159.685 242.064 159.586 241.874 159.367 241.739C159.163 241.612 158.965 241.602 158.866 241.605C158.76 241.608 158.674 241.629 158.623 241.644C158.521 241.673 158.435 241.714 158.381 241.742C158.266 241.801 158.143 241.88 158.03 241.957C157.797 242.117 157.511 242.336 157.227 242.568C156.684 243.009 156.023 243.598 155.731 243.976L155.731 243.976C155.726 243.982 155.721 243.988 155.716 243.995C155.643 244.089 155.518 244.251 155.438 244.419C155.389 244.525 155.331 244.683 155.328 244.877C155.324 245.086 155.382 245.276 155.478 245.436C155.636 245.698 155.886 245.855 156.014 245.933C156.172 246.029 156.379 246.138 156.606 246.256C157.229 246.581 158.145 246.829 158.976 246.974C159.401 247.048 159.831 247.099 160.221 247.118C160.596 247.135 160.992 247.126 161.325 247.047C161.32 247.048 161.317 247.049 161.317 247.049C161.317 247.049 161.345 247.045 161.409 247.044C161.483 247.044 161.58 247.048 161.694 247.059C161.922 247.081 162.18 247.125 162.403 247.185C162.403 247.185 162.403 247.185 162.403 247.185L162.577 246.531C162.641 246.599 162.698 246.662 162.748 246.718C162.835 246.816 162.889 246.882 162.914 246.916C162.92 246.923 162.922 246.927 162.922 246.927C162.921 246.926 162.912 246.912 162.899 246.888C162.891 246.874 162.86 246.815 162.837 246.73C162.825 246.686 162.808 246.607 162.808 246.505C162.809 246.474 162.811 246.436 162.817 246.395C163.278 246.508 163.648 246.563 163.675 246.519M159.797 242.864L163.259 244.746C163.566 245.048 163.844 245.338 164.046 245.566C164.145 245.677 164.238 245.787 164.309 245.882C164.341 245.926 164.389 245.993 164.43 246.069C164.448 246.104 164.486 246.179 164.513 246.278L164.514 246.28C164.528 246.334 164.614 246.65 164.414 246.974M159.797 242.864C160.037 242.862 160.319 242.837 160.503 242.793C160.763 242.732 161.147 242.661 161.517 242.782C161.732 242.853 161.926 242.983 162.074 243.171C162.193 243.323 162.26 243.483 162.299 243.623C162.305 243.633 162.314 243.647 162.325 243.664C162.37 243.735 162.441 243.832 162.537 243.952C162.727 244.19 162.984 244.476 163.259 244.746L159.797 242.864ZM163.675 246.519L164.414 246.974M163.675 246.519C163.697 246.483 163.471 246.211 163.126 245.848L164.414 246.974M163.675 246.519L164.415 246.972C164.415 246.973 164.414 246.974 164.414 246.974M169.538 239.697C169.673 239.777 169.82 239.866 169.97 239.959C169.916 239.869 169.864 239.779 169.816 239.691C169.709 239.494 169.639 239.343 169.609 239.259C169.605 239.248 169.603 239.241 169.601 239.236C169.604 239.246 169.609 239.272 169.612 239.31C169.615 239.341 169.625 239.472 169.565 239.634C169.557 239.654 169.548 239.676 169.538 239.697ZM169.064 240.125C169.036 240.135 169.007 240.143 168.976 240.151C168.866 240.177 168.776 240.175 168.731 240.172C168.681 240.169 168.641 240.162 168.618 240.157C168.573 240.148 168.542 240.137 168.535 240.135C168.525 240.131 168.52 240.129 168.523 240.13C168.524 240.131 168.53 240.133 168.54 240.138C168.584 240.159 168.658 240.196 168.762 240.253C168.92 240.34 169.12 240.456 169.34 240.59C169.241 240.434 169.147 240.275 169.064 240.125ZM92.4041 303.248C92.404 303.248 92.404 303.247 92.4039 303.246L92.4041 303.248ZM175.895 260.653C175.831 260.895 175.76 260.923 175.74 260.934L171.275 243.558C171.931 243.995 173.004 244.975 173.609 245.702C174.389 246.638 174.98 247.283 175.725 247.747C176.47 248.21 177.31 248.454 178.493 248.737L178.696 247.893L178.493 248.737C179.413 248.958 179.82 249.081 180.078 249.216C180.275 249.32 180.405 249.44 180.691 249.827L180.691 249.827C181.102 250.382 181.41 251.095 181.565 251.798C181.723 252.518 181.697 253.117 181.561 253.478C181.353 254.032 181.083 254.414 180.693 254.726C180.285 255.052 179.696 255.34 178.786 255.618C177.841 255.906 177.023 256.234 176.512 256.855C175.963 257.523 175.909 258.344 175.96 259.192L175.96 259.192C176.004 259.922 175.97 260.376 175.895 260.653ZM89.2538 288.119C89.2537 288.119 89.2533 288.118 89.2524 288.117C89.2533 288.118 89.2538 288.119 89.2538 288.119ZM88.3018 282.08C88.3021 282.079 88.3024 282.078 88.3027 282.077C88.3024 282.078 88.3021 282.079 88.3018 282.08L88.3018 282.08ZM87.1328 278.169C87.1342 278.17 87.1348 278.171 87.1348 278.171C87.1348 278.171 87.1341 278.171 87.1328 278.169ZM183.192 242.78L183.192 242.78L183.112 243.644L183.192 242.78ZM198.309 226.437C198.309 226.437 198.308 226.436 198.306 226.433C198.308 226.436 198.309 226.437 198.309 226.437ZM190.769 243.656C190.769 243.656 190.769 243.656 190.769 243.656L190.769 243.656ZM162.476 254.829L162.476 254.829C162.652 254.948 162.85 254.992 162.919 255.008L162.92 255.008C163.029 255.032 163.148 255.05 163.265 255.063C163.501 255.09 163.781 255.104 164.059 255.101C164.334 255.098 164.623 255.081 164.846 255.022C164.906 255.006 164.994 254.979 165.087 254.932C165.16 254.895 165.353 254.788 165.484 254.555C165.658 254.244 165.617 253.901 165.47 253.655C165.359 253.467 165.207 253.367 165.144 253.327C164.977 253.224 164.799 253.179 164.7 253.158C164.58 253.132 164.454 253.114 164.335 253.102C164.095 253.079 163.826 253.072 163.583 253.078C163.353 253.084 163.091 253.103 162.883 253.15C162.827 253.162 162.756 253.181 162.681 253.21C162.622 253.233 162.483 253.29 162.351 253.413C162.198 253.557 161.983 253.877 162.095 254.299C162.18 254.62 162.408 254.783 162.476 254.829ZM164.054 254.649L164.05 254.233L164.054 254.649ZM164.347 254.858C164.347 254.858 164.344 254.858 164.338 254.856C164.344 254.857 164.347 254.858 164.347 254.858Z"
                  stroke="white" stroke-width="1.73593"/>
            <path opacity="0.4"
                  d="M300.402 71.025L300.402 71.0252C299.979 71.54 299.203 72.5786 298.687 73.3208C298.374 73.7718 298.084 74.1453 297.833 74.3923C297.721 74.5035 297.547 74.6595 297.332 74.7535C297.221 74.8021 297.02 74.8692 296.774 74.8322C296.772 74.832 296.77 74.8317 296.769 74.8314C296.636 74.9375 296.447 75.106 296.186 75.3592C293.889 77.5929 290.356 82.5966 285.855 90.0743C284.955 91.5688 284.031 93.0481 283.266 94.229C282.52 95.3804 281.881 96.3173 281.572 96.6678M300.402 71.025L280.921 96.0933M300.402 71.025C300.416 71.008 300.43 70.9912 300.444 70.9745M300.402 71.025L300.444 70.9745M281.572 96.6678L280.921 96.0933M281.572 96.6678C281.572 96.6678 281.572 96.6677 281.572 96.6677L280.921 96.0933M281.572 96.6678C280.486 97.8977 279.894 98.9897 279.31 100.907C278.386 103.944 277.716 105.338 276.294 106.986L276.294 106.986C273.289 110.468 270.423 114.345 268.449 117.588L267.708 117.137M280.921 96.0933C279.739 97.4316 279.093 98.6392 278.48 100.655C277.573 103.632 276.949 104.899 275.637 106.419C272.607 109.93 269.71 113.845 267.708 117.137M267.708 117.137C265.031 121.534 262.258 125.354 260.387 127.219C257.628 129.969 257.054 130.708 256.402 132.352C256.042 133.26 255.468 134.424 255.125 134.939C254.783 135.454 252.715 138.684 250.531 142.117C246.424 148.573 245.327 150.005 241.745 153.581C240.582 154.742 238.886 156.528 237.975 157.55C237.065 158.572 235.922 159.626 235.435 159.892M267.708 117.137L268.449 117.588C265.764 122 262.947 125.893 261 127.834L261 127.834C259.616 129.213 258.821 130.049 258.29 130.733C257.782 131.387 257.513 131.907 257.209 132.672L257.209 132.672C256.838 133.608 256.237 134.834 255.848 135.419C255.512 135.925 253.451 139.145 251.264 142.583C247.138 149.068 246.002 150.557 242.358 154.195C241.205 155.346 239.521 157.12 238.624 158.127L238.623 158.128C238.149 158.66 237.616 159.199 237.135 159.643C236.678 160.064 236.2 160.464 235.852 160.654M297.571 73.4573C297.561 73.4428 297.551 73.4284 297.541 73.4141C297.54 73.4143 297.54 73.4144 297.54 73.4146C297.551 73.4286 297.561 73.4428 297.571 73.4573ZM297.571 73.4573C297.571 73.4581 297.572 73.4589 297.572 73.4596L297.572 73.4589C297.571 73.4584 297.571 73.4578 297.571 73.4573ZM300.444 70.9745C300.451 70.9966 300.457 71.0189 300.463 71.0414L300.444 70.9745ZM235.852 160.654L235.435 159.892M235.852 160.654C235.852 160.654 235.852 160.654 235.852 160.654L235.435 159.892M235.852 160.654C233.63 161.869 232.251 162.886 231.13 164.089L231.13 164.089C230.405 164.868 229.301 166.019 228.674 166.652L228.674 166.653C228.127 167.204 227.353 168.32 226.999 169.075L226.999 169.075C225.97 171.265 224.723 173.345 223.503 174.888L223.503 174.888C222.975 175.557 221.939 177.021 221.212 178.13L221.212 178.13C220.161 179.734 219.969 180.249 219.884 181.133M235.435 159.892C233.166 161.134 231.701 162.203 230.495 163.497C229.774 164.271 228.678 165.416 228.058 166.042L219.02 181.05C218.949 181.796 218.954 182.648 219.033 182.941C219.21 183.603 221.083 184.604 222.581 184.839M219.884 181.133C219.884 181.133 219.884 181.133 219.884 181.133L219.02 181.05L219.884 181.133ZM219.884 181.133C219.851 181.476 219.836 181.846 219.838 182.16C219.839 182.316 219.845 182.452 219.853 182.559C219.857 182.613 219.862 182.651 219.865 182.677M219.865 182.677C219.857 182.667 219.853 182.662 219.853 182.662C219.852 182.662 219.862 182.68 219.871 182.717C219.872 182.718 219.871 182.717 219.871 182.715C219.87 182.711 219.868 182.699 219.865 182.677ZM219.865 182.677C219.884 182.7 219.927 182.749 220.014 182.823C220.177 182.962 220.418 183.123 220.721 183.285C221.33 183.611 222.08 183.882 222.715 183.981M222.715 183.981L222.581 184.839M222.715 183.981C223.271 184.068 223.361 184.064 223.475 184.033C223.657 183.983 223.907 183.849 224.664 183.401L224.664 183.401C225.413 182.959 226.973 181.845 228.11 180.935C228.958 180.255 229.489 179.786 229.914 179.318C230.334 178.856 230.673 178.371 231.112 177.639L231.112 177.639C231.94 176.259 232.878 175.152 234.217 173.959L234.217 173.959C235.34 172.958 236.328 171.813 236.968 170.79L236.968 170.79C237.57 169.828 238.069 169.138 238.818 168.579C239.545 168.036 240.455 167.657 241.774 167.173M222.715 183.981C222.715 183.981 222.715 183.981 222.715 183.981L222.581 184.839M222.581 184.839L241.774 167.173M241.774 167.173L242.072 167.988L241.774 167.173C241.774 167.173 241.774 167.173 241.774 167.173ZM252.174 163.023L252.174 163.023C252.707 162.935 253.232 162.865 253.652 162.824C253.86 162.804 254.053 162.789 254.212 162.784C254.291 162.781 254.372 162.781 254.448 162.784C254.505 162.786 254.63 162.793 254.762 162.833L254.762 162.833C255.375 163.017 255.663 163.586 255.766 163.942C255.827 164.152 255.859 164.391 255.834 164.634C255.812 164.844 255.742 165.105 255.562 165.337C255.546 165.382 255.523 165.45 255.497 165.544C255.442 165.746 255.386 166.012 255.347 166.284L255.347 166.284C255.251 166.954 254.958 168.156 254.695 168.988L254.695 168.988C254.448 169.769 254.147 170.895 254.029 171.469L254.029 171.469C253.888 172.161 253.399 173.612 252.95 174.716L252.949 174.716C252.543 175.714 252.302 176.612 252.214 177.344C252.124 178.101 252.211 178.572 252.335 178.807L251.572 179.212L252.335 178.807C252.499 179.114 252.873 179.573 253.34 180.017C253.813 180.465 254.264 180.788 254.528 180.902C254.801 181.019 255.088 181.064 255.963 180.83L252.174 163.023ZM252.174 163.023C251.144 163.193 249.766 163.405 249.116 163.494C248.636 163.56 248.218 163.645 247.854 163.797C247.463 163.96 247.169 164.184 246.909 164.475L252.174 163.023ZM262.025 185.1L262.025 185.1C262.759 186.547 263.217 187.35 263.819 188.081C264.426 188.819 265.205 189.514 266.635 190.696C267.79 191.649 269.291 192.954 269.978 193.603C270.379 193.981 270.747 194.256 271.07 194.443C271.087 194.39 271.108 194.343 271.129 194.304C271.197 194.176 271.28 194.095 271.324 194.057C271.41 193.98 271.494 193.936 271.524 193.921C271.597 193.884 271.67 193.858 271.713 193.844C271.811 193.81 271.934 193.776 272.061 193.744C272.321 193.679 272.671 193.602 273.051 193.529C273.767 193.392 273.894 193.343 273.961 193.297C274.012 193.262 274.079 193.195 274.404 192.611L274.404 192.611C274.676 192.124 274.931 191.682 275.363 191.355C275.777 191.042 276.293 190.883 276.896 190.705C277.77 190.446 278.16 190.194 278.358 189.946C278.539 189.719 278.666 189.359 278.645 188.592L278.645 188.592C278.625 187.823 278.345 186.604 277.932 185.417C277.73 184.834 277.504 184.282 277.278 183.825C277.045 183.352 276.839 183.033 276.691 182.871L277.33 182.284L276.691 182.871L275.984 182.1L275.723 181.815L275.76 181.431L275.895 180.024L275.895 180.024C275.955 179.4 275.958 179.117 275.912 178.86C275.864 178.596 275.754 178.304 275.468 177.686C275.135 176.969 274.547 175.957 274.187 175.47C273.754 174.885 273.423 174.345 273.343 173.596C273.271 172.919 273.416 172.14 273.647 171.103L273.647 171.103C273.712 170.812 273.754 170.455 273.766 170.119C273.779 169.765 273.756 169.516 273.729 169.412C273.582 168.834 273.508 168.006 273.496 167.331C273.49 166.989 273.498 166.652 273.528 166.378C273.543 166.244 273.566 166.094 273.606 165.955C273.626 165.886 273.658 165.792 273.712 165.693C273.759 165.609 273.871 165.429 274.092 165.307L274.092 165.307C274.228 165.231 274.451 165.121 274.729 165.101C275.043 165.08 275.312 165.178 275.529 165.32C275.723 165.446 275.891 165.617 276.036 165.781C276.187 165.952 276.357 166.166 276.549 166.417L276.549 166.417C277.281 167.371 277.626 168.194 278.065 169.834C278.378 171.002 278.628 171.722 278.914 172.257C279.187 172.767 279.508 173.139 280.021 173.575C280.321 173.83 280.732 174.307 281.134 174.817C281.55 175.346 282.006 175.975 282.404 176.579C282.78 177.15 283.176 177.718 283.511 178.17C283.678 178.397 283.827 178.59 283.947 178.738C284.007 178.812 284.058 178.872 284.098 178.916C284.137 178.961 284.156 178.979 284.158 178.981L284.158 178.981C284.206 179.024 284.387 179.129 284.745 179.236C285.075 179.334 285.463 179.406 285.829 179.442C286.091 179.468 286.311 179.472 286.473 179.462C286.511 179.4 286.553 179.348 286.591 179.308C286.728 179.162 286.885 179.081 286.986 179.036C287.202 178.942 287.45 178.894 287.68 178.877C288.222 178.838 288.693 178.411 288.771 177.755L288.771 177.755C288.934 176.389 288.747 174.935 288.351 173.8C288.153 173.232 287.914 172.778 287.668 172.461C287.416 172.135 287.211 172.024 287.095 171.997L287.095 171.997C286.687 171.901 286.378 171.622 286.177 171.39C285.957 171.136 285.765 170.821 285.614 170.482C285.542 170.321 285.401 170.097 285.218 169.872C285.033 169.645 284.851 169.472 284.727 169.386L283.953 168.844L283.157 168.288L283.799 167.559L284.195 167.11C284.212 167.091 284.223 167.077 284.229 167.068C284.23 167.063 284.23 167.056 284.23 167.048C284.23 166.906 284.183 166.635 284.011 165.996C283.906 165.602 283.769 165.222 283.628 164.908C283.478 164.576 283.35 164.381 283.284 164.308L283.283 164.307C283.09 164.095 282.921 163.853 282.802 163.62C282.743 163.504 282.686 163.369 282.648 163.226C282.617 163.107 282.569 162.867 282.648 162.601L282.649 162.6C282.705 162.414 282.816 162.271 282.847 162.231L282.85 162.227C282.904 162.158 282.966 162.088 283.027 162.021C283.153 161.886 283.317 161.723 283.504 161.547C283.88 161.191 284.379 160.749 284.912 160.302L284.913 160.302C287.59 158.06 288.248 157.024 288.35 155.951C288.433 155.077 288.536 154.409 288.791 153.779C289.048 153.145 289.435 152.61 289.972 151.955C291.28 150.361 291.749 149.564 292.063 148.57L292.891 148.832L292.063 148.57C292.232 148.038 292.314 147.153 292.276 146.213C292.238 145.269 292.086 144.428 291.887 143.97C291.701 143.542 291.556 143.137 291.543 142.668C291.53 142.212 291.645 141.777 291.8 141.297L291.8 141.297C292.016 140.625 292.458 139.647 292.808 139.077L292.808 139.077C293.093 138.615 293.248 138.058 293.252 137.178C293.252 137.178 293.252 137.178 293.252 137.178L293.252 137.142C293.256 136.231 293.26 135.535 293.484 134.948C293.722 134.326 294.182 133.889 294.724 133.373L294.746 133.351L294.747 133.351C295.235 132.886 296.057 131.764 296.522 130.893L297.288 131.301L296.522 130.893C297.502 129.056 298.409 127.789 300.123 126.517C301.783 125.285 304.19 124.058 308.107 122.215C309.318 121.645 310.91 120.694 311.615 120.135C312.021 119.813 312.45 119.502 312.82 119.259C313.004 119.137 313.181 119.028 313.337 118.941C313.392 118.91 313.454 118.877 313.521 118.844L307.26 95.9369C303.698 82.9036 300.639 71.7003 300.463 71.0417L262.025 185.1ZM262.025 185.1C261.324 183.721 260.575 182.28 260.362 181.908M262.025 185.1L260.362 181.908M260.362 181.908C259.96 181.203 259.261 180.814 258.497 180.665M260.362 181.908L258.497 180.665M258.497 180.665C257.742 180.517 256.87 180.588 255.963 180.83L258.497 180.665ZM296.954 74.7008C296.954 74.701 296.951 74.7026 296.945 74.705C296.951 74.7019 296.954 74.7007 296.954 74.7008ZM286.698 179.43C286.698 179.43 286.696 179.431 286.692 179.432C286.695 179.431 286.697 179.43 286.698 179.43Z"
                  stroke="white" stroke-width="1.73593"/>
            <path d="M135.386 201.293C134.486 203.843 131.906 205.703 129.206 205.703C125.426 205.703 122.996 202.763 123.356 198.593C123.716 194.423 126.626 191.483 130.466 191.483C133.196 191.483 135.446 193.373 135.806 196.013L140.606 195.473C140.246 190.643 136.106 187.163 130.706 187.163C124.106 187.163 118.886 191.963 118.316 198.593C117.716 205.223 122.096 210.023 128.726 210.023C134.156 210.023 138.926 206.633 140.066 201.923L135.386 201.293Z"
                  fill="white"/>
            <path d="M166.602 201.593C167.022 196.673 163.842 193.313 158.802 193.313C153.732 193.313 149.982 196.673 149.532 201.593C149.112 206.483 152.292 209.873 157.332 209.873C162.402 209.873 166.152 206.483 166.602 201.593ZM162.102 201.593C161.862 204.113 160.032 205.913 157.692 205.913C155.322 205.913 153.822 204.113 154.062 201.593C154.272 199.073 156.072 197.273 158.442 197.273C160.782 197.273 162.312 199.073 162.102 201.593Z"
                  fill="white"/>
            <path d="M183.463 197.273C185.263 197.273 186.193 198.593 186.043 200.453L185.263 209.273H189.763L190.633 199.673C190.933 195.983 188.893 193.313 185.533 193.313C183.373 193.313 181.393 194.693 180.313 196.853L180.583 193.913H176.053L174.733 209.273H179.233L179.983 200.633C180.163 198.683 181.723 197.273 183.463 197.273Z"
                  fill="white"/>
            <path d="M207.347 197.273C209.147 197.273 210.077 198.593 209.927 200.453L209.147 209.273H213.647L214.517 199.673C214.817 195.983 212.777 193.313 209.417 193.313C207.257 193.313 205.277 194.693 204.197 196.853L204.467 193.913H199.937L198.617 209.273H203.117L203.867 200.633C204.047 198.683 205.607 197.273 207.347 197.273Z"
                  fill="white"/>
            <path d="M227.241 200.153C227.781 198.113 229.281 196.763 231.261 196.763C233.301 196.763 234.681 198.203 234.771 200.153H227.241ZM234.351 204.113C233.781 205.463 232.281 206.423 230.601 206.423C228.561 206.423 227.211 205.013 227.001 202.853L239.061 202.883C239.121 202.553 239.211 201.923 239.241 201.533C239.661 196.673 236.601 193.313 231.651 193.313C226.731 193.313 222.891 196.673 222.501 201.473C222.051 206.423 225.231 209.873 230.181 209.873C233.931 209.873 237.351 207.683 238.401 204.683L234.351 204.113Z"
                  fill="white"/>
            <path d="M264.052 199.403C263.872 195.863 260.722 193.313 256.702 193.313C251.872 193.313 248.032 196.793 247.612 201.593C247.192 206.393 250.432 209.873 255.262 209.873C259.222 209.873 262.822 207.323 263.692 203.783L259.522 203.243C258.952 204.893 257.392 206.093 255.622 206.093C253.402 206.093 251.902 204.203 252.112 201.593C252.352 198.983 254.212 197.093 256.402 197.093C258.142 197.093 259.552 198.293 259.792 199.943L264.052 199.403Z"
                  fill="white"/>
            <path d="M279.656 206.603C279.566 207.503 279.026 208.043 278.336 208.043C277.646 208.043 277.196 207.503 277.286 206.573L278.096 197.333H281.576L281.876 193.913H278.396L278.726 190.043H274.946L274.106 193.913H271.736L271.436 197.333H273.596L272.816 206.063C272.606 208.403 274.166 209.873 276.716 209.873C278.876 209.873 280.496 208.583 280.676 206.603L280.916 203.843H279.896L279.656 206.603Z"
                  fill="white"/>
        </g>
        <rect x="72.0413" y="72.0418" width="258.654" height="258.654" rx="129.327"
              stroke="url(#paint1_linear_829_4439)" stroke-width="1.73593"/>
    </g>
    <defs>
        <filter id="filter0_b_829_4439" x="-102.42" y="-102.419" width="607.576" height="607.575"
                filterUnits="userSpaceOnUse" color-interpolation-filters="sRGB">
            <feFlood flood-opacity="0" result="BackgroundImageFix"/>
            <feGaussianBlur in="BackgroundImage" stdDeviation="86.7965"/>
            <feComposite in2="SourceAlpha" operator="in" result="effect1_backgroundBlur_829_4439"/>
            <feBlend mode="normal" in="SourceGraphic" in2="effect1_backgroundBlur_829_4439" result="shape"/>
        </filter>
        <radialGradient id="paint0_angular_829_4439" cx="0" cy="0" r="1" gradientUnits="userSpaceOnUse"
                        gradientTransform="translate(201.368 201.369) rotate(90) scale(130.195)">
            <stop offset="0.17585" stop-color="white" stop-opacity="0.395276"/>
            <stop offset="0.47185" stop-color="white"/>
            <stop offset="0.891788" stop-color="white" stop-opacity="0"/>
        </radialGradient>
        <linearGradient id="paint1_linear_829_4439" x1="329.207" y1="208.865" x2="69.9745" y2="208.129"
                        gradientUnits="userSpaceOnUse">
            <stop stop-color="white" stop-opacity="0.4"/>
            <stop offset="0.478947" stop-color="white" stop-opacity="0"/>
            <stop offset="1" stop-color="white" stop-opacity="0.4"/>
        </linearGradient>
        <clipPath id="clip0_829_4439">
            <rect x="71.1733" y="71.1738" width="260.39" height="260.39" rx="130.195" fill="white"/>
        </clipPath>
    </defs>
</svg>
