<svg width="181" height="175" viewBox="0 0 181 175" fill="none" xmlns="http://www.w3.org/2000/svg">
    <g filter="url(#filter0_b_836_6715)">
        <rect x="6" width="175" height="175" rx="87.5" fill="url(#paint0_angular_836_6715)" fill-opacity="0.4"/>
        <path d="M49.8235 47.9075L48.7318 42.038L58.7948 39.2956L58.062 35.1422L47.999 37.8845L47.0392 32.6321L58.453 29.5216L57.6158 24.8525L40.7316 29.4537L45.1563 54.0767L62.412 49.3742L61.5412 44.7142L49.8235 47.9075Z"
              fill="white"/>
        <path d="M97.9678 33.074L99.6506 42.552L91.0669 49.7196L97.2083 51.5384L103.62 45.2971L104.289 53.6355L110.431 55.4543L108.712 45.2355L116.727 38.6298L110.754 36.8607L104.703 42.6247L103.941 34.8431L97.9678 33.074Z"
              fill="white"/>
        <path d="M91.333 87.2219C92.8048 89.6573 92.3163 92.6119 90.11 94.2198C87.9038 95.8278 85.2244 95.182 83.7526 92.7466C82.2808 90.3112 82.7976 87.336 84.9756 85.7487C87.1818 84.1408 89.8406 84.7582 91.333 87.2219ZM92.753 107.235L86.9071 97.5503C89.227 98.8912 91.7616 98.8629 93.9678 97.2549C97.8429 94.4308 98.5193 89.0005 95.5758 84.1297C92.6322 79.259 87.8213 77.8279 83.9463 80.6521C81.7118 82.2807 80.6825 84.8498 80.9092 87.7162L79.239 84.9491L75.0245 88.0206L88.482 110.348L92.753 107.235Z"
              fill="white"/>
        <path d="M144.689 67.6842L139.789 65.8007L128.348 89.2256L133.248 91.1091L144.689 67.6842Z" fill="white"/>
        <path d="M59.982 119.707C60.472 113.967 56.762 110.047 50.882 110.047C44.967 110.047 40.592 113.967 40.067 119.707C39.577 125.412 43.287 129.367 49.167 129.367C55.082 129.367 59.457 125.412 59.982 119.707ZM54.732 119.707C54.452 122.647 52.317 124.747 49.587 124.747C46.822 124.747 45.072 122.647 45.352 119.707C45.597 116.767 47.697 114.667 50.462 114.667C53.192 114.667 54.977 116.767 54.732 119.707Z"
              fill="white"/>
        <path d="M103.08 121.412C101.033 121.681 99.4074 123.553 98.5987 126.271L98.4472 122.69L93.2764 123.368L94.0775 141.336L99.283 140.654L98.8791 131.105C98.7372 128.406 100.157 126.314 102.413 126.018C103.177 125.918 104.349 125.976 105.375 126.265L105.187 121.595C104.457 121.408 103.705 121.33 103.08 121.412Z"
              fill="white"/>
        <path d="M133.614 145.958C135.415 144.28 137.736 143.88 139.69 145.111C141.704 146.379 142.171 148.659 141.048 150.64L133.614 145.958ZM138.171 154.288C136.769 155.266 134.691 155.281 133.033 154.237C131.019 152.968 130.563 150.737 131.698 148.474L143.585 156.002C143.85 155.714 144.33 155.148 144.602 154.781C148.039 150.245 147.107 145.025 142.22 141.947C137.363 138.889 131.483 139.818 128.114 144.314C124.592 148.921 125.587 154.304 130.473 157.381C134.175 159.713 138.913 159.677 141.815 157.369L138.171 154.288Z"
              fill="white"/>
        <path d="M54.3172 93.6391L53.771 93.8439L54.3172 93.6391ZM92.1628 109.609L92.4052 109.078L92.1628 109.609ZM112.599 118.314L113.021 118.717L112.599 118.314ZM156.913 93.7C157.14 93.4722 157.14 93.1028 156.913 92.875L153.2 89.1627C152.973 88.9349 152.603 88.9349 152.375 89.1627C152.148 89.3905 152.148 89.7599 152.375 89.9877L155.675 93.2875L152.375 96.5873C152.148 96.8152 152.148 97.1845 152.375 97.4123C152.603 97.6401 152.973 97.6401 153.2 97.4123L156.913 93.7ZM107.301 66.0861L107.832 66.3284L107.301 66.0861ZM1.88158 93.8388C6.00448 82.5245 15.2248 72.299 25.2161 70.0026C30.1801 68.8616 35.3585 69.668 40.2672 73.3034C45.1943 76.9524 49.8856 83.4798 53.771 93.8439L54.8634 93.4344C50.9327 82.9494 46.1336 76.1963 40.9616 72.3659C35.7713 68.522 30.2419 67.6503 24.9548 68.8656C14.4439 71.2814 4.98853 81.9049 0.785417 93.4394L1.88158 93.8388ZM53.771 93.8439C62.5353 117.222 76.1678 123.28 85.7856 122.343C90.5396 121.879 94.3397 119.687 95.907 117.003C96.7004 115.644 96.929 114.135 96.3561 112.697C95.7886 111.273 94.4764 110.025 92.4052 109.078L91.9203 110.139C93.8229 111.009 94.8523 112.075 95.2724 113.129C95.6871 114.17 95.549 115.302 94.8995 116.415C93.5811 118.673 90.1906 120.741 85.6724 121.181C76.7459 122.052 63.5081 116.493 54.8634 93.4344L53.771 93.8439ZM92.4052 109.078C91.0119 108.442 89.8235 108.283 88.9639 108.77C88.0692 109.277 87.8089 110.311 87.8672 111.363C87.9849 113.486 89.4033 116.481 91.6414 119.021C93.8923 121.575 97.0641 123.775 100.796 124.183C104.557 124.593 108.762 123.169 113.021 118.717L112.178 117.91C108.11 122.163 104.245 123.385 100.923 123.023C97.5713 122.657 94.6461 120.666 92.5167 118.25C90.3748 115.819 89.13 113.064 89.0321 111.299C88.9826 110.407 89.2263 109.962 89.539 109.785C89.8866 109.588 90.6086 109.54 91.9203 110.139L92.4052 109.078ZM113.021 118.717C117.549 113.983 120.011 107.052 121.048 99.7007C122.087 92.3396 121.708 84.4878 120.493 77.8353C119.885 74.5079 119.066 71.4698 118.105 68.9352C117.147 66.4101 116.033 64.3459 114.816 62.9997C113.604 61.6593 112.169 60.9147 110.645 61.3943C109.192 61.8518 107.903 63.3635 106.77 65.8437L107.832 66.3284C108.935 63.9123 110.041 62.8077 110.995 62.5072C111.88 62.2289 112.868 62.5849 113.95 63.7821C115.027 64.9734 116.079 66.8839 117.014 69.349C117.945 71.8047 118.747 74.7724 119.345 78.0449C120.541 84.5924 120.912 92.3172 119.893 99.5377C118.873 106.768 116.469 113.424 112.178 117.91L113.021 118.717ZM106.77 65.8437C104.067 71.7635 104.169 76.5711 106.394 80.4164C108.598 84.2251 112.816 86.9638 118.071 88.9334C128.586 92.8736 143.627 93.8708 156.5 93.8708V92.7042C143.638 92.7042 128.782 91.7012 118.481 87.8409C113.329 85.9102 109.41 83.2987 107.404 79.832C105.419 76.402 105.237 72.0092 107.832 66.3284L106.77 65.8437Z"
              fill="url(#paint1_linear_836_6715)"/>
        <rect x="6.58333" y="0.583333" width="173.833" height="173.833" rx="86.9167"
              stroke="url(#paint2_linear_836_6715)" stroke-width="1.16667"/>
    </g>
    <defs>
        <filter id="filter0_b_836_6715" x="-115.881" y="-116.667" width="413.548" height="408.333"
                filterUnits="userSpaceOnUse" color-interpolation-filters="sRGB">
            <feFlood flood-opacity="0" result="BackgroundImageFix"/>
            <feGaussianBlur in="BackgroundImage" stdDeviation="58.3333"/>
            <feComposite in2="SourceAlpha" operator="in" result="effect1_backgroundBlur_836_6715"/>
            <feBlend mode="normal" in="SourceGraphic" in2="effect1_backgroundBlur_836_6715" result="shape"/>
        </filter>
        <radialGradient id="paint0_angular_836_6715" cx="0" cy="0" r="1" gradientUnits="userSpaceOnUse"
                        gradientTransform="translate(93.5 87.5) rotate(90) scale(87.5)">
            <stop offset="0.17585" stop-color="white" stop-opacity="0.395276"/>
            <stop offset="0.47185" stop-color="white"/>
            <stop offset="0.891788" stop-color="white" stop-opacity="0"/>
        </radialGradient>
        <linearGradient id="paint1_linear_836_6715" x1="187.278" y1="92.2994" x2="1.07793" y2="92.2993"
                        gradientUnits="userSpaceOnUse">
            <stop stop-color="white"/>
            <stop offset="1" stop-color="white" stop-opacity="0"/>
        </linearGradient>
        <linearGradient id="paint2_linear_836_6715" x1="179.416" y1="92.5381" x2="5.19428" y2="92.0433"
                        gradientUnits="userSpaceOnUse">
            <stop stop-color="white" stop-opacity="0.4"/>
            <stop offset="0.478947" stop-color="white" stop-opacity="0"/>
            <stop offset="1" stop-color="white" stop-opacity="0.4"/>
        </linearGradient>
    </defs>
</svg>
