<svg width="124" height="40" viewBox="0 0 124 40" fill="none" xmlns="http://www.w3.org/2000/svg">
    <rect width="124" height="40" rx="12" fill="url(#paint0_radial_1618_1736)" fill-opacity="0.4"/>
    <path d="M25.0277 28.6724C24.8804 28.6724 24.739 28.6138 24.6349 28.5096C24.5307 28.4055 24.4721 28.2641 24.4721 28.1168V11.8724C24.4536 11.791 24.4536 11.7065 24.4722 11.6252C24.4908 11.5438 24.5275 11.4677 24.5795 11.4025C24.6316 11.3372 24.6976 11.2846 24.7728 11.2484C24.848 11.2122 24.9304 11.1934 25.0138 11.1934C25.0973 11.1934 25.1796 11.2122 25.2548 11.2484C25.33 11.2846 25.3961 11.3372 25.4481 11.4025C25.5001 11.4677 25.5368 11.5438 25.5554 11.6252C25.574 11.7065 25.574 11.791 25.5555 11.8724V28.1279C25.5528 28.2686 25.4969 28.4031 25.3989 28.5042C25.3009 28.6052 25.1683 28.6653 25.0277 28.6724Z"
          fill="#343536"/>
    <path d="M25.0332 15.5945L23.0666 13.6334C22.9631 13.5293 22.905 13.3885 22.905 13.2417C22.905 13.0949 22.9631 12.9541 23.0666 12.85C23.1707 12.7466 23.3115 12.6885 23.4582 12.6885C23.605 12.6885 23.7458 12.7466 23.8499 12.85L25.0332 14.0278L26.211 12.85C26.3151 12.7466 26.4559 12.6885 26.6027 12.6885C26.7495 12.6885 26.8903 12.7466 26.9944 12.85C27.0978 12.9541 27.1559 13.0949 27.1559 13.2417C27.1559 13.3885 27.0978 13.5293 26.9944 13.6334L25.0332 15.5945Z"
          fill="#343536"/>
    <path d="M26.5834 27.3164C26.4377 27.3158 26.298 27.2579 26.1945 27.1553L25.0001 25.9775L23.8334 27.1553C23.7293 27.2587 23.5885 27.3168 23.4417 27.3168C23.295 27.3168 23.1542 27.2587 23.0501 27.1553C22.998 27.1036 22.9567 27.0422 22.9285 26.9745C22.9003 26.9068 22.8857 26.8342 22.8857 26.7608C22.8857 26.6875 22.9003 26.6149 22.9285 26.5472C22.9567 26.4795 22.998 26.418 23.0501 26.3664L25.0001 24.4053L26.9667 26.3664C27.0188 26.418 27.0601 26.4795 27.0883 26.5472C27.1166 26.6149 27.1311 26.6875 27.1311 26.7608C27.1311 26.8342 27.1166 26.9068 27.0883 26.9745C27.0601 27.0422 27.0188 27.1036 26.9667 27.1553C26.8646 27.2566 26.7272 27.3143 26.5834 27.3164Z"
          fill="#343536"/>
    <path d="M32.1777 24.7222C32.0804 24.7229 31.9846 24.698 31.8999 24.65L17.4555 16.3166C17.3288 16.2415 17.2371 16.1191 17.2006 15.9763C17.1642 15.8336 17.1859 15.6823 17.261 15.5555C17.2978 15.4923 17.3466 15.437 17.4048 15.3927C17.463 15.3485 17.5293 15.3161 17.6001 15.2975C17.6708 15.279 17.7444 15.2745 17.8169 15.2845C17.8893 15.2944 17.959 15.3186 18.0221 15.3555L32.4666 23.6889C32.5736 23.7495 32.6575 23.844 32.705 23.9574C32.7526 24.0709 32.7612 24.1969 32.7294 24.3157C32.6976 24.4346 32.6273 24.5395 32.5295 24.6141C32.4316 24.6886 32.3118 24.7286 32.1888 24.7278L32.1777 24.7222Z"
          fill="#343536"/>
    <path d="M18.3334 18.5392C18.186 18.5584 18.0371 18.5182 17.9194 18.4276C17.8017 18.3369 17.7248 18.2032 17.7056 18.0559C17.6865 17.9085 17.7266 17.7596 17.8173 17.6419C17.9079 17.5242 18.0416 17.4473 18.1889 17.4281L19.8 16.9948L19.3556 15.4059C19.3338 15.3346 19.3265 15.2596 19.3342 15.1855C19.3419 15.1113 19.3645 15.0395 19.4006 14.9742C19.4367 14.909 19.4855 14.8517 19.5442 14.8057C19.6029 14.7597 19.6702 14.726 19.7422 14.7066C19.8142 14.6872 19.8894 14.6825 19.9632 14.6928C20.0371 14.7031 20.1081 14.7281 20.1721 14.7664C20.2361 14.8047 20.2917 14.8554 20.3356 14.9157C20.3795 14.9759 20.4109 15.0444 20.4278 15.117L21.15 17.7781L18.4667 18.517C18.4236 18.531 18.3787 18.5385 18.3334 18.5392Z"
          fill="#343536"/>
    <path d="M30.0278 25.3C29.9017 25.304 29.7779 25.2649 29.6769 25.1892C29.5759 25.1134 29.5038 25.0056 29.4723 24.8833L28.7778 22.2222L31.4556 21.5C31.5269 21.4781 31.6018 21.4709 31.676 21.4786C31.7502 21.4863 31.822 21.5089 31.8873 21.545C31.9525 21.581 32.0098 21.6299 32.0558 21.6886C32.1018 21.7473 32.1355 21.8146 32.1549 21.8866C32.1743 21.9586 32.179 22.0338 32.1687 22.1076C32.1584 22.1815 32.1334 22.2525 32.0951 22.3165C32.0568 22.3804 32.0061 22.4361 31.9458 22.48C31.8856 22.5239 31.8171 22.5553 31.7445 22.5722L30.1334 23.0055L30.5667 24.6167C30.604 24.7588 30.5834 24.91 30.5095 25.037C30.4356 25.1641 30.3143 25.2566 30.1723 25.2944C30.1248 25.3047 30.0759 25.3066 30.0278 25.3Z"
          fill="#343536"/>
    <path d="M17.7445 24.7224C17.6215 24.7233 17.5017 24.6833 17.4038 24.6087C17.306 24.5342 17.2357 24.4292 17.2039 24.3104C17.1721 24.1915 17.1807 24.0655 17.2283 23.9521C17.2758 23.8386 17.3597 23.7442 17.4667 23.6835L31.9112 15.3502C32.0381 15.2773 32.1886 15.2574 32.3301 15.2949C32.4715 15.3323 32.5925 15.4241 32.6667 15.5502C32.7037 15.6133 32.7278 15.683 32.7378 15.7555C32.7477 15.8279 32.7433 15.9016 32.7247 15.9723C32.7061 16.043 32.6738 16.1093 32.6295 16.1675C32.5852 16.2257 32.5299 16.2746 32.4667 16.3113L18.0223 24.6446C17.9381 24.6946 17.8423 24.7214 17.7445 24.7224Z"
          fill="#343536"/>
    <path d="M19.8945 25.3001C19.8467 25.3085 19.7978 25.3085 19.75 25.3001C19.608 25.2623 19.4867 25.1697 19.4128 25.0427C19.3389 24.9156 19.3183 24.7645 19.3556 24.6223L19.7889 23.0112L18.1778 22.5779C18.1045 22.56 18.0356 22.5273 17.9754 22.4819C17.9151 22.4365 17.8648 22.3793 17.8273 22.3138C17.7899 22.2483 17.7662 22.1759 17.7577 22.101C17.7492 22.026 17.756 21.9501 17.7778 21.8779C17.7965 21.8069 17.829 21.7404 17.8736 21.6821C17.9181 21.6238 17.9737 21.5749 18.0373 21.5383C18.1008 21.5016 18.171 21.4779 18.2437 21.4685C18.3165 21.459 18.3904 21.4641 18.4611 21.4834L21.15 22.2223L20.4278 24.9001C20.3941 25.0155 20.324 25.1169 20.2278 25.189C20.1316 25.2611 20.0147 25.3001 19.8945 25.3001Z"
          fill="#343536"/>
    <path d="M31.6001 18.5392C31.5522 18.5469 31.5035 18.5469 31.4556 18.5392L28.7778 17.7781L29.4945 15.0947C29.5089 15.0186 29.5391 14.9462 29.5832 14.8824C29.6273 14.8186 29.6842 14.7648 29.7503 14.7243C29.8165 14.6838 29.8904 14.6576 29.9672 14.6474C30.0441 14.6372 30.1222 14.6432 30.1967 14.665C30.2711 14.6868 30.3401 14.724 30.3993 14.7741C30.4585 14.8242 30.5065 14.8861 30.5403 14.9559C30.5741 15.0257 30.5929 15.1018 30.5956 15.1793C30.5982 15.2567 30.5846 15.3339 30.5556 15.4059L30.1223 17.0114L31.7334 17.4447C31.8807 17.4639 32.0144 17.5408 32.1051 17.6585C32.1957 17.7763 32.2359 17.9252 32.2167 18.0725C32.1976 18.2199 32.1207 18.3536 32.0029 18.4442C31.8852 18.5348 31.7363 18.575 31.5889 18.5559L31.6001 18.5392Z"
          fill="#343536"/>
    <path d="M46.2784 25.5V13.8636H53.4943V15.375H48.0341V18.9205H52.9773V20.4261H48.0341V25.5H46.2784ZM55.6534 25.5V13.8636H59.8011C60.7027 13.8636 61.4508 14.0189 62.0455 14.3295C62.6439 14.6402 63.0909 15.0701 63.3864 15.6193C63.6818 16.1648 63.8295 16.7955 63.8295 17.5114C63.8295 18.2235 63.6799 18.8504 63.3807 19.392C63.0852 19.9299 62.6383 20.3485 62.0398 20.6477C61.4451 20.947 60.697 21.0966 59.7955 21.0966H56.6534V19.5852H59.6364C60.2045 19.5852 60.6667 19.5038 61.0227 19.3409C61.3826 19.178 61.6458 18.9413 61.8125 18.6307C61.9792 18.3201 62.0625 17.947 62.0625 17.5114C62.0625 17.072 61.9773 16.6913 61.8068 16.3693C61.6402 16.0473 61.3769 15.8011 61.017 15.6307C60.661 15.4564 60.1932 15.3693 59.6136 15.3693H57.4091V25.5H55.6534ZM61.3977 20.25L64.2727 25.5H62.2727L59.4545 20.25H61.3977ZM76.0739 19.6818C76.0739 20.9242 75.8466 21.9924 75.392 22.8864C74.9375 23.7765 74.3144 24.4621 73.5227 24.9432C72.7348 25.4205 71.839 25.6591 70.8352 25.6591C69.8277 25.6591 68.928 25.4205 68.1364 24.9432C67.3485 24.4621 66.7273 23.7746 66.2727 22.8807C65.8182 21.9867 65.5909 20.9205 65.5909 19.6818C65.5909 18.4394 65.8182 17.3731 66.2727 16.483C66.7273 15.589 67.3485 14.9034 68.1364 14.4261C68.928 13.9451 69.8277 13.7045 70.8352 13.7045C71.839 13.7045 72.7348 13.9451 73.5227 14.4261C74.3144 14.9034 74.9375 15.589 75.392 16.483C75.8466 17.3731 76.0739 18.4394 76.0739 19.6818ZM74.3352 19.6818C74.3352 18.7348 74.1818 17.9375 73.875 17.2898C73.572 16.6383 73.1553 16.1458 72.625 15.8125C72.0985 15.4754 71.5019 15.3068 70.8352 15.3068C70.1648 15.3068 69.5663 15.4754 69.0398 15.8125C68.5133 16.1458 68.0966 16.6383 67.7898 17.2898C67.4867 17.9375 67.3352 18.7348 67.3352 19.6818C67.3352 20.6288 67.4867 21.428 67.7898 22.0795C68.0966 22.7273 68.5133 23.2197 69.0398 23.5568C69.5663 23.8902 70.1648 24.0568 70.8352 24.0568C71.5019 24.0568 72.0985 23.8902 72.625 23.5568C73.1553 23.2197 73.572 22.7273 73.875 22.0795C74.1818 21.428 74.3352 20.6288 74.3352 19.6818ZM77.9616 25.5V24.3295L84.081 15.375H77.9105V13.8636H86.2287V15.0341L80.1094 23.9886H86.2798V25.5H77.9616ZM88.4815 25.5V13.8636H95.777V15.375H90.2372V18.9205H95.3963V20.4261H90.2372V23.9886H95.8452V25.5H88.4815ZM107.514 13.8636V25.5H105.901L99.9858 16.9659H99.8778V25.5H98.1222V13.8636H99.7472L105.668 22.4091H105.776V13.8636H107.514Z"
          fill="#343536"/>
    <defs>
        <radialGradient id="paint0_radial_1618_1736" cx="0" cy="0" r="1" gradientUnits="userSpaceOnUse"
                        gradientTransform="translate(37.3973 31.1126) rotate(-18.045) scale(87.4798 40.4679)">
            <stop stop-color="#AF5F5F" stop-opacity="0.02"/>
            <stop offset="1" stop-color="#AF5F5F"/>
        </radialGradient>
    </defs>
</svg>
