<svg width="114" height="40" viewBox="0 0 114 40" fill="none" xmlns="http://www.w3.org/2000/svg">
    <rect width="114" height="40" rx="12" fill="url(#paint0_radial_1618_1748)" fill-opacity="0.4"/>
    <path d="M25.0001 11.6663C29.6025 11.6663 33.3334 15.3973 33.3334 19.9997C33.3334 24.602 29.6025 28.333 25.0001 28.333C20.3977 28.333 16.6667 24.602 16.6667 19.9997C16.6667 15.3973 20.3977 11.6663 25.0001 11.6663Z"
          stroke="#343536" stroke-linecap="round" stroke-linejoin="round"/>
    <path d="M25 16.6667V20" stroke="#343536" stroke-linecap="round" stroke-linejoin="round"/>
    <path d="M25 23.333H25.0083" stroke="#343536" stroke-linecap="round" stroke-linejoin="round"/>
    <path d="M46.2784 25.5V13.8636H53.4943V15.375H48.0341V18.9205H52.9773V20.4261H48.0341V25.5H46.2784ZM55.1832 25.5H53.3196L57.5071 13.8636H59.5355L63.723 25.5H61.8594L58.5696 15.9773H58.4787L55.1832 25.5ZM55.4957 20.9432H61.5412V22.4205H55.4957V20.9432ZM67.1591 13.8636V25.5H65.4034V13.8636H67.1591ZM69.7159 25.5V13.8636H71.4716V23.9886H76.7443V25.5H69.7159ZM78.7472 25.5V13.8636H86.0426V15.375H80.5028V18.9205H85.6619V20.4261H80.5028V23.9886H86.1108V25.5H78.7472ZM92.1548 25.5H88.3878V13.8636H92.2741C93.4143 13.8636 94.3935 14.0966 95.2116 14.5625C96.0298 15.0246 96.6567 15.6894 97.0923 16.5568C97.5317 17.4205 97.7514 18.4564 97.7514 19.6648C97.7514 20.8769 97.5298 21.9186 97.0866 22.7898C96.6473 23.661 96.0109 24.3314 95.1776 24.8011C94.3442 25.267 93.3366 25.5 92.1548 25.5ZM90.1435 23.9659H92.0582C92.9446 23.9659 93.6813 23.7992 94.2685 23.4659C94.8556 23.1288 95.295 22.642 95.5866 22.0057C95.8783 21.3655 96.0241 20.5852 96.0241 19.6648C96.0241 18.7519 95.8783 17.9773 95.5866 17.3409C95.2988 16.7045 94.8688 16.2216 94.2969 15.892C93.7249 15.5625 93.0147 15.3977 92.1662 15.3977H90.1435V23.9659Z"
          fill="#343536"/>
    <defs>
        <radialGradient id="paint0_radial_1618_1748" cx="0" cy="0" r="1" gradientUnits="userSpaceOnUse"
                        gradientTransform="translate(34.3814 31.1126) rotate(-19.5126) scale(81.1286 40.1169)">
            <stop stop-color="#AF5F5F" stop-opacity="0.02"/>
            <stop offset="1" stop-color="#AF5F5F"/>
        </radialGradient>
    </defs>
</svg>
