<svg width="150" height="40" viewBox="0 0 150 40" fill="none" xmlns="http://www.w3.org/2000/svg">
    <rect width="150" height="40" rx="12" fill="url(#paint0_radial_1618_1726)" fill-opacity="0.4"/>
    <path d="M22.5001 27.5V18.3333H19.1667L25.0001 12.5L30.8334 18.3333H27.5001V27.5H22.5001Z" stroke="#343536"
          stroke-linecap="round" stroke-linejoin="round"/>
    <path d="M27.5204 23.1338C29.1544 23.3682 30.2626 23.8234 30.2626 24.3465C30.2626 25.1092 27.9062 25.7276 24.9995 25.7276C22.0927 25.7276 19.7363 25.1092 19.7363 24.3465C19.7363 23.8234 20.8446 23.3682 22.4785 23.1338"
          stroke="#343536"/>
    <path d="M27.5204 20.5557C29.1544 20.7901 30.2626 21.2452 30.2626 21.7683C30.2626 22.5311 27.9062 23.1494 24.9995 23.1494C22.0927 23.1494 19.7363 22.5311 19.7363 21.7683C19.7363 21.2452 20.8446 20.7901 22.4785 20.5557"
          stroke="#343536"/>
    <path d="M46.2784 25.5V13.8636H53.5739V15.375H48.0341V18.9205H53.1932V20.4261H48.0341V23.9886H53.642V25.5H46.2784ZM65.3111 13.8636V25.5H63.6974L57.7827 16.9659H57.6747V25.5H55.919V13.8636H57.544L63.4645 22.4091H63.5724V13.8636H65.3111ZM67.8722 25.5V13.8636H69.6278V18.9205H75.429V13.8636H77.1903V25.5H75.429V20.4261H69.6278V25.5H67.8722ZM80.7301 25.5H78.8665L83.054 13.8636H85.0824L89.2699 25.5H87.4062L84.1165 15.9773H84.0256L80.7301 25.5ZM81.0426 20.9432H87.0881V22.4205H81.0426V20.9432ZM100.342 13.8636V25.5H98.7287L92.8139 16.9659H92.706V25.5H90.9503V13.8636H92.5753L98.4957 22.4091H98.6037V13.8636H100.342ZM112.568 17.6477H110.795C110.727 17.2689 110.6 16.9356 110.415 16.6477C110.229 16.3598 110.002 16.1155 109.733 15.9148C109.464 15.714 109.163 15.5625 108.83 15.4602C108.5 15.358 108.15 15.3068 107.778 15.3068C107.108 15.3068 106.508 15.4754 105.977 15.8125C105.451 16.1496 105.034 16.6439 104.727 17.2955C104.424 17.947 104.273 18.7424 104.273 19.6818C104.273 20.6288 104.424 21.428 104.727 22.0795C105.034 22.7311 105.453 23.2235 105.983 23.5568C106.513 23.8902 107.11 24.0568 107.773 24.0568C108.14 24.0568 108.489 24.0076 108.818 23.9091C109.152 23.8068 109.453 23.6572 109.722 23.4602C109.991 23.2633 110.218 23.0227 110.403 22.7386C110.593 22.4508 110.723 22.1212 110.795 21.75L112.568 21.7557C112.473 22.3277 112.29 22.8542 112.017 23.3352C111.748 23.8125 111.402 24.2254 110.977 24.5739C110.557 24.9186 110.076 25.1856 109.534 25.375C108.992 25.5644 108.402 25.6591 107.761 25.6591C106.754 25.6591 105.856 25.4205 105.068 24.9432C104.28 24.4621 103.659 23.7746 103.205 22.8807C102.754 21.9867 102.528 20.9205 102.528 19.6818C102.528 18.4394 102.756 17.3731 103.21 16.483C103.665 15.589 104.286 14.9034 105.074 14.4261C105.862 13.9451 106.758 13.7045 107.761 13.7045C108.379 13.7045 108.955 13.7936 109.489 13.9716C110.027 14.1458 110.509 14.4034 110.938 14.7443C111.366 15.0814 111.72 15.4943 112 15.983C112.28 16.4678 112.47 17.0227 112.568 17.6477ZM114.669 25.5V13.8636H121.964V15.375H116.425V18.9205H121.584V20.4261H116.425V23.9886H122.033V25.5H114.669ZM128.077 25.5H124.31V13.8636H128.196C129.336 13.8636 130.315 14.0966 131.134 14.5625C131.952 15.0246 132.579 15.6894 133.014 16.5568C133.454 17.4205 133.673 18.4564 133.673 19.6648C133.673 20.8769 133.452 21.9186 133.009 22.7898C132.569 23.661 131.933 24.3314 131.099 24.8011C130.266 25.267 129.259 25.5 128.077 25.5ZM126.065 23.9659H127.98C128.866 23.9659 129.603 23.7992 130.19 23.4659C130.777 23.1288 131.217 22.642 131.509 22.0057C131.8 21.3655 131.946 20.5852 131.946 19.6648C131.946 18.7519 131.8 17.9773 131.509 17.3409C131.221 16.7045 130.791 16.2216 130.219 15.892C129.647 15.5625 128.937 15.3977 128.088 15.3977H126.065V23.9659Z"
          fill="#343536"/>
    <defs>
        <radialGradient id="paint0_radial_1618_1726" cx="0" cy="0" r="1" gradientUnits="userSpaceOnUse"
                        gradientTransform="translate(45.2386 31.1126) rotate(-15.0732) scale(104.202 41.097)">
            <stop stop-color="#AF5F5F" stop-opacity="0.02"/>
            <stop offset="1" stop-color="#AF5F5F"/>
        </radialGradient>
    </defs>
</svg>
