<svg width="137" height="40" viewBox="0 0 137 40" fill="none" xmlns="http://www.w3.org/2000/svg">
    <rect width="137" height="40" rx="12" fill="url(#paint0_radial_1618_1732)" fill-opacity="0.4"/>
    <path d="M19.1667 26.6663H30.8334M16.6667 13.333L19.1667 23.333H30.8334L33.3334 13.333L28.3334 19.1663L25.0001 13.333L21.6667 19.1663L16.6667 13.333Z"
          stroke="#343536" stroke-linecap="round" stroke-linejoin="round"/>
    <path d="M54.1534 17.5398C54.0436 17.1951 53.8958 16.8864 53.7102 16.6136C53.5284 16.3371 53.3106 16.1023 53.0568 15.9091C52.803 15.7121 52.5133 15.5625 52.1875 15.4602C51.8655 15.358 51.5114 15.3068 51.125 15.3068C50.4697 15.3068 49.8788 15.4754 49.3523 15.8125C48.8258 16.1496 48.4091 16.6439 48.1023 17.2955C47.7992 17.9432 47.6477 18.7367 47.6477 19.6761C47.6477 20.6193 47.8011 21.4167 48.108 22.0682C48.4148 22.7197 48.8352 23.214 49.3693 23.5511C49.9034 23.8883 50.5114 24.0568 51.1932 24.0568C51.8258 24.0568 52.3769 23.928 52.8466 23.6705C53.3201 23.4129 53.6856 23.0492 53.9432 22.5795C54.2045 22.1061 54.3352 21.5492 54.3352 20.9091L54.7898 20.9943H51.4602V19.5455H56.0341V20.8693C56.0341 21.8466 55.8258 22.6951 55.4091 23.4148C54.9962 24.1307 54.4242 24.6837 53.6932 25.0739C52.9659 25.464 52.1326 25.6591 51.1932 25.6591C50.1402 25.6591 49.2159 25.4167 48.4205 24.9318C47.6288 24.447 47.0114 23.7595 46.5682 22.8693C46.125 21.9754 45.9034 20.9148 45.9034 19.6875C45.9034 18.7595 46.0322 17.9261 46.2898 17.1875C46.5473 16.4489 46.9091 15.822 47.375 15.3068C47.8447 14.7879 48.3958 14.392 49.0284 14.1193C49.6648 13.8428 50.3598 13.7045 51.1136 13.7045C51.7424 13.7045 52.3277 13.7973 52.8693 13.983C53.4148 14.1686 53.8996 14.4318 54.3239 14.7727C54.7519 15.1136 55.1061 15.5189 55.3864 15.9886C55.6667 16.4545 55.8561 16.9716 55.9545 17.5398H54.1534ZM68.3707 19.6818C68.3707 20.9242 68.1435 21.9924 67.6889 22.8864C67.2344 23.7765 66.6113 24.4621 65.8196 24.9432C65.0317 25.4205 64.1359 25.6591 63.1321 25.6591C62.1245 25.6591 61.2249 25.4205 60.4332 24.9432C59.6454 24.4621 59.0241 23.7746 58.5696 22.8807C58.1151 21.9867 57.8878 20.9205 57.8878 19.6818C57.8878 18.4394 58.1151 17.3731 58.5696 16.483C59.0241 15.589 59.6454 14.9034 60.4332 14.4261C61.2249 13.9451 62.1245 13.7045 63.1321 13.7045C64.1359 13.7045 65.0317 13.9451 65.8196 14.4261C66.6113 14.9034 67.2344 15.589 67.6889 16.483C68.1435 17.3731 68.3707 18.4394 68.3707 19.6818ZM66.6321 19.6818C66.6321 18.7348 66.4787 17.9375 66.1719 17.2898C65.8688 16.6383 65.4522 16.1458 64.9219 15.8125C64.3954 15.4754 63.7988 15.3068 63.1321 15.3068C62.4616 15.3068 61.8632 15.4754 61.3366 15.8125C60.8101 16.1458 60.3935 16.6383 60.0866 17.2898C59.7836 17.9375 59.6321 18.7348 59.6321 19.6818C59.6321 20.6288 59.7836 21.428 60.0866 22.0795C60.3935 22.7273 60.8101 23.2197 61.3366 23.5568C61.8632 23.8902 62.4616 24.0568 63.1321 24.0568C63.7988 24.0568 64.3954 23.8902 64.9219 23.5568C65.4522 23.2197 65.8688 22.7273 66.1719 22.0795C66.4787 21.428 66.6321 20.6288 66.6321 19.6818ZM74.3267 25.5H70.5597V13.8636H74.446C75.5862 13.8636 76.5653 14.0966 77.3835 14.5625C78.2017 15.0246 78.8286 15.6894 79.2642 16.5568C79.7036 17.4205 79.9233 18.4564 79.9233 19.6648C79.9233 20.8769 79.7017 21.9186 79.2585 22.7898C78.8191 23.661 78.1828 24.3314 77.3494 24.8011C76.5161 25.267 75.5085 25.5 74.3267 25.5ZM72.3153 23.9659H74.2301C75.1165 23.9659 75.8532 23.7992 76.4403 23.4659C77.0275 23.1288 77.4669 22.642 77.7585 22.0057C78.0502 21.3655 78.196 20.5852 78.196 19.6648C78.196 18.7519 78.0502 17.9773 77.7585 17.3409C77.4706 16.7045 77.0407 16.2216 76.4688 15.892C75.8968 15.5625 75.1866 15.3977 74.3381 15.3977H72.3153V23.9659ZM87.1122 18.9432V20.4205H81.9531V18.9432H87.1122ZM87.9858 15.375V13.8636H96.9915V15.375H93.3608V25.5H91.6108V15.375H87.9858ZM98.9815 25.5V13.8636H106.277V15.375H100.737V18.9205H105.896V20.4261H100.737V23.9886H106.345V25.5H98.9815ZM110.378 13.8636V25.5H108.622V13.8636H110.378ZM112.935 25.5V13.8636H117.082C117.984 13.8636 118.732 14.0189 119.327 14.3295C119.925 14.6402 120.372 15.0701 120.668 15.6193C120.963 16.1648 121.111 16.7955 121.111 17.5114C121.111 18.2235 120.961 18.8504 120.662 19.392C120.366 19.9299 119.92 20.3485 119.321 20.6477C118.726 20.947 117.978 21.0966 117.077 21.0966H113.935V19.5852H116.918C117.486 19.5852 117.948 19.5038 118.304 19.3409C118.664 19.178 118.927 18.9413 119.094 18.6307C119.26 18.3201 119.344 17.947 119.344 17.5114C119.344 17.072 119.259 16.6913 119.088 16.3693C118.921 16.0473 118.658 15.8011 118.298 15.6307C117.942 15.4564 117.474 15.3693 116.895 15.3693H114.69V25.5H112.935ZM118.679 20.25L121.554 25.5H119.554L116.736 20.25H118.679Z"
          fill="#343536"/>
    <defs>
        <radialGradient id="paint0_radial_1618_1732" cx="0" cy="0" r="1" gradientUnits="userSpaceOnUse"
                        gradientTransform="translate(41.3179 31.1126) rotate(-16.4295) scale(95.8092 40.8235)">
            <stop stop-color="#AF5F5F" stop-opacity="0.02"/>
            <stop offset="1" stop-color="#AF5F5F"/>
        </radialGradient>
    </defs>
</svg>
