<svg width="137" height="40" viewBox="0 0 137 40" fill="none" xmlns="http://www.w3.org/2000/svg">
    <rect width="137" height="40" rx="12" fill="url(#paint0_radial_1618_1755)" fill-opacity="0.4"/>
    <path d="M22.0834 22.0833C22.6359 22.0833 23.1659 21.8638 23.5566 21.4731C23.9473 21.0824 24.1667 20.5525 24.1667 20C24.1667 18.85 23.7501 18.3333 23.3334 17.5C22.4401 15.7142 23.1467 14.1217 25.0001 12.5C25.4167 14.5833 26.6667 16.5833 28.3334 17.9167C30.0001 19.25 30.8334 20.8333 30.8334 22.5C30.8334 23.266 30.6825 24.0246 30.3894 24.7323C30.0962 25.4401 29.6665 26.0831 29.1249 26.6248C28.5832 27.1665 27.9401 27.5961 27.2324 27.8893C26.5247 28.1825 25.7661 28.3333 25.0001 28.3333C24.234 28.3333 23.4755 28.1825 22.7678 27.8893C22.06 27.5961 21.417 27.1665 20.8753 26.6248C20.3336 26.0831 19.9039 25.4401 19.6108 24.7323C19.3176 24.0246 19.1667 23.266 19.1667 22.5C19.1667 21.5392 19.5276 20.5883 20.0001 20C20.0001 20.5525 20.2196 21.0824 20.6103 21.4731C21.001 21.8638 21.5309 22.0833 22.0834 22.0833V22.0833Z"
          stroke="#343536" stroke-linecap="round" stroke-linejoin="round"/>
    <path d="M55.9432 17.6477H54.1705C54.1023 17.2689 53.9754 16.9356 53.7898 16.6477C53.6042 16.3598 53.3769 16.1155 53.108 15.9148C52.839 15.714 52.5379 15.5625 52.2045 15.4602C51.875 15.358 51.5246 15.3068 51.1534 15.3068C50.483 15.3068 49.8826 15.4754 49.3523 15.8125C48.8258 16.1496 48.4091 16.6439 48.1023 17.2955C47.7992 17.947 47.6477 18.7424 47.6477 19.6818C47.6477 20.6288 47.7992 21.428 48.1023 22.0795C48.4091 22.7311 48.8277 23.2235 49.358 23.5568C49.8883 23.8902 50.4848 24.0568 51.1477 24.0568C51.5152 24.0568 51.8636 24.0076 52.1932 23.9091C52.5265 23.8068 52.8277 23.6572 53.0966 23.4602C53.3655 23.2633 53.5928 23.0227 53.7784 22.7386C53.9678 22.4508 54.0985 22.1212 54.1705 21.75L55.9432 21.7557C55.8485 22.3277 55.6648 22.8542 55.392 23.3352C55.1231 23.8125 54.7765 24.2254 54.3523 24.5739C53.9318 24.9186 53.4508 25.1856 52.9091 25.375C52.3674 25.5644 51.7765 25.6591 51.1364 25.6591C50.1288 25.6591 49.2311 25.4205 48.4432 24.9432C47.6553 24.4621 47.0341 23.7746 46.5795 22.8807C46.1288 21.9867 45.9034 20.9205 45.9034 19.6818C45.9034 18.4394 46.1307 17.3731 46.5852 16.483C47.0398 15.589 47.661 14.9034 48.4489 14.4261C49.2367 13.9451 50.1326 13.7045 51.1364 13.7045C51.7538 13.7045 52.3295 13.7936 52.8636 13.9716C53.4015 14.1458 53.8845 14.4034 54.3125 14.7443C54.7405 15.0814 55.0947 15.4943 55.375 15.983C55.6553 16.4678 55.8447 17.0227 55.9432 17.6477ZM58.044 25.5V13.8636H59.7997V18.9205H65.6009V13.8636H67.3622V25.5H65.6009V20.4261H59.7997V25.5H58.044ZM70.902 25.5H69.0384L73.2259 13.8636H75.2543L79.4418 25.5H77.5781L74.2884 15.9773H74.1974L70.902 25.5ZM71.2145 20.9432H77.2599V22.4205H71.2145V20.9432ZM81.1222 25.5V13.8636H85.2699C86.1714 13.8636 86.9195 14.0189 87.5142 14.3295C88.1127 14.6402 88.5597 15.0701 88.8551 15.6193C89.1506 16.1648 89.2983 16.7955 89.2983 17.5114C89.2983 18.2235 89.1487 18.8504 88.8494 19.392C88.554 19.9299 88.107 20.3485 87.5085 20.6477C86.9138 20.947 86.1657 21.0966 85.2642 21.0966H82.1222V19.5852H85.1051C85.6733 19.5852 86.1354 19.5038 86.4915 19.3409C86.8513 19.178 87.1146 18.9413 87.2812 18.6307C87.4479 18.3201 87.5312 17.947 87.5312 17.5114C87.5312 17.072 87.446 16.6913 87.2756 16.3693C87.1089 16.0473 86.8456 15.8011 86.4858 15.6307C86.1297 15.4564 85.6619 15.3693 85.0824 15.3693H82.8778V25.5H81.1222ZM86.8665 20.25L89.7415 25.5H87.7415L84.9233 20.25H86.8665ZM91.4347 25.5V13.8636H95.5824C96.4839 13.8636 97.232 14.0189 97.8267 14.3295C98.4252 14.6402 98.8722 15.0701 99.1676 15.6193C99.4631 16.1648 99.6108 16.7955 99.6108 17.5114C99.6108 18.2235 99.4612 18.8504 99.1619 19.392C98.8665 19.9299 98.4195 20.3485 97.821 20.6477C97.2263 20.947 96.4782 21.0966 95.5767 21.0966H92.4347V19.5852H95.4176C95.9858 19.5852 96.4479 19.5038 96.804 19.3409C97.1638 19.178 97.4271 18.9413 97.5938 18.6307C97.7604 18.3201 97.8438 17.947 97.8438 17.5114C97.8438 17.072 97.7585 16.6913 97.5881 16.3693C97.4214 16.0473 97.1581 15.8011 96.7983 15.6307C96.4422 15.4564 95.9744 15.3693 95.3949 15.3693H93.1903V25.5H91.4347ZM97.179 20.25L100.054 25.5H98.054L95.2358 20.25H97.179ZM101.747 25.5V13.8636H109.043V15.375H103.503V18.9205H108.662V20.4261H103.503V23.9886H109.111V25.5H101.747ZM115.155 25.5H111.388V13.8636H115.274C116.414 13.8636 117.393 14.0966 118.212 14.5625C119.03 15.0246 119.657 15.6894 120.092 16.5568C120.532 17.4205 120.751 18.4564 120.751 19.6648C120.751 20.8769 120.53 21.9186 120.087 22.7898C119.647 23.661 119.011 24.3314 118.178 24.8011C117.344 25.267 116.337 25.5 115.155 25.5ZM113.143 23.9659H115.058C115.945 23.9659 116.681 23.7992 117.268 23.4659C117.856 23.1288 118.295 22.642 118.587 22.0057C118.878 21.3655 119.024 20.5852 119.024 19.6648C119.024 18.7519 118.878 17.9773 118.587 17.3409C118.299 16.7045 117.869 16.2216 117.297 15.892C116.725 15.5625 116.015 15.3977 115.166 15.3977H113.143V23.9659Z"
          fill="#343536"/>
    <defs>
        <radialGradient id="paint0_radial_1618_1755" cx="0" cy="0" r="1" gradientUnits="userSpaceOnUse"
                        gradientTransform="translate(41.3179 31.1126) rotate(-16.4295) scale(95.8092 40.8235)">
            <stop stop-color="#AF5F5F" stop-opacity="0.02"/>
            <stop offset="1" stop-color="#AF5F5F"/>
        </radialGradient>
    </defs>
</svg>
