<svg width="420" height="685" viewBox="100 0 420 685" fill="none" xmlns="http://www.w3.org/2000/svg">
    <path opacity="0.9"
          d="M221.231 345.279C221.231 345.279 219.014 363.493 199.127 363.475C185.135 363.462 176.344 353.598 176.356 340.838C176.368 328.078 184.385 318.23 198.377 318.243C218.264 318.261 218.95 337.885 218.95 337.885L228.985 334.903C228.985 334.903 226.631 310.877 198.383 310.851C177.88 310.832 166.164 323.405 166.148 340.829C166.132 358.252 178.528 370.847 199.12 370.866C228.159 370.893 230.556 348.016 230.556 348.016L221.231 345.279Z"
          fill="#232425"/>
    <path opacity="0.9"
          d="M247.395 327.528C234.723 327.517 232.153 348.106 231.97 354.97L231.995 328.394L224.427 328.387L223.107 328.386L223.069 369.833L231.956 369.841L231.962 363.505C231.965 361.041 231.989 334.114 242.549 334.124C246.509 334.127 249.586 336.946 250.109 342.843L259.085 342.851C258.566 333.259 254.699 327.535 247.395 327.528Z"
          fill="#232425"/>
    <path opacity="0.9"
          d="M263.079 397.325C257.447 397.32 254.897 394.941 254.284 391.685C253.671 388.076 255.435 384.206 262.036 382.98L271.101 381.405C278.758 380.092 282.901 373.232 284.576 369.889L303.885 328.548L293.766 328.538L279.655 361.877L265.87 328.513L255.574 328.503L270.504 360.636L274.72 369.792L274.808 369.88C278.145 376.747 274.622 380.352 268.989 381.315L258.868 383.065C249.627 384.729 244.785 387.012 244.78 392.468C244.772 400.476 252.953 403.915 263.161 403.925C284.808 403.945 287.022 389.075 287.022 389.075L277.785 386.427C277.785 386.427 279.094 397.34 263.079 397.325Z"
          fill="#232425"/>
    <path opacity="0.9"
          d="M350.985 347.335L350.985 347.247C350.899 344.959 350.373 342.758 349.583 340.558C349.496 340.206 349.32 339.853 349.144 339.501C349.144 339.413 349.056 339.325 349.057 339.237C348.881 338.885 348.705 338.445 348.53 338.093C348.53 338.093 348.53 338.093 348.53 338.005C345.455 332.018 339.915 327.613 333.844 327.607C324.516 327.599 320.023 333.226 316.322 338.151L316.331 328.471L308.763 328.464L307.883 328.463L307.83 386.454L316.718 386.462L316.74 361.823L316.741 360.679C318.585 365.52 322.452 370.804 330.284 370.899C342.691 370.999 351.06 361.855 351.071 349.183C351.072 348.567 350.984 347.951 350.985 347.335ZM329.498 364.123C328.882 364.21 328.178 364.209 327.474 364.209C321.842 364.203 318.325 361.472 316.568 357.423L316.483 354.607C316.483 354.431 316.483 354.255 316.484 353.991C316.397 352.407 316.399 350.735 316.4 349.239L316.321 338.943C319.053 335.337 322.929 330.677 329.177 330.683C329.177 330.683 329.265 330.683 329.353 330.683C329.617 330.683 329.793 330.683 330.057 330.772C332.785 330.95 334.896 331.92 336.566 333.594C336.566 333.594 336.566 333.594 336.654 333.594C340.083 336.589 342.366 341.695 342.361 347.415C342.353 356.567 336.626 363.953 329.498 364.123Z"
          fill="#232425"/>
    <path opacity="0.9"
          d="M370.565 359.409C370.565 359.409 367.569 364.158 362.201 364.329C357.449 364.413 354.987 361.418 354.993 354.907L355.017 329.387L372.001 329.403L372.001 328.523L355.018 328.507L355.032 313.195L346.491 319.083L346.482 328.499L336.89 328.49L336.889 329.37L346.129 329.379L346.105 355.866C346.095 366.25 351.459 370.919 360.347 370.927C369.498 370.936 373.464 365.043 373.464 365.043L370.565 359.409Z"
          fill="#232425"/>
    <path opacity="0.9"
          d="M389.957 324.984C376.027 329.665 370.824 341.532 374.691 353.043C378.587 364.638 389.872 370.872 403.803 366.192C417.817 361.483 423.048 349.699 419.152 338.105C415.284 326.593 403.971 320.276 389.957 324.984ZM401.701 359.935C393.526 362.682 386.559 358.525 383.7 350.016C380.841 341.508 383.912 334.071 392.087 331.324C400.178 328.605 407.284 332.623 410.143 341.132C413.002 349.64 409.792 357.217 401.701 359.935Z"
          fill="#232425"/>
    <path opacity="0.9"
          d="M422.046 289.327L421.708 289.945L448.042 326.901L403.772 322.762L398.876 331.719L444.369 334.721L448.674 326.845L422.046 289.327Z"
          fill="#232425"/>
    <path opacity="0.9"
          d="M441.359 260.817C441.359 260.817 451.653 263.378 451.642 275.434C451.634 283.97 446.084 290.213 436.228 290.203C433.852 290.201 431.565 289.759 429.63 289.141L429.66 255.614C422.355 257.191 414.254 262.464 414.241 276.895C414.228 291.239 423.724 299.784 436.22 299.795C450.475 299.808 458.317 288.816 458.329 276.584C458.347 256.697 443.302 253.955 443.302 253.955L441.359 260.817ZM421.017 276.902C421.023 269.95 424.371 265.993 429.125 264.237L429.102 288.965C424.176 287.024 421.011 282.974 421.017 276.902Z"
          fill="#232425"/>
    <path opacity="0.9"
          d="M414.278 237.025C414.266 249.697 434.856 252.268 441.719 252.45L415.144 252.426L415.137 259.994L415.136 261.314L456.583 261.352L456.591 252.464L450.255 252.458C447.791 252.456 420.864 252.431 420.873 241.871C420.877 237.912 423.696 234.834 429.592 234.312L429.601 225.336C420.008 225.855 414.285 229.722 414.278 237.025Z"
          fill="#232425"/>
    <path opacity="0.9"
          d="M436.747 205.53L434.977 215.736C434.004 221.367 429.69 223.387 426.083 222.592C423.004 221.973 420.454 219.243 420.811 214.051C421.438 202.084 429.269 202.971 429.269 202.971L426.638 193.729C426.638 193.729 414.141 194.949 414.123 213.869C414.114 223.637 417.715 231.384 425.547 231.391C430.475 231.396 433.736 225.503 435.063 217.848L436.744 208.698C437.894 202.187 441.855 200.343 445.375 200.962C448.718 201.581 451.004 204.223 450.998 209.767C450.984 225.871 440.073 224.453 440.073 224.453L442.793 233.695C442.793 233.695 457.578 231.597 457.598 209.861C457.608 199.653 454.183 191.466 446.175 191.459C440.72 191.454 438.427 196.292 436.747 205.53Z"
          fill="#232425"/>
    <path opacity="0.9"
          d="M441.462 149.989C441.462 149.989 451.755 152.55 451.744 164.606C451.736 173.142 446.187 179.384 436.331 179.375C433.955 179.373 431.667 178.931 429.732 178.313L429.763 144.786C422.458 146.363 414.357 151.636 414.344 166.067C414.33 180.411 423.826 188.956 436.322 188.967C450.578 188.98 458.42 177.988 458.431 165.756C458.449 145.868 443.404 143.127 443.404 143.127L441.462 149.989ZM421.119 166.074C421.126 159.122 424.473 155.165 429.227 153.409L429.204 178.137C424.278 176.196 421.114 172.145 421.119 166.074Z"
          fill="#232425"/>
    <g filter="url(#filter0_d_902_3687)">
        <path opacity="0.9"
              d="M172.597 117.76V106.195H188.887V105.79H172.597V94.63H189.967V91.39H167.647V121H191.092V117.76H172.597ZM204.486 108.535L212.451 99.355H212.046L204.261 108.31L196.701 99.355H190.716L201.246 111.82L193.281 120.955H193.686L201.426 112.045L208.986 120.955H215.016L204.486 108.535ZM238.561 109.435V109.39C238.516 108.22 238.246 107.095 237.841 105.97C237.796 105.79 237.706 105.61 237.616 105.43C237.616 105.385 237.571 105.34 237.571 105.295C237.481 105.115 237.391 104.89 237.301 104.71C237.301 104.71 237.301 104.71 237.301 104.665C235.726 101.605 232.891 99.355 229.786 99.355C225.016 99.355 222.721 102.235 220.831 104.755V99.805H216.961H216.511V129.46H221.056V116.86V116.275C222.001 118.75 223.981 121.45 227.986 121.495C234.331 121.54 238.606 116.86 238.606 110.38C238.606 110.065 238.561 109.75 238.561 109.435ZM227.581 118.03C227.266 118.075 226.906 118.075 226.546 118.075C223.666 118.075 221.866 116.68 220.966 114.61L220.921 113.17C220.921 113.08 220.921 112.99 220.921 112.855C220.876 112.045 220.876 111.19 220.876 110.425L220.831 105.16C222.226 103.315 224.206 100.93 227.401 100.93C227.401 100.93 227.446 100.93 227.491 100.93C227.626 100.93 227.716 100.93 227.851 100.975C229.246 101.065 230.326 101.56 231.181 102.415C231.181 102.415 231.181 102.415 231.226 102.415C232.981 103.945 234.151 106.555 234.151 109.48C234.151 114.16 231.226 117.94 227.581 118.03ZM260.155 113.215C260.155 113.215 258.85 118.48 252.685 118.48C248.32 118.48 245.125 115.645 245.125 110.605C245.125 109.39 245.35 108.22 245.665 107.23H262.81C262 103.495 259.3 99.355 251.92 99.355C244.585 99.355 240.22 104.215 240.22 110.605C240.22 117.895 245.845 121.9 252.1 121.9C262.27 121.9 263.665 114.205 263.665 114.205L260.155 113.215ZM251.92 102.82C255.475 102.82 257.5 104.53 258.4 106.96H245.755C246.745 104.44 248.815 102.82 251.92 102.82ZM278.237 99.355C271.757 99.355 270.452 109.885 270.362 113.395V99.805H266.492H265.817V121H270.362V117.76C270.362 116.5 270.362 102.73 275.762 102.73C277.787 102.73 279.362 104.17 279.632 107.185H284.222C283.952 102.28 281.972 99.355 278.237 99.355ZM290.708 120.955V99.805H286.118V120.955H290.708ZM288.413 91.39C286.253 91.39 284.498 93.19 284.498 95.35H284.813C284.813 93.37 286.433 91.75 288.413 91.75C290.393 91.75 292.013 93.37 292.013 95.35H292.373C292.373 93.19 290.618 91.39 288.413 91.39ZM313.065 113.215C313.065 113.215 311.76 118.48 305.595 118.48C301.23 118.48 298.035 115.645 298.035 110.605C298.035 109.39 298.26 108.22 298.575 107.23H315.72C314.91 103.495 312.21 99.355 304.83 99.355C297.495 99.355 293.13 104.215 293.13 110.605C293.13 117.895 298.755 121.9 305.01 121.9C315.18 121.9 316.575 114.205 316.575 114.205L313.065 113.215ZM304.83 102.82C308.385 102.82 310.41 104.53 311.31 106.96H298.665C299.655 104.44 301.725 102.82 304.83 102.82ZM332.678 99.4C324.308 99.4 323.318 109.885 323.228 113.395V99.805H319.358H318.683V121H323.228V117.805C323.228 116.5 322.598 102.73 330.923 102.73C333.803 102.73 335.738 104.395 335.738 107.95V121H340.328V107.905C340.328 102.55 337.403 99.4 332.678 99.4ZM362.46 113.215C362.46 113.215 361.155 118.48 354.99 118.48C350.625 118.48 347.43 115.645 347.43 110.605C347.43 106.06 349.815 102.82 354.225 102.82C357.915 102.82 359.94 104.62 360.795 107.23H365.115C364.305 103.495 361.605 99.355 354.225 99.355C346.89 99.355 342.525 104.215 342.525 110.605C342.525 117.895 348.15 121.9 354.405 121.9C364.575 121.9 365.97 114.205 365.97 114.205L362.46 113.215ZM387.157 113.215C387.157 113.215 385.852 118.48 379.687 118.48C375.322 118.48 372.127 115.645 372.127 110.605C372.127 109.39 372.352 108.22 372.667 107.23H389.812C389.002 103.495 386.302 99.355 378.922 99.355C371.587 99.355 367.222 104.215 367.222 110.605C367.222 117.895 372.847 121.9 379.102 121.9C389.272 121.9 390.667 114.205 390.667 114.205L387.157 113.215ZM378.922 102.82C382.477 102.82 384.502 104.53 385.402 106.96H372.757C373.747 104.44 375.817 102.82 378.922 102.82Z"
              fill="#232425"/>
        <path opacity="0.9"
              d="M218.89 146.2L219.49 210.9L177.19 146.2H166.29V212H177.29V147.7L219.49 212H229.89V146.2H218.89ZM287.569 153.4V146.2H237.969V212H248.969V179.1H285.169V178.2H248.969V153.4H287.569ZM286.88 146.2V153.4H314.78V212H325.58V153.4H353.48V146.2H286.88ZM377.225 189.4L365.625 187.4C359.225 186.3 356.925 181.4 357.825 177.3C358.525 173.8 361.625 170.9 367.525 171.3C381.125 172 380.125 180.9 380.125 180.9L390.625 177.9C390.625 177.9 389.225 163.7 367.725 163.7C356.625 163.7 347.825 167.8 347.825 176.7C347.825 182.3 354.525 186 363.225 187.5L373.625 189.4C381.025 190.7 383.125 195.2 382.425 199.2C381.725 203 378.725 205.6 372.425 205.6C354.125 205.6 355.725 193.2 355.725 193.2L345.225 196.3C345.225 196.3 347.625 213.1 372.325 213.1C383.925 213.1 393.225 209.2 393.225 200.1C393.225 193.9 387.725 191.3 377.225 189.4Z"
              fill="#232425"/>
        <path opacity="0.9"
              d="M183.662 269.61C183.662 269.61 189.962 268.395 189.962 262.635C189.962 257.955 185.777 255.39 176.642 255.39H164.087V285H177.407C186.542 285 190.727 282.165 190.727 276.585C190.727 269.43 183.662 269.61 183.662 269.61ZM169.037 258.63H176.642C181.232 258.63 184.742 259.575 184.742 263.4C184.742 267.18 181.232 269.61 176.642 269.61H169.037V258.63ZM177.407 281.76H169.037V269.835H177.407C181.997 269.835 185.507 272.4 185.507 276.585C185.507 280.77 181.997 281.76 177.407 281.76ZM212.343 277.215C212.343 277.215 211.038 282.48 204.873 282.48C200.508 282.48 197.313 279.645 197.313 274.605C197.313 273.39 197.538 272.22 197.853 271.23H214.998C214.188 267.495 211.488 263.355 204.108 263.355C196.773 263.355 192.408 268.215 192.408 274.605C192.408 281.895 198.033 285.9 204.288 285.9C214.458 285.9 215.853 278.205 215.853 278.205L212.343 277.215ZM204.108 266.82C207.663 266.82 209.688 268.53 210.588 270.96H197.943C198.933 268.44 201.003 266.82 204.108 266.82ZM218.8 299.04C215.92 299.04 214.615 297.825 214.3 296.16C213.985 294.315 214.885 292.335 218.26 291.705L222.895 290.895C226.81 290.22 228.925 286.71 229.78 285L239.635 263.85H234.46L227.26 280.905L220.195 263.85H214.93L222.58 280.275L224.74 284.955L224.785 285C226.495 288.51 224.695 290.355 221.815 290.85L216.64 291.75C211.915 292.605 209.44 293.775 209.44 296.565C209.44 300.66 213.625 302.415 218.845 302.415C229.915 302.415 231.04 294.81 231.04 294.81L226.315 293.46C226.315 293.46 226.99 299.04 218.8 299.04ZM250.96 263.265C243.445 263.265 238.99 268.17 238.99 274.38C238.99 280.635 243.445 285.495 250.96 285.495C258.52 285.495 262.975 280.635 262.975 274.38C262.975 268.17 258.52 263.265 250.96 263.265ZM250.96 282.12C246.55 282.12 243.85 278.97 243.85 274.38C243.85 269.79 246.55 266.685 250.96 266.685C255.325 266.685 258.115 269.79 258.115 274.38C258.115 278.97 255.325 282.12 250.96 282.12ZM279.416 263.4C271.046 263.4 270.056 273.885 269.966 277.395V263.805H266.096H265.421V285H269.966V281.805C269.966 280.5 269.336 266.73 277.661 266.73C280.541 266.73 282.476 268.395 282.476 271.95V285H287.066V271.905C287.066 266.55 284.141 263.4 279.416 263.4ZM306.813 255.345V267.945L306.858 268.53C305.868 266.055 303.933 263.355 299.883 263.31C293.538 263.265 289.308 267.945 289.308 274.425C289.308 274.74 289.308 275.055 289.308 275.37V275.415C289.398 276.585 289.623 277.755 290.028 278.835C290.118 279.015 290.163 279.195 290.253 279.375C290.253 279.42 290.298 279.465 290.298 279.51C290.388 279.735 290.478 279.915 290.568 280.095C290.568 280.095 290.568 280.095 290.613 280.14C292.143 283.2 294.978 285.45 298.083 285.45C302.853 285.45 305.148 282.615 307.038 280.05L307.083 285L310.908 285.045H311.403V255.345H306.813ZM300.513 283.875C300.468 283.875 300.423 283.875 300.423 283.875C300.288 283.875 300.153 283.875 300.018 283.875C298.623 283.74 297.543 283.245 296.688 282.435C296.688 282.39 296.688 282.39 296.688 282.39C294.888 280.86 293.763 278.25 293.763 275.325C293.763 270.645 296.643 266.865 300.288 266.775C300.603 266.73 300.963 266.73 301.323 266.73C304.203 266.73 306.003 268.125 306.903 270.24L306.948 271.635C306.948 271.725 306.948 271.86 306.948 271.95C306.993 272.76 307.038 273.615 307.038 274.38V279.645C305.688 281.49 303.663 283.875 300.513 283.875ZM343.521 279.6C343.521 279.6 341.991 282.03 339.246 282.12C336.816 282.165 335.556 280.635 335.556 277.305V264.255H344.241V263.805H335.556V255.975L331.191 258.99V263.805H326.286V264.255H331.011V277.8C331.011 283.11 333.756 285.495 338.301 285.495C342.981 285.495 345.006 282.48 345.006 282.48L343.521 279.6ZM360.935 263.355C352.52 263.355 351.575 273.885 351.485 277.395V255.345H346.94V284.955H351.485V281.76C351.485 280.455 350.855 266.685 359.18 266.685C362.06 266.685 363.995 268.395 363.995 271.95V284.955H368.585V271.86C368.585 266.505 365.66 263.355 360.935 263.355ZM390.717 277.215C390.717 277.215 389.412 282.48 383.247 282.48C378.882 282.48 375.687 279.645 375.687 274.605C375.687 273.39 375.912 272.22 376.227 271.23H393.372C392.562 267.495 389.862 263.355 382.482 263.355C375.147 263.355 370.782 268.215 370.782 274.605C370.782 281.895 376.407 285.9 382.662 285.9C392.832 285.9 394.227 278.205 394.227 278.205L390.717 277.215ZM382.482 266.82C386.037 266.82 388.062 268.53 388.962 270.96H376.317C377.307 268.44 379.377 266.82 382.482 266.82Z"
              fill="#232425"/>
    </g>
    <path d="M437.56 423.182L413.987 444.994L389.52 461.19L384.264 460.367L379.326 460.733L374.432 460.543L369.144 457.612L362.902 449.547L355.48 435.22L347.618 418.319L339.71 400.8L331.939 383.959L324.666 368.819L317.953 356.072L311.814 345.795L306.341 338.046L301.336 332.239L296.573 327.636L273.313 330.746L268.579 324.728L263.058 314.796L257.067 302.139L250.684 287.916"
          stroke="url(#paint0_linear_902_3687)" stroke-width="0.5864" stroke-linecap="round" stroke-linejoin="round"/>
    <path d="M70.6866 299.827L71.7712 300.157L72.5243 300.398L99.5001 308.757L101.399 310.02L110.858 313.444L111.249 313.443L116.13 315.516L124.626 318.82L128.602 320.292L130.772 321.344L131.886 321.824L140.91 325.805L146.89 328.284L157.66 332.775L158.64 333.361L160.252 334.368L162.737 335.435L174.924 340.738L179.383 342.661L189.34 347.002L190.439 347.408L200.787 350.966L217.296 356.731L217.943 356.836L243.68 360.589L268.553 358.878L293.426 357.949L317.953 356.072L341.799 351.591L364.858 343.588L387.146 331.745L408.677 316.139L429.739 297.809L450.618 278.183L471.77 259.521L493.557 244.412L515.967 233.563L538.936 225.891L562.074 220.612"
          stroke="url(#paint1_linear_902_3687)" stroke-width="0.5864" stroke-linecap="round" stroke-linejoin="round"/>
    <path d="M163.456 464.429L136.304 475.448" stroke="url(#paint2_linear_902_3687)" stroke-width="0.5864"
          stroke-linecap="round" stroke-linejoin="round"/>
    <path d="M81.691 326.512L109.776 329.48L138.799 337.506L168.489 349.236L169.016 349.521L198.255 362.516L198.767 362.727L227.313 374.608L254.965 382.048L281.106 383.919L306.87 385.083L331.939 383.958L356.146 378.935L379.295 369.426L401.595 355.309L423.109 337.279L444.258 316.66L465.408 295.649L487.087 277.272L509.704 264.345L533.05 256.206L556.76 251.439L580.608 248.524"
          stroke="url(#paint3_linear_902_3687)" stroke-width="0.5864" stroke-linecap="round" stroke-linejoin="round"/>
    <path d="M185.185 451.758L157.757 458.291L131.857 470.86" stroke="url(#paint4_linear_902_3687)"
          stroke-width="0.5864" stroke-linecap="round" stroke-linejoin="round"/>
    <path d="M151.768 372.411L123.775 370.286L97.2781 374.438" stroke="url(#paint5_linear_902_3687)"
          stroke-width="0.5864" stroke-linecap="round" stroke-linejoin="round"/>
    <path d="M580.288 290.172L554.218 298.39L529.421 315.67L505.821 340.463L482.993 368.704L460.36 397.139L437.56 423.181L431.582 422.66L426.284 425.135L421.288 428.332L416.11 429.452L410.022 425.272L402.738 413.971L394.939 399.72L387.094 384.46L379.294 369.426L371.887 355.565L364.859 343.587L358.434 333.836L352.464 326.344L347.068 320.929L341.99 317.094L336.941 312.627L331.105 303.855L324.664 291.68L317.753 277.172"
          stroke="url(#paint6_linear_902_3687)" stroke-width="0.5864" stroke-linecap="round" stroke-linejoin="round"/>
    <path d="M88.9103 348.397L116.208 347.843L144.822 353.054L174.224 362.962L174.48 363.067L204.005 375.535L233.364 387.957L261.575 396.617L288.244 399.948L314.416 401.969L339.711 400.799L363.947 395.143L387.094 384.46L409.258 368.883L430.77 349.287L451.873 327.267L473.157 305.368L495.061 286.946L518.027 274.967L541.78 268.077L565.868 264.409L590.168 262.577"
          stroke="url(#paint7_linear_902_3687)" stroke-width="0.5864" stroke-linecap="round" stroke-linejoin="round"/>
    <path d="M420.079 259.889L440.042 241.545L460.065 223.892L466.014 225.046L472.204 226.621L478.848 230.453L486.006 236.454L493.558 244.412L501.503 253.935L509.704 264.346L518.027 274.968L526.438 284.867L534.713 292.915L544.995 290.691"
          stroke="url(#paint8_linear_902_3687)" stroke-width="0.5864" stroke-linecap="round" stroke-linejoin="round"/>
    <path d="M644.091 295.906L617.338 299.561L590.798 305.445L564.381 313.106L539.01 328.701L514.821 351.341L491.313 377.369L467.986 403.908L444.551 428.354L420.451 449.097L395.502 464.842L369.312 474.806L341.837 478.764L318.512 477.267L312.955 476.896L282.759 470.828L252.081 463.918L221.631 459.311L191.983 459.085L163.455 464.429L160.666 461.465L157.757 458.291L154.575 453.371L150.562 445.485L145.641 433.474L139.42 416.556L131.824 394.355L123.774 370.286L116.208 347.843L109.775 329.48L104.793 316.777L101.263 309.734L99.5002 308.757"
          stroke="url(#paint9_linear_902_3687)" stroke-width="0.5864" stroke-linecap="round" stroke-linejoin="round"/>
    <path d="M405.464 279.509L425.683 261.661L445.705 242.834L451.549 244.244L457.906 247.429L464.582 252.587L471.771 259.521L479.248 267.886L487.087 277.273L495.062 286.947L503.082 296.064L511.024 303.63L518.603 308.214L521.703 306.886"
          stroke="url(#paint10_linear_902_3687)" stroke-width="0.5864" stroke-linecap="round" stroke-linejoin="round"/>
    <path d="M670.938 295.051L644.092 295.906L633.403 283.254L606.709 285.253L580.288 290.173L571.097 283.407L563.192 283.821L557.442 285.995L544.995 290.691L537.936 293.363L536.943 294.268L532.911 297.584L521.703 306.886L521.357 307.112L519.416 308.755L518.543 309.479L514.24 313.007L508.194 319.156L502.674 325.591L497.321 332.463L494.93 335.762L491.787 339.997L491.547 340.358L483.442 351.464L472.947 365.869L470.075 369.892L468.15 372.394L462.301 380.304L450.903 395.674L448.392 399.155L443.277 403.707L438.01 406.724L432.015 404.562L424.763 394.978L417.086 382.503L409.258 368.884L401.595 355.31L394.129 342.715L387.147 331.745L380.557 322.733L374.482 315.888L368.951 310.97L363.753 307.708L341.99 317.095L319.622 323.472L296.573 327.636L291.764 322.024L268.579 324.728L245.485 328.275L222.875 334.621L199.449 337.687L174.784 336.146L170.605 328.215L145.849 326.222L142.093 318.833L137.943 309.878"
          stroke="url(#paint11_linear_902_3687)" stroke-width="0.5864" stroke-linecap="round" stroke-linejoin="round"/>
    <path d="M623.852 278.203L629.498 278.634L650.58 280.269L660.221 284.204" stroke="url(#paint12_linear_902_3687)"
          stroke-width="0.5864" stroke-linecap="round" stroke-linejoin="round"/>
    <path d="M563.192 283.821L579.586 281.23L589.146 279.7L597.306 278.999L606.708 285.253L617.338 299.562"
          stroke="url(#paint13_linear_902_3687)" stroke-width="0.5864" stroke-linecap="round" stroke-linejoin="round"/>
    <path d="M460.065 223.891L480.633 208.557L501.52 195.587L508.041 197.252L529.623 186.961"
          stroke="url(#paint14_linear_902_3687)" stroke-width="0.5864" stroke-linecap="round" stroke-linejoin="round"/>
    <path d="M379.637 292.061L400.055 277.149L420.079 259.888L425.682 261.659L431.239 263.205L437.296 266.451L443.775 271.413L450.618 278.182L457.839 286.441L465.407 295.648L473.156 305.368L480.905 314.695L488.622 322.698L496.006 327.87L502.673 325.59L508.193 319.155"
          stroke="url(#paint15_linear_902_3687)" stroke-width="0.5864" stroke-linecap="round" stroke-linejoin="round"/>
    <path d="M178.839 341.125L183.477 341.602L203.46 343.615L227.233 341.106L249.978 334.654L273.313 330.745L277.789 335.484L301.335 332.238L324.489 327.818L347.068 320.929L368.951 310.969L390.168 297.697L410.871 281.475L431.24 263.205L451.548 244.243L472.203 226.62L493.314 212.038L514.939 200.407L536.899 191.215"
          stroke="url(#paint16_linear_902_3687)" stroke-width="0.5864" stroke-linecap="round" stroke-linejoin="round"/>
    <path d="M363.754 307.708L384.882 295.159L405.464 279.508L410.872 281.476L416.702 285.159L423.032 290.543L429.74 297.809L436.841 306.64L444.259 316.661L451.873 327.268L459.608 337.695L467.236 346.812L474.455 353.114L480.643 351.948L486.117 346.07L491.788 339.997L498.275 337.204L510.938 322.677L521.195 310.982"
          stroke="url(#paint17_linear_902_3687)" stroke-width="0.5864" stroke-linecap="round" stroke-linejoin="round"/>
    <path d="M170.605 328.214L194.667 327.918L217.715 324.146L240.144 318.07L263.058 314.795L286.154 312.422L308.917 309.177L331.106 303.855L352.644 295.687L373.547 284.358L393.92 270.003L413.839 253.39L433.607 235.633L453.585 218.537L473.928 203.64L494.679 191.167L515.824 181.042L522.769 184.815"
          stroke="url(#paint18_linear_902_3687)" stroke-width="0.5864" stroke-linecap="round" stroke-linejoin="round"/>
    <path d="M231.017 345.122L254.184 339.212" stroke="url(#paint19_linear_902_3687)" stroke-width="0.5864"
          stroke-linecap="round" stroke-linejoin="round"/>
    <path d="M544.797 198.555L522.415 206.423L500.412 216.955L478.849 230.453L457.906 247.428L437.297 266.451L416.703 285.158L395.88 301.953L374.483 315.887L352.465 326.344L329.721 333.58L306.342 338.045L282.494 340.96L258.511 343.981L234.846 348.973L216.28 348.947L210.965 348.998L209.941 348.968L206.747 346.713L203.461 343.615L199.45 337.686L194.667 327.919L189.219 315.623L183.513 301.655"
          stroke="url(#paint20_linear_902_3687)" stroke-width="0.5864" stroke-linecap="round" stroke-linejoin="round"/>
    <path d="M553.223 208.53L530.418 215.073L507.977 224.205L486.006 236.454L464.581 252.587L443.775 271.414L423.031 290.543L402.044 308.075L380.557 322.733L358.434 333.837L335.509 341.344L311.814 345.794L287.635 348.228L263.229 350.315L239.02 353.773L234.845 348.974L231.016 345.123L207.288 346.683L206.746 346.714L205.375 346.519L193.584 344.739L185.587 343.528L184.202 343.258L184.126 343.273L178.839 341.125L178.071 340.81L176.971 340.405L164.8 335.568L159.694 333.541L157.615 332.941L146.89 328.284L146.769 328.073L141.632 325.895L140.94 325.564L131.856 321.674L130.756 321.268L124.626 318.82L116.13 315.516L110.858 313.444L105.375 311.1L101.263 309.734L73.1284 302.234L72.5561 302.114L70.6866 299.827"
          stroke="url(#paint21_linear_902_3687)" stroke-width="0.5864" stroke-linecap="round" stroke-linejoin="round"/>
    <path d="M291.765 322.024L314.618 318.447L336.942 312.628L358.616 303.963L379.638 292.061L384.882 295.158L390.169 297.697L395.88 301.953L402.045 308.075L408.678 316.139L415.675 326.009L423.109 337.279L430.77 349.287L438.492 361.205L446.121 371.888L453.342 379.755L459.365 380.111L464.69 375.438L468.014 370.932L471.878 365.613L482.088 351.735L486.117 346.07L490.779 340.433L494.93 335.761L499.743 330.487L504.285 325.031L514.241 313.006L521.195 310.981L531.231 303.246L533.202 301.754L540.318 296.251L545.464 292.24L571.097 283.406L597.307 278.998L602.758 278.842L623.852 278.203L633.404 283.253L660.222 284.204L670.938 295.05"
          stroke="url(#paint22_linear_902_3687)" stroke-width="0.5864" stroke-linecap="round" stroke-linejoin="round"/>
    <path d="M185.497 343.467L184.127 343.272" stroke="url(#paint23_linear_902_3687)" stroke-width="0.5864"
          stroke-linecap="round" stroke-linejoin="round"/>
    <path d="M580.289 290.173L590.799 305.445" stroke="url(#paint24_linear_902_3687)" stroke-width="0.5864"
          stroke-linecap="round" stroke-linejoin="round"/>
    <path d="M124.942 318.835L125.183 318.865L125.575 318.864L142.092 318.833L165.897 318.041L189.218 315.623L211.92 310.902L234.199 305.248L257.067 302.139L279.967 299.962L302.595 296.823L324.664 291.681L346.007 283.709L366.82 272.711L387.058 258.853L406.932 242.797L426.61 225.763L446.499 209.391L466.767 195.292L487.474 183.767L508.635 174.892"
          stroke="url(#paint25_linear_902_3687)" stroke-width="0.5864" stroke-linecap="round" stroke-linejoin="round"/>
    <path d="M359.609 258.264L366.82 272.711L373.548 284.359L379.639 292.062" stroke="url(#paint26_linear_902_3687)"
          stroke-width="0.5864" stroke-linecap="round" stroke-linejoin="round"/>
    <path d="M379.741 244.662L387.058 258.854L393.92 270.004L400.056 277.15L405.464 279.509"
          stroke="url(#paint27_linear_902_3687)" stroke-width="0.5864" stroke-linecap="round" stroke-linejoin="round"/>
    <path d="M399.48 229.103L406.932 242.797L413.839 253.39L420.079 259.889" stroke="url(#paint28_linear_902_3687)"
          stroke-width="0.5864" stroke-linecap="round" stroke-linejoin="round"/>
    <path d="M419.144 212.775L426.61 225.762L433.607 235.633L440.042 241.544L445.705 242.833L466.014 225.045L486.838 209.816L493.315 212.038L500.412 216.955L507.978 224.205L515.967 233.562L524.35 244.485L533.05 256.206L541.78 268.077L550.539 278.925L575.005 276.355L579.587 281.229"
          stroke="url(#paint29_linear_902_3687)" stroke-width="0.5864" stroke-linecap="round" stroke-linejoin="round"/>
    <path d="M438.989 197.352L446.499 209.39L453.586 218.537L460.066 223.891" stroke="url(#paint30_linear_902_3687)"
          stroke-width="0.5864" stroke-linecap="round" stroke-linejoin="round"/>
    <path d="M459.272 184.111L466.767 195.291L473.927 203.641L480.633 208.558L486.837 209.816L508.04 197.252L514.94 200.407L522.414 206.423L530.418 215.072L538.937 225.89L547.682 238.228L556.76 251.439L565.868 264.409L575.004 276.355L599.546 275.337"
          stroke="url(#paint31_linear_902_3687)" stroke-width="0.5864" stroke-linecap="round" stroke-linejoin="round"/>
    <path d="M479.965 173.687L487.474 183.767L494.678 191.168L501.519 195.588L522.769 184.816L529.622 186.962L536.899 191.216L544.796 198.556L553.223 208.53L562.074 220.612L571.243 234.275L580.607 248.525L590.168 262.578L599.546 275.337L602.757 278.843"
          stroke="url(#paint32_linear_902_3687)" stroke-width="0.5864" stroke-linecap="round" stroke-linejoin="round"/>
    <path d="M501.113 166.303L508.635 174.893L515.824 181.044" stroke="url(#paint33_linear_902_3687)"
          stroke-width="0.5864" stroke-linecap="round" stroke-linejoin="round"/>
    <path d="M170.605 328.215L165.897 318.041L160.856 306.211" stroke="url(#paint34_linear_902_3687)"
          stroke-width="0.5864" stroke-linecap="round" stroke-linejoin="round"/>
    <path d="M291.764 322.024L286.153 312.423L279.967 299.962L273.418 285.694" stroke="url(#paint35_linear_902_3687)"
          stroke-width="0.5864" stroke-linecap="round" stroke-linejoin="round"/>
    <path d="M467.986 403.908L460.36 397.14L453.975 396.153L448.391 399.155L445.73 402.274L440.977 407.85L437.563 411.904L432.931 417.299L428.554 422.408L426.284 425.136L423.23 427.864L419.198 431.572L414.836 435.582L405.373 444.219L403.388 446.028L398.45 447.569L393.255 446.656L387.075 440.458L379.699 427.532L371.838 411.805L363.947 395.144L356.146 378.936L348.723 364.217L341.799 351.591L335.509 341.343L329.72 333.58L324.489 327.818L319.621 323.472L314.617 318.448L308.916 309.178L302.595 296.823L295.865 282.435"
          stroke="url(#paint36_linear_902_3687)" stroke-width="0.5864" stroke-linecap="round" stroke-linejoin="round"/>
    <path d="M557.443 285.995L550.54 278.925L526.439 284.867L503.081 296.063L480.906 314.696L459.608 337.695L438.492 361.205L417.087 382.502L394.94 399.72L371.839 411.804L347.619 418.318L322.234 419.82L295.761 417.467L268.608 412.902L240.095 403.52L210.556 391.369L180.882 380.106L151.769 372.411L144.823 353.054L138.799 337.506L134.151 326.85L130.757 321.268L128.603 320.291"
          stroke="url(#paint37_linear_902_3687)" stroke-width="0.5864" stroke-linecap="round" stroke-linejoin="round"/>
    <path d="M521.195 310.981L529.42 315.671L539.01 328.701" stroke="url(#paint38_linear_902_3687)"
          stroke-width="0.5864" stroke-linecap="round" stroke-linejoin="round"/>
    <path d="M444.552 428.354L437.56 423.182" stroke="url(#paint39_linear_902_3687)" stroke-width="0.5864"
          stroke-linecap="round" stroke-linejoin="round"/>
    <path d="M498.274 337.204L505.821 340.464L514.821 351.341" stroke="url(#paint40_linear_902_3687)"
          stroke-width="0.5864" stroke-linecap="round" stroke-linejoin="round"/>
    <path d="M77.9761 315.825L69.9189 314.312" stroke="url(#paint41_linear_902_3687)" stroke-width="0.5864"
          stroke-linecap="round" stroke-linejoin="round"/>
    <path d="M420.451 449.097L413.987 444.993L408.401 444.471L403.388 446.027L400.319 447.898L392.087 452.92L379.327 460.732L353.948 468.889L349.038 467.057L343.703 462.334L337.384 452.719L329.991 437.368L322.234 419.819L314.416 401.969L306.87 385.083L299.824 370.289L293.427 357.948L287.635 348.227L282.493 340.96L277.79 335.484L254.184 339.212L249.978 334.653L245.485 328.274L240.144 318.07L234.199 305.248L228.011 290.829"
          stroke="url(#paint42_linear_902_3687)" stroke-width="0.5864" stroke-linecap="round" stroke-linejoin="round"/>
    <path d="M537.936 293.362L545.463 292.24L554.217 298.39L564.381 313.106" stroke="url(#paint43_linear_902_3687)"
          stroke-width="0.5864" stroke-linecap="round" stroke-linejoin="round"/>
    <path d="M476.019 366.738L482.993 368.704L491.313 377.368" stroke="url(#paint44_linear_902_3687)"
          stroke-width="0.5864" stroke-linecap="round" stroke-linejoin="round"/>
    <path d="M77.3123 314.08L70.5499 312.385" stroke="url(#paint45_linear_902_3687)" stroke-width="0.5864"
          stroke-linecap="round" stroke-linejoin="round"/>
    <path d="M395.503 464.842L389.521 461.189L363.738 471.228L336.503 474.824L331.683 472.661L327.073 470.768L322.297 467.656L316.931 461.609L310.716 450.955L303.368 435.047L295.761 417.467L288.245 399.948L281.107 383.92L274.482 370.059L268.554 358.877L263.23 350.315L258.51 343.981L254.184 339.212"
          stroke="url(#paint46_linear_902_3687)" stroke-width="0.5864" stroke-linecap="round" stroke-linejoin="round"/>
    <path d="M282.759 470.828L277.966 466.075L273.642 462.872L269.407 459.729L267.178 459.16L265.356 458.664L241.318 452.455L239.571 451.945L235.32 446.769L230.388 438.598L224.488 426.001L217.514 408.843L210.555 391.369L204.004 375.535L198.254 362.517L193.291 353.021L189.34 347.002L186.084 344.054"
          stroke="url(#paint47_linear_902_3687)" stroke-width="0.5864" stroke-linecap="round" stroke-linejoin="round"/>
    <path d="M312.955 476.896L307.846 472.519L303.281 469.678L298.791 467.213L296.728 466.688L272.299 460.479L269.407 459.729L265.006 455.367L259.97 448.235L254.026 436.587L247.083 420.362L240.094 403.52L233.363 387.958L227.312 374.608L221.926 364.179L217.296 356.73L213.346 351.886L203.285 348.975L187.651 344.444L186.084 344.054"
          stroke="url(#paint48_linear_902_3687)" stroke-width="0.5864" stroke-linecap="round" stroke-linejoin="round"/>
    <path d="M369.312 474.806L363.738 471.228L358.662 469.743L353.948 468.889L337.416 470.02L327.449 470.693L327.073 470.769L324.739 470.455L305.297 468.02L299.183 467.213L298.792 467.213L294.196 463.439L289.055 456.954L282.99 445.878L275.867 429.925L268.608 412.903L261.575 396.618L254.965 382.049L248.93 369.949L243.68 360.589L239.021 353.773L218.828 352.272L213.346 351.886L209.94 348.969L208.961 348.774L201.491 347.065L187.319 343.962L185.874 343.783L184.202 343.258"
          stroke="url(#paint49_linear_902_3687)" stroke-width="0.5864" stroke-linecap="round" stroke-linejoin="round"/>
    <path d="M341.837 478.764L336.503 474.824L332.919 474.527L322.167 473.634L307.847 472.519L304.488 471.785L287.214 468.053L277.967 466.075L275.181 465.46L247.695 459.239L247.454 459.209L245.27 458.865L217.697 454.933L213.974 451.218L210.145 446.976L205.938 440.851L177.569 439.977L150.562 445.485L125.233 457.39"
          stroke="url(#paint50_linear_902_3687)" stroke-width="0.5864" stroke-linecap="round" stroke-linejoin="round"/>
    <path d="M252.081 463.918L247.695 459.239L243.611 455.675L239.572 451.945L233.412 450.912L210.145 446.976L181.657 447.065L154.575 453.371L128.991 465.954"
          stroke="url(#paint51_linear_902_3687)" stroke-width="0.5864" stroke-linecap="round" stroke-linejoin="round"/>
    <path d="M363.753 307.706L358.615 303.962L352.644 295.687L346.006 283.708L339.005 269.14"
          stroke="url(#paint52_linear_902_3687)" stroke-width="0.5864" stroke-linecap="round" stroke-linejoin="round"/>
    <path d="M221.63 459.311L217.696 454.933L214.173 454.937L188.546 455.234L160.666 461.465L134.208 473.598"
          stroke="url(#paint53_linear_902_3687)" stroke-width="0.5864" stroke-linecap="round" stroke-linejoin="round"/>
    <path d="M178.071 340.809L174.783 336.145L159.693 333.54" stroke="url(#paint54_linear_902_3687)"
          stroke-width="0.5864" stroke-linecap="round" stroke-linejoin="round"/>
    <path d="M231.017 345.123L227.233 341.106L222.875 334.621L217.715 324.146L211.92 310.902L205.746 296.167"
          stroke="url(#paint55_linear_902_3687)" stroke-width="0.5864" stroke-linecap="round" stroke-linejoin="round"/>
    <path d="M75.5908 309.413L70.515 307.928" stroke="url(#paint56_linear_902_3687)" stroke-width="0.5864"
          stroke-linecap="round" stroke-linejoin="round"/>
    <path d="M191.983 459.085L188.547 455.234L185.185 451.759" stroke="url(#paint57_linear_902_3687)"
          stroke-width="0.5864" stroke-linecap="round" stroke-linejoin="round"/>
    <path d="M111.16 313.383L114.758 312.972L137.943 309.877L160.856 306.21L183.513 301.655L205.747 296.167L228.011 290.83L250.684 287.916L273.418 285.694L295.865 282.434L317.753 277.172L339.006 269.141L359.608 258.263L379.741 244.662L399.48 229.103L419.144 212.776L438.989 197.352L459.272 184.111L479.965 173.686L501.113 166.302"
          stroke="url(#paint58_linear_902_3687)" stroke-width="0.5864" stroke-linecap="round" stroke-linejoin="round"/>
    <path d="M70.2234 302.582L73.1605 303.558L75.5906 309.412L76.1944 310.857L104.794 316.776L119.435 321.821L134.151 326.85L149.591 333.535L163.826 339.679L165.287 340.325L183.56 348.633L193.292 353.02L194.135 353.32L221.927 364.178L248.93 369.948L274.482 370.058L299.824 370.288L324.667 368.818L348.723 364.216L371.888 355.565L394.129 342.714L415.674 326.009L436.84 306.639L457.84 286.441L479.247 267.884L501.503 253.934L524.35 244.485L547.683 238.227L571.243 234.274"
          stroke="url(#paint59_linear_902_3687)" stroke-width="0.5864" stroke-linecap="round" stroke-linejoin="round"/>
    <path d="M521.357 307.111L518.602 308.213L517.263 309.344L512.539 313.505L512.148 313.896L496.006 327.871L474.455 353.113L465.898 363.918L453.341 379.756L441.024 394.058L432.015 404.561L410.022 425.272L387.076 440.458L362.903 449.547L337.384 452.72L310.716 450.955L282.99 445.878L254.026 436.587L224.488 426.001L195.073 417.584L187.977 399.041L180.881 380.106L174.224 362.963L168.488 349.236L163.826 339.679L160.252 334.368L157.51 333.196"
          stroke="url(#paint60_linear_902_3687)" stroke-width="0.5864" stroke-linecap="round" stroke-linejoin="round"/>
    <path d="M136.303 475.448L134.208 473.598L131.857 470.86L128.991 465.955L125.233 457.391L120.251 444.296L113.878 425.842L105.949 401.593L97.2785 374.439L88.9105 348.398L81.6911 326.512L78.9428 318.686L78.7011 317.873L77.9762 315.826L77.3119 314.08L76.1945 310.858"
          stroke="url(#paint61_linear_902_3687)" stroke-width="0.5864" stroke-linecap="round" stroke-linejoin="round"/>
    <path d="M116.01 315.304L114.757 312.972" stroke="url(#paint62_linear_902_3687)" stroke-width="0.5864"
          stroke-linecap="round" stroke-linejoin="round"/>
    <path d="M536.943 294.267L534.713 292.914L511.024 303.629L488.623 322.698L467.236 346.812L446.121 371.888L424.763 394.977L402.738 413.972L379.699 427.531L355.48 435.22L329.99 437.369L303.367 435.047L275.867 429.925L247.083 420.362L217.514 408.843L187.977 399.041L159.258 393.694L131.824 394.354L105.948 401.593"
          stroke="url(#paint63_linear_902_3687)" stroke-width="0.5864" stroke-linecap="round" stroke-linejoin="round"/>
    <path d="M147.026 328.177L145.85 326.221L140.941 325.563" stroke="url(#paint64_linear_902_3687)"
          stroke-width="0.5864" stroke-linecap="round" stroke-linejoin="round"/>
    <path d="M67.8156 318.26L69.1254 318.153" stroke="url(#paint65_linear_902_3687)" stroke-width="0.5864"
          stroke-linecap="round" stroke-linejoin="round"/>
    <path d="M67.8156 318.26L68.9302 318.741L78.9433 318.685" stroke="url(#paint66_linear_902_3687)"
          stroke-width="0.5864" stroke-linecap="round" stroke-linejoin="round"/>
    <path d="M78.7014 317.872L75.0271 317.514L69.5005 316.902" stroke="url(#paint67_linear_902_3687)"
          stroke-width="0.5864" stroke-linecap="round" stroke-linejoin="round"/>
    <path d="M68.9292 318.741L69.1244 318.153L69.4996 316.903L69.9185 314.313L70.549 312.385L70.5144 307.928L70.2229 302.583L70.6869 299.827"
          stroke="url(#paint68_linear_902_3687)" stroke-width="0.5864" stroke-linecap="round" stroke-linejoin="round"/>
    <path d="M498.275 337.204L488.2 350.585L476.02 366.738L470.075 369.891L464.69 375.438L461.036 380.245L449.533 395.479L445.563 400.663L443.278 403.707L439.954 407.429L422.627 426.81L421.289 428.332L418.205 430.91L402.739 443.965L399.188 446.95L398.451 447.568L374.433 460.542L349.038 467.057L322.297 467.656L320.279 467.357L294.196 463.438L292.374 462.944L267.989 456.177L265.007 455.367L263.426 454.902L235.321 446.769L205.938 440.851L201.08 431.491L172.605 429.306L145.642 433.474L120.251 444.296"
          stroke="url(#paint69_linear_902_3687)" stroke-width="0.5864" stroke-linecap="round" stroke-linejoin="round"/>
    <path d="M502.373 325.651L501.366 326.872L494.252 335.507L491.214 339.094L480.642 351.948L470.552 365.254L465.244 372.351L459.364 380.112L447.349 395.136L438.01 406.724L416.11 429.453L393.255 446.656L369.145 457.612L343.703 462.335L316.93 461.609L289.055 456.955L287.714 456.519L259.971 448.236L230.388 438.599L201.08 431.491L195.073 417.585L166.536 413.924L139.421 416.557L113.878 425.843"
          stroke="url(#paint70_linear_902_3687)" stroke-width="0.5864" stroke-linecap="round" stroke-linejoin="round"/>
    <path d="M476.019 366.739L465.704 380.481L453.975 396.153L451.764 398.79L443.342 408.706L431.581 422.661L426.843 427.137L420.916 432.715L415.591 437.779L408.4 444.472L402.592 448.302L396.498 452.268L384.264 460.367L358.662 469.743L347.551 470.959L331.682 472.661L326.231 472.034L304.802 469.843L303.281 469.678L301.399 469.274L284.651 465.436L275.027 463.142L273.642 462.872L269.515 461.823L244.589 455.87L243.61 455.675L236.909 454.673L214.455 451.278L213.973 451.218L206.099 451.392L185.185 451.759L181.656 447.065L177.569 439.977L172.604 429.306L166.536 413.924L159.258 393.695L151.768 372.411"
          stroke="url(#paint71_linear_902_3687)" stroke-width="0.5864" stroke-linecap="round" stroke-linejoin="round"/>
    <path d="M73.1603 303.558L72.5565 302.113" stroke="url(#paint72_linear_902_3687)" stroke-width="0.5864"
          stroke-linecap="round" stroke-linejoin="round"/>
    <defs>
        <filter id="filter0_d_902_3687" x="43.0005" y="17" width="471" height="358" filterUnits="userSpaceOnUse"
                color-interpolation-filters="sRGB">
            <feFlood flood-opacity="0" result="BackgroundImageFix"/>
            <feColorMatrix in="SourceAlpha" type="matrix" values="0 0 0 0 0 0 0 0 0 0 0 0 0 0 0 0 0 0 127 0"
                           result="hardAlpha"/>
            <feOffset/>
            <feGaussianBlur stdDeviation="15"/>
            <feColorMatrix type="matrix" values="0 0 0 0 1 0 0 0 0 1 0 0 0 0 1 0 0 0 0.25 0"/>
            <feBlend mode="normal" in2="BackgroundImageFix" result="effect1_dropShadow_902_3687"/>
            <feBlend mode="normal" in="SourceGraphic" in2="effect1_dropShadow_902_3687" result="shape"/>
        </filter>
        <linearGradient id="paint0_linear_902_3687" x1="423.33" y1="359.591" x2="270.465" y2="389.966"
                        gradientUnits="userSpaceOnUse">
            <stop stop-color="#38393A" stop-opacity="0.4"/>
            <stop offset="0.478947" stop-color="#353637" stop-opacity="0"/>
            <stop offset="1" stop-color="#373839" stop-opacity="0.4"/>
        </linearGradient>
        <linearGradient id="paint1_linear_902_3687" x1="564.737" y1="256.694" x2="78.0631" y2="347.693"
                        gradientUnits="userSpaceOnUse">
            <stop stop-color="#38393A" stop-opacity="0.4"/>
            <stop offset="0.478947" stop-color="#353637" stop-opacity="0"/>
            <stop offset="1" stop-color="#373839" stop-opacity="0.4"/>
        </linearGradient>
        <linearGradient id="paint2_linear_902_3687" x1="163.768" y1="467.306" x2="135.589" y2="472.533"
                        gradientUnits="userSpaceOnUse">
            <stop stop-color="#38393A" stop-opacity="0.4"/>
            <stop offset="0.478947" stop-color="#353637" stop-opacity="0"/>
            <stop offset="1" stop-color="#373839" stop-opacity="0.4"/>
        </linearGradient>
        <linearGradient id="paint3_linear_902_3687" x1="582.83" y1="282.74" x2="89.1691" y2="375.043"
                        gradientUnits="userSpaceOnUse">
            <stop stop-color="#38393A" stop-opacity="0.4"/>
            <stop offset="0.478947" stop-color="#353637" stop-opacity="0"/>
            <stop offset="1" stop-color="#373839" stop-opacity="0.4"/>
        </linearGradient>
        <linearGradient id="paint4_linear_902_3687" x1="185.544" y1="456.117" x2="130.648" y2="466.052"
                        gradientUnits="userSpaceOnUse">
            <stop stop-color="#38393A" stop-opacity="0.4"/>
            <stop offset="0.478947" stop-color="#353637" stop-opacity="0"/>
            <stop offset="1" stop-color="#373839" stop-opacity="0.4"/>
        </linearGradient>
        <linearGradient id="paint5_linear_902_3687" x1="150.478" y1="368.464" x2="97.7786" y2="378.105"
                        gradientUnits="userSpaceOnUse">
            <stop stop-color="#38393A" stop-opacity="0.4"/>
            <stop offset="0.478947" stop-color="#353637" stop-opacity="0"/>
            <stop offset="1" stop-color="#373839" stop-opacity="0.4"/>
        </linearGradient>
        <linearGradient id="paint6_linear_902_3687" x1="582.897" y1="314.845" x2="333.972" y2="363.781"
                        gradientUnits="userSpaceOnUse">
            <stop stop-color="#38393A" stop-opacity="0.4"/>
            <stop offset="0.478947" stop-color="#353637" stop-opacity="0"/>
            <stop offset="1" stop-color="#373839" stop-opacity="0.4"/>
        </linearGradient>
        <linearGradient id="paint7_linear_902_3687" x1="593.275" y1="301.368" x2="95.7921" y2="393.995"
                        gradientUnits="userSpaceOnUse">
            <stop stop-color="#38393A" stop-opacity="0.4"/>
            <stop offset="0.478947" stop-color="#353637" stop-opacity="0"/>
            <stop offset="1" stop-color="#373839" stop-opacity="0.4"/>
        </linearGradient>
        <linearGradient id="paint8_linear_902_3687" x1="536.341" y1="252.991" x2="422.647" y2="275.375"
                        gradientUnits="userSpaceOnUse">
            <stop stop-color="#38393A" stop-opacity="0.4"/>
            <stop offset="0.478947" stop-color="#353637" stop-opacity="0"/>
            <stop offset="1" stop-color="#373839" stop-opacity="0.4"/>
        </linearGradient>
        <linearGradient id="paint9_linear_902_3687" x1="643.168" y1="315.942" x2="118.869" y2="417.51"
                        gradientUnits="userSpaceOnUse">
            <stop stop-color="#38393A" stop-opacity="0.4"/>
            <stop offset="0.478947" stop-color="#353637" stop-opacity="0"/>
            <stop offset="1" stop-color="#373839" stop-opacity="0.4"/>
        </linearGradient>
        <linearGradient id="paint10_linear_902_3687" x1="513.589" y1="271.509" x2="407.546" y2="292.395"
                        gradientUnits="userSpaceOnUse">
            <stop stop-color="#38393A" stop-opacity="0.4"/>
            <stop offset="0.478947" stop-color="#353637" stop-opacity="0"/>
            <stop offset="1" stop-color="#373839" stop-opacity="0.4"/>
        </linearGradient>
        <linearGradient id="paint11_linear_902_3687" x1="664.494" y1="287.127" x2="150.677" y2="385.263"
                        gradientUnits="userSpaceOnUse">
            <stop stop-color="#38393A" stop-opacity="0.4"/>
            <stop offset="0.478947" stop-color="#353637" stop-opacity="0"/>
            <stop offset="1" stop-color="#373839" stop-opacity="0.4"/>
        </linearGradient>
        <linearGradient id="paint12_linear_902_3687" x1="658.703" y1="278.236" x2="625.007" y2="284.748"
                        gradientUnits="userSpaceOnUse">
            <stop stop-color="#38393A" stop-opacity="0.4"/>
            <stop offset="0.478947" stop-color="#353637" stop-opacity="0"/>
            <stop offset="1" stop-color="#373839" stop-opacity="0.4"/>
        </linearGradient>
        <linearGradient id="paint13_linear_902_3687" x1="614.47" y1="287.592" x2="565.634" y2="297.134"
                        gradientUnits="userSpaceOnUse">
            <stop stop-color="#38393A" stop-opacity="0.4"/>
            <stop offset="0.478947" stop-color="#353637" stop-opacity="0"/>
            <stop offset="1" stop-color="#373839" stop-opacity="0.4"/>
        </linearGradient>
        <linearGradient id="paint14_linear_902_3687" x1="531.298" y1="198.758" x2="457.5" y2="212.864"
                        gradientUnits="userSpaceOnUse">
            <stop stop-color="#38393A" stop-opacity="0.4"/>
            <stop offset="0.478947" stop-color="#353637" stop-opacity="0"/>
            <stop offset="1" stop-color="#373839" stop-opacity="0.4"/>
        </linearGradient>
        <linearGradient id="paint15_linear_902_3687" x1="500.753" y1="287.689" x2="382.855" y2="310.877"
                        gradientUnits="userSpaceOnUse">
            <stop stop-color="#38393A" stop-opacity="0.4"/>
            <stop offset="0.478947" stop-color="#353637" stop-opacity="0"/>
            <stop offset="1" stop-color="#373839" stop-opacity="0.4"/>
        </linearGradient>
        <linearGradient id="paint16_linear_902_3687" x1="543.117" y1="239.617" x2="170.83" y2="309.928"
                        gradientUnits="userSpaceOnUse">
            <stop stop-color="#38393A" stop-opacity="0.4"/>
            <stop offset="0.478947" stop-color="#353637" stop-opacity="0"/>
            <stop offset="1" stop-color="#373839" stop-opacity="0.4"/>
        </linearGradient>
        <linearGradient id="paint17_linear_902_3687" x1="518.2" y1="303.141" x2="368.027" y2="332.539"
                        gradientUnits="userSpaceOnUse">
            <stop stop-color="#38393A" stop-opacity="0.4"/>
            <stop offset="0.478947" stop-color="#353637" stop-opacity="0"/>
            <stop offset="1" stop-color="#373839" stop-opacity="0.4"/>
        </linearGradient>
        <linearGradient id="paint18_linear_902_3687" x1="527.299" y1="224.495" x2="161.872" y2="293.222"
                        gradientUnits="userSpaceOnUse">
            <stop stop-color="#38393A" stop-opacity="0.4"/>
            <stop offset="0.478947" stop-color="#353637" stop-opacity="0"/>
            <stop offset="1" stop-color="#373839" stop-opacity="0.4"/>
        </linearGradient>
        <linearGradient id="paint19_linear_902_3687" x1="254.1" y1="339.891" x2="230.608" y2="343.28"
                        gradientUnits="userSpaceOnUse">
            <stop stop-color="#38393A" stop-opacity="0.4"/>
            <stop offset="0.478947" stop-color="#353637" stop-opacity="0"/>
            <stop offset="1" stop-color="#373839" stop-opacity="0.4"/>
        </linearGradient>
        <linearGradient id="paint20_linear_902_3687" x1="550.853" y1="245.872" x2="184.494" y2="315.033"
                        gradientUnits="userSpaceOnUse">
            <stop stop-color="#38393A" stop-opacity="0.4"/>
            <stop offset="0.478947" stop-color="#353637" stop-opacity="0"/>
            <stop offset="1" stop-color="#373839" stop-opacity="0.4"/>
        </linearGradient>
        <linearGradient id="paint21_linear_902_3687" x1="557.444" y1="252.072" x2="76.8107" y2="341.219"
                        gradientUnits="userSpaceOnUse">
            <stop stop-color="#38393A" stop-opacity="0.4"/>
            <stop offset="0.478947" stop-color="#353637" stop-opacity="0"/>
            <stop offset="1" stop-color="#373839" stop-opacity="0.4"/>
        </linearGradient>
        <linearGradient id="paint22_linear_902_3687" x1="666.333" y1="289.457" x2="297.583" y2="359.576"
                        gradientUnits="userSpaceOnUse">
            <stop stop-color="#38393A" stop-opacity="0.4"/>
            <stop offset="0.478947" stop-color="#353637" stop-opacity="0"/>
            <stop offset="1" stop-color="#373839" stop-opacity="0.4"/>
        </linearGradient>
        <linearGradient id="paint23_linear_902_3687" x1="185.443" y1="343.256" x2="184.167" y2="343.502"
                        gradientUnits="userSpaceOnUse">
            <stop stop-color="#38393A" stop-opacity="0.4"/>
            <stop offset="0.478947" stop-color="#353637" stop-opacity="0"/>
            <stop offset="1" stop-color="#373839" stop-opacity="0.4"/>
        </linearGradient>
        <linearGradient id="paint24_linear_902_3687" x1="589.151" y1="297.584" x2="582.031" y2="299.007"
                        gradientUnits="userSpaceOnUse">
            <stop stop-color="#38393A" stop-opacity="0.4"/>
            <stop offset="0.478947" stop-color="#353637" stop-opacity="0"/>
            <stop offset="1" stop-color="#373839" stop-opacity="0.4"/>
        </linearGradient>
        <linearGradient id="paint25_linear_902_3687" x1="513.272" y1="216.531" x2="117.359" y2="290.15"
                        gradientUnits="userSpaceOnUse">
            <stop stop-color="#38393A" stop-opacity="0.4"/>
            <stop offset="0.478947" stop-color="#353637" stop-opacity="0"/>
            <stop offset="1" stop-color="#373839" stop-opacity="0.4"/>
        </linearGradient>
        <linearGradient id="paint26_linear_902_3687" x1="376.079" y1="274.954" x2="363.412" y2="277.487"
                        gradientUnits="userSpaceOnUse">
            <stop stop-color="#38393A" stop-opacity="0.4"/>
            <stop offset="0.478947" stop-color="#353637" stop-opacity="0"/>
            <stop offset="1" stop-color="#373839" stop-opacity="0.4"/>
        </linearGradient>
        <linearGradient id="paint27_linear_902_3687" x1="401.657" y1="261.417" x2="383.742" y2="264.994"
                        gradientUnits="userSpaceOnUse">
            <stop stop-color="#38393A" stop-opacity="0.4"/>
            <stop offset="0.478947" stop-color="#353637" stop-opacity="0"/>
            <stop offset="1" stop-color="#373839" stop-opacity="0.4"/>
        </linearGradient>
        <linearGradient id="paint28_linear_902_3687" x1="416.773" y1="244.095" x2="402.982" y2="246.851"
                        gradientUnits="userSpaceOnUse">
            <stop stop-color="#38393A" stop-opacity="0.4"/>
            <stop offset="0.478947" stop-color="#353637" stop-opacity="0"/>
            <stop offset="1" stop-color="#373839" stop-opacity="0.4"/>
        </linearGradient>
        <linearGradient id="paint29_linear_902_3687" x1="569.141" y1="235.873" x2="428.67" y2="263.511"
                        gradientUnits="userSpaceOnUse">
            <stop stop-color="#38393A" stop-opacity="0.4"/>
            <stop offset="0.478947" stop-color="#353637" stop-opacity="0"/>
            <stop offset="1" stop-color="#373839" stop-opacity="0.4"/>
        </linearGradient>
        <linearGradient id="paint30_linear_902_3687" x1="457.126" y1="209.98" x2="442.06" y2="212.986"
                        gradientUnits="userSpaceOnUse">
            <stop stop-color="#38393A" stop-opacity="0.4"/>
            <stop offset="0.478947" stop-color="#353637" stop-opacity="0"/>
            <stop offset="1" stop-color="#373839" stop-opacity="0.4"/>
        </linearGradient>
        <linearGradient id="paint31_linear_902_3687" x1="587.611" y1="221.461" x2="470.868" y2="244.58"
                        gradientUnits="userSpaceOnUse">
            <stop stop-color="#38393A" stop-opacity="0.4"/>
            <stop offset="0.478947" stop-color="#353637" stop-opacity="0"/>
            <stop offset="1" stop-color="#373839" stop-opacity="0.4"/>
        </linearGradient>
        <linearGradient id="paint32_linear_902_3687" x1="590.05" y1="220.214" x2="492.739" y2="239.553"
                        gradientUnits="userSpaceOnUse">
            <stop stop-color="#38393A" stop-opacity="0.4"/>
            <stop offset="0.478947" stop-color="#353637" stop-opacity="0"/>
            <stop offset="1" stop-color="#373839" stop-opacity="0.4"/>
        </linearGradient>
        <linearGradient id="paint33_linear_902_3687" x1="514.11" y1="173.049" x2="502.865" y2="175.287"
                        gradientUnits="userSpaceOnUse">
            <stop stop-color="#38393A" stop-opacity="0.4"/>
            <stop offset="0.478947" stop-color="#353637" stop-opacity="0"/>
            <stop offset="1" stop-color="#373839" stop-opacity="0.4"/>
        </linearGradient>
        <linearGradient id="paint34_linear_902_3687" x1="168.377" y1="317.371" x2="163.28" y2="318.392"
                        gradientUnits="userSpaceOnUse">
            <stop stop-color="#38393A" stop-opacity="0.4"/>
            <stop offset="0.478947" stop-color="#353637" stop-opacity="0"/>
            <stop offset="1" stop-color="#373839" stop-opacity="0.4"/>
        </linearGradient>
        <linearGradient id="paint35_linear_902_3687" x1="288.024" y1="303.919" x2="277.456" y2="306.035"
                        gradientUnits="userSpaceOnUse">
            <stop stop-color="#38393A" stop-opacity="0.4"/>
            <stop offset="0.478947" stop-color="#353637" stop-opacity="0"/>
            <stop offset="1" stop-color="#373839" stop-opacity="0.4"/>
        </linearGradient>
        <linearGradient id="paint36_linear_902_3687" x1="455.522" y1="348.563" x2="314.128" y2="376.658"
                        gradientUnits="userSpaceOnUse">
            <stop stop-color="#38393A" stop-opacity="0.4"/>
            <stop offset="0.478947" stop-color="#353637" stop-opacity="0"/>
            <stop offset="1" stop-color="#373839" stop-opacity="0.4"/>
        </linearGradient>
        <linearGradient id="paint37_linear_902_3687" x1="558.136" y1="309.054" x2="140.489" y2="389.243"
                        gradientUnits="userSpaceOnUse">
            <stop stop-color="#38393A" stop-opacity="0.4"/>
            <stop offset="0.478947" stop-color="#353637" stop-opacity="0"/>
            <stop offset="1" stop-color="#373839" stop-opacity="0.4"/>
        </linearGradient>
        <linearGradient id="paint38_linear_902_3687" x1="536.946" y1="319.078" x2="523.303" y2="321.794"
                        gradientUnits="userSpaceOnUse">
            <stop stop-color="#38393A" stop-opacity="0.4"/>
            <stop offset="0.478947" stop-color="#353637" stop-opacity="0"/>
            <stop offset="1" stop-color="#373839" stop-opacity="0.4"/>
        </linearGradient>
        <linearGradient id="paint39_linear_902_3687" x1="443.901" y1="425.385" x2="438.203" y2="426.516"
                        gradientUnits="userSpaceOnUse">
            <stop stop-color="#38393A" stop-opacity="0.4"/>
            <stop offset="0.478947" stop-color="#353637" stop-opacity="0"/>
            <stop offset="1" stop-color="#373839" stop-opacity="0.4"/>
        </linearGradient>
        <linearGradient id="paint40_linear_902_3687" x1="513.111" y1="343.456" x2="499.992" y2="346.063"
                        gradientUnits="userSpaceOnUse">
            <stop stop-color="#38393A" stop-opacity="0.4"/>
            <stop offset="0.478947" stop-color="#353637" stop-opacity="0"/>
            <stop offset="1" stop-color="#373839" stop-opacity="0.4"/>
        </linearGradient>
        <linearGradient id="paint41_linear_902_3687" x1="77.6234" y1="314.42" x2="70.1945" y2="315.859"
                        gradientUnits="userSpaceOnUse">
            <stop stop-color="#38393A" stop-opacity="0.4"/>
            <stop offset="0.478947" stop-color="#353637" stop-opacity="0"/>
            <stop offset="1" stop-color="#373839" stop-opacity="0.4"/>
        </linearGradient>
        <linearGradient id="paint42_linear_902_3687" x1="401.776" y1="363.438" x2="248.012" y2="393.994"
                        gradientUnits="userSpaceOnUse">
            <stop stop-color="#38393A" stop-opacity="0.4"/>
            <stop offset="0.478947" stop-color="#353637" stop-opacity="0"/>
            <stop offset="1" stop-color="#373839" stop-opacity="0.4"/>
        </linearGradient>
        <linearGradient id="paint43_linear_902_3687" x1="561.903" y1="301.795" x2="540.386" y2="306.064"
                        gradientUnits="userSpaceOnUse">
            <stop stop-color="#38393A" stop-opacity="0.4"/>
            <stop offset="0.478947" stop-color="#353637" stop-opacity="0"/>
            <stop offset="1" stop-color="#373839" stop-opacity="0.4"/>
        </linearGradient>
        <linearGradient id="paint44_linear_902_3687" x1="489.95" y1="371.184" x2="477.354" y2="373.681"
                        gradientUnits="userSpaceOnUse">
            <stop stop-color="#38393A" stop-opacity="0.4"/>
            <stop offset="0.478947" stop-color="#353637" stop-opacity="0"/>
            <stop offset="1" stop-color="#373839" stop-opacity="0.4"/>
        </linearGradient>
        <linearGradient id="paint45_linear_902_3687" x1="76.9783" y1="312.707" x2="70.8264" y2="313.906"
                        gradientUnits="userSpaceOnUse">
            <stop stop-color="#38393A" stop-opacity="0.4"/>
            <stop offset="0.478947" stop-color="#353637" stop-opacity="0"/>
            <stop offset="1" stop-color="#373839" stop-opacity="0.4"/>
        </linearGradient>
        <linearGradient id="paint46_linear_902_3687" x1="380.467" y1="395.279" x2="269.363" y2="417.369"
                        gradientUnits="userSpaceOnUse">
            <stop stop-color="#38393A" stop-opacity="0.4"/>
            <stop offset="0.478947" stop-color="#353637" stop-opacity="0"/>
            <stop offset="1" stop-color="#373839" stop-opacity="0.4"/>
        </linearGradient>
        <linearGradient id="paint47_linear_902_3687" x1="268.827" y1="404.733" x2="200.69" y2="418.334"
                        gradientUnits="userSpaceOnUse">
            <stop stop-color="#38393A" stop-opacity="0.4"/>
            <stop offset="0.478947" stop-color="#353637" stop-opacity="0"/>
            <stop offset="1" stop-color="#373839" stop-opacity="0.4"/>
        </linearGradient>
        <linearGradient id="paint48_linear_902_3687" x1="297.665" y1="405.354" x2="201.787" y2="424.451"
                        gradientUnits="userSpaceOnUse">
            <stop stop-color="#38393A" stop-opacity="0.4"/>
            <stop offset="0.478947" stop-color="#353637" stop-opacity="0"/>
            <stop offset="1" stop-color="#373839" stop-opacity="0.4"/>
        </linearGradient>
        <linearGradient id="paint49_linear_902_3687" x1="352.565" y1="398.649" x2="200.663" y2="428.768"
                        gradientUnits="userSpaceOnUse">
            <stop stop-color="#38393A" stop-opacity="0.4"/>
            <stop offset="0.478947" stop-color="#353637" stop-opacity="0"/>
            <stop offset="1" stop-color="#373839" stop-opacity="0.4"/>
        </linearGradient>
        <linearGradient id="paint50_linear_902_3687" x1="333.452" y1="446.611" x2="129.97" y2="485.746"
                        gradientUnits="userSpaceOnUse">
            <stop stop-color="#38393A" stop-opacity="0.4"/>
            <stop offset="0.478947" stop-color="#353637" stop-opacity="0"/>
            <stop offset="1" stop-color="#373839" stop-opacity="0.4"/>
        </linearGradient>
        <linearGradient id="paint51_linear_902_3687" x1="248.183" y1="450.088" x2="129.754" y2="472.508"
                        gradientUnits="userSpaceOnUse">
            <stop stop-color="#38393A" stop-opacity="0.4"/>
            <stop offset="0.478947" stop-color="#353637" stop-opacity="0"/>
            <stop offset="1" stop-color="#373839" stop-opacity="0.4"/>
        </linearGradient>
        <linearGradient id="paint52_linear_902_3687" x1="359.64" y1="288.016" x2="343.375" y2="291.267"
                        gradientUnits="userSpaceOnUse">
            <stop stop-color="#38393A" stop-opacity="0.4"/>
            <stop offset="0.478947" stop-color="#353637" stop-opacity="0"/>
            <stop offset="1" stop-color="#373839" stop-opacity="0.4"/>
        </linearGradient>
        <linearGradient id="paint53_linear_902_3687" x1="219.868" y1="454.61" x2="133.1" y2="469.907"
                        gradientUnits="userSpaceOnUse">
            <stop stop-color="#38393A" stop-opacity="0.4"/>
            <stop offset="0.478947" stop-color="#353637" stop-opacity="0"/>
            <stop offset="1" stop-color="#373839" stop-opacity="0.4"/>
        </linearGradient>
        <linearGradient id="paint54_linear_902_3687" x1="176.925" y1="335.873" x2="160.725" y2="339.056"
                        gradientUnits="userSpaceOnUse">
            <stop stop-color="#38393A" stop-opacity="0.4"/>
            <stop offset="0.478947" stop-color="#353637" stop-opacity="0"/>
            <stop offset="1" stop-color="#373839" stop-opacity="0.4"/>
        </linearGradient>
        <linearGradient id="paint55_linear_902_3687" x1="225.962" y1="320.676" x2="211.197" y2="323.632"
                        gradientUnits="userSpaceOnUse">
            <stop stop-color="#38393A" stop-opacity="0.4"/>
            <stop offset="0.478947" stop-color="#353637" stop-opacity="0"/>
            <stop offset="1" stop-color="#373839" stop-opacity="0.4"/>
        </linearGradient>
        <linearGradient id="paint56_linear_902_3687" x1="75.321" y1="308.287" x2="70.7451" y2="309.181"
                        gradientUnits="userSpaceOnUse">
            <stop stop-color="#38393A" stop-opacity="0.4"/>
            <stop offset="0.478947" stop-color="#353637" stop-opacity="0"/>
            <stop offset="1" stop-color="#373839" stop-opacity="0.4"/>
        </linearGradient>
        <linearGradient id="paint57_linear_902_3687" x1="191.146" y1="455.157" x2="186.048" y2="456.173"
                        gradientUnits="userSpaceOnUse">
            <stop stop-color="#38393A" stop-opacity="0.4"/>
            <stop offset="0.478947" stop-color="#353637" stop-opacity="0"/>
            <stop offset="1" stop-color="#373839" stop-opacity="0.4"/>
        </linearGradient>
        <linearGradient id="paint58_linear_902_3687" x1="505.115" y1="205.086" x2="102.496" y2="279.388"
                        gradientUnits="userSpaceOnUse">
            <stop stop-color="#38393A" stop-opacity="0.4"/>
            <stop offset="0.478947" stop-color="#353637" stop-opacity="0"/>
            <stop offset="1" stop-color="#373839" stop-opacity="0.4"/>
        </linearGradient>
        <linearGradient id="paint59_linear_902_3687" x1="572.52" y1="263.795" x2="78.8064" y2="356.688"
                        gradientUnits="userSpaceOnUse">
            <stop stop-color="#38393A" stop-opacity="0.4"/>
            <stop offset="0.478947" stop-color="#353637" stop-opacity="0"/>
            <stop offset="1" stop-color="#373839" stop-opacity="0.4"/>
        </linearGradient>
        <linearGradient id="paint60_linear_902_3687" x1="525.16" y1="342.641" x2="171.526" y2="411.296"
                        gradientUnits="userSpaceOnUse">
            <stop stop-color="#38393A" stop-opacity="0.4"/>
            <stop offset="0.478947" stop-color="#353637" stop-opacity="0"/>
            <stop offset="1" stop-color="#373839" stop-opacity="0.4"/>
        </linearGradient>
        <linearGradient id="paint61_linear_902_3687" x1="119.981" y1="395.479" x2="94.1255" y2="400.665"
                        gradientUnits="userSpaceOnUse">
            <stop stop-color="#38393A" stop-opacity="0.4"/>
            <stop offset="0.478947" stop-color="#353637" stop-opacity="0"/>
            <stop offset="1" stop-color="#373839" stop-opacity="0.4"/>
        </linearGradient>
        <linearGradient id="paint62_linear_902_3687" x1="115.767" y1="314.135" x2="115.018" y2="314.285"
                        gradientUnits="userSpaceOnUse">
            <stop stop-color="#38393A" stop-opacity="0.4"/>
            <stop offset="0.478947" stop-color="#353637" stop-opacity="0"/>
            <stop offset="1" stop-color="#373839" stop-opacity="0.4"/>
        </linearGradient>
        <linearGradient id="paint63_linear_902_3687" x1="543.517" y1="347.339" x2="109.468" y2="429.156"
                        gradientUnits="userSpaceOnUse">
            <stop stop-color="#38393A" stop-opacity="0.4"/>
            <stop offset="0.478947" stop-color="#353637" stop-opacity="0"/>
            <stop offset="1" stop-color="#373839" stop-opacity="0.4"/>
        </linearGradient>
        <linearGradient id="paint64_linear_902_3687" x1="146.628" y1="326.449" x2="141.304" y2="327.497"
                        gradientUnits="userSpaceOnUse">
            <stop stop-color="#38393A" stop-opacity="0.4"/>
            <stop offset="0.478947" stop-color="#353637" stop-opacity="0"/>
            <stop offset="1" stop-color="#373839" stop-opacity="0.4"/>
        </linearGradient>
        <linearGradient id="paint65_linear_902_3687" x1="69.0995" y1="318.084" x2="67.8202" y2="318.31"
                        gradientUnits="userSpaceOnUse">
            <stop stop-color="#38393A" stop-opacity="0.4"/>
            <stop offset="0.478947" stop-color="#353637" stop-opacity="0"/>
            <stop offset="1" stop-color="#373839" stop-opacity="0.4"/>
        </linearGradient>
        <linearGradient id="paint66_linear_902_3687" x1="78.6048" y1="317.499" x2="68.0151" y2="319.498"
                        gradientUnits="userSpaceOnUse">
            <stop stop-color="#38393A" stop-opacity="0.4"/>
            <stop offset="0.478947" stop-color="#353637" stop-opacity="0"/>
            <stop offset="1" stop-color="#373839" stop-opacity="0.4"/>
        </linearGradient>
        <linearGradient id="paint67_linear_902_3687" x1="78.3664" y1="316.611" x2="69.7336" y2="318.265"
                        gradientUnits="userSpaceOnUse">
            <stop stop-color="#38393A" stop-opacity="0.4"/>
            <stop offset="0.478947" stop-color="#353637" stop-opacity="0"/>
            <stop offset="1" stop-color="#373839" stop-opacity="0.4"/>
        </linearGradient>
        <linearGradient id="paint68_linear_902_3687" x1="72.535" y1="309.27" x2="67.2136" y2="310.335"
                        gradientUnits="userSpaceOnUse">
            <stop stop-color="#38393A" stop-opacity="0.4"/>
            <stop offset="0.478947" stop-color="#353637" stop-opacity="0"/>
            <stop offset="1" stop-color="#373839" stop-opacity="0.4"/>
        </linearGradient>
        <linearGradient id="paint69_linear_902_3687" x1="505.002" y1="388.65" x2="121.851" y2="461.163"
                        gradientUnits="userSpaceOnUse">
            <stop stop-color="#38393A" stop-opacity="0.4"/>
            <stop offset="0.478947" stop-color="#353637" stop-opacity="0"/>
            <stop offset="1" stop-color="#373839" stop-opacity="0.4"/>
        </linearGradient>
        <linearGradient id="paint70_linear_902_3687" x1="509.566" y1="379.821" x2="117.726" y2="454.111"
                        gradientUnits="userSpaceOnUse">
            <stop stop-color="#38393A" stop-opacity="0.4"/>
            <stop offset="0.478947" stop-color="#353637" stop-opacity="0"/>
            <stop offset="1" stop-color="#373839" stop-opacity="0.4"/>
        </linearGradient>
        <linearGradient id="paint71_linear_902_3687" x1="475.884" y1="380.711" x2="164.119" y2="441.237"
                        gradientUnits="userSpaceOnUse">
            <stop stop-color="#38393A" stop-opacity="0.4"/>
            <stop offset="0.478947" stop-color="#353637" stop-opacity="0"/>
            <stop offset="1" stop-color="#373839" stop-opacity="0.4"/>
        </linearGradient>
        <linearGradient id="paint72_linear_902_3687" x1="73.0149" y1="302.849" x2="72.7151" y2="302.909"
                        gradientUnits="userSpaceOnUse">
            <stop stop-color="#38393A" stop-opacity="0.4"/>
            <stop offset="0.478947" stop-color="#353637" stop-opacity="0"/>
            <stop offset="1" stop-color="#373839" stop-opacity="0.4"/>
        </linearGradient>
    </defs>
</svg>
