<svg width="400" height="435" viewBox="100 50 430 435" fill="none" xmlns="http://www.w3.org/2000/svg">
<path opacity="0.9" d="M161.928 351.986C161.912 369.058 175.891 383.062 192.962 383.078C203.61 383.088 213.823 377.465 219.199 368.319L217.176 368.317C214.001 375.794 206.78 380.627 198.069 380.619C181.525 380.603 166.493 363.694 166.509 346.182C166.522 332.543 175.946 323.311 187.386 323.322C195.042 323.329 203.222 326.945 209.464 333.638L217.912 333.646C211.935 325.457 202.524 320.96 193.02 320.951C175.948 320.935 161.944 334.826 161.928 351.986Z" fill="#232425"/>
<path opacity="0.9" d="M233.115 349.852L233.027 349.852L233.037 338.852L223.002 342.011L227.751 345.183L227.721 377.919L222.964 382.842L237.748 382.856L233.001 377.924L233.025 352.052C233.029 346.772 239.543 344.49 247.463 344.762L248.789 338.779C239.636 339.914 234.266 342.285 233.115 349.852Z" fill="#232425"/>
<path opacity="0.9" d="M287.689 343.83L275.254 373.914L261.378 343.806L266.134 338.882L250.294 338.868L255.042 343.8L271.201 378.662L257.646 382.17C251.573 383.748 247.433 387.88 247.429 392.544C247.424 397.824 251.733 401.26 257.541 401.265C264.581 401.272 269.954 395.029 273.221 382.888L275.421 382.89L275.428 375.85L288.657 343.831L293.414 338.907L282.942 338.898L287.689 343.83ZM272.958 382.448C269.344 389.308 263.441 395.991 256.314 395.984C251.738 395.98 248.923 394.481 248.926 391.225C248.93 387.177 253.509 383.926 257.91 382.786L271.465 379.278L272.958 382.448Z" fill="#232425"/>
<path opacity="0.9" d="M295.343 398.748L310.127 398.762L305.379 393.829L305.396 375.966C308.648 379.929 313.837 383.189 319.293 383.194C331.613 383.206 340.246 373.094 340.257 360.95C340.268 348.806 331.654 338.679 319.334 338.667C313.878 338.662 308.683 341.913 305.424 345.87L305.43 338.918L295.395 342.077L300.144 345.249L300.1 393.824L295.343 398.748ZM305.423 347.014C308.595 342.617 313.966 339.454 319.333 339.459C326.989 339.466 333.932 349.24 333.921 360.944C333.91 372.648 326.95 382.409 319.294 382.402C313.926 382.397 308.561 379.224 305.397 374.822L305.423 347.014Z" fill="#232425"/>
<path opacity="0.9" d="M342.869 339.569L348.061 339.574L348.031 371.869C348.025 378.733 354.005 383.139 360.781 383.145C361.573 383.146 362.453 383.146 363.245 382.971L363.157 382.355C362.365 382.53 361.485 382.618 360.693 382.617C356.909 382.613 353.303 380.498 353.312 370.554L353.341 339.579L360.997 339.586L360.997 338.97L353.342 338.963L353.349 331.219L342.869 339.569Z" fill="#232425"/>
<path opacity="0.9" d="M372.924 363.427C376.708 374.688 389.358 381.392 401.286 377.384C412.631 373.572 419.279 361.034 415.187 348.855C411.403 337.594 398.753 330.89 386.825 334.898C375.481 338.71 368.832 351.248 372.924 363.427ZM376.527 357.296C373.36 347.87 376.763 339.764 384.02 337.326C394.03 333.962 407.492 342.807 411.584 354.986C414.751 364.412 411.348 372.518 404.091 374.956C394.081 378.319 380.619 369.475 376.527 357.296Z" fill="#232425"/>
<path opacity="0.9" d="M431.327 296.96L452.22 323.321L418.075 321.206L416.03 314.673L408.391 328.65L414.995 326.843L458.1 329.443L459.535 326.818L453.512 323.526L431.834 296.033L429.789 289.5L424.724 298.766L431.327 296.96Z" fill="#232425"/>
<path opacity="0.9" d="M435.514 265.977L435.532 246.089C428.928 250.483 425.138 257.343 425.13 265.703C425.119 277.583 434.614 287.976 448.165 287.988C461.981 288.001 470 275.777 470.011 264.337C470.022 252.105 460.172 246.024 452.692 246.017C442.66 246.008 436.492 254.538 435.514 265.977ZM434.885 279.704C429.872 276.18 426.797 271.513 426.803 265.265C426.807 260.073 429.364 255.147 434.91 253.305L434.885 279.704ZM452.427 246.985C460.171 246.992 467.293 253.071 467.284 263.366C467.274 273.926 456.882 282.716 445.266 282.706C441.746 282.702 438.403 281.907 435.501 280.233L435.511 269.497C435.524 255.329 443.099 246.976 452.427 246.985Z" fill="#232425"/>
<path opacity="0.9" d="M436.602 231.306L436.602 231.394L425.602 231.384L428.761 241.419L431.933 236.67L464.668 236.7L469.592 241.456L469.606 226.673L464.673 231.42L438.802 231.396C433.522 231.391 431.24 224.877 431.511 216.958L425.529 215.632C426.664 224.785 429.035 230.155 436.602 231.306Z" fill="#232425"/>
<path opacity="0.9" d="M443.585 197.555C441.733 201.953 437.766 209.781 432.75 209.777C428.702 209.773 426.154 205.019 426.159 200.003C426.161 197.979 426.515 196.131 427.484 194.02L435.589 184.964L425.643 187.243L425.631 200.002C425.626 205.898 428.701 211.093 435.301 211.099C442.692 211.106 447.452 202.663 449.569 197.825C452.214 192.195 455.917 184.015 461.197 184.02C465.949 184.024 469.112 189.395 469.106 195.467C469.104 197.755 468.485 200.834 467.603 203.033L459.323 212.441L469.621 210.163L469.634 195.467C469.641 188.427 465.51 182.616 459.174 182.61C449.407 182.601 446.319 191.222 443.585 197.555Z" fill="#232425"/>
<path opacity="0.9" d="M435.616 155.149L435.635 135.261C429.031 139.655 425.24 146.515 425.233 154.875C425.222 166.755 434.716 177.148 448.268 177.16C462.083 177.173 470.103 164.948 470.113 153.509C470.124 141.277 460.274 135.196 452.794 135.189C442.763 135.18 436.595 143.71 435.616 155.149ZM434.988 168.876C429.975 165.351 426.899 160.685 426.905 154.437C426.91 149.245 429.466 144.319 435.012 142.476L434.988 168.876ZM452.529 136.157C460.273 136.164 467.396 142.242 467.386 152.538C467.376 163.098 456.984 171.888 445.369 171.877C441.849 171.874 438.505 171.079 435.603 169.404L435.613 158.669C435.626 144.501 443.202 136.148 452.529 136.157Z" fill="#232425"/>
<g filter="url(#filter0_d_898_3271)">
<path opacity="0.9" d="M199.29 133H220.215V130.075L204.42 132.55V114.37L217.245 116.755V113.83L204.42 113.92V101.95L217.245 104.425V101.5H199.29L201.72 104.02V130.48L199.29 133ZM241.419 110.5H236.289L238.764 113.02L232.149 120.805L226.569 113.02L228.999 110.5H221.124L230.214 123.055L221.709 133H226.794L224.409 130.48L230.484 123.37L235.614 130.48L233.184 133H241.014L232.374 121.165L241.419 110.5ZM242.568 141.1H250.128L247.698 138.58V129.445C249.363 131.47 252.018 133.135 254.808 133.135C261.108 133.135 265.518 127.96 265.518 121.75C265.518 115.54 261.108 110.365 254.808 110.365C252.018 110.365 249.363 112.03 247.698 114.055V110.5L242.568 112.12L244.998 113.74V138.58L242.568 141.1ZM247.698 114.64C249.318 112.39 252.063 110.77 254.808 110.77C258.723 110.77 262.278 115.765 262.278 121.75C262.278 127.735 258.723 132.73 254.808 132.73C252.063 132.73 249.318 131.11 247.698 128.86V114.64ZM279.283 115.585H289.453C287.203 112.21 283.693 110.275 279.418 110.275C273.343 110.275 268.033 115.135 268.033 122.065C268.033 129.13 274.288 133.225 280.138 133.225C286.393 133.225 289.498 128.185 289.498 124.36C289.498 119.23 285.133 116.08 279.283 115.585ZM272.263 115.27C274.063 112.705 276.448 111.13 279.643 111.13C282.298 111.13 284.818 112.435 285.763 115.27H272.263ZM289.003 124.225C289.003 128.185 285.898 131.83 280.633 131.83C275.233 131.83 270.733 126.52 270.733 120.58C270.733 118.78 271.138 117.07 271.993 115.585H277.483C284.728 115.585 289.003 119.455 289.003 124.225ZM296.218 116.125H296.173V110.5L291.043 112.12L293.473 113.74V130.48L291.043 133H298.603L296.173 130.48V117.25C296.173 114.55 299.503 113.38 303.553 113.515L304.228 110.455C299.548 111.04 296.803 112.255 296.218 116.125ZM308.658 107.35C309.783 107.35 310.683 106.45 310.683 105.325C310.683 104.2 309.783 103.3 308.658 103.3C307.533 103.3 306.633 104.2 306.633 105.325C306.633 106.45 307.533 107.35 308.658 107.35ZM310.368 110.5L305.238 112.12L307.668 113.74V130.48L305.238 133H312.798L310.368 130.48V110.5ZM325.25 115.585H335.42C333.17 112.21 329.66 110.275 325.385 110.275C319.31 110.275 314 115.135 314 122.065C314 129.13 320.255 133.225 326.105 133.225C332.36 133.225 335.465 128.185 335.465 124.36C335.465 119.23 331.1 116.08 325.25 115.585ZM318.23 115.27C320.03 112.705 322.415 111.13 325.61 111.13C328.265 111.13 330.785 112.435 331.73 115.27H318.23ZM334.97 124.225C334.97 128.185 331.865 131.83 326.6 131.83C321.2 131.83 316.7 126.52 316.7 120.58C316.7 118.78 317.105 117.07 317.96 115.585H323.45C330.695 115.585 334.97 119.455 334.97 124.225ZM356.765 118.15C356.765 112.975 353.12 110.365 349.34 110.365C346.415 110.365 344.48 111.625 342.14 113.83V110.545L337.01 112.165L339.44 113.785V130.48L337.01 133H344.57L342.14 130.48V114.325C343.985 112.39 345.83 110.995 348.035 110.995C351.185 110.995 354.065 113.785 354.065 117.97V130.48L351.635 133H359.195L356.765 130.48V118.15ZM379.897 126.97C379.132 130.12 376.882 132.55 373.462 132.55C367.972 132.55 362.887 126.16 362.887 119.32C362.887 114.73 365.542 110.905 369.727 110.905C372.427 110.905 375.307 112.615 377.377 115.405H381.112C378.997 112.21 375.352 110.275 371.617 110.275C365.362 110.275 360.142 115.36 360.142 121.75C360.142 128.095 365.227 133.225 371.572 133.225C375.982 133.225 379.762 130.795 381.742 126.97H379.897ZM394.683 115.585H404.853C402.603 112.21 399.093 110.275 394.818 110.275C388.743 110.275 383.433 115.135 383.433 122.065C383.433 129.13 389.688 133.225 395.538 133.225C401.793 133.225 404.898 128.185 404.898 124.36C404.898 119.23 400.533 116.08 394.683 115.585ZM387.663 115.27C389.463 112.705 391.848 111.13 395.043 111.13C397.698 111.13 400.218 112.435 401.163 115.27H387.663ZM404.403 124.225C404.403 128.185 401.298 131.83 396.033 131.83C390.633 131.83 386.133 126.52 386.133 120.58C386.133 118.78 386.538 117.07 387.393 115.585H392.883C400.128 115.585 404.403 119.455 404.403 124.225Z" fill="#232425"/>
<path opacity="0.9" d="M265.863 168H254.363L259.763 173.6V220.4L224.963 168H216.963L221.463 174.3V232.4L216.063 238H227.563L222.163 232.4V175L259.763 232.4L254.563 238H265.863L260.463 232.4V173.6L265.863 168ZM269.091 238H285.891L280.491 232.4V196.6L308.991 201.9V195.4L280.491 195.6V169L308.991 174.5V168H269.091L274.491 173.6V232.4L269.091 238ZM311.448 182.1L325.148 168.7H333.848V232.4L328.448 238H345.248L339.848 232.4V168.7H348.548L362.348 182.1L358.148 168H315.648L311.448 182.1ZM370.768 208.4C365.768 206.3 356.868 201.8 356.868 196.1C356.868 191.5 362.268 188.6 367.968 188.6C370.268 188.6 372.368 189 374.768 190.1L385.068 199.3L382.468 188H367.968C361.268 188 355.368 191.5 355.368 199C355.368 207.4 364.968 212.8 370.468 215.2C376.868 218.2 386.168 222.4 386.168 228.4C386.168 233.8 380.068 237.4 373.168 237.4C370.568 237.4 367.068 236.7 364.568 235.7L353.868 226.3L356.468 238H373.168C381.168 238 387.768 233.3 387.768 226.1C387.768 215 377.968 211.5 370.768 208.4Z" fill="#232425"/>
<path opacity="0.9" d="M215.957 277.56C218.162 276.165 219.602 274.725 219.602 272.115C219.602 268.335 216.452 265.5 212.312 265.5H200.432L202.862 268.02V294.48L200.432 297H215.102C220.502 297 224.867 292.635 224.867 287.235C224.867 282.195 220.952 278.01 215.957 277.56ZM205.562 265.815H210.107C215.507 265.905 216.767 269.82 216.767 272.295C216.767 274.905 214.697 277.965 211.412 279.765C209.297 280.935 206.462 282.465 205.562 285.39V265.815ZM222.032 287.235C222.032 291.78 219.512 296.685 215.102 296.685H205.562V287.235C205.607 283.185 209.072 281.34 212.132 279.675C212.627 279.405 214.877 278.235 215.552 277.785C219.377 278.1 222.032 282.51 222.032 287.235ZM238.062 279.585H248.232C245.982 276.21 242.472 274.275 238.197 274.275C232.122 274.275 226.812 279.135 226.812 286.065C226.812 293.13 233.067 297.225 238.917 297.225C245.172 297.225 248.277 292.185 248.277 288.36C248.277 283.23 243.912 280.08 238.062 279.585ZM231.042 279.27C232.842 276.705 235.227 275.13 238.422 275.13C241.077 275.13 243.597 276.435 244.542 279.27H231.042ZM247.782 288.225C247.782 292.185 244.677 295.83 239.412 295.83C234.012 295.83 229.512 290.52 229.512 284.58C229.512 282.78 229.917 281.07 230.772 279.585H236.262C243.507 279.585 247.782 283.455 247.782 288.225ZM266.653 277.02L260.308 292.41L253.198 277.02L255.628 274.5H247.528L249.958 277.02L258.238 294.84L251.308 296.64C248.203 297.45 246.088 299.565 246.088 301.95C246.088 304.65 248.293 306.405 251.263 306.405C254.863 306.405 257.608 303.21 259.273 297H260.398V293.4L267.148 277.02L269.578 274.5H264.223L266.653 277.02ZM259.138 296.775C257.293 300.285 254.278 303.705 250.633 303.705C248.293 303.705 246.853 302.94 246.853 301.275C246.853 299.205 249.193 297.54 251.443 296.955L258.373 295.155L259.138 296.775ZM268.736 285.84C268.736 291.915 273.776 297.225 280.211 297.225C286.331 297.225 291.596 292.23 291.596 285.66C291.596 279.585 286.556 274.275 280.121 274.275C274.001 274.275 268.736 279.27 268.736 285.84ZM271.481 283.455C271.481 278.37 274.451 274.995 278.366 274.995C283.766 274.995 288.851 281.475 288.851 288.045C288.851 293.13 285.881 296.505 281.966 296.505C276.566 296.505 271.481 290.025 271.481 283.455ZM312.644 282.15C312.644 276.975 308.999 274.365 305.219 274.365C302.294 274.365 300.359 275.625 298.019 277.83V274.545L292.889 276.165L295.319 277.785V294.48L292.889 297H300.449L298.019 294.48V278.325C299.864 276.39 301.709 274.995 303.914 274.995C307.064 274.995 309.944 277.785 309.944 281.97V294.48L307.514 297H315.074L312.644 294.48V282.15ZM316.021 285.75C316.021 291.96 320.431 297.135 326.731 297.135C329.521 297.135 332.176 295.47 333.841 293.445V297H338.971L336.541 294.48V265.815L331.411 267.435L333.841 269.055V278.055C332.176 276.03 329.521 274.365 326.731 274.365C320.431 274.365 316.021 279.54 316.021 285.75ZM319.261 285.75C319.261 279.765 322.816 274.77 326.731 274.77C329.476 274.77 332.221 276.39 333.841 278.64V292.86C332.221 295.11 329.476 296.73 326.731 296.73C322.816 296.73 319.261 291.735 319.261 285.75ZM348.425 274.815H351.08V291.33C351.08 294.84 354.14 297.09 357.605 297.09C358.01 297.09 358.46 297.09 358.865 297L358.82 296.685C358.415 296.775 357.965 296.82 357.56 296.82C355.625 296.82 353.78 295.74 353.78 290.655V274.815H357.695V274.5H353.78V270.54L348.425 274.815ZM378.899 282.33C378.899 276.525 374.354 273.96 370.169 274.545C371.519 273.69 372.329 272.34 372.329 270.72C372.329 267.975 370.079 265.815 367.334 265.815C364.544 265.815 362.024 268.245 362.024 272.61V294.48L359.594 297H367.154L364.724 294.48V277.875C366.569 276.165 368.009 275.085 370.079 275.085C373.274 275.085 376.199 277.965 376.199 282.15V294.48L373.769 297H381.329L378.899 294.48V282.33ZM368.999 274.77C367.334 275.31 366.074 276.21 364.724 277.425V271.935C364.724 268.2 366.389 266.4 368.234 266.4C370.214 266.4 372.014 268.38 372.014 270.72C372.014 272.565 370.934 274.05 368.999 274.77ZM393.541 279.585H403.711C401.461 276.21 397.951 274.275 393.676 274.275C387.601 274.275 382.291 279.135 382.291 286.065C382.291 293.13 388.546 297.225 394.396 297.225C400.651 297.225 403.756 292.185 403.756 288.36C403.756 283.23 399.391 280.08 393.541 279.585ZM386.521 279.27C388.321 276.705 390.706 275.13 393.901 275.13C396.556 275.13 399.076 276.435 400.021 279.27H386.521ZM403.261 288.225C403.261 292.185 400.156 295.83 394.891 295.83C389.491 295.83 384.991 290.52 384.991 284.58C384.991 282.78 385.396 281.07 386.251 279.585H391.741C398.986 279.585 403.261 283.455 403.261 288.225Z" fill="#232425"/>
</g>
<path d="M437.56 423.182L413.987 444.994L389.52 461.19L384.264 460.367L379.326 460.733L374.432 460.543L369.144 457.612L362.902 449.547L355.48 435.22L347.618 418.319L339.71 400.8L331.939 383.959L324.666 368.819L317.953 356.072L311.814 345.795L306.341 338.046L301.336 332.239L296.573 327.636L273.313 330.746L268.579 324.728L263.058 314.796L257.067 302.139L250.684 287.916" stroke="url(#paint0_linear_898_3271)" stroke-width="0.5864" stroke-linecap="round" stroke-linejoin="round"/>
<path d="M70.6866 299.827L71.7712 300.157L72.5243 300.398L99.5001 308.757L101.399 310.02L110.858 313.444L111.249 313.443L116.13 315.516L124.626 318.82L128.602 320.292L130.772 321.344L131.886 321.824L140.91 325.805L146.89 328.284L157.66 332.775L158.64 333.361L160.252 334.368L162.737 335.435L174.924 340.738L179.383 342.661L189.34 347.002L190.439 347.408L200.787 350.966L217.296 356.731L217.943 356.836L243.68 360.589L268.553 358.878L293.426 357.949L317.953 356.072L341.799 351.591L364.858 343.588L387.146 331.745L408.677 316.139L429.739 297.809L450.618 278.183L471.77 259.521L493.557 244.412L515.967 233.563L538.936 225.891L562.074 220.612" stroke="url(#paint1_linear_898_3271)" stroke-width="0.5864" stroke-linecap="round" stroke-linejoin="round"/>
<path d="M163.456 464.429L136.304 475.448" stroke="url(#paint2_linear_898_3271)" stroke-width="0.5864" stroke-linecap="round" stroke-linejoin="round"/>
<path d="M81.691 326.512L109.776 329.48L138.799 337.506L168.489 349.236L169.016 349.521L198.255 362.516L198.767 362.727L227.313 374.608L254.965 382.048L281.106 383.919L306.87 385.083L331.939 383.958L356.146 378.935L379.295 369.426L401.595 355.309L423.109 337.279L444.258 316.66L465.408 295.649L487.087 277.272L509.704 264.345L533.05 256.206L556.76 251.439L580.608 248.524" stroke="url(#paint3_linear_898_3271)" stroke-width="0.5864" stroke-linecap="round" stroke-linejoin="round"/>
<path d="M185.185 451.758L157.757 458.291L131.857 470.86" stroke="url(#paint4_linear_898_3271)" stroke-width="0.5864" stroke-linecap="round" stroke-linejoin="round"/>
<path d="M151.768 372.411L123.775 370.286L97.2781 374.438" stroke="url(#paint5_linear_898_3271)" stroke-width="0.5864" stroke-linecap="round" stroke-linejoin="round"/>
<path d="M580.288 290.172L554.218 298.39L529.421 315.67L505.821 340.463L482.993 368.704L460.36 397.139L437.56 423.181L431.582 422.66L426.284 425.135L421.288 428.332L416.11 429.452L410.022 425.272L402.738 413.971L394.939 399.72L387.094 384.46L379.294 369.426L371.887 355.565L364.859 343.587L358.434 333.836L352.464 326.344L347.068 320.929L341.99 317.094L336.941 312.627L331.105 303.855L324.664 291.68L317.753 277.172" stroke="url(#paint6_linear_898_3271)" stroke-width="0.5864" stroke-linecap="round" stroke-linejoin="round"/>
<path d="M88.9103 348.397L116.208 347.843L144.822 353.054L174.224 362.962L174.48 363.067L204.005 375.535L233.364 387.957L261.575 396.617L288.244 399.948L314.416 401.969L339.711 400.799L363.947 395.143L387.094 384.46L409.258 368.883L430.77 349.287L451.873 327.267L473.157 305.368L495.061 286.946L518.027 274.967L541.78 268.077L565.868 264.409L590.168 262.577" stroke="url(#paint7_linear_898_3271)" stroke-width="0.5864" stroke-linecap="round" stroke-linejoin="round"/>
<path d="M420.079 259.889L440.042 241.545L460.065 223.892L466.014 225.046L472.204 226.621L478.848 230.453L486.006 236.454L493.558 244.412L501.503 253.935L509.704 264.346L518.027 274.968L526.438 284.867L534.713 292.915L544.995 290.691" stroke="url(#paint8_linear_898_3271)" stroke-width="0.5864" stroke-linecap="round" stroke-linejoin="round"/>
<path d="M644.091 295.906L617.338 299.561L590.798 305.445L564.381 313.106L539.01 328.701L514.821 351.341L491.313 377.369L467.986 403.908L444.551 428.354L420.451 449.097L395.502 464.842L369.312 474.806L341.837 478.764L318.512 477.267L312.955 476.896L282.759 470.828L252.081 463.918L221.631 459.311L191.983 459.085L163.455 464.429L160.666 461.465L157.757 458.291L154.575 453.371L150.562 445.485L145.641 433.474L139.42 416.556L131.824 394.355L123.774 370.286L116.208 347.843L109.775 329.48L104.793 316.777L101.263 309.734L99.5002 308.757" stroke="url(#paint9_linear_898_3271)" stroke-width="0.5864" stroke-linecap="round" stroke-linejoin="round"/>
<path d="M405.464 279.509L425.683 261.661L445.705 242.834L451.549 244.244L457.906 247.429L464.582 252.587L471.771 259.521L479.248 267.886L487.087 277.273L495.062 286.947L503.082 296.064L511.024 303.63L518.603 308.214L521.703 306.886" stroke="url(#paint10_linear_898_3271)" stroke-width="0.5864" stroke-linecap="round" stroke-linejoin="round"/>
<path d="M670.938 295.051L644.092 295.906L633.403 283.254L606.709 285.253L580.288 290.173L571.097 283.407L563.192 283.821L557.442 285.995L544.995 290.691L537.936 293.363L536.943 294.268L532.911 297.584L521.703 306.886L521.357 307.112L519.416 308.755L518.543 309.479L514.24 313.007L508.194 319.156L502.674 325.591L497.321 332.463L494.93 335.762L491.787 339.997L491.547 340.358L483.442 351.464L472.947 365.869L470.075 369.892L468.15 372.394L462.301 380.304L450.903 395.674L448.392 399.155L443.277 403.707L438.01 406.724L432.015 404.562L424.763 394.978L417.086 382.503L409.258 368.884L401.595 355.31L394.129 342.715L387.147 331.745L380.557 322.733L374.482 315.888L368.951 310.97L363.753 307.708L341.99 317.095L319.622 323.472L296.573 327.636L291.764 322.024L268.579 324.728L245.485 328.275L222.875 334.621L199.449 337.687L174.784 336.146L170.605 328.215L145.849 326.222L142.093 318.833L137.943 309.878" stroke="url(#paint11_linear_898_3271)" stroke-width="0.5864" stroke-linecap="round" stroke-linejoin="round"/>
<path d="M623.852 278.203L629.498 278.634L650.58 280.269L660.221 284.204" stroke="url(#paint12_linear_898_3271)" stroke-width="0.5864" stroke-linecap="round" stroke-linejoin="round"/>
<path d="M563.192 283.821L579.586 281.23L589.146 279.7L597.306 278.999L606.708 285.253L617.338 299.562" stroke="url(#paint13_linear_898_3271)" stroke-width="0.5864" stroke-linecap="round" stroke-linejoin="round"/>
<path d="M460.065 223.891L480.633 208.557L501.52 195.587L508.041 197.252L529.623 186.961" stroke="url(#paint14_linear_898_3271)" stroke-width="0.5864" stroke-linecap="round" stroke-linejoin="round"/>
<path d="M379.637 292.061L400.055 277.149L420.079 259.888L425.682 261.659L431.239 263.205L437.296 266.451L443.775 271.413L450.618 278.182L457.839 286.441L465.407 295.648L473.156 305.368L480.905 314.695L488.622 322.698L496.006 327.87L502.673 325.59L508.193 319.155" stroke="url(#paint15_linear_898_3271)" stroke-width="0.5864" stroke-linecap="round" stroke-linejoin="round"/>
<path d="M178.839 341.125L183.477 341.602L203.46 343.615L227.233 341.106L249.978 334.654L273.313 330.745L277.789 335.484L301.335 332.238L324.489 327.818L347.068 320.929L368.951 310.969L390.168 297.697L410.871 281.475L431.24 263.205L451.548 244.243L472.203 226.62L493.314 212.038L514.939 200.407L536.899 191.215" stroke="url(#paint16_linear_898_3271)" stroke-width="0.5864" stroke-linecap="round" stroke-linejoin="round"/>
<path d="M363.754 307.708L384.882 295.159L405.464 279.508L410.872 281.476L416.702 285.159L423.032 290.543L429.74 297.809L436.841 306.64L444.259 316.661L451.873 327.268L459.608 337.695L467.236 346.812L474.455 353.114L480.643 351.948L486.117 346.07L491.788 339.997L498.275 337.204L510.938 322.677L521.195 310.982" stroke="url(#paint17_linear_898_3271)" stroke-width="0.5864" stroke-linecap="round" stroke-linejoin="round"/>
<path d="M170.605 328.214L194.667 327.918L217.715 324.146L240.144 318.07L263.058 314.795L286.154 312.422L308.917 309.177L331.106 303.855L352.644 295.687L373.547 284.358L393.92 270.003L413.839 253.39L433.607 235.633L453.585 218.537L473.928 203.64L494.679 191.167L515.824 181.042L522.769 184.815" stroke="url(#paint18_linear_898_3271)" stroke-width="0.5864" stroke-linecap="round" stroke-linejoin="round"/>
<path d="M231.017 345.122L254.184 339.212" stroke="url(#paint19_linear_898_3271)" stroke-width="0.5864" stroke-linecap="round" stroke-linejoin="round"/>
<path d="M544.797 198.555L522.415 206.423L500.412 216.955L478.849 230.453L457.906 247.428L437.297 266.451L416.703 285.158L395.88 301.953L374.483 315.887L352.465 326.344L329.721 333.58L306.342 338.045L282.494 340.96L258.511 343.981L234.846 348.973L216.28 348.947L210.965 348.998L209.941 348.968L206.747 346.713L203.461 343.615L199.45 337.686L194.667 327.919L189.219 315.623L183.513 301.655" stroke="url(#paint20_linear_898_3271)" stroke-width="0.5864" stroke-linecap="round" stroke-linejoin="round"/>
<path d="M553.223 208.53L530.418 215.073L507.977 224.205L486.006 236.454L464.581 252.587L443.775 271.414L423.031 290.543L402.044 308.075L380.557 322.733L358.434 333.837L335.509 341.344L311.814 345.794L287.635 348.228L263.229 350.315L239.02 353.773L234.845 348.974L231.016 345.123L207.288 346.683L206.746 346.714L205.375 346.519L193.584 344.739L185.587 343.528L184.202 343.258L184.126 343.273L178.839 341.125L178.071 340.81L176.971 340.405L164.8 335.568L159.694 333.541L157.615 332.941L146.89 328.284L146.769 328.073L141.632 325.895L140.94 325.564L131.856 321.674L130.756 321.268L124.626 318.82L116.13 315.516L110.858 313.444L105.375 311.1L101.263 309.734L73.1284 302.234L72.5561 302.114L70.6866 299.827" stroke="url(#paint21_linear_898_3271)" stroke-width="0.5864" stroke-linecap="round" stroke-linejoin="round"/>
<path d="M291.765 322.024L314.618 318.447L336.942 312.628L358.616 303.963L379.638 292.061L384.882 295.158L390.169 297.697L395.88 301.953L402.045 308.075L408.678 316.139L415.675 326.009L423.109 337.279L430.77 349.287L438.492 361.205L446.121 371.888L453.342 379.755L459.365 380.111L464.69 375.438L468.014 370.932L471.878 365.613L482.088 351.735L486.117 346.07L490.779 340.433L494.93 335.761L499.743 330.487L504.285 325.031L514.241 313.006L521.195 310.981L531.231 303.246L533.202 301.754L540.318 296.251L545.464 292.24L571.097 283.406L597.307 278.998L602.758 278.842L623.852 278.203L633.404 283.253L660.222 284.204L670.938 295.05" stroke="url(#paint22_linear_898_3271)" stroke-width="0.5864" stroke-linecap="round" stroke-linejoin="round"/>
<path d="M185.497 343.467L184.127 343.272" stroke="url(#paint23_linear_898_3271)" stroke-width="0.5864" stroke-linecap="round" stroke-linejoin="round"/>
<path d="M580.289 290.173L590.799 305.445" stroke="url(#paint24_linear_898_3271)" stroke-width="0.5864" stroke-linecap="round" stroke-linejoin="round"/>
<path d="M124.942 318.835L125.183 318.865L125.575 318.864L142.092 318.833L165.897 318.041L189.218 315.623L211.92 310.902L234.199 305.248L257.067 302.139L279.967 299.962L302.595 296.823L324.664 291.681L346.007 283.709L366.82 272.711L387.058 258.853L406.932 242.797L426.61 225.763L446.499 209.391L466.767 195.292L487.474 183.767L508.635 174.892" stroke="url(#paint25_linear_898_3271)" stroke-width="0.5864" stroke-linecap="round" stroke-linejoin="round"/>
<path d="M359.609 258.264L366.82 272.711L373.548 284.359L379.639 292.062" stroke="url(#paint26_linear_898_3271)" stroke-width="0.5864" stroke-linecap="round" stroke-linejoin="round"/>
<path d="M379.741 244.662L387.058 258.854L393.92 270.004L400.056 277.15L405.464 279.509" stroke="url(#paint27_linear_898_3271)" stroke-width="0.5864" stroke-linecap="round" stroke-linejoin="round"/>
<path d="M399.48 229.103L406.932 242.797L413.839 253.39L420.079 259.889" stroke="url(#paint28_linear_898_3271)" stroke-width="0.5864" stroke-linecap="round" stroke-linejoin="round"/>
<path d="M419.144 212.775L426.61 225.762L433.607 235.633L440.042 241.544L445.705 242.833L466.014 225.045L486.838 209.816L493.315 212.038L500.412 216.955L507.978 224.205L515.967 233.562L524.35 244.485L533.05 256.206L541.78 268.077L550.539 278.925L575.005 276.355L579.587 281.229" stroke="url(#paint29_linear_898_3271)" stroke-width="0.5864" stroke-linecap="round" stroke-linejoin="round"/>
<path d="M438.989 197.352L446.499 209.39L453.586 218.537L460.066 223.891" stroke="url(#paint30_linear_898_3271)" stroke-width="0.5864" stroke-linecap="round" stroke-linejoin="round"/>
<path d="M459.272 184.111L466.767 195.291L473.927 203.641L480.633 208.558L486.837 209.816L508.04 197.252L514.94 200.407L522.414 206.423L530.418 215.072L538.937 225.89L547.682 238.228L556.76 251.439L565.868 264.409L575.004 276.355L599.546 275.337" stroke="url(#paint31_linear_898_3271)" stroke-width="0.5864" stroke-linecap="round" stroke-linejoin="round"/>
<path d="M479.965 173.687L487.474 183.767L494.678 191.168L501.519 195.588L522.769 184.816L529.622 186.962L536.899 191.216L544.796 198.556L553.223 208.53L562.074 220.612L571.243 234.275L580.607 248.525L590.168 262.578L599.546 275.337L602.757 278.843" stroke="url(#paint32_linear_898_3271)" stroke-width="0.5864" stroke-linecap="round" stroke-linejoin="round"/>
<path d="M501.113 166.303L508.635 174.893L515.824 181.044" stroke="url(#paint33_linear_898_3271)" stroke-width="0.5864" stroke-linecap="round" stroke-linejoin="round"/>
<path d="M170.605 328.215L165.897 318.041L160.856 306.211" stroke="url(#paint34_linear_898_3271)" stroke-width="0.5864" stroke-linecap="round" stroke-linejoin="round"/>
<path d="M291.764 322.024L286.153 312.423L279.967 299.962L273.418 285.694" stroke="url(#paint35_linear_898_3271)" stroke-width="0.5864" stroke-linecap="round" stroke-linejoin="round"/>
<path d="M467.986 403.908L460.36 397.14L453.975 396.153L448.391 399.155L445.73 402.274L440.977 407.85L437.563 411.904L432.931 417.299L428.554 422.408L426.284 425.136L423.23 427.864L419.198 431.572L414.836 435.582L405.373 444.219L403.388 446.028L398.45 447.569L393.255 446.656L387.075 440.458L379.699 427.532L371.838 411.805L363.947 395.144L356.146 378.936L348.723 364.217L341.799 351.591L335.509 341.343L329.72 333.58L324.489 327.818L319.621 323.472L314.617 318.448L308.916 309.178L302.595 296.823L295.865 282.435" stroke="url(#paint36_linear_898_3271)" stroke-width="0.5864" stroke-linecap="round" stroke-linejoin="round"/>
<path d="M557.443 285.995L550.54 278.925L526.439 284.867L503.081 296.063L480.906 314.696L459.608 337.695L438.492 361.205L417.087 382.502L394.94 399.72L371.839 411.804L347.619 418.318L322.234 419.82L295.761 417.467L268.608 412.902L240.095 403.52L210.556 391.369L180.882 380.106L151.769 372.411L144.823 353.054L138.799 337.506L134.151 326.85L130.757 321.268L128.603 320.291" stroke="url(#paint37_linear_898_3271)" stroke-width="0.5864" stroke-linecap="round" stroke-linejoin="round"/>
<path d="M521.195 310.981L529.42 315.671L539.01 328.701" stroke="url(#paint38_linear_898_3271)" stroke-width="0.5864" stroke-linecap="round" stroke-linejoin="round"/>
<path d="M444.552 428.354L437.56 423.182" stroke="url(#paint39_linear_898_3271)" stroke-width="0.5864" stroke-linecap="round" stroke-linejoin="round"/>
<path d="M498.274 337.204L505.821 340.464L514.821 351.341" stroke="url(#paint40_linear_898_3271)" stroke-width="0.5864" stroke-linecap="round" stroke-linejoin="round"/>
<path d="M77.9761 315.825L69.9189 314.312" stroke="url(#paint41_linear_898_3271)" stroke-width="0.5864" stroke-linecap="round" stroke-linejoin="round"/>
<path d="M420.451 449.097L413.987 444.993L408.401 444.471L403.388 446.027L400.319 447.898L392.087 452.92L379.327 460.732L353.948 468.889L349.038 467.057L343.703 462.334L337.384 452.719L329.991 437.368L322.234 419.819L314.416 401.969L306.87 385.083L299.824 370.289L293.427 357.948L287.635 348.227L282.493 340.96L277.79 335.484L254.184 339.212L249.978 334.653L245.485 328.274L240.144 318.07L234.199 305.248L228.011 290.829" stroke="url(#paint42_linear_898_3271)" stroke-width="0.5864" stroke-linecap="round" stroke-linejoin="round"/>
<path d="M537.936 293.362L545.463 292.24L554.217 298.39L564.381 313.106" stroke="url(#paint43_linear_898_3271)" stroke-width="0.5864" stroke-linecap="round" stroke-linejoin="round"/>
<path d="M476.019 366.738L482.993 368.704L491.313 377.368" stroke="url(#paint44_linear_898_3271)" stroke-width="0.5864" stroke-linecap="round" stroke-linejoin="round"/>
<path d="M77.3123 314.08L70.5499 312.385" stroke="url(#paint45_linear_898_3271)" stroke-width="0.5864" stroke-linecap="round" stroke-linejoin="round"/>
<path d="M395.503 464.842L389.521 461.189L363.738 471.228L336.503 474.824L331.683 472.661L327.073 470.768L322.297 467.656L316.931 461.609L310.716 450.955L303.368 435.047L295.761 417.467L288.245 399.948L281.107 383.92L274.482 370.059L268.554 358.877L263.23 350.315L258.51 343.981L254.184 339.212" stroke="url(#paint46_linear_898_3271)" stroke-width="0.5864" stroke-linecap="round" stroke-linejoin="round"/>
<path d="M282.759 470.828L277.966 466.075L273.642 462.872L269.407 459.729L267.178 459.16L265.356 458.664L241.318 452.455L239.571 451.945L235.32 446.769L230.388 438.598L224.488 426.001L217.514 408.843L210.555 391.369L204.004 375.535L198.254 362.517L193.291 353.021L189.34 347.002L186.084 344.054" stroke="url(#paint47_linear_898_3271)" stroke-width="0.5864" stroke-linecap="round" stroke-linejoin="round"/>
<path d="M312.955 476.896L307.846 472.519L303.281 469.678L298.791 467.213L296.728 466.688L272.299 460.479L269.407 459.729L265.006 455.367L259.97 448.235L254.026 436.587L247.083 420.362L240.094 403.52L233.363 387.958L227.312 374.608L221.926 364.179L217.296 356.73L213.346 351.886L203.285 348.975L187.651 344.444L186.084 344.054" stroke="url(#paint48_linear_898_3271)" stroke-width="0.5864" stroke-linecap="round" stroke-linejoin="round"/>
<path d="M369.312 474.806L363.738 471.228L358.662 469.743L353.948 468.889L337.416 470.02L327.449 470.693L327.073 470.769L324.739 470.455L305.297 468.02L299.183 467.213L298.792 467.213L294.196 463.439L289.055 456.954L282.99 445.878L275.867 429.925L268.608 412.903L261.575 396.618L254.965 382.049L248.93 369.949L243.68 360.589L239.021 353.773L218.828 352.272L213.346 351.886L209.94 348.969L208.961 348.774L201.491 347.065L187.319 343.962L185.874 343.783L184.202 343.258" stroke="url(#paint49_linear_898_3271)" stroke-width="0.5864" stroke-linecap="round" stroke-linejoin="round"/>
<path d="M341.837 478.764L336.503 474.824L332.919 474.527L322.167 473.634L307.847 472.519L304.488 471.785L287.214 468.053L277.967 466.075L275.181 465.46L247.695 459.239L247.454 459.209L245.27 458.865L217.697 454.933L213.974 451.218L210.145 446.976L205.938 440.851L177.569 439.977L150.562 445.485L125.233 457.39" stroke="url(#paint50_linear_898_3271)" stroke-width="0.5864" stroke-linecap="round" stroke-linejoin="round"/>
<path d="M252.081 463.918L247.695 459.239L243.611 455.675L239.572 451.945L233.412 450.912L210.145 446.976L181.657 447.065L154.575 453.371L128.991 465.954" stroke="url(#paint51_linear_898_3271)" stroke-width="0.5864" stroke-linecap="round" stroke-linejoin="round"/>
<path d="M363.753 307.706L358.615 303.962L352.644 295.687L346.006 283.708L339.005 269.14" stroke="url(#paint52_linear_898_3271)" stroke-width="0.5864" stroke-linecap="round" stroke-linejoin="round"/>
<path d="M221.63 459.311L217.696 454.933L214.173 454.937L188.546 455.234L160.666 461.465L134.208 473.598" stroke="url(#paint53_linear_898_3271)" stroke-width="0.5864" stroke-linecap="round" stroke-linejoin="round"/>
<path d="M178.071 340.809L174.783 336.145L159.693 333.54" stroke="url(#paint54_linear_898_3271)" stroke-width="0.5864" stroke-linecap="round" stroke-linejoin="round"/>
<path d="M231.017 345.123L227.233 341.106L222.875 334.621L217.715 324.146L211.92 310.902L205.746 296.167" stroke="url(#paint55_linear_898_3271)" stroke-width="0.5864" stroke-linecap="round" stroke-linejoin="round"/>
<path d="M75.5908 309.413L70.515 307.928" stroke="url(#paint56_linear_898_3271)" stroke-width="0.5864" stroke-linecap="round" stroke-linejoin="round"/>
<path d="M191.983 459.085L188.547 455.234L185.185 451.759" stroke="url(#paint57_linear_898_3271)" stroke-width="0.5864" stroke-linecap="round" stroke-linejoin="round"/>
<path d="M111.16 313.383L114.758 312.972L137.943 309.877L160.856 306.21L183.513 301.655L205.747 296.167L228.011 290.83L250.684 287.916L273.418 285.694L295.865 282.434L317.753 277.172L339.006 269.141L359.608 258.263L379.741 244.662L399.48 229.103L419.144 212.776L438.989 197.352L459.272 184.111L479.965 173.686L501.113 166.302" stroke="url(#paint58_linear_898_3271)" stroke-width="0.5864" stroke-linecap="round" stroke-linejoin="round"/>
<path d="M70.2234 302.582L73.1605 303.558L75.5906 309.412L76.1944 310.857L104.794 316.776L119.435 321.821L134.151 326.85L149.591 333.535L163.826 339.679L165.287 340.325L183.56 348.633L193.292 353.02L194.135 353.32L221.927 364.178L248.93 369.948L274.482 370.058L299.824 370.288L324.667 368.818L348.723 364.216L371.888 355.565L394.129 342.714L415.674 326.009L436.84 306.639L457.84 286.441L479.247 267.884L501.503 253.934L524.35 244.485L547.683 238.227L571.243 234.274" stroke="url(#paint59_linear_898_3271)" stroke-width="0.5864" stroke-linecap="round" stroke-linejoin="round"/>
<path d="M521.357 307.111L518.602 308.213L517.263 309.344L512.539 313.505L512.148 313.896L496.006 327.871L474.455 353.113L465.898 363.918L453.341 379.756L441.024 394.058L432.015 404.561L410.022 425.272L387.076 440.458L362.903 449.547L337.384 452.72L310.716 450.955L282.99 445.878L254.026 436.587L224.488 426.001L195.073 417.584L187.977 399.041L180.881 380.106L174.224 362.963L168.488 349.236L163.826 339.679L160.252 334.368L157.51 333.196" stroke="url(#paint60_linear_898_3271)" stroke-width="0.5864" stroke-linecap="round" stroke-linejoin="round"/>
<path d="M136.303 475.448L134.208 473.598L131.857 470.86L128.991 465.955L125.233 457.391L120.251 444.296L113.878 425.842L105.949 401.593L97.2785 374.439L88.9105 348.398L81.6911 326.512L78.9428 318.686L78.7011 317.873L77.9762 315.826L77.3119 314.08L76.1945 310.858" stroke="url(#paint61_linear_898_3271)" stroke-width="0.5864" stroke-linecap="round" stroke-linejoin="round"/>
<path d="M116.01 315.304L114.757 312.972" stroke="url(#paint62_linear_898_3271)" stroke-width="0.5864" stroke-linecap="round" stroke-linejoin="round"/>
<path d="M536.943 294.267L534.713 292.914L511.024 303.629L488.623 322.698L467.236 346.812L446.121 371.888L424.763 394.977L402.738 413.972L379.699 427.531L355.48 435.22L329.99 437.369L303.367 435.047L275.867 429.925L247.083 420.362L217.514 408.843L187.977 399.041L159.258 393.694L131.824 394.354L105.948 401.593" stroke="url(#paint63_linear_898_3271)" stroke-width="0.5864" stroke-linecap="round" stroke-linejoin="round"/>
<path d="M147.026 328.177L145.85 326.221L140.941 325.563" stroke="url(#paint64_linear_898_3271)" stroke-width="0.5864" stroke-linecap="round" stroke-linejoin="round"/>
<path d="M67.8156 318.26L69.1254 318.153" stroke="url(#paint65_linear_898_3271)" stroke-width="0.5864" stroke-linecap="round" stroke-linejoin="round"/>
<path d="M67.8156 318.26L68.9302 318.741L78.9433 318.685" stroke="url(#paint66_linear_898_3271)" stroke-width="0.5864" stroke-linecap="round" stroke-linejoin="round"/>
<path d="M78.7014 317.872L75.0271 317.514L69.5005 316.902" stroke="url(#paint67_linear_898_3271)" stroke-width="0.5864" stroke-linecap="round" stroke-linejoin="round"/>
<path d="M68.9292 318.741L69.1244 318.153L69.4996 316.903L69.9185 314.313L70.549 312.385L70.5144 307.928L70.2229 302.583L70.6869 299.827" stroke="url(#paint68_linear_898_3271)" stroke-width="0.5864" stroke-linecap="round" stroke-linejoin="round"/>
<path d="M498.275 337.204L488.2 350.585L476.02 366.738L470.075 369.891L464.69 375.438L461.036 380.245L449.533 395.479L445.563 400.663L443.278 403.707L439.954 407.429L422.627 426.81L421.289 428.332L418.205 430.91L402.739 443.965L399.188 446.95L398.451 447.568L374.433 460.542L349.038 467.057L322.297 467.656L320.279 467.357L294.196 463.438L292.374 462.944L267.989 456.177L265.007 455.367L263.426 454.902L235.321 446.769L205.938 440.851L201.08 431.491L172.605 429.306L145.642 433.474L120.251 444.296" stroke="url(#paint69_linear_898_3271)" stroke-width="0.5864" stroke-linecap="round" stroke-linejoin="round"/>
<path d="M502.373 325.651L501.366 326.872L494.252 335.507L491.214 339.094L480.642 351.948L470.552 365.254L465.244 372.351L459.364 380.112L447.349 395.136L438.01 406.724L416.11 429.453L393.255 446.656L369.145 457.612L343.703 462.335L316.93 461.609L289.055 456.955L287.714 456.519L259.971 448.236L230.388 438.599L201.08 431.491L195.073 417.585L166.536 413.924L139.421 416.557L113.878 425.843" stroke="url(#paint70_linear_898_3271)" stroke-width="0.5864" stroke-linecap="round" stroke-linejoin="round"/>
<path d="M476.019 366.739L465.704 380.481L453.975 396.153L451.764 398.79L443.342 408.706L431.581 422.661L426.843 427.137L420.916 432.715L415.591 437.779L408.4 444.472L402.592 448.302L396.498 452.268L384.264 460.367L358.662 469.743L347.551 470.959L331.682 472.661L326.231 472.034L304.802 469.843L303.281 469.678L301.399 469.274L284.651 465.436L275.027 463.142L273.642 462.872L269.515 461.823L244.589 455.87L243.61 455.675L236.909 454.673L214.455 451.278L213.973 451.218L206.099 451.392L185.185 451.759L181.656 447.065L177.569 439.977L172.604 429.306L166.536 413.924L159.258 393.695L151.768 372.411" stroke="url(#paint71_linear_898_3271)" stroke-width="0.5864" stroke-linecap="round" stroke-linejoin="round"/>
<path d="M73.1603 303.558L72.5565 302.113" stroke="url(#paint72_linear_898_3271)" stroke-width="0.5864" stroke-linecap="round" stroke-linejoin="round"/>
<defs>
<filter id="filter0_d_898_3271" x="67.0005" y="17" width="471" height="358" filterUnits="userSpaceOnUse" color-interpolation-filters="sRGB">
<feFlood flood-opacity="0" result="BackgroundImageFix"/>
<feColorMatrix in="SourceAlpha" type="matrix" values="0 0 0 0 0 0 0 0 0 0 0 0 0 0 0 0 0 0 127 0" result="hardAlpha"/>
<feOffset/>
<feGaussianBlur stdDeviation="15"/>
<feColorMatrix type="matrix" values="0 0 0 0 1 0 0 0 0 1 0 0 0 0 1 0 0 0 0.25 0"/>
<feBlend mode="normal" in2="BackgroundImageFix" result="effect1_dropShadow_898_3271"/>
<feBlend mode="normal" in="SourceGraphic" in2="effect1_dropShadow_898_3271" result="shape"/>
</filter>
<linearGradient id="paint0_linear_898_3271" x1="423.33" y1="359.591" x2="270.465" y2="389.966" gradientUnits="userSpaceOnUse">
<stop stop-color="#38393A" stop-opacity="0.4"/>
<stop offset="0.478947" stop-color="#353637" stop-opacity="0"/>
<stop offset="1" stop-color="#373839" stop-opacity="0.4"/>
</linearGradient>
<linearGradient id="paint1_linear_898_3271" x1="564.737" y1="256.694" x2="78.0631" y2="347.693" gradientUnits="userSpaceOnUse">
<stop stop-color="#38393A" stop-opacity="0.4"/>
<stop offset="0.478947" stop-color="#353637" stop-opacity="0"/>
<stop offset="1" stop-color="#373839" stop-opacity="0.4"/>
</linearGradient>
<linearGradient id="paint2_linear_898_3271" x1="163.768" y1="467.306" x2="135.589" y2="472.533" gradientUnits="userSpaceOnUse">
<stop stop-color="#38393A" stop-opacity="0.4"/>
<stop offset="0.478947" stop-color="#353637" stop-opacity="0"/>
<stop offset="1" stop-color="#373839" stop-opacity="0.4"/>
</linearGradient>
<linearGradient id="paint3_linear_898_3271" x1="582.83" y1="282.74" x2="89.1691" y2="375.043" gradientUnits="userSpaceOnUse">
<stop stop-color="#38393A" stop-opacity="0.4"/>
<stop offset="0.478947" stop-color="#353637" stop-opacity="0"/>
<stop offset="1" stop-color="#373839" stop-opacity="0.4"/>
</linearGradient>
<linearGradient id="paint4_linear_898_3271" x1="185.544" y1="456.117" x2="130.648" y2="466.052" gradientUnits="userSpaceOnUse">
<stop stop-color="#38393A" stop-opacity="0.4"/>
<stop offset="0.478947" stop-color="#353637" stop-opacity="0"/>
<stop offset="1" stop-color="#373839" stop-opacity="0.4"/>
</linearGradient>
<linearGradient id="paint5_linear_898_3271" x1="150.478" y1="368.464" x2="97.7786" y2="378.105" gradientUnits="userSpaceOnUse">
<stop stop-color="#38393A" stop-opacity="0.4"/>
<stop offset="0.478947" stop-color="#353637" stop-opacity="0"/>
<stop offset="1" stop-color="#373839" stop-opacity="0.4"/>
</linearGradient>
<linearGradient id="paint6_linear_898_3271" x1="582.897" y1="314.845" x2="333.972" y2="363.781" gradientUnits="userSpaceOnUse">
<stop stop-color="#38393A" stop-opacity="0.4"/>
<stop offset="0.478947" stop-color="#353637" stop-opacity="0"/>
<stop offset="1" stop-color="#373839" stop-opacity="0.4"/>
</linearGradient>
<linearGradient id="paint7_linear_898_3271" x1="593.275" y1="301.368" x2="95.7921" y2="393.995" gradientUnits="userSpaceOnUse">
<stop stop-color="#38393A" stop-opacity="0.4"/>
<stop offset="0.478947" stop-color="#353637" stop-opacity="0"/>
<stop offset="1" stop-color="#373839" stop-opacity="0.4"/>
</linearGradient>
<linearGradient id="paint8_linear_898_3271" x1="536.341" y1="252.991" x2="422.647" y2="275.375" gradientUnits="userSpaceOnUse">
<stop stop-color="#38393A" stop-opacity="0.4"/>
<stop offset="0.478947" stop-color="#353637" stop-opacity="0"/>
<stop offset="1" stop-color="#373839" stop-opacity="0.4"/>
</linearGradient>
<linearGradient id="paint9_linear_898_3271" x1="643.168" y1="315.942" x2="118.869" y2="417.51" gradientUnits="userSpaceOnUse">
<stop stop-color="#38393A" stop-opacity="0.4"/>
<stop offset="0.478947" stop-color="#353637" stop-opacity="0"/>
<stop offset="1" stop-color="#373839" stop-opacity="0.4"/>
</linearGradient>
<linearGradient id="paint10_linear_898_3271" x1="513.589" y1="271.509" x2="407.546" y2="292.395" gradientUnits="userSpaceOnUse">
<stop stop-color="#38393A" stop-opacity="0.4"/>
<stop offset="0.478947" stop-color="#353637" stop-opacity="0"/>
<stop offset="1" stop-color="#373839" stop-opacity="0.4"/>
</linearGradient>
<linearGradient id="paint11_linear_898_3271" x1="664.494" y1="287.127" x2="150.677" y2="385.263" gradientUnits="userSpaceOnUse">
<stop stop-color="#38393A" stop-opacity="0.4"/>
<stop offset="0.478947" stop-color="#353637" stop-opacity="0"/>
<stop offset="1" stop-color="#373839" stop-opacity="0.4"/>
</linearGradient>
<linearGradient id="paint12_linear_898_3271" x1="658.703" y1="278.236" x2="625.007" y2="284.748" gradientUnits="userSpaceOnUse">
<stop stop-color="#38393A" stop-opacity="0.4"/>
<stop offset="0.478947" stop-color="#353637" stop-opacity="0"/>
<stop offset="1" stop-color="#373839" stop-opacity="0.4"/>
</linearGradient>
<linearGradient id="paint13_linear_898_3271" x1="614.47" y1="287.592" x2="565.634" y2="297.134" gradientUnits="userSpaceOnUse">
<stop stop-color="#38393A" stop-opacity="0.4"/>
<stop offset="0.478947" stop-color="#353637" stop-opacity="0"/>
<stop offset="1" stop-color="#373839" stop-opacity="0.4"/>
</linearGradient>
<linearGradient id="paint14_linear_898_3271" x1="531.298" y1="198.758" x2="457.5" y2="212.864" gradientUnits="userSpaceOnUse">
<stop stop-color="#38393A" stop-opacity="0.4"/>
<stop offset="0.478947" stop-color="#353637" stop-opacity="0"/>
<stop offset="1" stop-color="#373839" stop-opacity="0.4"/>
</linearGradient>
<linearGradient id="paint15_linear_898_3271" x1="500.753" y1="287.689" x2="382.855" y2="310.877" gradientUnits="userSpaceOnUse">
<stop stop-color="#38393A" stop-opacity="0.4"/>
<stop offset="0.478947" stop-color="#353637" stop-opacity="0"/>
<stop offset="1" stop-color="#373839" stop-opacity="0.4"/>
</linearGradient>
<linearGradient id="paint16_linear_898_3271" x1="543.117" y1="239.617" x2="170.83" y2="309.928" gradientUnits="userSpaceOnUse">
<stop stop-color="#38393A" stop-opacity="0.4"/>
<stop offset="0.478947" stop-color="#353637" stop-opacity="0"/>
<stop offset="1" stop-color="#373839" stop-opacity="0.4"/>
</linearGradient>
<linearGradient id="paint17_linear_898_3271" x1="518.2" y1="303.141" x2="368.027" y2="332.539" gradientUnits="userSpaceOnUse">
<stop stop-color="#38393A" stop-opacity="0.4"/>
<stop offset="0.478947" stop-color="#353637" stop-opacity="0"/>
<stop offset="1" stop-color="#373839" stop-opacity="0.4"/>
</linearGradient>
<linearGradient id="paint18_linear_898_3271" x1="527.299" y1="224.495" x2="161.872" y2="293.222" gradientUnits="userSpaceOnUse">
<stop stop-color="#38393A" stop-opacity="0.4"/>
<stop offset="0.478947" stop-color="#353637" stop-opacity="0"/>
<stop offset="1" stop-color="#373839" stop-opacity="0.4"/>
</linearGradient>
<linearGradient id="paint19_linear_898_3271" x1="254.1" y1="339.891" x2="230.608" y2="343.28" gradientUnits="userSpaceOnUse">
<stop stop-color="#38393A" stop-opacity="0.4"/>
<stop offset="0.478947" stop-color="#353637" stop-opacity="0"/>
<stop offset="1" stop-color="#373839" stop-opacity="0.4"/>
</linearGradient>
<linearGradient id="paint20_linear_898_3271" x1="550.853" y1="245.872" x2="184.494" y2="315.033" gradientUnits="userSpaceOnUse">
<stop stop-color="#38393A" stop-opacity="0.4"/>
<stop offset="0.478947" stop-color="#353637" stop-opacity="0"/>
<stop offset="1" stop-color="#373839" stop-opacity="0.4"/>
</linearGradient>
<linearGradient id="paint21_linear_898_3271" x1="557.444" y1="252.072" x2="76.8107" y2="341.219" gradientUnits="userSpaceOnUse">
<stop stop-color="#38393A" stop-opacity="0.4"/>
<stop offset="0.478947" stop-color="#353637" stop-opacity="0"/>
<stop offset="1" stop-color="#373839" stop-opacity="0.4"/>
</linearGradient>
<linearGradient id="paint22_linear_898_3271" x1="666.333" y1="289.457" x2="297.583" y2="359.576" gradientUnits="userSpaceOnUse">
<stop stop-color="#38393A" stop-opacity="0.4"/>
<stop offset="0.478947" stop-color="#353637" stop-opacity="0"/>
<stop offset="1" stop-color="#373839" stop-opacity="0.4"/>
</linearGradient>
<linearGradient id="paint23_linear_898_3271" x1="185.443" y1="343.256" x2="184.167" y2="343.502" gradientUnits="userSpaceOnUse">
<stop stop-color="#38393A" stop-opacity="0.4"/>
<stop offset="0.478947" stop-color="#353637" stop-opacity="0"/>
<stop offset="1" stop-color="#373839" stop-opacity="0.4"/>
</linearGradient>
<linearGradient id="paint24_linear_898_3271" x1="589.151" y1="297.584" x2="582.031" y2="299.007" gradientUnits="userSpaceOnUse">
<stop stop-color="#38393A" stop-opacity="0.4"/>
<stop offset="0.478947" stop-color="#353637" stop-opacity="0"/>
<stop offset="1" stop-color="#373839" stop-opacity="0.4"/>
</linearGradient>
<linearGradient id="paint25_linear_898_3271" x1="513.272" y1="216.531" x2="117.359" y2="290.15" gradientUnits="userSpaceOnUse">
<stop stop-color="#38393A" stop-opacity="0.4"/>
<stop offset="0.478947" stop-color="#353637" stop-opacity="0"/>
<stop offset="1" stop-color="#373839" stop-opacity="0.4"/>
</linearGradient>
<linearGradient id="paint26_linear_898_3271" x1="376.079" y1="274.954" x2="363.412" y2="277.487" gradientUnits="userSpaceOnUse">
<stop stop-color="#38393A" stop-opacity="0.4"/>
<stop offset="0.478947" stop-color="#353637" stop-opacity="0"/>
<stop offset="1" stop-color="#373839" stop-opacity="0.4"/>
</linearGradient>
<linearGradient id="paint27_linear_898_3271" x1="401.657" y1="261.417" x2="383.742" y2="264.994" gradientUnits="userSpaceOnUse">
<stop stop-color="#38393A" stop-opacity="0.4"/>
<stop offset="0.478947" stop-color="#353637" stop-opacity="0"/>
<stop offset="1" stop-color="#373839" stop-opacity="0.4"/>
</linearGradient>
<linearGradient id="paint28_linear_898_3271" x1="416.773" y1="244.095" x2="402.982" y2="246.851" gradientUnits="userSpaceOnUse">
<stop stop-color="#38393A" stop-opacity="0.4"/>
<stop offset="0.478947" stop-color="#353637" stop-opacity="0"/>
<stop offset="1" stop-color="#373839" stop-opacity="0.4"/>
</linearGradient>
<linearGradient id="paint29_linear_898_3271" x1="569.141" y1="235.873" x2="428.67" y2="263.511" gradientUnits="userSpaceOnUse">
<stop stop-color="#38393A" stop-opacity="0.4"/>
<stop offset="0.478947" stop-color="#353637" stop-opacity="0"/>
<stop offset="1" stop-color="#373839" stop-opacity="0.4"/>
</linearGradient>
<linearGradient id="paint30_linear_898_3271" x1="457.126" y1="209.98" x2="442.06" y2="212.986" gradientUnits="userSpaceOnUse">
<stop stop-color="#38393A" stop-opacity="0.4"/>
<stop offset="0.478947" stop-color="#353637" stop-opacity="0"/>
<stop offset="1" stop-color="#373839" stop-opacity="0.4"/>
</linearGradient>
<linearGradient id="paint31_linear_898_3271" x1="587.611" y1="221.461" x2="470.868" y2="244.58" gradientUnits="userSpaceOnUse">
<stop stop-color="#38393A" stop-opacity="0.4"/>
<stop offset="0.478947" stop-color="#353637" stop-opacity="0"/>
<stop offset="1" stop-color="#373839" stop-opacity="0.4"/>
</linearGradient>
<linearGradient id="paint32_linear_898_3271" x1="590.05" y1="220.214" x2="492.739" y2="239.553" gradientUnits="userSpaceOnUse">
<stop stop-color="#38393A" stop-opacity="0.4"/>
<stop offset="0.478947" stop-color="#353637" stop-opacity="0"/>
<stop offset="1" stop-color="#373839" stop-opacity="0.4"/>
</linearGradient>
<linearGradient id="paint33_linear_898_3271" x1="514.11" y1="173.049" x2="502.865" y2="175.287" gradientUnits="userSpaceOnUse">
<stop stop-color="#38393A" stop-opacity="0.4"/>
<stop offset="0.478947" stop-color="#353637" stop-opacity="0"/>
<stop offset="1" stop-color="#373839" stop-opacity="0.4"/>
</linearGradient>
<linearGradient id="paint34_linear_898_3271" x1="168.377" y1="317.371" x2="163.28" y2="318.392" gradientUnits="userSpaceOnUse">
<stop stop-color="#38393A" stop-opacity="0.4"/>
<stop offset="0.478947" stop-color="#353637" stop-opacity="0"/>
<stop offset="1" stop-color="#373839" stop-opacity="0.4"/>
</linearGradient>
<linearGradient id="paint35_linear_898_3271" x1="288.024" y1="303.919" x2="277.456" y2="306.035" gradientUnits="userSpaceOnUse">
<stop stop-color="#38393A" stop-opacity="0.4"/>
<stop offset="0.478947" stop-color="#353637" stop-opacity="0"/>
<stop offset="1" stop-color="#373839" stop-opacity="0.4"/>
</linearGradient>
<linearGradient id="paint36_linear_898_3271" x1="455.522" y1="348.563" x2="314.128" y2="376.658" gradientUnits="userSpaceOnUse">
<stop stop-color="#38393A" stop-opacity="0.4"/>
<stop offset="0.478947" stop-color="#353637" stop-opacity="0"/>
<stop offset="1" stop-color="#373839" stop-opacity="0.4"/>
</linearGradient>
<linearGradient id="paint37_linear_898_3271" x1="558.136" y1="309.054" x2="140.489" y2="389.243" gradientUnits="userSpaceOnUse">
<stop stop-color="#38393A" stop-opacity="0.4"/>
<stop offset="0.478947" stop-color="#353637" stop-opacity="0"/>
<stop offset="1" stop-color="#373839" stop-opacity="0.4"/>
</linearGradient>
<linearGradient id="paint38_linear_898_3271" x1="536.946" y1="319.078" x2="523.303" y2="321.794" gradientUnits="userSpaceOnUse">
<stop stop-color="#38393A" stop-opacity="0.4"/>
<stop offset="0.478947" stop-color="#353637" stop-opacity="0"/>
<stop offset="1" stop-color="#373839" stop-opacity="0.4"/>
</linearGradient>
<linearGradient id="paint39_linear_898_3271" x1="443.901" y1="425.385" x2="438.203" y2="426.516" gradientUnits="userSpaceOnUse">
<stop stop-color="#38393A" stop-opacity="0.4"/>
<stop offset="0.478947" stop-color="#353637" stop-opacity="0"/>
<stop offset="1" stop-color="#373839" stop-opacity="0.4"/>
</linearGradient>
<linearGradient id="paint40_linear_898_3271" x1="513.111" y1="343.456" x2="499.992" y2="346.063" gradientUnits="userSpaceOnUse">
<stop stop-color="#38393A" stop-opacity="0.4"/>
<stop offset="0.478947" stop-color="#353637" stop-opacity="0"/>
<stop offset="1" stop-color="#373839" stop-opacity="0.4"/>
</linearGradient>
<linearGradient id="paint41_linear_898_3271" x1="77.6234" y1="314.42" x2="70.1945" y2="315.859" gradientUnits="userSpaceOnUse">
<stop stop-color="#38393A" stop-opacity="0.4"/>
<stop offset="0.478947" stop-color="#353637" stop-opacity="0"/>
<stop offset="1" stop-color="#373839" stop-opacity="0.4"/>
</linearGradient>
<linearGradient id="paint42_linear_898_3271" x1="401.776" y1="363.438" x2="248.012" y2="393.994" gradientUnits="userSpaceOnUse">
<stop stop-color="#38393A" stop-opacity="0.4"/>
<stop offset="0.478947" stop-color="#353637" stop-opacity="0"/>
<stop offset="1" stop-color="#373839" stop-opacity="0.4"/>
</linearGradient>
<linearGradient id="paint43_linear_898_3271" x1="561.903" y1="301.795" x2="540.386" y2="306.064" gradientUnits="userSpaceOnUse">
<stop stop-color="#38393A" stop-opacity="0.4"/>
<stop offset="0.478947" stop-color="#353637" stop-opacity="0"/>
<stop offset="1" stop-color="#373839" stop-opacity="0.4"/>
</linearGradient>
<linearGradient id="paint44_linear_898_3271" x1="489.95" y1="371.184" x2="477.354" y2="373.681" gradientUnits="userSpaceOnUse">
<stop stop-color="#38393A" stop-opacity="0.4"/>
<stop offset="0.478947" stop-color="#353637" stop-opacity="0"/>
<stop offset="1" stop-color="#373839" stop-opacity="0.4"/>
</linearGradient>
<linearGradient id="paint45_linear_898_3271" x1="76.9783" y1="312.707" x2="70.8264" y2="313.906" gradientUnits="userSpaceOnUse">
<stop stop-color="#38393A" stop-opacity="0.4"/>
<stop offset="0.478947" stop-color="#353637" stop-opacity="0"/>
<stop offset="1" stop-color="#373839" stop-opacity="0.4"/>
</linearGradient>
<linearGradient id="paint46_linear_898_3271" x1="380.467" y1="395.279" x2="269.363" y2="417.369" gradientUnits="userSpaceOnUse">
<stop stop-color="#38393A" stop-opacity="0.4"/>
<stop offset="0.478947" stop-color="#353637" stop-opacity="0"/>
<stop offset="1" stop-color="#373839" stop-opacity="0.4"/>
</linearGradient>
<linearGradient id="paint47_linear_898_3271" x1="268.827" y1="404.733" x2="200.69" y2="418.334" gradientUnits="userSpaceOnUse">
<stop stop-color="#38393A" stop-opacity="0.4"/>
<stop offset="0.478947" stop-color="#353637" stop-opacity="0"/>
<stop offset="1" stop-color="#373839" stop-opacity="0.4"/>
</linearGradient>
<linearGradient id="paint48_linear_898_3271" x1="297.665" y1="405.354" x2="201.787" y2="424.451" gradientUnits="userSpaceOnUse">
<stop stop-color="#38393A" stop-opacity="0.4"/>
<stop offset="0.478947" stop-color="#353637" stop-opacity="0"/>
<stop offset="1" stop-color="#373839" stop-opacity="0.4"/>
</linearGradient>
<linearGradient id="paint49_linear_898_3271" x1="352.565" y1="398.649" x2="200.663" y2="428.768" gradientUnits="userSpaceOnUse">
<stop stop-color="#38393A" stop-opacity="0.4"/>
<stop offset="0.478947" stop-color="#353637" stop-opacity="0"/>
<stop offset="1" stop-color="#373839" stop-opacity="0.4"/>
</linearGradient>
<linearGradient id="paint50_linear_898_3271" x1="333.452" y1="446.611" x2="129.97" y2="485.746" gradientUnits="userSpaceOnUse">
<stop stop-color="#38393A" stop-opacity="0.4"/>
<stop offset="0.478947" stop-color="#353637" stop-opacity="0"/>
<stop offset="1" stop-color="#373839" stop-opacity="0.4"/>
</linearGradient>
<linearGradient id="paint51_linear_898_3271" x1="248.183" y1="450.088" x2="129.754" y2="472.508" gradientUnits="userSpaceOnUse">
<stop stop-color="#38393A" stop-opacity="0.4"/>
<stop offset="0.478947" stop-color="#353637" stop-opacity="0"/>
<stop offset="1" stop-color="#373839" stop-opacity="0.4"/>
</linearGradient>
<linearGradient id="paint52_linear_898_3271" x1="359.64" y1="288.016" x2="343.375" y2="291.267" gradientUnits="userSpaceOnUse">
<stop stop-color="#38393A" stop-opacity="0.4"/>
<stop offset="0.478947" stop-color="#353637" stop-opacity="0"/>
<stop offset="1" stop-color="#373839" stop-opacity="0.4"/>
</linearGradient>
<linearGradient id="paint53_linear_898_3271" x1="219.868" y1="454.61" x2="133.1" y2="469.907" gradientUnits="userSpaceOnUse">
<stop stop-color="#38393A" stop-opacity="0.4"/>
<stop offset="0.478947" stop-color="#353637" stop-opacity="0"/>
<stop offset="1" stop-color="#373839" stop-opacity="0.4"/>
</linearGradient>
<linearGradient id="paint54_linear_898_3271" x1="176.925" y1="335.873" x2="160.725" y2="339.056" gradientUnits="userSpaceOnUse">
<stop stop-color="#38393A" stop-opacity="0.4"/>
<stop offset="0.478947" stop-color="#353637" stop-opacity="0"/>
<stop offset="1" stop-color="#373839" stop-opacity="0.4"/>
</linearGradient>
<linearGradient id="paint55_linear_898_3271" x1="225.962" y1="320.676" x2="211.197" y2="323.632" gradientUnits="userSpaceOnUse">
<stop stop-color="#38393A" stop-opacity="0.4"/>
<stop offset="0.478947" stop-color="#353637" stop-opacity="0"/>
<stop offset="1" stop-color="#373839" stop-opacity="0.4"/>
</linearGradient>
<linearGradient id="paint56_linear_898_3271" x1="75.321" y1="308.287" x2="70.7451" y2="309.181" gradientUnits="userSpaceOnUse">
<stop stop-color="#38393A" stop-opacity="0.4"/>
<stop offset="0.478947" stop-color="#353637" stop-opacity="0"/>
<stop offset="1" stop-color="#373839" stop-opacity="0.4"/>
</linearGradient>
<linearGradient id="paint57_linear_898_3271" x1="191.146" y1="455.157" x2="186.048" y2="456.173" gradientUnits="userSpaceOnUse">
<stop stop-color="#38393A" stop-opacity="0.4"/>
<stop offset="0.478947" stop-color="#353637" stop-opacity="0"/>
<stop offset="1" stop-color="#373839" stop-opacity="0.4"/>
</linearGradient>
<linearGradient id="paint58_linear_898_3271" x1="505.115" y1="205.086" x2="102.496" y2="279.388" gradientUnits="userSpaceOnUse">
<stop stop-color="#38393A" stop-opacity="0.4"/>
<stop offset="0.478947" stop-color="#353637" stop-opacity="0"/>
<stop offset="1" stop-color="#373839" stop-opacity="0.4"/>
</linearGradient>
<linearGradient id="paint59_linear_898_3271" x1="572.52" y1="263.795" x2="78.8064" y2="356.688" gradientUnits="userSpaceOnUse">
<stop stop-color="#38393A" stop-opacity="0.4"/>
<stop offset="0.478947" stop-color="#353637" stop-opacity="0"/>
<stop offset="1" stop-color="#373839" stop-opacity="0.4"/>
</linearGradient>
<linearGradient id="paint60_linear_898_3271" x1="525.16" y1="342.641" x2="171.526" y2="411.296" gradientUnits="userSpaceOnUse">
<stop stop-color="#38393A" stop-opacity="0.4"/>
<stop offset="0.478947" stop-color="#353637" stop-opacity="0"/>
<stop offset="1" stop-color="#373839" stop-opacity="0.4"/>
</linearGradient>
<linearGradient id="paint61_linear_898_3271" x1="119.981" y1="395.479" x2="94.1255" y2="400.665" gradientUnits="userSpaceOnUse">
<stop stop-color="#38393A" stop-opacity="0.4"/>
<stop offset="0.478947" stop-color="#353637" stop-opacity="0"/>
<stop offset="1" stop-color="#373839" stop-opacity="0.4"/>
</linearGradient>
<linearGradient id="paint62_linear_898_3271" x1="115.767" y1="314.135" x2="115.018" y2="314.285" gradientUnits="userSpaceOnUse">
<stop stop-color="#38393A" stop-opacity="0.4"/>
<stop offset="0.478947" stop-color="#353637" stop-opacity="0"/>
<stop offset="1" stop-color="#373839" stop-opacity="0.4"/>
</linearGradient>
<linearGradient id="paint63_linear_898_3271" x1="543.517" y1="347.339" x2="109.468" y2="429.156" gradientUnits="userSpaceOnUse">
<stop stop-color="#38393A" stop-opacity="0.4"/>
<stop offset="0.478947" stop-color="#353637" stop-opacity="0"/>
<stop offset="1" stop-color="#373839" stop-opacity="0.4"/>
</linearGradient>
<linearGradient id="paint64_linear_898_3271" x1="146.628" y1="326.449" x2="141.304" y2="327.497" gradientUnits="userSpaceOnUse">
<stop stop-color="#38393A" stop-opacity="0.4"/>
<stop offset="0.478947" stop-color="#353637" stop-opacity="0"/>
<stop offset="1" stop-color="#373839" stop-opacity="0.4"/>
</linearGradient>
<linearGradient id="paint65_linear_898_3271" x1="69.0995" y1="318.084" x2="67.8202" y2="318.31" gradientUnits="userSpaceOnUse">
<stop stop-color="#38393A" stop-opacity="0.4"/>
<stop offset="0.478947" stop-color="#353637" stop-opacity="0"/>
<stop offset="1" stop-color="#373839" stop-opacity="0.4"/>
</linearGradient>
<linearGradient id="paint66_linear_898_3271" x1="78.6048" y1="317.499" x2="68.0151" y2="319.498" gradientUnits="userSpaceOnUse">
<stop stop-color="#38393A" stop-opacity="0.4"/>
<stop offset="0.478947" stop-color="#353637" stop-opacity="0"/>
<stop offset="1" stop-color="#373839" stop-opacity="0.4"/>
</linearGradient>
<linearGradient id="paint67_linear_898_3271" x1="78.3664" y1="316.611" x2="69.7336" y2="318.265" gradientUnits="userSpaceOnUse">
<stop stop-color="#38393A" stop-opacity="0.4"/>
<stop offset="0.478947" stop-color="#353637" stop-opacity="0"/>
<stop offset="1" stop-color="#373839" stop-opacity="0.4"/>
</linearGradient>
<linearGradient id="paint68_linear_898_3271" x1="72.535" y1="309.27" x2="67.2136" y2="310.335" gradientUnits="userSpaceOnUse">
<stop stop-color="#38393A" stop-opacity="0.4"/>
<stop offset="0.478947" stop-color="#353637" stop-opacity="0"/>
<stop offset="1" stop-color="#373839" stop-opacity="0.4"/>
</linearGradient>
<linearGradient id="paint69_linear_898_3271" x1="505.002" y1="388.65" x2="121.851" y2="461.163" gradientUnits="userSpaceOnUse">
<stop stop-color="#38393A" stop-opacity="0.4"/>
<stop offset="0.478947" stop-color="#353637" stop-opacity="0"/>
<stop offset="1" stop-color="#373839" stop-opacity="0.4"/>
</linearGradient>
<linearGradient id="paint70_linear_898_3271" x1="509.566" y1="379.821" x2="117.726" y2="454.111" gradientUnits="userSpaceOnUse">
<stop stop-color="#38393A" stop-opacity="0.4"/>
<stop offset="0.478947" stop-color="#353637" stop-opacity="0"/>
<stop offset="1" stop-color="#373839" stop-opacity="0.4"/>
</linearGradient>
<linearGradient id="paint71_linear_898_3271" x1="475.884" y1="380.711" x2="164.119" y2="441.237" gradientUnits="userSpaceOnUse">
<stop stop-color="#38393A" stop-opacity="0.4"/>
<stop offset="0.478947" stop-color="#353637" stop-opacity="0"/>
<stop offset="1" stop-color="#373839" stop-opacity="0.4"/>
</linearGradient>
<linearGradient id="paint72_linear_898_3271" x1="73.0149" y1="302.849" x2="72.7151" y2="302.909" gradientUnits="userSpaceOnUse">
<stop stop-color="#38393A" stop-opacity="0.4"/>
<stop offset="0.478947" stop-color="#353637" stop-opacity="0"/>
<stop offset="1" stop-color="#373839" stop-opacity="0.4"/>
</linearGradient>
</defs>
</svg>
