<svg width="1380" height="1000" viewBox="400 0 1280 1000" fill="none" xmlns="http://www.w3.org/2000/svg" xmlns:xlink="http://www.w3.org/1999/xlink">
<g clip-path="url(#clip0_829_2580)">
<g filter="url(#filter0_d_829_2580)">
<path opacity="0.9" d="M453.827 438H491.027V432.8L462.947 437.2V404.88L485.747 409.12V403.92L462.947 404.08V382.8L485.747 387.2V382H453.827L458.147 386.48V433.52L453.827 438ZM528.724 398H519.604L524.004 402.48L512.244 416.32L502.324 402.48L506.644 398H492.644L508.804 420.32L493.684 438H502.724L498.484 433.52L509.284 420.88L518.404 433.52L514.084 438H528.004L512.644 416.96L528.724 398ZM530.765 452.4H544.205L539.885 447.92V431.68C542.845 435.28 547.565 438.24 552.525 438.24C563.725 438.24 571.565 429.04 571.565 418C571.565 406.96 563.725 397.76 552.525 397.76C547.565 397.76 542.845 400.72 539.885 404.32V398L530.765 400.88L535.085 403.76V447.92L530.765 452.4ZM539.885 405.36C542.765 401.36 547.645 398.48 552.525 398.48C559.485 398.48 565.805 407.36 565.805 418C565.805 428.64 559.485 437.52 552.525 437.52C547.645 437.52 542.765 434.64 539.885 430.64V405.36ZM596.037 407.04H614.117C610.117 401.04 603.877 397.6 596.277 397.6C585.477 397.6 576.037 406.24 576.037 418.56C576.037 431.12 587.157 438.4 597.557 438.4C608.677 438.4 614.197 429.44 614.197 422.64C614.197 413.52 606.437 407.92 596.037 407.04ZM583.557 406.48C586.757 401.92 590.997 399.12 596.677 399.12C601.397 399.12 605.877 401.44 607.557 406.48H583.557ZM613.317 422.4C613.317 429.44 607.797 435.92 598.437 435.92C588.837 435.92 580.837 426.48 580.837 415.92C580.837 412.72 581.557 409.68 583.077 407.04H592.837C605.717 407.04 613.317 413.92 613.317 422.4ZM626.144 408H626.064V398L616.944 400.88L621.264 403.76V433.52L616.944 438H630.384L626.064 433.52V410C626.064 405.2 631.984 403.12 639.184 403.36L640.384 397.92C632.064 398.96 627.184 401.12 626.144 408ZM648.259 392.4C650.259 392.4 651.859 390.8 651.859 388.8C651.859 386.8 650.259 385.2 648.259 385.2C646.259 385.2 644.659 386.8 644.659 388.8C644.659 390.8 646.259 392.4 648.259 392.4ZM651.299 398L642.179 400.88L646.499 403.76V433.52L642.179 438H655.619L651.299 433.52V398ZM677.756 407.04H695.836C691.836 401.04 685.596 397.6 677.996 397.6C667.196 397.6 657.756 406.24 657.756 418.56C657.756 431.12 668.876 438.4 679.276 438.4C690.396 438.4 695.916 429.44 695.916 422.64C695.916 413.52 688.156 407.92 677.756 407.04ZM665.276 406.48C668.476 401.92 672.716 399.12 678.396 399.12C683.116 399.12 687.596 401.44 689.276 406.48H665.276ZM695.036 422.4C695.036 429.44 689.516 435.92 680.156 435.92C670.556 435.92 662.556 426.48 662.556 415.92C662.556 412.72 663.276 409.68 664.796 407.04H674.556C687.436 407.04 695.036 413.92 695.036 422.4ZM733.783 411.6C733.783 402.4 727.303 397.76 720.583 397.76C715.383 397.76 711.943 400 707.783 403.92V398.08L698.663 400.96L702.983 403.84V433.52L698.663 438H712.103L707.783 433.52V404.8C711.063 401.36 714.343 398.88 718.263 398.88C723.863 398.88 728.983 403.84 728.983 411.28V433.52L724.663 438H738.103L733.783 433.52V411.6ZM774.907 427.28C773.547 432.88 769.547 437.2 763.467 437.2C753.707 437.2 744.667 425.84 744.667 413.68C744.667 405.52 749.387 398.72 756.827 398.72C761.627 398.72 766.747 401.76 770.427 406.72H777.067C773.307 401.04 766.827 397.6 760.187 397.6C749.067 397.6 739.787 406.64 739.787 418C739.787 429.28 748.827 438.4 760.107 438.4C767.947 438.4 774.667 434.08 778.187 427.28H774.907ZM801.193 407.04H819.273C815.273 401.04 809.033 397.6 801.433 397.6C790.633 397.6 781.193 406.24 781.193 418.56C781.193 431.12 792.313 438.4 802.713 438.4C813.833 438.4 819.353 429.44 819.353 422.64C819.353 413.52 811.593 407.92 801.193 407.04ZM788.713 406.48C791.913 401.92 796.153 399.12 801.833 399.12C806.553 399.12 811.033 401.44 812.713 406.48H788.713ZM818.473 422.4C818.473 429.44 812.953 435.92 803.593 435.92C793.993 435.92 785.993 426.48 785.993 415.92C785.993 412.72 786.713 409.68 788.233 407.04H797.993C810.873 407.04 818.473 413.92 818.473 422.4ZM914.924 347H899.974L906.994 354.28V415.12L861.754 347H851.354L857.204 355.19V430.72L850.184 438H865.134L858.114 430.72V356.1L906.994 430.72L900.234 438H914.924L907.904 430.72V354.28L914.924 347ZM919.119 438H940.959L933.939 430.72V384.18L970.989 391.07V382.62L933.939 382.88V348.3L970.989 355.45V347H919.119L926.139 354.28V430.72L919.119 438ZM974.183 365.33L991.993 347.91H1003.3V430.72L996.283 438H1018.12L1011.1 430.72V347.91H1022.41L1040.35 365.33L1034.89 347H979.643L974.183 365.33ZM1051.3 399.52C1044.8 396.79 1033.23 390.94 1033.23 383.53C1033.23 377.55 1040.25 373.78 1047.66 373.78C1050.65 373.78 1053.38 374.3 1056.5 375.73L1069.89 387.69L1066.51 373H1047.66C1038.95 373 1031.28 377.55 1031.28 387.3C1031.28 398.22 1043.76 405.24 1050.91 408.36C1059.23 412.26 1071.32 417.72 1071.32 425.52C1071.32 432.54 1063.39 437.22 1054.42 437.22C1051.04 437.22 1046.49 436.31 1043.24 435.01L1029.33 422.79L1032.71 438H1054.42C1064.82 438 1073.4 431.89 1073.4 422.53C1073.4 408.1 1060.66 403.55 1051.3 399.52Z" fill="#232425"/>
<path opacity="0.9" d="M714.437 500.68L718.757 503.56V553H721.077L723.557 546.68C726.757 550.6 730.517 553.24 737.077 553.24C747.077 553.24 755.237 544.04 755.237 533C755.237 521.96 747.397 512.76 736.197 512.76C731.237 512.76 726.517 515.72 723.557 519.32V497.8L714.437 500.68ZM723.557 545.56V520.36C726.437 516.36 731.317 513.48 736.197 513.48C743.157 513.48 749.477 522.36 749.477 533C749.477 542.36 744.037 552.36 736.117 552.36C730.677 552.44 726.597 549.8 723.557 545.56ZM779.709 522.04H797.789C793.789 516.04 787.549 512.6 779.949 512.6C769.149 512.6 759.709 521.24 759.709 533.56C759.709 546.12 770.829 553.4 781.229 553.4C792.349 553.4 797.869 544.44 797.869 537.64C797.869 528.52 790.109 522.92 779.709 522.04ZM767.229 521.48C770.429 516.92 774.669 514.12 780.349 514.12C785.069 514.12 789.549 516.44 791.229 521.48H767.229ZM796.989 537.4C796.989 544.44 791.469 550.92 782.109 550.92C772.509 550.92 764.509 541.48 764.509 530.92C764.509 527.72 765.229 524.68 766.749 522.04H776.509C789.389 522.04 796.989 528.92 796.989 537.4ZM830.537 517.48L819.257 544.84L806.617 517.48L810.937 513H796.537L800.857 517.48L815.577 549.16L803.257 552.36C797.737 553.8 793.977 557.56 793.977 561.8C793.977 566.6 797.897 569.72 803.177 569.72C809.577 569.72 814.457 564.04 817.417 553H819.417V546.6L831.417 517.48L835.737 513H826.217L830.537 517.48ZM817.177 552.6C813.897 558.84 808.537 564.92 802.057 564.92C797.897 564.92 795.337 563.56 795.337 560.6C795.337 556.92 799.497 553.96 803.497 552.92L815.817 549.72L817.177 552.6ZM834.24 533.16C834.24 543.96 843.2 553.4 854.64 553.4C865.52 553.4 874.88 544.52 874.88 532.84C874.88 522.04 865.92 512.6 854.48 512.6C843.6 512.6 834.24 521.48 834.24 533.16ZM839.12 528.92C839.12 519.88 844.4 513.88 851.36 513.88C860.96 513.88 870 525.4 870 537.08C870 546.12 864.72 552.12 857.76 552.12C848.16 552.12 839.12 540.6 839.12 528.92ZM912.299 526.6C912.299 517.4 905.819 512.76 899.099 512.76C893.899 512.76 890.459 515 886.299 518.92V513.08L877.179 515.96L881.499 518.84V548.52L877.179 553H890.619L886.299 548.52V519.8C889.579 516.36 892.859 513.88 896.779 513.88C902.379 513.88 907.499 518.84 907.499 526.28V548.52L903.179 553H916.619L912.299 548.52V526.6ZM918.303 533C918.303 544.04 926.143 553.24 937.343 553.24C942.303 553.24 947.023 550.28 949.983 546.68V553H959.103L954.783 548.52V497.56L945.663 500.44L949.983 503.32V519.32C947.023 515.72 942.303 512.76 937.343 512.76C926.143 512.76 918.303 521.96 918.303 533ZM924.063 533C924.063 522.36 930.383 513.48 937.343 513.48C942.223 513.48 947.103 516.36 949.983 520.36V545.64C947.103 549.64 942.223 552.52 937.343 552.52C930.383 552.52 924.063 543.64 924.063 533ZM975.91 513.56H980.63V542.92C980.63 549.16 986.07 553.16 992.23 553.16C992.95 553.16 993.75 553.16 994.47 553L994.39 552.44C993.67 552.6 992.87 552.68 992.15 552.68C988.71 552.68 985.43 550.76 985.43 541.72V513.56H992.39V513H985.43V505.96L975.91 513.56ZM1030.09 526.92C1030.09 516.6 1022.01 512.04 1014.57 513.08C1016.97 511.56 1018.41 509.16 1018.41 506.28C1018.41 501.4 1014.41 497.56 1009.53 497.56C1004.57 497.56 1000.09 501.88 1000.09 509.64V548.52L995.765 553H1009.21L1004.89 548.52V519C1008.17 515.96 1010.73 514.04 1014.41 514.04C1020.09 514.04 1025.29 519.16 1025.29 526.6V548.52L1020.97 553H1034.41L1030.09 548.52V526.92ZM1012.49 513.48C1009.53 514.44 1007.29 516.04 1004.89 518.2V508.44C1004.89 501.8 1007.85 498.6 1011.13 498.6C1014.65 498.6 1017.85 502.12 1017.85 506.28C1017.85 509.56 1015.93 512.2 1012.49 513.48ZM1056.12 522.04H1074.2C1070.2 516.04 1063.96 512.6 1056.36 512.6C1045.56 512.6 1036.12 521.24 1036.12 533.56C1036.12 546.12 1047.24 553.4 1057.64 553.4C1068.76 553.4 1074.27 544.44 1074.27 537.64C1074.27 528.52 1066.52 522.92 1056.12 522.04ZM1043.64 521.48C1046.84 516.92 1051.08 514.12 1056.76 514.12C1061.48 514.12 1065.96 516.44 1067.64 521.48H1043.64ZM1073.4 537.4C1073.4 544.44 1067.88 550.92 1058.52 550.92C1048.92 550.92 1040.92 541.48 1040.92 530.92C1040.92 527.72 1041.64 524.68 1043.16 522.04H1052.92C1065.8 522.04 1073.4 528.92 1073.4 537.4Z" fill="#232425"/>
</g>
<path opacity="0.9" d="M703.003 634.589C702.978 661.749 725.217 684.029 752.377 684.055C769.317 684.07 785.565 675.125 794.119 660.573L790.899 660.57C785.848 672.465 774.361 680.155 760.501 680.142C734.181 680.118 710.265 653.216 710.291 625.356C710.311 603.656 725.305 588.969 743.505 588.986C755.685 588.998 768.699 594.75 778.63 605.399L792.07 605.411C782.562 592.382 767.588 585.229 752.468 585.215C725.308 585.189 703.028 607.289 703.003 634.589Z" fill="#232425"/>
<path opacity="0.9" d="M816.257 631.194L816.117 631.194L816.133 613.694L800.168 618.719L807.724 623.766L807.676 675.846L800.108 683.679L823.628 683.701L816.076 675.854L816.114 634.694C816.121 626.294 826.485 622.663 839.084 623.095L841.193 613.577C826.631 615.383 818.088 619.156 816.257 631.194Z" fill="#232425"/>
<path opacity="0.9" d="M903.082 621.614L883.297 669.475L861.222 621.575L868.789 613.742L843.589 613.719L851.142 621.566L876.85 677.029L855.285 682.609C845.623 685.121 839.037 691.694 839.03 699.114C839.022 707.514 845.877 712.981 855.117 712.989C866.317 713 874.866 703.068 880.064 683.752L883.564 683.756L883.575 672.556L904.622 621.615L912.189 613.782L895.529 613.767L903.082 621.614ZM879.645 683.052C873.895 693.967 864.505 704.598 853.165 704.588C845.885 704.581 841.407 702.197 841.412 697.017C841.418 690.577 848.703 685.403 855.704 683.59L877.27 678.01L879.645 683.052Z" fill="#232425"/>
<path opacity="0.9" d="M915.259 708.985L938.779 709.006L931.226 701.159L931.252 672.739C936.426 679.044 944.681 684.232 953.361 684.24C972.961 684.258 986.696 668.171 986.714 648.851C986.732 629.531 973.027 613.418 953.427 613.4C944.747 613.392 936.482 618.564 931.296 624.859L931.306 613.799L915.342 618.825L922.897 623.872L922.826 701.152L915.259 708.985ZM931.295 626.679C936.341 619.684 944.886 614.652 953.426 614.66C965.606 614.671 976.651 630.221 976.634 648.841C976.617 667.461 965.543 682.991 953.363 682.98C944.823 682.972 936.287 677.924 931.254 670.919L931.295 626.679Z" fill="#232425"/>
<path opacity="0.9" d="M990.87 614.835L999.13 614.842L999.082 666.222C999.072 677.142 1008.59 684.151 1019.37 684.161C1020.63 684.162 1022.03 684.164 1023.29 683.885L1023.15 682.905C1021.89 683.183 1020.49 683.322 1019.23 683.321C1013.21 683.315 1007.47 679.95 1007.48 664.13L1007.53 614.85L1019.71 614.861L1019.71 613.881L1007.53 613.87L1007.54 601.55L990.87 614.835Z" fill="#232425"/>
<path opacity="0.9" d="M1038.63 652.8C1044.65 670.716 1064.77 681.381 1083.75 675.005C1101.8 668.941 1112.37 648.993 1105.86 629.617C1099.84 611.701 1079.72 601.036 1060.74 607.412C1042.69 613.477 1032.12 633.425 1038.63 652.8ZM1044.36 643.046C1039.32 628.05 1044.73 615.154 1056.28 611.275C1072.2 605.924 1093.62 619.995 1100.13 639.371C1105.17 654.367 1099.76 667.263 1088.21 671.142C1072.29 676.493 1050.87 662.422 1044.36 643.046Z" fill="#232425"/>
<path opacity="0.9" d="M1131.44 547.142L1164.68 589.08L1110.36 585.716L1107.1 575.322L1094.95 597.558L1105.45 594.684L1174.03 598.82L1176.32 594.643L1166.73 589.406L1132.25 545.667L1128.99 535.274L1120.93 550.015L1131.44 547.142Z" fill="#232425"/>
<path opacity="0.9" d="M1138.08 497.938L1138.11 466.298C1127.6 473.289 1121.57 484.203 1121.56 497.503C1121.54 516.403 1136.64 532.937 1158.2 532.957C1180.18 532.977 1192.94 513.529 1192.96 495.329C1192.98 475.869 1177.31 466.195 1165.41 466.184C1149.45 466.169 1139.63 479.74 1138.08 497.938ZM1137.08 519.778C1129.1 514.17 1124.21 506.746 1124.22 496.806C1124.23 488.546 1128.29 480.709 1137.12 477.778L1137.08 519.778ZM1164.98 467.723C1177.3 467.735 1188.64 477.405 1188.62 493.785C1188.61 510.585 1172.07 524.57 1153.59 524.553C1147.99 524.548 1142.67 523.283 1138.06 520.618L1138.07 503.538C1138.09 480.998 1150.14 467.71 1164.98 467.723Z" fill="#232425"/>
<path opacity="0.9" d="M1139.81 442.779L1139.81 442.919L1122.31 442.903L1127.33 458.868L1132.38 451.312L1184.46 451.36L1192.29 458.928L1192.31 435.408L1184.47 442.96L1143.31 442.922C1134.91 442.915 1131.28 432.551 1131.71 419.952L1122.19 417.843C1124 432.405 1127.77 440.948 1139.81 442.779Z" fill="#232425"/>
<path opacity="0.9" d="M1150.92 389.083C1147.97 396.08 1141.66 408.534 1133.68 408.527C1127.24 408.521 1123.19 400.957 1123.19 392.977C1123.2 389.757 1123.76 386.818 1125.3 383.459L1138.2 369.051L1122.37 372.676L1122.35 392.976C1122.35 402.356 1127.24 410.621 1137.74 410.631C1149.5 410.641 1157.07 397.208 1160.44 389.511C1164.65 380.555 1170.54 367.541 1178.94 367.549C1186.5 367.556 1191.53 376.1 1191.52 385.76C1191.52 389.4 1190.53 394.299 1189.13 397.798L1175.96 412.766L1192.34 409.141L1192.36 385.761C1192.37 374.561 1185.8 365.315 1175.72 365.306C1160.18 365.291 1155.27 379.007 1150.92 389.083Z" fill="#232425"/>
<path opacity="0.9" d="M1138.24 321.617L1138.27 289.977C1127.76 296.967 1121.73 307.882 1121.72 321.182C1121.7 340.082 1136.81 356.616 1158.37 356.636C1180.35 356.656 1193.11 337.208 1193.12 319.008C1193.14 299.548 1177.47 289.873 1165.57 289.862C1149.61 289.848 1139.8 303.419 1138.24 321.617ZM1137.24 343.456C1129.26 337.849 1124.37 330.424 1124.38 320.484C1124.39 312.224 1128.46 304.388 1137.28 301.456L1137.24 343.456ZM1165.15 291.402C1177.47 291.413 1188.8 301.084 1188.78 317.464C1188.77 334.264 1172.24 348.249 1153.76 348.231C1148.16 348.226 1142.84 346.961 1138.22 344.297L1138.23 327.217C1138.26 304.677 1150.31 291.388 1165.15 291.402Z" fill="#232425"/>
<path d="M1190.51 731.932L1150.31 769.128L1108.59 796.747L1099.62 795.344L1091.2 795.969L1082.86 795.644L1073.84 790.645L1063.19 776.893L1050.54 752.461L1037.13 723.639L1023.64 693.764L1010.39 665.044L997.988 639.225L986.54 617.488L976.071 599.961L966.737 586.747L958.202 576.844L950.08 568.995L910.414 574.299L902.341 564.036L892.926 547.098L882.71 525.514L871.824 501.26" stroke="url(#paint0_linear_829_2580)" stroke-linecap="round" stroke-linejoin="round"/>
<path d="M564.871 521.571L566.721 522.135L568.005 522.544L614.008 536.8L617.245 538.954L633.377 544.792L634.044 544.791L642.367 548.326L656.855 553.96L663.636 556.47L667.336 558.264L669.236 559.083L684.624 565.873L694.822 570.099L713.189 577.758L714.859 578.758L717.609 580.475L721.847 582.294L742.629 591.337L750.233 594.616L767.213 602.02L769.088 602.711L786.735 608.779L814.887 618.611L815.992 618.789L859.881 625.19L902.297 622.271L944.714 620.688L986.539 617.487L1027.2 609.846L1066.53 596.197L1104.54 576.002L1141.25 549.389L1177.17 518.129L1212.78 484.661L1248.85 452.836L1286 427.07L1324.22 408.569L1363.39 395.486L1402.84 386.484" stroke="url(#paint1_linear_829_2580)" stroke-linecap="round" stroke-linejoin="round"/>
<path d="M723.072 802.271L676.769 821.062" stroke="url(#paint2_linear_829_2580)" stroke-linecap="round" stroke-linejoin="round"/>
<path d="M583.637 567.078L631.531 572.14L681.025 585.827L731.655 605.83L732.554 606.317L782.417 628.477L783.29 628.836L831.969 649.098L879.125 661.786L923.705 664.977L967.64 666.961L1010.39 665.043L1051.67 656.477L1091.15 640.26L1129.18 616.188L1165.86 585.44L1201.93 550.277L1238 514.447L1274.97 483.109L1313.54 461.064L1353.35 447.184L1393.78 439.055L1434.45 434.084" stroke="url(#paint3_linear_829_2580)" stroke-linecap="round" stroke-linejoin="round"/>
<path d="M760.128 780.664L713.355 791.804L669.186 813.237" stroke="url(#paint4_linear_829_2580)" stroke-linecap="round" stroke-linejoin="round"/>
<path d="M703.141 645.351L655.404 641.727L610.219 648.809" stroke="url(#paint5_linear_829_2580)" stroke-linecap="round" stroke-linejoin="round"/>
<path d="M1433.91 505.108L1389.45 519.122L1347.16 548.591L1306.92 590.871L1267.99 639.029L1229.39 687.521L1190.51 731.931L1180.31 731.043L1171.28 735.263L1162.76 740.715L1153.93 742.624L1143.55 735.496L1131.13 716.225L1117.83 691.922L1104.45 665.899L1091.15 640.261L1078.52 616.624L1066.53 596.197L1055.57 579.57L1045.39 566.793L1036.19 557.558L1027.53 551.019L1018.92 543.402L1008.97 528.441L997.984 507.68L986.199 482.938" stroke="url(#paint6_linear_829_2580)" stroke-linecap="round" stroke-linejoin="round"/>
<path d="M595.949 604.4L642.501 603.454L691.297 612.341L741.436 629.238L741.873 629.417L792.222 650.678L842.288 671.863L890.397 686.63L935.877 692.31L980.508 695.757L1023.64 693.762L1064.97 684.117L1104.45 665.898L1142.24 639.335L1178.93 605.917L1214.92 568.367L1251.21 531.021L1288.57 499.605L1327.73 479.178L1368.24 467.428L1409.31 461.173L1450.75 458.05" stroke="url(#paint7_linear_829_2580)" stroke-linecap="round" stroke-linejoin="round"/>
<path d="M1160.7 453.465L1194.74 422.181L1228.89 392.078L1239.03 394.045L1249.59 396.731L1260.92 403.267L1273.12 413.5L1286 427.07L1299.55 443.31L1313.54 461.065L1327.73 479.179L1342.07 496.06L1356.19 509.783L1373.72 505.991" stroke="url(#paint8_linear_829_2580)" stroke-linecap="round" stroke-linejoin="round"/>
<path d="M1542.71 514.884L1497.09 521.118L1451.83 531.153L1406.78 544.217L1363.51 570.811L1322.26 609.42L1282.17 653.805L1242.39 699.063L1202.43 740.752L1161.33 776.126L1118.79 802.976L1074.12 819.968L1027.27 826.717L987.493 824.164L978.017 823.531L926.524 813.184L874.207 801.399L822.28 793.543L771.72 793.158L723.071 802.271L718.315 797.217L713.354 791.804L707.928 783.413L701.084 769.965L692.693 749.483L682.085 720.633L669.131 682.771L655.403 641.727L642.5 603.455L631.53 572.14L623.035 550.477L617.014 538.466L614.008 536.8" stroke="url(#paint9_linear_829_2580)" stroke-linecap="round" stroke-linejoin="round"/>
<path d="M1135.77 486.922L1170.25 456.485L1204.4 424.38L1214.36 426.783L1225.21 432.216L1236.59 441.012L1248.85 452.837L1261.6 467.101L1274.97 483.11L1288.57 499.607L1302.24 515.153L1315.79 528.055L1328.71 535.874L1334 533.609" stroke="url(#paint10_linear_829_2580)" stroke-linecap="round" stroke-linejoin="round"/>
<path d="M1588.49 513.426L1542.71 514.884L1524.48 493.308L1478.96 496.718L1433.91 505.108L1418.23 493.569L1404.75 494.276L1394.95 497.984L1373.72 505.991L1361.68 510.548L1359.99 512.09L1353.11 517.746L1334 533.608L1333.41 533.994L1330.1 536.796L1328.61 538.03L1321.27 544.046L1310.96 554.533L1301.55 565.507L1292.42 577.225L1288.34 582.852L1282.98 590.073L1282.57 590.69L1268.75 609.628L1250.85 634.193L1245.96 641.054L1242.67 645.32L1232.7 658.811L1213.26 685.021L1208.98 690.957L1200.26 698.72L1191.28 703.865L1181.05 700.178L1168.69 683.834L1155.59 662.56L1142.24 639.336L1129.18 616.188L1116.44 594.709L1104.54 576.002L1093.3 560.633L1082.94 548.96L1073.51 540.573L1064.64 535.01L1027.53 551.019L989.386 561.893L950.081 568.994L941.88 559.425L902.341 564.035L862.959 570.083L824.402 580.907L784.453 586.134L742.391 583.506L735.265 569.981L693.048 566.583L686.641 553.982L679.565 538.711" stroke="url(#paint11_linear_829_2580)" stroke-linecap="round" stroke-linejoin="round"/>
<path d="M1508.2 484.696L1517.83 485.431L1553.78 488.219L1570.22 494.93" stroke="url(#paint12_linear_829_2580)" stroke-linecap="round" stroke-linejoin="round"/>
<path d="M1404.75 494.276L1432.71 489.857L1449.01 487.248L1462.93 486.052L1478.96 496.718L1497.09 521.119" stroke="url(#paint13_linear_829_2580)" stroke-linecap="round" stroke-linejoin="round"/>
<path d="M1228.89 392.076L1263.96 365.927L1299.58 343.808L1310.7 346.648L1347.5 329.099" stroke="url(#paint14_linear_829_2580)" stroke-linecap="round" stroke-linejoin="round"/>
<path d="M1091.73 508.329L1126.55 482.898L1160.7 453.464L1170.25 456.484L1179.73 459.119L1190.06 464.655L1201.11 473.117L1212.78 484.66L1225.09 498.745L1238 514.446L1251.21 531.021L1264.43 546.927L1277.59 560.574L1290.18 569.394L1301.55 565.506L1310.96 554.532" stroke="url(#paint15_linear_829_2580)" stroke-linecap="round" stroke-linejoin="round"/>
<path d="M749.306 591.998L757.215 592.812L791.293 596.244L831.833 591.967L870.62 580.963L910.414 574.298L918.048 582.379L958.202 576.843L997.686 569.306L1036.19 557.558L1073.51 540.573L1109.69 517.941L1144.99 490.276L1179.73 459.12L1214.36 426.783L1249.59 396.731L1285.59 371.864L1322.47 352.03L1359.91 336.354" stroke="url(#paint16_linear_829_2580)" stroke-linecap="round" stroke-linejoin="round"/>
<path d="M1064.65 535.011L1100.67 513.611L1135.77 486.922L1145 490.277L1154.94 496.557L1165.73 505.739L1177.17 518.13L1189.28 533.19L1201.93 550.279L1214.92 568.368L1228.11 586.149L1241.12 601.696L1253.43 612.443L1263.98 610.455L1273.31 600.431L1282.98 590.074L1294.05 585.312L1315.64 560.537L1333.13 540.594" stroke="url(#paint17_linear_829_2580)" stroke-linecap="round" stroke-linejoin="round"/>
<path d="M735.265 569.981L776.297 569.477L815.602 563.044L853.851 552.683L892.927 547.097L932.312 543.052L971.13 537.518L1008.97 528.441L1045.7 514.513L1081.35 495.193L1116.09 470.713L1150.06 442.382L1183.77 412.1L1217.84 382.948L1252.53 357.544L1287.91 336.273L1323.97 319.007L1335.82 325.44" stroke="url(#paint18_linear_829_2580)" stroke-linecap="round" stroke-linejoin="round"/>
<path d="M838.287 598.814L877.794 588.735" stroke="url(#paint19_linear_829_2580)" stroke-linecap="round" stroke-linejoin="round"/>
<path d="M1373.38 348.871L1335.21 362.287L1297.69 380.248L1260.92 403.266L1225.21 432.215L1190.06 464.655L1154.94 496.556L1119.43 525.197L1082.94 548.959L1045.39 566.792L1006.61 579.13L966.739 586.745L926.071 591.717L885.172 596.868L844.816 605.382L813.156 605.337L804.092 605.423L802.346 605.373L796.898 601.527L791.295 596.243L784.455 586.133L776.298 569.477L767.007 548.508L757.277 524.689" stroke="url(#paint20_linear_829_2580)" stroke-linecap="round" stroke-linejoin="round"/>
<path d="M1387.75 365.881L1348.86 377.038L1310.59 392.612L1273.12 413.5L1236.59 441.011L1201.11 473.118L1165.73 505.738L1129.94 535.637L1093.3 560.633L1055.57 579.569L1016.48 592.37L976.071 599.96L934.837 604.11L893.218 607.67L851.935 613.566L844.814 605.382L838.285 598.815L797.82 601.475L796.896 601.528L794.559 601.196L774.45 598.161L760.814 596.095L758.451 595.635L758.323 595.661L749.306 591.998L747.996 591.46L746.121 590.769L725.365 582.522L716.657 579.064L713.113 578.04L694.822 570.099L694.616 569.74L685.857 566.025L684.675 565.462L669.185 558.827L667.31 558.135L656.855 553.96L642.367 548.326L633.377 544.792L624.026 540.795L617.014 538.466L569.035 525.676L568.059 525.471L564.871 521.571" stroke="url(#paint21_linear_829_2580)" stroke-linecap="round" stroke-linejoin="round"/>
<path d="M941.881 559.424L980.853 553.325L1018.92 543.401L1055.88 528.625L1091.73 508.329L1100.67 513.61L1109.69 517.94L1119.43 525.197L1129.94 535.637L1141.26 549.388L1153.19 566.221L1165.87 585.44L1178.93 605.918L1192.1 626.241L1205.11 644.459L1217.42 657.875L1227.69 658.481L1236.77 650.512L1242.44 642.829L1249.03 633.758L1266.44 610.092L1273.31 600.43L1281.26 590.819L1288.34 582.852L1296.55 573.856L1304.3 564.553L1321.27 544.046L1333.13 540.593L1350.25 527.403L1353.61 524.858L1365.74 515.473L1374.52 508.634L1418.23 493.569L1462.93 486.052L1472.22 485.785L1508.2 484.696L1524.48 493.307L1570.22 494.93L1588.49 513.425" stroke="url(#paint22_linear_829_2580)" stroke-linecap="round" stroke-linejoin="round"/>
<path d="M760.661 595.992L758.324 595.66" stroke="url(#paint23_linear_829_2580)" stroke-linecap="round" stroke-linejoin="round"/>
<path d="M1433.91 505.108L1451.83 531.153" stroke="url(#paint24_linear_829_2580)" stroke-linecap="round" stroke-linejoin="round"/>
<path d="M657.394 553.985L657.805 554.036L658.473 554.035L686.641 553.981L727.236 552.631L767.006 548.508L805.719 540.457L843.712 530.816L882.71 525.512L921.762 521.801L960.35 516.447L997.984 507.679L1034.38 494.084L1069.87 475.33L1104.39 451.697L1138.28 424.317L1171.83 395.267L1205.75 367.347L1240.32 343.304L1275.63 323.651L1311.71 308.517" stroke="url(#paint25_linear_829_2580)" stroke-linecap="round" stroke-linejoin="round"/>
<path d="M1057.58 450.692L1069.87 475.33L1081.35 495.193L1091.73 508.329" stroke="url(#paint26_linear_829_2580)" stroke-linecap="round" stroke-linejoin="round"/>
<path d="M1091.91 427.497L1104.39 451.698L1116.09 470.713L1126.55 482.899L1135.77 486.921" stroke="url(#paint27_linear_829_2580)" stroke-linecap="round" stroke-linejoin="round"/>
<path d="M1125.57 400.964L1138.28 424.317L1150.06 442.382L1160.7 453.464" stroke="url(#paint28_linear_829_2580)" stroke-linecap="round" stroke-linejoin="round"/>
<path d="M1159.1 373.121L1171.84 395.268L1183.77 412.1L1194.74 422.18L1204.4 424.379L1239.03 394.044L1274.54 368.075L1285.59 371.864L1297.69 380.248L1310.59 392.612L1324.22 408.569L1338.51 427.196L1353.35 447.184L1368.24 467.429L1383.17 485.927L1424.9 481.545L1432.71 489.857" stroke="url(#paint29_linear_829_2580)" stroke-linecap="round" stroke-linejoin="round"/>
<path d="M1192.95 346.818L1205.75 367.347L1217.84 382.947L1228.89 392.077" stroke="url(#paint30_linear_829_2580)" stroke-linecap="round" stroke-linejoin="round"/>
<path d="M1227.53 324.24L1240.31 343.306L1252.53 357.545L1263.96 365.929L1274.54 368.076L1310.7 346.65L1322.47 352.03L1335.21 362.288L1348.86 377.039L1363.39 395.486L1378.3 416.527L1393.78 439.056L1409.31 461.174L1424.89 481.546L1466.75 479.809" stroke="url(#paint31_linear_829_2580)" stroke-linecap="round" stroke-linejoin="round"/>
<path d="M1262.82 306.462L1275.63 323.653L1287.91 336.274L1299.58 343.811L1335.82 325.441L1347.5 329.101L1359.91 336.355L1373.38 348.872L1387.75 365.882L1402.84 386.485L1418.48 409.785L1434.45 434.085L1450.75 458.051L1466.75 479.809L1472.22 485.787" stroke="url(#paint32_linear_829_2580)" stroke-linecap="round" stroke-linejoin="round"/>
<path d="M1298.89 293.869L1311.71 308.518L1323.97 319.008" stroke="url(#paint33_linear_829_2580)" stroke-linecap="round" stroke-linejoin="round"/>
<path d="M735.264 569.982L727.235 552.632L718.639 532.458" stroke="url(#paint34_linear_829_2580)" stroke-linecap="round" stroke-linejoin="round"/>
<path d="M941.88 559.425L932.311 543.053L921.762 521.803L910.593 497.472" stroke="url(#paint35_linear_829_2580)" stroke-linecap="round" stroke-linejoin="round"/>
<path d="M1242.39 699.063L1229.39 687.522L1218.5 685.838L1208.98 690.957L1204.44 696.277L1196.34 705.786L1190.51 712.699L1182.61 721.899L1175.15 730.612L1171.28 735.263L1166.07 739.916L1159.2 746.24L1151.76 753.077L1135.62 767.807L1132.23 770.891L1123.81 773.519L1114.95 771.962L1104.42 761.393L1091.84 739.349L1078.43 712.53L1064.97 684.118L1051.67 656.477L1039.01 631.378L1027.2 609.846L1016.48 592.371L1006.61 579.131L997.686 569.306L989.385 561.893L980.851 553.326L971.129 537.518L960.349 516.448L948.872 491.912" stroke="url(#paint36_linear_829_2580)" stroke-linecap="round" stroke-linejoin="round"/>
<path d="M1394.95 497.983L1383.17 485.927L1342.08 496.06L1302.24 515.153L1264.43 546.928L1228.11 586.148L1192.1 626.241L1155.59 662.56L1117.83 691.922L1078.43 712.529L1037.13 723.638L993.84 726.198L948.695 722.186L902.391 714.402L853.768 698.402L803.394 677.68L752.79 658.473L703.142 645.351L691.297 612.341L681.025 585.827L673.098 567.656L667.311 558.135L663.638 556.47" stroke="url(#paint37_linear_829_2580)" stroke-linecap="round" stroke-linejoin="round"/>
<path d="M1333.13 540.593L1347.16 548.59L1363.51 570.81" stroke="url(#paint38_linear_829_2580)" stroke-linecap="round" stroke-linejoin="round"/>
<path d="M1202.43 740.751L1190.51 731.93" stroke="url(#paint39_linear_829_2580)" stroke-linecap="round" stroke-linejoin="round"/>
<path d="M1294.04 585.312L1306.91 590.871L1322.26 609.42" stroke="url(#paint40_linear_829_2580)" stroke-linecap="round" stroke-linejoin="round"/>
<path d="M577.302 548.854L563.562 546.274" stroke="url(#paint41_linear_829_2580)" stroke-linecap="round" stroke-linejoin="round"/>
<path d="M1161.33 776.125L1150.31 769.126L1140.78 768.237L1132.23 770.89L1127 774.08L1112.96 782.644L1091.2 795.967L1047.92 809.877L1039.55 806.752L1030.45 798.699L1019.68 782.302L1007.07 756.124L993.84 726.197L980.508 695.757L967.64 666.96L955.624 641.732L944.715 620.687L934.839 604.11L926.07 591.716L918.049 582.378L877.793 588.735L870.622 580.962L862.959 570.083L853.851 552.683L843.713 530.816L833.16 506.228" stroke="url(#paint42_linear_829_2580)" stroke-linecap="round" stroke-linejoin="round"/>
<path d="M1361.68 510.547L1374.52 508.634L1389.45 519.121L1406.78 544.216" stroke="url(#paint43_linear_829_2580)" stroke-linecap="round" stroke-linejoin="round"/>
<path d="M1256.09 635.678L1267.99 639.03L1282.17 653.805" stroke="url(#paint44_linear_829_2580)" stroke-linecap="round" stroke-linejoin="round"/>
<path d="M576.17 545.876L564.638 542.986" stroke="url(#paint45_linear_829_2580)" stroke-linecap="round" stroke-linejoin="round"/>
<path d="M1118.79 802.975L1108.59 796.746L1064.62 813.866L1018.17 819.998L1009.95 816.309L1002.09 813.081L993.948 807.774L984.797 797.461L974.199 779.292L961.667 752.164L948.695 722.186L935.878 692.311L923.705 664.976L912.409 641.339L902.298 622.271L893.22 607.67L885.171 596.868L877.794 588.735" stroke="url(#paint46_linear_829_2580)" stroke-linecap="round" stroke-linejoin="round"/>
<path d="M926.523 813.184L918.35 805.078L910.975 799.617L903.754 794.258L899.953 793.286L896.845 792.441L855.853 781.852L852.874 780.982L845.624 772.157L837.213 758.222L827.152 736.74L815.259 707.48L803.392 677.681L792.221 650.679L782.415 628.478L773.951 612.285L767.213 602.02L761.662 596.993" stroke="url(#paint47_linear_829_2580)" stroke-linecap="round" stroke-linejoin="round"/>
<path d="M978.017 823.532L969.305 816.068L961.52 811.223L953.864 807.02L950.345 806.125L908.685 795.536L903.754 794.258L896.249 786.818L887.66 774.656L877.523 754.792L865.684 727.124L853.766 698.403L842.287 671.864L831.968 649.099L822.783 631.313L814.887 618.611L808.151 610.35L790.994 605.386L764.333 597.658L761.662 596.993" stroke="url(#paint48_linear_829_2580)" stroke-linecap="round" stroke-linejoin="round"/>
<path d="M1074.12 819.967L1064.62 813.866L1055.96 811.333L1047.92 809.877L1019.73 811.806L1002.73 812.953L1002.09 813.082L998.112 812.546L964.958 808.394L954.532 807.018L953.864 807.019L946.026 800.582L937.259 789.524L926.918 770.636L914.77 743.43L902.39 714.402L890.397 686.631L879.125 661.786L868.833 641.152L859.881 625.19L851.935 613.566L817.499 611.007L808.152 610.349L802.344 605.373L800.675 605.041L787.936 602.127L763.768 596.836L761.303 596.531L758.452 595.635" stroke="url(#paint49_linear_829_2580)" stroke-linecap="round" stroke-linejoin="round"/>
<path d="M1027.27 826.716L1018.17 819.998L1012.06 819.49L993.727 817.968L969.306 816.067L963.579 814.815L934.12 808.451L918.351 805.077L913.6 804.029L866.728 793.42L866.317 793.369L862.593 792.783L815.571 786.077L809.222 779.741L802.693 772.507L795.518 762.063L747.141 760.571L701.085 769.964L657.891 790.267" stroke="url(#paint50_linear_829_2580)" stroke-linecap="round" stroke-linejoin="round"/>
<path d="M874.208 801.399L866.728 793.421L859.763 787.343L852.875 780.981L842.371 779.22L802.693 772.507L754.111 772.659L707.929 783.413L664.299 804.872" stroke="url(#paint51_linear_829_2580)" stroke-linecap="round" stroke-linejoin="round"/>
<path d="M1064.64 535.01L1055.88 528.625L1045.7 514.512L1034.38 494.085L1022.44 469.241" stroke="url(#paint52_linear_829_2580)" stroke-linecap="round" stroke-linejoin="round"/>
<path d="M822.279 793.543L815.57 786.077L809.561 786.084L765.859 786.59L718.315 797.217L673.195 817.907" stroke="url(#paint53_linear_829_2580)" stroke-linecap="round" stroke-linejoin="round"/>
<path d="M747.996 591.46L742.39 583.505L716.657 579.063" stroke="url(#paint54_linear_829_2580)" stroke-linecap="round" stroke-linejoin="round"/>
<path d="M838.286 598.816L831.834 591.967L824.402 580.907L815.602 563.045L805.719 540.459L795.192 515.331" stroke="url(#paint55_linear_829_2580)" stroke-linecap="round" stroke-linejoin="round"/>
<path d="M573.235 537.919L564.579 535.386" stroke="url(#paint56_linear_829_2580)" stroke-linecap="round" stroke-linejoin="round"/>
<path d="M771.721 793.157L765.86 786.59L760.128 780.664" stroke="url(#paint57_linear_829_2580)" stroke-linecap="round" stroke-linejoin="round"/>
<path d="M633.891 544.689L640.027 543.989L679.565 538.711L718.64 532.458L757.277 524.69L795.193 515.331L833.16 506.228L871.825 501.259L910.594 497.471L948.874 491.912L986.2 482.939L1022.44 469.242L1057.58 450.693L1091.91 427.497L1125.57 400.964L1159.1 373.122L1192.94 346.82L1227.54 324.24L1262.82 306.461L1298.89 293.869" stroke="url(#paint58_linear_829_2580)" stroke-linecap="round" stroke-linejoin="round"/>
<path d="M564.082 526.271L569.09 527.934L573.234 537.919L574.264 540.383L623.036 550.476L648.003 559.078L673.098 567.655L699.429 579.055L723.705 589.532L726.196 590.634L757.357 604.802L773.952 612.283L775.391 612.795L822.784 631.312L868.834 641.152L912.408 641.339L955.624 641.732L997.989 639.224L1039.01 631.377L1078.52 616.623L1116.45 594.708L1153.19 566.22L1189.28 533.189L1225.09 498.745L1261.6 467.099L1299.55 443.309L1338.51 427.196L1378.3 416.525L1418.48 409.783" stroke="url(#paint59_linear_829_2580)" stroke-linecap="round" stroke-linejoin="round"/>
<path d="M1333.41 533.993L1328.71 535.873L1326.43 537.801L1318.37 544.896L1317.71 545.564L1290.18 569.395L1253.43 612.442L1238.83 630.867L1217.42 657.875L1196.42 682.264L1181.05 700.177L1143.55 735.496L1104.42 761.392L1063.19 776.892L1019.68 782.302L974.198 779.292L926.918 770.635L877.524 754.791L827.153 736.739L776.99 722.385L764.89 690.762L752.789 658.473L741.436 629.238L731.655 605.83L723.704 589.533L717.609 580.475L712.934 578.477" stroke="url(#paint60_linear_829_2580)" stroke-linecap="round" stroke-linejoin="round"/>
<path d="M676.769 821.063L673.197 817.908L669.186 813.239L664.299 804.873L657.891 790.269L649.395 767.938L638.527 736.468L625.005 695.116L610.219 648.809L595.949 604.402L583.638 567.079L578.951 553.732L578.539 552.345L577.303 548.854L576.17 545.877L574.264 540.384" stroke="url(#paint61_linear_829_2580)" stroke-linecap="round" stroke-linejoin="round"/>
<path d="M642.162 547.966L640.026 543.988" stroke="url(#paint62_linear_829_2580)" stroke-linecap="round" stroke-linejoin="round"/>
<path d="M1359.99 512.091L1356.19 509.783L1315.79 528.055L1277.59 560.576L1241.12 601.696L1205.11 644.46L1168.69 683.834L1131.13 716.225L1091.84 739.349L1050.54 752.46L1007.07 756.125L961.666 752.165L914.771 743.431L865.685 727.124L815.26 707.48L764.89 690.764L715.914 681.646L669.131 682.772L625.004 695.116" stroke="url(#paint63_linear_829_2580)" stroke-linecap="round" stroke-linejoin="round"/>
<path d="M695.055 569.918L693.049 566.582L684.677 565.461" stroke="url(#paint64_linear_829_2580)" stroke-linecap="round" stroke-linejoin="round"/>
<path d="M559.975 553.005L562.209 552.823" stroke="url(#paint65_linear_829_2580)" stroke-linecap="round" stroke-linejoin="round"/>
<path d="M559.975 553.005L561.876 553.825L578.952 553.731" stroke="url(#paint66_linear_829_2580)" stroke-linecap="round" stroke-linejoin="round"/>
<path d="M578.539 552.345L572.273 551.735L562.849 550.691" stroke="url(#paint67_linear_829_2580)" stroke-linecap="round" stroke-linejoin="round"/>
<path d="M561.875 553.826L562.207 552.824L562.847 550.692L563.562 546.275L564.637 542.987L564.578 535.387L564.081 526.272L564.872 521.572" stroke="url(#paint68_linear_829_2580)" stroke-linecap="round" stroke-linejoin="round"/>
<path d="M1294.05 585.312L1276.87 608.131L1256.09 635.678L1245.96 641.054L1236.77 650.513L1230.54 658.711L1210.93 684.69L1204.16 693.53L1200.26 698.721L1194.59 705.069L1165.04 738.12L1162.76 740.715L1157.5 745.111L1131.13 767.375L1125.07 772.465L1123.82 773.519L1082.86 795.643L1039.55 806.753L993.948 807.775L990.507 807.265L946.027 800.583L942.919 799.739L901.336 788.2L896.25 786.818L893.554 786.025L845.626 772.156L795.519 762.064L787.235 746.101L738.675 742.376L692.694 749.484L649.395 767.938" stroke="url(#paint69_linear_829_2580)" stroke-linecap="round" stroke-linejoin="round"/>
<path d="M1301.04 565.61L1299.32 567.692L1287.19 582.417L1282.01 588.534L1263.98 610.454L1246.77 633.145L1237.72 645.248L1227.69 658.482L1207.2 684.103L1191.28 703.865L1153.93 742.624L1114.95 771.961L1073.84 790.645L1030.45 798.7L984.796 797.462L937.259 789.525L934.973 788.782L887.661 774.656L837.214 758.222L787.234 746.101L776.99 722.386L728.326 716.144L682.085 720.633L638.527 736.468" stroke="url(#paint70_linear_829_2580)" stroke-linecap="round" stroke-linejoin="round"/>
<path d="M1256.09 635.678L1238.5 659.114L1218.5 685.838L1214.73 690.336L1200.37 707.246L1180.31 731.043L1172.23 738.678L1162.13 748.189L1153.04 756.825L1140.78 768.239L1130.88 774.77L1120.48 781.534L1099.62 795.344L1055.96 811.334L1037.01 813.407L1009.95 816.31L1000.66 815.241L964.114 811.503L961.52 811.223L958.31 810.533L929.75 803.989L913.338 800.077L910.975 799.617L903.938 797.827L861.432 787.676L859.762 787.344L848.334 785.635L810.043 779.845L809.222 779.743L795.792 780.039L760.127 780.665L754.111 772.66L747.14 760.573L738.674 742.376L728.325 716.144L715.914 681.647L703.141 645.352" stroke="url(#paint71_linear_829_2580)" stroke-linecap="round" stroke-linejoin="round"/>
<path d="M569.09 527.935L568.06 525.471" stroke="url(#paint72_linear_829_2580)" stroke-linecap="round" stroke-linejoin="round"/>
</g>
<defs>
<pattern id="pattern0" patternContentUnits="objectBoundingBox" width="1" height="1">
<use xlink:href="#image0_829_2580" transform="scale(0.000561798 0.001)"/>
</pattern>
<filter id="filter0_d_829_2580" x="275" y="275" width="832" height="324.72" filterUnits="userSpaceOnUse" color-interpolation-filters="sRGB">
<feFlood flood-opacity="0" result="BackgroundImageFix"/>
<feColorMatrix in="SourceAlpha" type="matrix" values="0 0 0 0 0 0 0 0 0 0 0 0 0 0 0 0 0 0 127 0" result="hardAlpha"/>
<feOffset/>
<feGaussianBlur stdDeviation="15"/>
<feColorMatrix type="matrix" values="0 0 0 0 1 0 0 0 0 1 0 0 0 0 1 0 0 0 0.25 0"/>
<feBlend mode="normal" in2="BackgroundImageFix" result="effect1_dropShadow_829_2580"/>
<feBlend mode="normal" in="SourceGraphic" in2="effect1_dropShadow_829_2580" result="shape"/>
</filter>
<linearGradient id="paint0_linear_829_2580" x1="1166.24" y1="623.489" x2="905.558" y2="675.288" gradientUnits="userSpaceOnUse">
<stop stop-color="#38393A" stop-opacity="0.4"/>
<stop offset="0.478947" stop-color="#353637" stop-opacity="0"/>
<stop offset="1" stop-color="#373839" stop-opacity="0.4"/>
</linearGradient>
<linearGradient id="paint1_linear_829_2580" x1="1407.39" y1="448.015" x2="577.451" y2="603.198" gradientUnits="userSpaceOnUse">
<stop stop-color="#38393A" stop-opacity="0.4"/>
<stop offset="0.478947" stop-color="#353637" stop-opacity="0"/>
<stop offset="1" stop-color="#373839" stop-opacity="0.4"/>
</linearGradient>
<linearGradient id="paint2_linear_829_2580" x1="723.606" y1="807.177" x2="675.55" y2="816.091" gradientUnits="userSpaceOnUse">
<stop stop-color="#38393A" stop-opacity="0.4"/>
<stop offset="0.478947" stop-color="#353637" stop-opacity="0"/>
<stop offset="1" stop-color="#373839" stop-opacity="0.4"/>
</linearGradient>
<linearGradient id="paint3_linear_829_2580" x1="1438.24" y1="492.433" x2="596.39" y2="649.84" gradientUnits="userSpaceOnUse">
<stop stop-color="#38393A" stop-opacity="0.4"/>
<stop offset="0.478947" stop-color="#353637" stop-opacity="0"/>
<stop offset="1" stop-color="#373839" stop-opacity="0.4"/>
</linearGradient>
<linearGradient id="paint4_linear_829_2580" x1="760.74" y1="788.097" x2="667.125" y2="805.039" gradientUnits="userSpaceOnUse">
<stop stop-color="#38393A" stop-opacity="0.4"/>
<stop offset="0.478947" stop-color="#353637" stop-opacity="0"/>
<stop offset="1" stop-color="#373839" stop-opacity="0.4"/>
</linearGradient>
<linearGradient id="paint5_linear_829_2580" x1="700.941" y1="638.619" x2="611.072" y2="655.06" gradientUnits="userSpaceOnUse">
<stop stop-color="#38393A" stop-opacity="0.4"/>
<stop offset="0.478947" stop-color="#353637" stop-opacity="0"/>
<stop offset="1" stop-color="#373839" stop-opacity="0.4"/>
</linearGradient>
<linearGradient id="paint6_linear_829_2580" x1="1438.35" y1="547.184" x2="1013.86" y2="630.635" gradientUnits="userSpaceOnUse">
<stop stop-color="#38393A" stop-opacity="0.4"/>
<stop offset="0.478947" stop-color="#353637" stop-opacity="0"/>
<stop offset="1" stop-color="#373839" stop-opacity="0.4"/>
</linearGradient>
<linearGradient id="paint7_linear_829_2580" x1="1456.05" y1="524.2" x2="607.685" y2="682.16" gradientUnits="userSpaceOnUse">
<stop stop-color="#38393A" stop-opacity="0.4"/>
<stop offset="0.478947" stop-color="#353637" stop-opacity="0"/>
<stop offset="1" stop-color="#373839" stop-opacity="0.4"/>
</linearGradient>
<linearGradient id="paint8_linear_829_2580" x1="1358.96" y1="441.701" x2="1165.08" y2="479.873" gradientUnits="userSpaceOnUse">
<stop stop-color="#38393A" stop-opacity="0.4"/>
<stop offset="0.478947" stop-color="#353637" stop-opacity="0"/>
<stop offset="1" stop-color="#373839" stop-opacity="0.4"/>
</linearGradient>
<linearGradient id="paint9_linear_829_2580" x1="1541.14" y1="549.053" x2="647.037" y2="722.259" gradientUnits="userSpaceOnUse">
<stop stop-color="#38393A" stop-opacity="0.4"/>
<stop offset="0.478947" stop-color="#353637" stop-opacity="0"/>
<stop offset="1" stop-color="#373839" stop-opacity="0.4"/>
</linearGradient>
<linearGradient id="paint10_linear_829_2580" x1="1320.16" y1="473.279" x2="1139.32" y2="508.897" gradientUnits="userSpaceOnUse">
<stop stop-color="#38393A" stop-opacity="0.4"/>
<stop offset="0.478947" stop-color="#353637" stop-opacity="0"/>
<stop offset="1" stop-color="#373839" stop-opacity="0.4"/>
</linearGradient>
<linearGradient id="paint11_linear_829_2580" x1="1577.5" y1="499.913" x2="701.281" y2="667.266" gradientUnits="userSpaceOnUse">
<stop stop-color="#38393A" stop-opacity="0.4"/>
<stop offset="0.478947" stop-color="#353637" stop-opacity="0"/>
<stop offset="1" stop-color="#373839" stop-opacity="0.4"/>
</linearGradient>
<linearGradient id="paint12_linear_829_2580" x1="1567.63" y1="484.753" x2="1510.17" y2="495.858" gradientUnits="userSpaceOnUse">
<stop stop-color="#38393A" stop-opacity="0.4"/>
<stop offset="0.478947" stop-color="#353637" stop-opacity="0"/>
<stop offset="1" stop-color="#373839" stop-opacity="0.4"/>
</linearGradient>
<linearGradient id="paint13_linear_829_2580" x1="1492.2" y1="500.706" x2="1408.92" y2="516.979" gradientUnits="userSpaceOnUse">
<stop stop-color="#38393A" stop-opacity="0.4"/>
<stop offset="0.478947" stop-color="#353637" stop-opacity="0"/>
<stop offset="1" stop-color="#373839" stop-opacity="0.4"/>
</linearGradient>
<linearGradient id="paint14_linear_829_2580" x1="1350.36" y1="349.216" x2="1224.51" y2="373.272" gradientUnits="userSpaceOnUse">
<stop stop-color="#38393A" stop-opacity="0.4"/>
<stop offset="0.478947" stop-color="#353637" stop-opacity="0"/>
<stop offset="1" stop-color="#373839" stop-opacity="0.4"/>
</linearGradient>
<linearGradient id="paint15_linear_829_2580" x1="1298.27" y1="500.872" x2="1097.22" y2="540.416" gradientUnits="userSpaceOnUse">
<stop stop-color="#38393A" stop-opacity="0.4"/>
<stop offset="0.478947" stop-color="#353637" stop-opacity="0"/>
<stop offset="1" stop-color="#373839" stop-opacity="0.4"/>
</linearGradient>
<linearGradient id="paint16_linear_829_2580" x1="1370.52" y1="418.895" x2="735.648" y2="538.798" gradientUnits="userSpaceOnUse">
<stop stop-color="#38393A" stop-opacity="0.4"/>
<stop offset="0.478947" stop-color="#353637" stop-opacity="0"/>
<stop offset="1" stop-color="#373839" stop-opacity="0.4"/>
</linearGradient>
<linearGradient id="paint17_linear_829_2580" x1="1328.03" y1="527.222" x2="1071.93" y2="577.356" gradientUnits="userSpaceOnUse">
<stop stop-color="#38393A" stop-opacity="0.4"/>
<stop offset="0.478947" stop-color="#353637" stop-opacity="0"/>
<stop offset="1" stop-color="#373839" stop-opacity="0.4"/>
</linearGradient>
<linearGradient id="paint18_linear_829_2580" x1="1343.54" y1="393.107" x2="720.373" y2="510.308" gradientUnits="userSpaceOnUse">
<stop stop-color="#38393A" stop-opacity="0.4"/>
<stop offset="0.478947" stop-color="#353637" stop-opacity="0"/>
<stop offset="1" stop-color="#373839" stop-opacity="0.4"/>
</linearGradient>
<linearGradient id="paint19_linear_829_2580" x1="877.651" y1="589.893" x2="837.589" y2="595.672" gradientUnits="userSpaceOnUse">
<stop stop-color="#38393A" stop-opacity="0.4"/>
<stop offset="0.478947" stop-color="#353637" stop-opacity="0"/>
<stop offset="1" stop-color="#373839" stop-opacity="0.4"/>
</linearGradient>
<linearGradient id="paint20_linear_829_2580" x1="1383.71" y1="429.56" x2="758.95" y2="547.503" gradientUnits="userSpaceOnUse">
<stop stop-color="#38393A" stop-opacity="0.4"/>
<stop offset="0.478947" stop-color="#353637" stop-opacity="0"/>
<stop offset="1" stop-color="#373839" stop-opacity="0.4"/>
</linearGradient>
<linearGradient id="paint21_linear_829_2580" x1="1394.95" y1="440.134" x2="575.315" y2="592.158" gradientUnits="userSpaceOnUse">
<stop stop-color="#38393A" stop-opacity="0.4"/>
<stop offset="0.478947" stop-color="#353637" stop-opacity="0"/>
<stop offset="1" stop-color="#373839" stop-opacity="0.4"/>
</linearGradient>
<linearGradient id="paint22_linear_829_2580" x1="1580.64" y1="503.888" x2="951.803" y2="623.463" gradientUnits="userSpaceOnUse">
<stop stop-color="#38393A" stop-opacity="0.4"/>
<stop offset="0.478947" stop-color="#353637" stop-opacity="0"/>
<stop offset="1" stop-color="#373839" stop-opacity="0.4"/>
</linearGradient>
<linearGradient id="paint23_linear_829_2580" x1="760.568" y1="595.633" x2="758.392" y2="596.052" gradientUnits="userSpaceOnUse">
<stop stop-color="#38393A" stop-opacity="0.4"/>
<stop offset="0.478947" stop-color="#353637" stop-opacity="0"/>
<stop offset="1" stop-color="#373839" stop-opacity="0.4"/>
</linearGradient>
<linearGradient id="paint24_linear_829_2580" x1="1449.02" y1="517.747" x2="1436.88" y2="520.174" gradientUnits="userSpaceOnUse">
<stop stop-color="#38393A" stop-opacity="0.4"/>
<stop offset="0.478947" stop-color="#353637" stop-opacity="0"/>
<stop offset="1" stop-color="#373839" stop-opacity="0.4"/>
</linearGradient>
<linearGradient id="paint25_linear_829_2580" x1="1319.62" y1="379.523" x2="644.463" y2="505.069" gradientUnits="userSpaceOnUse">
<stop stop-color="#38393A" stop-opacity="0.4"/>
<stop offset="0.478947" stop-color="#353637" stop-opacity="0"/>
<stop offset="1" stop-color="#373839" stop-opacity="0.4"/>
</linearGradient>
<linearGradient id="paint26_linear_829_2580" x1="1085.66" y1="479.155" x2="1064.06" y2="483.475" gradientUnits="userSpaceOnUse">
<stop stop-color="#38393A" stop-opacity="0.4"/>
<stop offset="0.478947" stop-color="#353637" stop-opacity="0"/>
<stop offset="1" stop-color="#373839" stop-opacity="0.4"/>
</linearGradient>
<linearGradient id="paint27_linear_829_2580" x1="1129.28" y1="456.069" x2="1098.73" y2="462.169" gradientUnits="userSpaceOnUse">
<stop stop-color="#38393A" stop-opacity="0.4"/>
<stop offset="0.478947" stop-color="#353637" stop-opacity="0"/>
<stop offset="1" stop-color="#373839" stop-opacity="0.4"/>
</linearGradient>
<linearGradient id="paint28_linear_829_2580" x1="1155.06" y1="426.531" x2="1131.54" y2="431.231" gradientUnits="userSpaceOnUse">
<stop stop-color="#38393A" stop-opacity="0.4"/>
<stop offset="0.478947" stop-color="#353637" stop-opacity="0"/>
<stop offset="1" stop-color="#373839" stop-opacity="0.4"/>
</linearGradient>
<linearGradient id="paint29_linear_829_2580" x1="1414.9" y1="412.51" x2="1175.35" y2="459.641" gradientUnits="userSpaceOnUse">
<stop stop-color="#38393A" stop-opacity="0.4"/>
<stop offset="0.478947" stop-color="#353637" stop-opacity="0"/>
<stop offset="1" stop-color="#373839" stop-opacity="0.4"/>
</linearGradient>
<linearGradient id="paint30_linear_829_2580" x1="1223.87" y1="368.353" x2="1198.18" y2="373.48" gradientUnits="userSpaceOnUse">
<stop stop-color="#38393A" stop-opacity="0.4"/>
<stop offset="0.478947" stop-color="#353637" stop-opacity="0"/>
<stop offset="1" stop-color="#373839" stop-opacity="0.4"/>
</linearGradient>
<linearGradient id="paint31_linear_829_2580" x1="1446.39" y1="387.933" x2="1247.31" y2="427.359" gradientUnits="userSpaceOnUse">
<stop stop-color="#38393A" stop-opacity="0.4"/>
<stop offset="0.478947" stop-color="#353637" stop-opacity="0"/>
<stop offset="1" stop-color="#373839" stop-opacity="0.4"/>
</linearGradient>
<linearGradient id="paint32_linear_829_2580" x1="1450.55" y1="385.806" x2="1284.61" y2="418.785" gradientUnits="userSpaceOnUse">
<stop stop-color="#38393A" stop-opacity="0.4"/>
<stop offset="0.478947" stop-color="#353637" stop-opacity="0"/>
<stop offset="1" stop-color="#373839" stop-opacity="0.4"/>
</linearGradient>
<linearGradient id="paint33_linear_829_2580" x1="1321.05" y1="305.373" x2="1301.87" y2="309.191" gradientUnits="userSpaceOnUse">
<stop stop-color="#38393A" stop-opacity="0.4"/>
<stop offset="0.478947" stop-color="#353637" stop-opacity="0"/>
<stop offset="1" stop-color="#373839" stop-opacity="0.4"/>
</linearGradient>
<linearGradient id="paint34_linear_829_2580" x1="731.464" y1="551.489" x2="722.773" y2="553.231" gradientUnits="userSpaceOnUse">
<stop stop-color="#38393A" stop-opacity="0.4"/>
<stop offset="0.478947" stop-color="#353637" stop-opacity="0"/>
<stop offset="1" stop-color="#373839" stop-opacity="0.4"/>
</linearGradient>
<linearGradient id="paint35_linear_829_2580" x1="935.502" y1="528.55" x2="917.48" y2="532.159" gradientUnits="userSpaceOnUse">
<stop stop-color="#38393A" stop-opacity="0.4"/>
<stop offset="0.478947" stop-color="#353637" stop-opacity="0"/>
<stop offset="1" stop-color="#373839" stop-opacity="0.4"/>
</linearGradient>
<linearGradient id="paint36_linear_829_2580" x1="1221.14" y1="604.682" x2="980.017" y2="652.593" gradientUnits="userSpaceOnUse">
<stop stop-color="#38393A" stop-opacity="0.4"/>
<stop offset="0.478947" stop-color="#353637" stop-opacity="0"/>
<stop offset="1" stop-color="#373839" stop-opacity="0.4"/>
</linearGradient>
<linearGradient id="paint37_linear_829_2580" x1="1396.13" y1="537.306" x2="683.907" y2="674.055" gradientUnits="userSpaceOnUse">
<stop stop-color="#38393A" stop-opacity="0.4"/>
<stop offset="0.478947" stop-color="#353637" stop-opacity="0"/>
<stop offset="1" stop-color="#373839" stop-opacity="0.4"/>
</linearGradient>
<linearGradient id="paint38_linear_829_2580" x1="1359.99" y1="554.401" x2="1336.73" y2="559.032" gradientUnits="userSpaceOnUse">
<stop stop-color="#38393A" stop-opacity="0.4"/>
<stop offset="0.478947" stop-color="#353637" stop-opacity="0"/>
<stop offset="1" stop-color="#373839" stop-opacity="0.4"/>
</linearGradient>
<linearGradient id="paint39_linear_829_2580" x1="1201.32" y1="735.688" x2="1191.6" y2="737.615" gradientUnits="userSpaceOnUse">
<stop stop-color="#38393A" stop-opacity="0.4"/>
<stop offset="0.478947" stop-color="#353637" stop-opacity="0"/>
<stop offset="1" stop-color="#373839" stop-opacity="0.4"/>
</linearGradient>
<linearGradient id="paint40_linear_829_2580" x1="1319.35" y1="595.973" x2="1296.97" y2="600.419" gradientUnits="userSpaceOnUse">
<stop stop-color="#38393A" stop-opacity="0.4"/>
<stop offset="0.478947" stop-color="#353637" stop-opacity="0"/>
<stop offset="1" stop-color="#373839" stop-opacity="0.4"/>
</linearGradient>
<linearGradient id="paint41_linear_829_2580" x1="576.701" y1="546.458" x2="564.032" y2="548.912" gradientUnits="userSpaceOnUse">
<stop stop-color="#38393A" stop-opacity="0.4"/>
<stop offset="0.478947" stop-color="#353637" stop-opacity="0"/>
<stop offset="1" stop-color="#373839" stop-opacity="0.4"/>
</linearGradient>
<linearGradient id="paint42_linear_829_2580" x1="1129.49" y1="630.05" x2="867.269" y2="682.157" gradientUnits="userSpaceOnUse">
<stop stop-color="#38393A" stop-opacity="0.4"/>
<stop offset="0.478947" stop-color="#353637" stop-opacity="0"/>
<stop offset="1" stop-color="#373839" stop-opacity="0.4"/>
</linearGradient>
<linearGradient id="paint43_linear_829_2580" x1="1402.55" y1="524.928" x2="1365.86" y2="532.208" gradientUnits="userSpaceOnUse">
<stop stop-color="#38393A" stop-opacity="0.4"/>
<stop offset="0.478947" stop-color="#353637" stop-opacity="0"/>
<stop offset="1" stop-color="#373839" stop-opacity="0.4"/>
</linearGradient>
<linearGradient id="paint44_linear_829_2580" x1="1279.85" y1="643.26" x2="1258.37" y2="647.517" gradientUnits="userSpaceOnUse">
<stop stop-color="#38393A" stop-opacity="0.4"/>
<stop offset="0.478947" stop-color="#353637" stop-opacity="0"/>
<stop offset="1" stop-color="#373839" stop-opacity="0.4"/>
</linearGradient>
<linearGradient id="paint45_linear_829_2580" x1="575.601" y1="543.537" x2="565.11" y2="545.581" gradientUnits="userSpaceOnUse">
<stop stop-color="#38393A" stop-opacity="0.4"/>
<stop offset="0.478947" stop-color="#353637" stop-opacity="0"/>
<stop offset="1" stop-color="#373839" stop-opacity="0.4"/>
</linearGradient>
<linearGradient id="paint46_linear_829_2580" x1="1093.15" y1="684.347" x2="903.678" y2="722.018" gradientUnits="userSpaceOnUse">
<stop stop-color="#38393A" stop-opacity="0.4"/>
<stop offset="0.478947" stop-color="#353637" stop-opacity="0"/>
<stop offset="1" stop-color="#373839" stop-opacity="0.4"/>
</linearGradient>
<linearGradient id="paint47_linear_829_2580" x1="902.764" y1="700.471" x2="786.569" y2="723.665" gradientUnits="userSpaceOnUse">
<stop stop-color="#38393A" stop-opacity="0.4"/>
<stop offset="0.478947" stop-color="#353637" stop-opacity="0"/>
<stop offset="1" stop-color="#373839" stop-opacity="0.4"/>
</linearGradient>
<linearGradient id="paint48_linear_829_2580" x1="951.943" y1="701.53" x2="788.439" y2="734.096" gradientUnits="userSpaceOnUse">
<stop stop-color="#38393A" stop-opacity="0.4"/>
<stop offset="0.478947" stop-color="#353637" stop-opacity="0"/>
<stop offset="1" stop-color="#373839" stop-opacity="0.4"/>
</linearGradient>
<linearGradient id="paint49_linear_829_2580" x1="1045.57" y1="690.095" x2="786.523" y2="741.457" gradientUnits="userSpaceOnUse">
<stop stop-color="#38393A" stop-opacity="0.4"/>
<stop offset="0.478947" stop-color="#353637" stop-opacity="0"/>
<stop offset="1" stop-color="#373839" stop-opacity="0.4"/>
</linearGradient>
<linearGradient id="paint50_linear_829_2580" x1="1012.97" y1="771.884" x2="665.968" y2="838.623" gradientUnits="userSpaceOnUse">
<stop stop-color="#38393A" stop-opacity="0.4"/>
<stop offset="0.478947" stop-color="#353637" stop-opacity="0"/>
<stop offset="1" stop-color="#373839" stop-opacity="0.4"/>
</linearGradient>
<linearGradient id="paint51_linear_829_2580" x1="867.56" y1="777.815" x2="665.601" y2="816.048" gradientUnits="userSpaceOnUse">
<stop stop-color="#38393A" stop-opacity="0.4"/>
<stop offset="0.478947" stop-color="#353637" stop-opacity="0"/>
<stop offset="1" stop-color="#373839" stop-opacity="0.4"/>
</linearGradient>
<linearGradient id="paint52_linear_829_2580" x1="1057.63" y1="501.431" x2="1029.89" y2="506.975" gradientUnits="userSpaceOnUse">
<stop stop-color="#38393A" stop-opacity="0.4"/>
<stop offset="0.478947" stop-color="#353637" stop-opacity="0"/>
<stop offset="1" stop-color="#373839" stop-opacity="0.4"/>
</linearGradient>
<linearGradient id="paint53_linear_829_2580" x1="819.274" y1="785.526" x2="671.307" y2="811.612" gradientUnits="userSpaceOnUse">
<stop stop-color="#38393A" stop-opacity="0.4"/>
<stop offset="0.478947" stop-color="#353637" stop-opacity="0"/>
<stop offset="1" stop-color="#373839" stop-opacity="0.4"/>
</linearGradient>
<linearGradient id="paint54_linear_829_2580" x1="746.042" y1="583.042" x2="718.416" y2="588.471" gradientUnits="userSpaceOnUse">
<stop stop-color="#38393A" stop-opacity="0.4"/>
<stop offset="0.478947" stop-color="#353637" stop-opacity="0"/>
<stop offset="1" stop-color="#373839" stop-opacity="0.4"/>
</linearGradient>
<linearGradient id="paint55_linear_829_2580" x1="829.666" y1="557.127" x2="804.487" y2="562.168" gradientUnits="userSpaceOnUse">
<stop stop-color="#38393A" stop-opacity="0.4"/>
<stop offset="0.478947" stop-color="#353637" stop-opacity="0"/>
<stop offset="1" stop-color="#373839" stop-opacity="0.4"/>
</linearGradient>
<linearGradient id="paint56_linear_829_2580" x1="572.775" y1="535.998" x2="564.971" y2="537.523" gradientUnits="userSpaceOnUse">
<stop stop-color="#38393A" stop-opacity="0.4"/>
<stop offset="0.478947" stop-color="#353637" stop-opacity="0"/>
<stop offset="1" stop-color="#373839" stop-opacity="0.4"/>
</linearGradient>
<linearGradient id="paint57_linear_829_2580" x1="770.293" y1="786.459" x2="761.6" y2="788.191" gradientUnits="userSpaceOnUse">
<stop stop-color="#38393A" stop-opacity="0.4"/>
<stop offset="0.478947" stop-color="#353637" stop-opacity="0"/>
<stop offset="1" stop-color="#373839" stop-opacity="0.4"/>
</linearGradient>
<linearGradient id="paint58_linear_829_2580" x1="1305.71" y1="360.009" x2="619.117" y2="486.717" gradientUnits="userSpaceOnUse">
<stop stop-color="#38393A" stop-opacity="0.4"/>
<stop offset="0.478947" stop-color="#353637" stop-opacity="0"/>
<stop offset="1" stop-color="#373839" stop-opacity="0.4"/>
</linearGradient>
<linearGradient id="paint59_linear_829_2580" x1="1420.66" y1="460.126" x2="578.718" y2="618.538" gradientUnits="userSpaceOnUse">
<stop stop-color="#38393A" stop-opacity="0.4"/>
<stop offset="0.478947" stop-color="#353637" stop-opacity="0"/>
<stop offset="1" stop-color="#373839" stop-opacity="0.4"/>
</linearGradient>
<linearGradient id="paint60_linear_829_2580" x1="1339.89" y1="594.583" x2="736.836" y2="711.662" gradientUnits="userSpaceOnUse">
<stop stop-color="#38393A" stop-opacity="0.4"/>
<stop offset="0.478947" stop-color="#353637" stop-opacity="0"/>
<stop offset="1" stop-color="#373839" stop-opacity="0.4"/>
</linearGradient>
<linearGradient id="paint61_linear_829_2580" x1="648.934" y1="684.689" x2="604.842" y2="693.533" gradientUnits="userSpaceOnUse">
<stop stop-color="#38393A" stop-opacity="0.4"/>
<stop offset="0.478947" stop-color="#353637" stop-opacity="0"/>
<stop offset="1" stop-color="#373839" stop-opacity="0.4"/>
</linearGradient>
<linearGradient id="paint62_linear_829_2580" x1="641.749" y1="545.972" x2="640.471" y2="546.228" gradientUnits="userSpaceOnUse">
<stop stop-color="#38393A" stop-opacity="0.4"/>
<stop offset="0.478947" stop-color="#353637" stop-opacity="0"/>
<stop offset="1" stop-color="#373839" stop-opacity="0.4"/>
</linearGradient>
<linearGradient id="paint63_linear_829_2580" x1="1371.2" y1="602.595" x2="631.007" y2="742.119" gradientUnits="userSpaceOnUse">
<stop stop-color="#38393A" stop-opacity="0.4"/>
<stop offset="0.478947" stop-color="#353637" stop-opacity="0"/>
<stop offset="1" stop-color="#373839" stop-opacity="0.4"/>
</linearGradient>
<linearGradient id="paint64_linear_829_2580" x1="694.377" y1="566.971" x2="685.296" y2="568.758" gradientUnits="userSpaceOnUse">
<stop stop-color="#38393A" stop-opacity="0.4"/>
<stop offset="0.478947" stop-color="#353637" stop-opacity="0"/>
<stop offset="1" stop-color="#373839" stop-opacity="0.4"/>
</linearGradient>
<linearGradient id="paint65_linear_829_2580" x1="562.165" y1="552.706" x2="559.983" y2="553.09" gradientUnits="userSpaceOnUse">
<stop stop-color="#38393A" stop-opacity="0.4"/>
<stop offset="0.478947" stop-color="#353637" stop-opacity="0"/>
<stop offset="1" stop-color="#373839" stop-opacity="0.4"/>
</linearGradient>
<linearGradient id="paint66_linear_829_2580" x1="578.374" y1="551.707" x2="560.316" y2="555.117" gradientUnits="userSpaceOnUse">
<stop stop-color="#38393A" stop-opacity="0.4"/>
<stop offset="0.478947" stop-color="#353637" stop-opacity="0"/>
<stop offset="1" stop-color="#373839" stop-opacity="0.4"/>
</linearGradient>
<linearGradient id="paint67_linear_829_2580" x1="577.968" y1="550.194" x2="563.246" y2="553.015" gradientUnits="userSpaceOnUse">
<stop stop-color="#38393A" stop-opacity="0.4"/>
<stop offset="0.478947" stop-color="#353637" stop-opacity="0"/>
<stop offset="1" stop-color="#373839" stop-opacity="0.4"/>
</linearGradient>
<linearGradient id="paint68_linear_829_2580" x1="568.024" y1="537.675" x2="558.949" y2="539.492" gradientUnits="userSpaceOnUse">
<stop stop-color="#38393A" stop-opacity="0.4"/>
<stop offset="0.478947" stop-color="#353637" stop-opacity="0"/>
<stop offset="1" stop-color="#373839" stop-opacity="0.4"/>
</linearGradient>
<linearGradient id="paint69_linear_829_2580" x1="1305.52" y1="673.045" x2="652.123" y2="796.702" gradientUnits="userSpaceOnUse">
<stop stop-color="#38393A" stop-opacity="0.4"/>
<stop offset="0.478947" stop-color="#353637" stop-opacity="0"/>
<stop offset="1" stop-color="#373839" stop-opacity="0.4"/>
</linearGradient>
<linearGradient id="paint70_linear_829_2580" x1="1313.3" y1="657.986" x2="645.089" y2="784.676" gradientUnits="userSpaceOnUse">
<stop stop-color="#38393A" stop-opacity="0.4"/>
<stop offset="0.478947" stop-color="#353637" stop-opacity="0"/>
<stop offset="1" stop-color="#373839" stop-opacity="0.4"/>
</linearGradient>
<linearGradient id="paint71_linear_829_2580" x1="1255.86" y1="659.506" x2="724.203" y2="762.721" gradientUnits="userSpaceOnUse">
<stop stop-color="#38393A" stop-opacity="0.4"/>
<stop offset="0.478947" stop-color="#353637" stop-opacity="0"/>
<stop offset="1" stop-color="#373839" stop-opacity="0.4"/>
</linearGradient>
<linearGradient id="paint72_linear_829_2580" x1="568.842" y1="526.726" x2="568.331" y2="526.828" gradientUnits="userSpaceOnUse">
<stop stop-color="#38393A" stop-opacity="0.4"/>
<stop offset="0.478947" stop-color="#353637" stop-opacity="0"/>
<stop offset="1" stop-color="#373839" stop-opacity="0.4"/>
</linearGradient>
<clipPath id="clip0_829_2580">
<rect width="1780" height="1000" fill="white"/>
</clipPath>
</defs>
</svg>
