<svg width="1580" height="1000" viewBox="100 0 1580 1000" fill="none" xmlns="http://www.w3.org/2000/svg" xmlns:xlink="http://www.w3.org/1999/xlink">
<g clip-path="url(#clip0_829_3064)">
<g filter="url(#filter0_d_829_3064)">
<path opacity="0.9" d="M442.477 398.24V377.68H471.437V376.96H442.477V357.12H473.357V351.36H433.677V404H475.357V398.24H442.477ZM499.168 381.84L513.328 365.52H512.608L498.768 381.44L485.328 365.52H474.688L493.408 387.68L479.248 403.92H479.968L493.728 388.08L507.168 403.92H517.888L499.168 381.84ZM559.746 383.44V383.36C559.666 381.28 559.186 379.28 558.466 377.28C558.386 376.96 558.226 376.64 558.066 376.32C558.066 376.24 557.986 376.16 557.986 376.08C557.826 375.76 557.666 375.36 557.506 375.04C557.506 375.04 557.506 375.04 557.506 374.96C554.706 369.52 549.666 365.52 544.146 365.52C535.666 365.52 531.586 370.64 528.226 375.12V366.32H521.346H520.546V419.04H528.626V396.64V395.6C530.306 400 533.826 404.8 540.946 404.88C552.226 404.96 559.826 396.64 559.826 385.12C559.826 384.56 559.746 384 559.746 383.44ZM540.226 398.72C539.666 398.8 539.026 398.8 538.386 398.8C533.266 398.8 530.066 396.32 528.466 392.64L528.386 390.08C528.386 389.92 528.386 389.76 528.386 389.52C528.306 388.08 528.306 386.56 528.306 385.2L528.226 375.84C530.706 372.56 534.226 368.32 539.906 368.32C539.906 368.32 539.986 368.32 540.066 368.32C540.306 368.32 540.466 368.32 540.706 368.4C543.186 368.56 545.106 369.44 546.626 370.96C546.626 370.96 546.626 370.96 546.706 370.96C549.826 373.68 551.906 378.32 551.906 383.52C551.906 391.84 546.706 398.56 540.226 398.72ZM598.136 390.16C598.136 390.16 595.816 399.52 584.856 399.52C577.096 399.52 571.416 394.48 571.416 385.52C571.416 383.36 571.816 381.28 572.376 379.52H602.856C601.416 372.88 596.616 365.52 583.496 365.52C570.456 365.52 562.696 374.16 562.696 385.52C562.696 398.48 572.696 405.6 583.816 405.6C601.896 405.6 604.376 391.92 604.376 391.92L598.136 390.16ZM583.496 371.68C589.816 371.68 593.416 374.72 595.016 379.04H572.536C574.296 374.56 577.976 371.68 583.496 371.68ZM630.282 365.52C618.762 365.52 616.442 384.24 616.282 390.48V366.32H609.402H608.202V404H616.282V398.24C616.282 396 616.282 371.52 625.882 371.52C629.482 371.52 632.282 374.08 632.762 379.44H640.922C640.442 370.72 636.922 365.52 630.282 365.52ZM652.452 403.92V366.32H644.292V403.92H652.452ZM648.372 351.36C644.532 351.36 641.412 354.56 641.412 358.4H641.972C641.972 354.88 644.852 352 648.372 352C651.892 352 654.772 354.88 654.772 358.4H655.412C655.412 354.56 652.292 351.36 648.372 351.36ZM692.198 390.16C692.198 390.16 689.878 399.52 678.918 399.52C671.158 399.52 665.478 394.48 665.478 385.52C665.478 383.36 665.878 381.28 666.438 379.52H696.918C695.478 372.88 690.678 365.52 677.558 365.52C664.518 365.52 656.758 374.16 656.758 385.52C656.758 398.48 666.758 405.6 677.878 405.6C695.958 405.6 698.438 391.92 698.438 391.92L692.198 390.16ZM677.558 371.68C683.878 371.68 687.478 374.72 689.078 379.04H666.598C668.358 374.56 672.038 371.68 677.558 371.68ZM727.065 365.6C712.185 365.6 710.425 384.24 710.265 390.48V366.32H703.385H702.185V404H710.265V398.32C710.265 396 709.145 371.52 723.945 371.52C729.065 371.52 732.505 374.48 732.505 380.8V404H740.665V380.72C740.665 371.2 735.465 365.6 727.065 365.6ZM780.011 390.16C780.011 390.16 777.691 399.52 766.731 399.52C758.971 399.52 753.291 394.48 753.291 385.52C753.291 377.44 757.531 371.68 765.371 371.68C771.931 371.68 775.531 374.88 777.051 379.52H784.731C783.291 372.88 778.491 365.52 765.371 365.52C752.331 365.52 744.571 374.16 744.571 385.52C744.571 398.48 754.571 405.6 765.691 405.6C783.771 405.6 786.251 391.92 786.251 391.92L780.011 390.16ZM823.917 390.16C823.917 390.16 821.597 399.52 810.637 399.52C802.877 399.52 797.197 394.48 797.197 385.52C797.197 383.36 797.597 381.28 798.157 379.52H828.637C827.197 372.88 822.397 365.52 809.277 365.52C796.237 365.52 788.477 374.16 788.477 385.52C788.477 398.48 798.477 405.6 809.597 405.6C827.677 405.6 830.157 391.92 830.157 391.92L823.917 390.16ZM809.277 371.68C815.597 371.68 819.197 374.72 820.797 379.04H798.317C800.077 374.56 803.757 371.68 809.277 371.68ZM928.432 318.46L929.212 402.57L874.222 318.46H860.052V404H874.352V320.41L929.212 404H942.732V318.46H928.432ZM1017.72 327.82V318.46H953.235V404H967.535V361.23H1014.6V360.06H967.535V327.82H1017.72ZM1016.82 318.46V327.82H1053.09V404H1067.13V327.82H1103.4V318.46H1016.82ZM1134.27 374.62L1119.19 372.02C1110.87 370.59 1107.88 364.22 1109.05 358.89C1109.96 354.34 1113.99 350.57 1121.66 351.09C1139.34 352 1138.04 363.57 1138.04 363.57L1151.69 359.67C1151.69 359.67 1149.87 341.21 1121.92 341.21C1107.49 341.21 1096.05 346.54 1096.05 358.11C1096.05 365.39 1104.76 370.2 1116.07 372.15L1129.59 374.62C1139.21 376.31 1141.94 382.16 1141.03 387.36C1140.12 392.3 1136.22 395.68 1128.03 395.68C1104.24 395.68 1106.32 379.56 1106.32 379.56L1092.67 383.59C1092.67 383.59 1095.79 405.43 1127.9 405.43C1142.98 405.43 1155.07 400.36 1155.07 388.53C1155.07 380.47 1147.92 377.09 1134.27 374.62Z" fill="#232425"/>
<path opacity="0.9" d="M794.421 501.44C794.341 499.36 793.941 497.28 793.221 495.36C793.061 494.96 792.981 494.64 792.821 494.32C792.741 494.24 792.741 494.16 792.741 494.08C792.581 493.76 792.421 493.44 792.261 493.12C792.261 493.04 792.181 493.04 792.181 493.04C789.381 487.6 784.421 483.52 778.901 483.52C769.701 483.52 765.701 489.52 762.181 494.24V469.28H754.101V522.08H754.901L761.221 513.04C761.221 513.04 763.781 522.88 775.701 522.88C786.901 522.88 794.501 514.72 794.501 503.2C794.501 502.56 794.501 502 794.421 501.44ZM774.981 516.72C774.341 516.8 773.781 516.88 773.141 516.88C764.981 516.88 761.861 510.56 761.861 503.12C761.861 500.4 761.941 496.96 762.181 495.04C764.581 491.6 768.341 486.32 774.581 486.4C774.661 486.4 774.741 486.4 774.741 486.4C774.981 486.4 775.221 486.4 775.461 486.4C777.941 486.56 779.861 487.52 781.381 488.96C784.501 491.68 786.581 496.32 786.581 501.6C786.581 509.84 781.381 516.64 774.981 516.72ZM832.784 508.16C832.784 508.16 830.464 517.52 819.504 517.52C811.744 517.52 806.064 512.48 806.064 503.52C806.064 501.36 806.464 499.28 807.024 497.52H837.504C836.064 490.88 831.264 483.52 818.144 483.52C805.104 483.52 797.344 492.16 797.344 503.52C797.344 516.48 807.344 523.6 818.464 523.6C836.544 523.6 839.024 509.92 839.024 509.92L832.784 508.16ZM818.144 489.68C824.464 489.68 828.064 492.72 829.664 497.04H807.184C808.944 492.56 812.624 489.68 818.144 489.68ZM844.265 546.96C839.145 546.96 836.825 544.8 836.265 541.84C835.705 538.56 837.305 535.04 843.305 533.92L851.545 532.48C858.505 531.28 862.265 525.04 863.785 522L881.305 484.4H872.105L859.305 514.72L846.745 484.4H837.385L850.985 513.6L854.825 521.92L854.905 522C857.945 528.24 854.745 531.52 849.625 532.4L840.425 534C832.025 535.52 827.625 537.6 827.625 542.56C827.625 549.84 835.065 552.96 844.345 552.96C864.025 552.96 866.025 539.44 866.025 539.44L857.625 537.04C857.625 537.04 858.825 546.96 844.265 546.96ZM901.437 483.36C888.077 483.36 880.157 492.08 880.157 503.12C880.157 514.24 888.077 522.88 901.437 522.88C914.877 522.88 922.797 514.24 922.797 503.12C922.797 492.08 914.877 483.36 901.437 483.36ZM901.437 516.88C893.597 516.88 888.797 511.28 888.797 503.12C888.797 494.96 893.597 489.44 901.437 489.44C909.197 489.44 914.157 494.96 914.157 503.12C914.157 511.28 909.197 516.88 901.437 516.88ZM952.026 483.6C937.146 483.6 935.386 502.24 935.226 508.48V484.32H928.346H927.146V522H935.226V516.32C935.226 514 934.106 489.52 948.906 489.52C954.026 489.52 957.466 492.48 957.466 498.8V522H965.626V498.72C965.626 489.2 960.426 483.6 952.026 483.6ZM1000.73 469.28V491.68L1000.81 492.72C999.052 488.32 995.612 483.52 988.412 483.44C977.132 483.36 969.612 491.68 969.612 503.2C969.612 503.76 969.612 504.32 969.612 504.88V504.96C969.772 507.04 970.172 509.12 970.892 511.04C971.052 511.36 971.132 511.68 971.292 512C971.292 512.08 971.372 512.16 971.372 512.24C971.532 512.64 971.692 512.96 971.852 513.28C971.852 513.28 971.852 513.28 971.932 513.36C974.652 518.8 979.692 522.8 985.212 522.8C993.692 522.8 997.772 517.76 1001.13 513.2L1001.21 522L1008.01 522.08H1008.89V469.28H1000.73ZM989.532 520C989.452 520 989.372 520 989.372 520C989.132 520 988.892 520 988.652 520C986.172 519.76 984.252 518.88 982.732 517.44C982.732 517.36 982.732 517.36 982.732 517.36C979.532 514.64 977.532 510 977.532 504.8C977.532 496.48 982.652 489.76 989.132 489.6C989.692 489.52 990.332 489.52 990.972 489.52C996.092 489.52 999.292 492 1000.89 495.76L1000.97 498.24C1000.97 498.4 1000.97 498.64 1000.97 498.8C1001.05 500.24 1001.13 501.76 1001.13 503.12V512.48C998.732 515.76 995.132 520 989.532 520ZM1065.99 512.4C1065.99 512.4 1063.27 516.72 1058.39 516.88C1054.07 516.96 1051.83 514.24 1051.83 508.32V485.12H1067.27V484.32H1051.83V470.4L1044.07 475.76V484.32H1035.35V485.12H1043.75V509.2C1043.75 518.64 1048.63 522.88 1056.71 522.88C1065.03 522.88 1068.63 517.52 1068.63 517.52L1065.99 512.4ZM1096.95 483.52C1081.99 483.52 1080.31 502.24 1080.15 508.48V469.28H1072.07V521.92H1080.15V516.24C1080.15 513.92 1079.03 489.44 1093.83 489.44C1098.95 489.44 1102.39 492.48 1102.39 498.8V521.92H1110.55V498.64C1110.55 489.12 1105.35 483.52 1096.95 483.52ZM1149.89 508.16C1149.89 508.16 1147.57 517.52 1136.61 517.52C1128.85 517.52 1123.17 512.48 1123.17 503.52C1123.17 501.36 1123.57 499.28 1124.13 497.52H1154.61C1153.17 490.88 1148.37 483.52 1135.25 483.52C1122.21 483.52 1114.45 492.16 1114.45 503.52C1114.45 516.48 1124.45 523.6 1135.57 523.6C1153.65 523.6 1156.13 509.92 1156.13 509.92L1149.89 508.16ZM1135.25 489.68C1141.57 489.68 1145.17 492.72 1146.77 497.04H1124.29C1126.05 492.56 1129.73 489.68 1135.25 489.68Z" fill="#232425"/>
</g>
<path opacity="0.9" d="M921.441 638.603C921.441 638.603 917.914 667.58 886.274 667.551C864.014 667.53 850.029 651.837 850.047 631.537C850.066 611.237 862.821 595.569 885.081 595.589C916.721 595.619 917.812 626.84 917.812 626.84L933.776 622.094C933.776 622.094 930.031 583.871 885.091 583.829C852.471 583.799 833.833 603.802 833.807 631.522C833.782 659.242 853.503 679.28 886.263 679.311C932.463 679.353 936.277 642.957 936.277 642.957L921.441 638.603Z" fill="#232425"/>
<path opacity="0.9" d="M963.066 610.361C942.906 610.343 938.816 643.099 938.526 654.018L938.565 611.739L926.525 611.727L924.425 611.725L924.364 677.665L938.504 677.678L938.513 667.598C938.517 663.678 938.557 620.838 955.357 620.854C961.657 620.86 966.552 625.344 967.384 634.725L981.664 634.738C980.838 619.478 974.686 610.372 963.066 610.361Z" fill="#232425"/>
<path opacity="0.9" d="M988.018 721.404C979.058 721.396 975.001 717.612 974.026 712.431C973.051 706.691 975.857 700.533 986.359 698.583L1000.78 696.076C1012.96 693.987 1019.55 683.073 1022.22 677.756L1052.94 611.984L1036.84 611.969L1014.39 665.009L992.459 611.928L976.079 611.913L999.832 663.035L1006.54 677.601L1006.68 677.742C1011.99 688.666 1006.38 694.401 997.421 695.933L981.319 698.718C966.616 701.365 958.913 704.997 958.905 713.677C958.893 726.417 971.908 731.889 988.148 731.904C1022.59 731.936 1026.11 708.28 1026.11 708.28L1011.41 704.066C1011.41 704.066 1013.5 721.428 988.018 721.404Z" fill="#232425"/>
<path opacity="0.9" d="M1127.87 641.874L1127.87 641.734C1127.74 638.094 1126.9 634.593 1125.64 631.092C1125.5 630.531 1125.22 629.971 1124.94 629.411C1124.94 629.271 1124.8 629.131 1124.8 628.991C1124.52 628.431 1124.24 627.73 1123.97 627.17C1123.97 627.17 1123.97 627.17 1123.97 627.03C1119.07 617.506 1110.26 610.497 1100.6 610.488C1085.76 610.475 1078.61 619.428 1072.73 627.263L1072.74 611.863L1060.7 611.852L1059.3 611.85L1059.21 704.11L1073.35 704.123L1073.39 664.923L1073.39 663.103C1076.32 670.806 1082.48 679.212 1094.94 679.363C1114.68 679.522 1127.99 664.974 1128.01 644.814C1128.01 643.834 1127.87 642.854 1127.87 641.874ZM1093.69 668.582C1092.71 668.721 1091.59 668.72 1090.47 668.719C1081.51 668.711 1075.91 664.366 1073.12 657.923L1072.98 653.443C1072.98 653.163 1072.98 652.883 1072.98 652.463C1072.84 649.943 1072.85 647.283 1072.85 644.903L1072.72 628.523C1077.07 622.787 1083.24 615.372 1093.18 615.382C1093.18 615.382 1093.32 615.382 1093.46 615.382C1093.88 615.382 1094.16 615.383 1094.58 615.523C1098.92 615.807 1102.27 617.35 1104.93 620.012C1104.93 620.012 1104.93 620.012 1105.07 620.013C1110.53 624.778 1114.16 632.901 1114.15 642.001C1114.14 656.561 1105.03 668.313 1093.69 668.582Z" fill="#232425"/>
<path opacity="0.9" d="M1159.02 661.082C1159.02 661.082 1154.26 668.638 1145.71 668.91C1138.15 669.043 1134.24 664.28 1134.25 653.92L1134.29 613.32L1161.31 613.345L1161.31 611.945L1134.29 611.92L1134.31 587.56L1120.72 596.927L1120.71 611.907L1105.45 611.893L1105.45 613.293L1120.15 613.306L1120.11 655.446C1120.09 671.966 1128.63 679.394 1142.77 679.407C1157.33 679.421 1163.63 670.047 1163.63 670.047L1159.02 661.082Z" fill="#232425"/>
<path opacity="0.9" d="M1190 606.294C1167.84 613.74 1159.56 632.62 1165.72 650.934C1171.92 669.381 1189.87 679.299 1212.03 671.852C1234.33 664.361 1242.65 645.614 1236.45 627.167C1230.3 608.853 1212.3 598.803 1190 606.294ZM1208.69 661.899C1195.68 666.269 1184.6 659.655 1180.05 646.118C1175.5 632.582 1180.39 620.75 1193.39 616.38C1206.27 612.054 1217.57 618.447 1222.12 631.983C1226.67 645.519 1221.56 657.574 1208.69 661.899Z" fill="#232425"/>
<path opacity="0.9" d="M1241.28 549.374L1240.75 550.357L1282.64 609.152L1212.21 602.567L1204.42 616.818L1276.8 621.594L1283.65 609.064L1241.28 549.374Z" fill="#232425"/>
<path opacity="0.9" d="M1272.06 503.822C1272.06 503.822 1288.44 507.897 1288.42 527.077C1288.41 540.657 1279.58 550.589 1263.9 550.575C1260.12 550.571 1256.48 549.868 1253.4 548.885L1253.45 495.545C1241.82 498.054 1228.94 506.442 1228.92 529.402C1228.89 552.222 1244 565.816 1263.88 565.834C1286.56 565.855 1299.04 548.367 1299.06 528.907C1299.09 497.267 1275.15 492.905 1275.15 492.905L1272.06 503.822ZM1239.7 529.412C1239.71 518.352 1245.03 512.057 1252.59 509.264L1252.56 548.604C1244.72 545.517 1239.69 539.072 1239.7 529.412Z" fill="#232425"/>
<path opacity="0.9" d="M1228.97 465.972C1228.96 486.132 1261.71 490.222 1272.63 490.512L1230.35 490.473L1230.34 502.513L1230.34 504.613L1296.28 504.674L1296.29 490.534L1286.21 490.524C1282.29 490.521 1239.45 490.481 1239.47 473.681C1239.47 467.381 1243.96 462.485 1253.34 461.654L1253.35 447.374C1238.09 448.2 1228.98 454.352 1228.97 465.972Z" fill="#232425"/>
<path opacity="0.9" d="M1264.72 415.863L1261.91 432.101C1260.36 441.059 1253.49 444.273 1247.76 443.008C1242.86 442.023 1238.8 437.679 1239.37 429.42C1240.37 410.381 1252.82 411.792 1252.82 411.792L1248.64 397.089C1248.64 397.089 1228.76 399.03 1228.73 429.13C1228.71 444.67 1234.44 456.995 1246.9 457.007C1254.74 457.014 1259.93 447.639 1262.04 435.461L1264.72 420.903C1266.55 410.545 1272.85 407.611 1278.45 408.596C1283.77 409.581 1287.4 413.784 1287.39 422.604C1287.37 448.224 1270.01 445.968 1270.01 445.968L1274.34 460.672C1274.34 460.672 1297.86 457.334 1297.89 422.754C1297.91 406.514 1292.46 393.489 1279.72 393.477C1271.04 393.469 1267.39 401.166 1264.72 415.863Z" fill="#232425"/>
<path opacity="0.9" d="M1272.22 327.501C1272.22 327.501 1288.6 331.576 1288.58 350.756C1288.57 364.336 1279.74 374.268 1264.06 374.253C1260.28 374.25 1256.64 373.546 1253.56 372.563L1253.61 319.224C1241.99 321.733 1229.1 330.121 1229.08 353.081C1229.06 375.901 1244.16 389.495 1264.04 389.513C1286.72 389.534 1299.2 372.046 1299.22 352.586C1299.25 320.946 1275.31 316.584 1275.31 316.584L1272.22 327.501ZM1239.86 353.091C1239.87 342.031 1245.19 335.736 1252.76 332.943L1252.72 372.283C1244.88 369.195 1239.85 362.751 1239.86 353.091Z" fill="#232425"/>
<path d="M1190.51 731.932L1150.31 769.128L1108.59 796.747L1099.62 795.344L1091.2 795.969L1082.86 795.644L1073.84 790.645L1063.19 776.893L1050.54 752.461L1037.13 723.639L1023.64 693.764L1010.39 665.044L997.988 639.225L986.54 617.488L976.071 599.961L966.737 586.747L958.202 576.844L950.08 568.995L910.414 574.299L902.341 564.036L892.926 547.098L882.71 525.514L871.824 501.26" stroke="url(#paint0_linear_829_3064)" stroke-linecap="round" stroke-linejoin="round"/>
<path d="M564.871 521.571L566.721 522.135L568.005 522.544L614.008 536.8L617.245 538.954L633.376 544.792L634.044 544.791L642.367 548.326L656.855 553.96L663.636 556.47L667.336 558.264L669.236 559.083L684.624 565.873L694.822 570.099L713.189 577.758L714.859 578.758L717.608 580.475L721.847 582.294L742.629 591.337L750.233 594.616L767.213 602.02L769.088 602.711L786.735 608.779L814.887 618.611L815.991 618.789L859.881 625.19L902.297 622.271L944.714 620.688L986.539 617.487L1027.2 609.846L1066.53 596.197L1104.54 576.002L1141.25 549.389L1177.17 518.129L1212.78 484.661L1248.85 452.836L1286 427.07L1324.22 408.569L1363.39 395.486L1402.84 386.484" stroke="url(#paint1_linear_829_3064)" stroke-linecap="round" stroke-linejoin="round"/>
<path d="M723.072 802.271L676.769 821.062" stroke="url(#paint2_linear_829_3064)" stroke-linecap="round" stroke-linejoin="round"/>
<path d="M583.637 567.078L631.531 572.14L681.025 585.827L731.655 605.83L732.554 606.317L782.416 628.477L783.29 628.836L831.969 649.098L879.125 661.786L923.705 664.977L967.64 666.961L1010.39 665.043L1051.67 656.477L1091.15 640.26L1129.18 616.188L1165.86 585.44L1201.93 550.277L1238 514.447L1274.97 483.109L1313.54 461.064L1353.35 447.184L1393.78 439.055L1434.45 434.084" stroke="url(#paint3_linear_829_3064)" stroke-linecap="round" stroke-linejoin="round"/>
<path d="M760.128 780.664L713.355 791.804L669.186 813.237" stroke="url(#paint4_linear_829_3064)" stroke-linecap="round" stroke-linejoin="round"/>
<path d="M703.141 645.351L655.404 641.727L610.219 648.809" stroke="url(#paint5_linear_829_3064)" stroke-linecap="round" stroke-linejoin="round"/>
<path d="M1433.91 505.108L1389.45 519.122L1347.16 548.591L1306.92 590.871L1267.99 639.029L1229.39 687.521L1190.51 731.931L1180.31 731.043L1171.28 735.263L1162.76 740.715L1153.93 742.624L1143.55 735.496L1131.13 716.225L1117.83 691.922L1104.45 665.899L1091.15 640.261L1078.52 616.624L1066.53 596.197L1055.57 579.57L1045.39 566.793L1036.19 557.558L1027.53 551.019L1018.92 543.402L1008.97 528.441L997.984 507.68L986.199 482.938" stroke="url(#paint6_linear_829_3064)" stroke-linecap="round" stroke-linejoin="round"/>
<path d="M595.949 604.4L642.501 603.454L691.297 612.341L741.436 629.238L741.873 629.417L792.222 650.678L842.288 671.863L890.397 686.63L935.877 692.31L980.508 695.757L1023.64 693.762L1064.97 684.117L1104.45 665.898L1142.24 639.335L1178.93 605.917L1214.92 568.367L1251.21 531.021L1288.57 499.605L1327.73 479.178L1368.24 467.428L1409.31 461.173L1450.75 458.05" stroke="url(#paint7_linear_829_3064)" stroke-linecap="round" stroke-linejoin="round"/>
<path d="M1160.7 453.465L1194.74 422.181L1228.89 392.078L1239.03 394.045L1249.59 396.731L1260.92 403.267L1273.12 413.5L1286 427.07L1299.55 443.31L1313.54 461.065L1327.73 479.179L1342.07 496.06L1356.19 509.783L1373.72 505.991" stroke="url(#paint8_linear_829_3064)" stroke-linecap="round" stroke-linejoin="round"/>
<path d="M1542.71 514.884L1497.09 521.118L1451.83 531.153L1406.78 544.217L1363.51 570.811L1322.26 609.42L1282.17 653.805L1242.39 699.063L1202.43 740.752L1161.33 776.126L1118.79 802.976L1074.12 819.968L1027.27 826.717L987.493 824.164L978.018 823.531L926.524 813.184L874.207 801.399L822.28 793.543L771.72 793.158L723.071 802.271L718.316 797.217L713.354 791.804L707.928 783.413L701.084 769.965L692.693 749.483L682.085 720.633L669.131 682.771L655.403 641.727L642.5 603.455L631.53 572.14L623.035 550.477L617.014 538.466L614.008 536.8" stroke="url(#paint9_linear_829_3064)" stroke-linecap="round" stroke-linejoin="round"/>
<path d="M1135.77 486.922L1170.25 456.485L1204.4 424.38L1214.36 426.783L1225.21 432.216L1236.59 441.012L1248.85 452.837L1261.6 467.101L1274.97 483.11L1288.57 499.607L1302.24 515.153L1315.79 528.055L1328.71 535.874L1334 533.609" stroke="url(#paint10_linear_829_3064)" stroke-linecap="round" stroke-linejoin="round"/>
<path d="M1588.49 513.426L1542.71 514.884L1524.48 493.308L1478.96 496.718L1433.91 505.108L1418.23 493.569L1404.75 494.276L1394.95 497.984L1373.72 505.991L1361.68 510.548L1359.99 512.09L1353.11 517.746L1334 533.608L1333.41 533.994L1330.1 536.796L1328.61 538.03L1321.27 544.046L1310.96 554.533L1301.55 565.507L1292.42 577.225L1288.34 582.852L1282.98 590.073L1282.57 590.69L1268.75 609.628L1250.85 634.193L1245.96 641.054L1242.67 645.32L1232.7 658.811L1213.26 685.021L1208.98 690.957L1200.26 698.72L1191.28 703.865L1181.05 700.178L1168.69 683.834L1155.59 662.56L1142.24 639.336L1129.18 616.188L1116.44 594.709L1104.54 576.002L1093.3 560.633L1082.94 548.96L1073.51 540.573L1064.64 535.01L1027.53 551.019L989.386 561.893L950.081 568.994L941.88 559.425L902.341 564.035L862.959 570.083L824.402 580.907L784.453 586.134L742.391 583.506L735.265 569.981L693.048 566.583L686.641 553.982L679.565 538.711" stroke="url(#paint11_linear_829_3064)" stroke-linecap="round" stroke-linejoin="round"/>
<path d="M1508.2 484.696L1517.83 485.431L1553.78 488.219L1570.22 494.93" stroke="url(#paint12_linear_829_3064)" stroke-linecap="round" stroke-linejoin="round"/>
<path d="M1404.75 494.276L1432.71 489.857L1449.01 487.248L1462.93 486.052L1478.96 496.718L1497.09 521.119" stroke="url(#paint13_linear_829_3064)" stroke-linecap="round" stroke-linejoin="round"/>
<path d="M1228.89 392.076L1263.96 365.927L1299.58 343.808L1310.7 346.648L1347.5 329.099" stroke="url(#paint14_linear_829_3064)" stroke-linecap="round" stroke-linejoin="round"/>
<path d="M1091.73 508.329L1126.55 482.898L1160.7 453.464L1170.25 456.484L1179.73 459.119L1190.06 464.655L1201.11 473.117L1212.78 484.66L1225.09 498.745L1238 514.446L1251.21 531.021L1264.43 546.927L1277.59 560.574L1290.18 569.394L1301.55 565.506L1310.96 554.532" stroke="url(#paint15_linear_829_3064)" stroke-linecap="round" stroke-linejoin="round"/>
<path d="M749.306 591.998L757.216 592.812L791.293 596.244L831.833 591.967L870.62 580.963L910.414 574.298L918.048 582.379L958.202 576.843L997.686 569.306L1036.19 557.558L1073.51 540.573L1109.69 517.941L1144.99 490.276L1179.73 459.12L1214.36 426.783L1249.59 396.731L1285.59 371.864L1322.47 352.03L1359.91 336.354" stroke="url(#paint16_linear_829_3064)" stroke-linecap="round" stroke-linejoin="round"/>
<path d="M1064.65 535.011L1100.68 513.611L1135.77 486.922L1145 490.277L1154.94 496.557L1165.73 505.739L1177.17 518.13L1189.28 533.19L1201.93 550.279L1214.92 568.368L1228.11 586.149L1241.12 601.696L1253.43 612.443L1263.98 610.455L1273.31 600.431L1282.98 590.074L1294.05 585.312L1315.64 560.537L1333.13 540.594" stroke="url(#paint17_linear_829_3064)" stroke-linecap="round" stroke-linejoin="round"/>
<path d="M735.265 569.981L776.297 569.477L815.603 563.044L853.851 552.683L892.927 547.097L932.312 543.052L971.13 537.518L1008.97 528.441L1045.7 514.513L1081.35 495.193L1116.09 470.713L1150.06 442.382L1183.77 412.1L1217.84 382.948L1252.53 357.544L1287.91 336.273L1323.97 319.007L1335.82 325.44" stroke="url(#paint18_linear_829_3064)" stroke-linecap="round" stroke-linejoin="round"/>
<path d="M838.287 598.814L877.794 588.735" stroke="url(#paint19_linear_829_3064)" stroke-linecap="round" stroke-linejoin="round"/>
<path d="M1373.38 348.871L1335.21 362.287L1297.69 380.248L1260.92 403.266L1225.21 432.215L1190.06 464.655L1154.94 496.556L1119.43 525.197L1082.94 548.959L1045.39 566.792L1006.61 579.13L966.739 586.745L926.071 591.717L885.172 596.868L844.816 605.382L813.156 605.337L804.092 605.423L802.346 605.373L796.898 601.527L791.295 596.243L784.455 586.133L776.298 569.477L767.007 548.508L757.277 524.689" stroke="url(#paint20_linear_829_3064)" stroke-linecap="round" stroke-linejoin="round"/>
<path d="M1387.75 365.881L1348.86 377.038L1310.59 392.612L1273.12 413.5L1236.59 441.011L1201.11 473.118L1165.73 505.738L1129.94 535.637L1093.3 560.633L1055.57 579.569L1016.48 592.37L976.071 599.96L934.837 604.11L893.218 607.67L851.935 613.566L844.814 605.382L838.285 598.815L797.82 601.475L796.896 601.528L794.559 601.196L774.45 598.161L760.814 596.095L758.451 595.635L758.322 595.661L749.306 591.998L747.996 591.46L746.121 590.769L725.365 582.522L716.657 579.064L713.112 578.04L694.822 570.099L694.616 569.74L685.857 566.025L684.675 565.462L669.185 558.827L667.31 558.135L656.855 553.96L642.367 548.326L633.376 544.792L624.026 540.795L617.013 538.466L569.035 525.676L568.059 525.471L564.871 521.571" stroke="url(#paint21_linear_829_3064)" stroke-linecap="round" stroke-linejoin="round"/>
<path d="M941.881 559.424L980.853 553.325L1018.92 543.401L1055.88 528.625L1091.73 508.329L1100.67 513.61L1109.69 517.94L1119.43 525.197L1129.94 535.637L1141.26 549.388L1153.19 566.221L1165.87 585.44L1178.93 605.918L1192.1 626.241L1205.11 644.459L1217.42 657.875L1227.69 658.481L1236.77 650.512L1242.44 642.829L1249.03 633.758L1266.44 610.092L1273.31 600.43L1281.26 590.819L1288.34 582.852L1296.55 573.856L1304.3 564.553L1321.27 544.046L1333.13 540.593L1350.25 527.403L1353.61 524.858L1365.74 515.473L1374.52 508.634L1418.23 493.569L1462.93 486.052L1472.22 485.785L1508.2 484.696L1524.48 493.307L1570.22 494.93L1588.49 513.425" stroke="url(#paint22_linear_829_3064)" stroke-linecap="round" stroke-linejoin="round"/>
<path d="M760.661 595.992L758.324 595.66" stroke="url(#paint23_linear_829_3064)" stroke-linecap="round" stroke-linejoin="round"/>
<path d="M1433.91 505.108L1451.83 531.153" stroke="url(#paint24_linear_829_3064)" stroke-linecap="round" stroke-linejoin="round"/>
<path d="M657.394 553.985L657.805 554.036L658.473 554.035L686.641 553.981L727.235 552.631L767.006 548.508L805.719 540.457L843.712 530.816L882.71 525.512L921.762 521.801L960.35 516.447L997.984 507.679L1034.38 494.084L1069.87 475.33L1104.39 451.697L1138.28 424.317L1171.83 395.267L1205.75 367.347L1240.31 343.304L1275.63 323.651L1311.71 308.517" stroke="url(#paint25_linear_829_3064)" stroke-linecap="round" stroke-linejoin="round"/>
<path d="M1057.58 450.692L1069.87 475.33L1081.35 495.193L1091.73 508.329" stroke="url(#paint26_linear_829_3064)" stroke-linecap="round" stroke-linejoin="round"/>
<path d="M1091.91 427.497L1104.39 451.698L1116.09 470.713L1126.55 482.899L1135.77 486.921" stroke="url(#paint27_linear_829_3064)" stroke-linecap="round" stroke-linejoin="round"/>
<path d="M1125.57 400.964L1138.28 424.317L1150.06 442.382L1160.7 453.464" stroke="url(#paint28_linear_829_3064)" stroke-linecap="round" stroke-linejoin="round"/>
<path d="M1159.1 373.121L1171.84 395.268L1183.77 412.1L1194.74 422.18L1204.4 424.379L1239.03 394.044L1274.54 368.075L1285.59 371.864L1297.69 380.248L1310.59 392.612L1324.22 408.569L1338.51 427.196L1353.35 447.184L1368.24 467.429L1383.17 485.927L1424.9 481.545L1432.71 489.857" stroke="url(#paint29_linear_829_3064)" stroke-linecap="round" stroke-linejoin="round"/>
<path d="M1192.95 346.818L1205.75 367.347L1217.84 382.947L1228.89 392.077" stroke="url(#paint30_linear_829_3064)" stroke-linecap="round" stroke-linejoin="round"/>
<path d="M1227.53 324.24L1240.32 343.306L1252.53 357.545L1263.96 365.929L1274.54 368.076L1310.7 346.65L1322.47 352.03L1335.21 362.288L1348.86 377.039L1363.39 395.486L1378.3 416.527L1393.78 439.056L1409.31 461.174L1424.89 481.546L1466.75 479.809" stroke="url(#paint31_linear_829_3064)" stroke-linecap="round" stroke-linejoin="round"/>
<path d="M1262.82 306.462L1275.63 323.653L1287.91 336.274L1299.58 343.811L1335.82 325.441L1347.5 329.101L1359.91 336.355L1373.38 348.872L1387.75 365.882L1402.84 386.485L1418.48 409.785L1434.45 434.085L1450.75 458.051L1466.75 479.809L1472.22 485.787" stroke="url(#paint32_linear_829_3064)" stroke-linecap="round" stroke-linejoin="round"/>
<path d="M1298.89 293.869L1311.71 308.518L1323.97 319.008" stroke="url(#paint33_linear_829_3064)" stroke-linecap="round" stroke-linejoin="round"/>
<path d="M735.264 569.982L727.235 552.632L718.639 532.458" stroke="url(#paint34_linear_829_3064)" stroke-linecap="round" stroke-linejoin="round"/>
<path d="M941.88 559.425L932.311 543.053L921.762 521.803L910.593 497.472" stroke="url(#paint35_linear_829_3064)" stroke-linecap="round" stroke-linejoin="round"/>
<path d="M1242.39 699.063L1229.39 687.522L1218.5 685.838L1208.98 690.957L1204.44 696.277L1196.34 705.786L1190.51 712.699L1182.61 721.899L1175.15 730.612L1171.28 735.263L1166.07 739.916L1159.2 746.24L1151.76 753.077L1135.62 767.807L1132.23 770.891L1123.81 773.519L1114.95 771.962L1104.42 761.393L1091.84 739.349L1078.43 712.53L1064.97 684.118L1051.67 656.477L1039.01 631.378L1027.2 609.846L1016.48 592.371L1006.61 579.131L997.686 569.306L989.385 561.893L980.851 553.326L971.129 537.518L960.349 516.448L948.872 491.912" stroke="url(#paint36_linear_829_3064)" stroke-linecap="round" stroke-linejoin="round"/>
<path d="M1394.95 497.983L1383.17 485.927L1342.08 496.06L1302.24 515.153L1264.43 546.928L1228.11 586.148L1192.1 626.241L1155.59 662.56L1117.83 691.922L1078.43 712.529L1037.13 723.638L993.84 726.198L948.695 722.186L902.391 714.402L853.768 698.402L803.394 677.68L752.79 658.473L703.142 645.351L691.297 612.341L681.025 585.827L673.098 567.656L667.311 558.135L663.638 556.47" stroke="url(#paint37_linear_829_3064)" stroke-linecap="round" stroke-linejoin="round"/>
<path d="M1333.13 540.593L1347.16 548.59L1363.51 570.81" stroke="url(#paint38_linear_829_3064)" stroke-linecap="round" stroke-linejoin="round"/>
<path d="M1202.43 740.751L1190.51 731.93" stroke="url(#paint39_linear_829_3064)" stroke-linecap="round" stroke-linejoin="round"/>
<path d="M1294.04 585.312L1306.91 590.871L1322.26 609.42" stroke="url(#paint40_linear_829_3064)" stroke-linecap="round" stroke-linejoin="round"/>
<path d="M577.303 548.854L563.562 546.274" stroke="url(#paint41_linear_829_3064)" stroke-linecap="round" stroke-linejoin="round"/>
<path d="M1161.33 776.125L1150.31 769.126L1140.78 768.237L1132.23 770.89L1127 774.08L1112.96 782.644L1091.2 795.967L1047.92 809.877L1039.55 806.752L1030.45 798.699L1019.68 782.302L1007.07 756.124L993.84 726.197L980.508 695.757L967.64 666.96L955.624 641.732L944.715 620.687L934.839 604.11L926.07 591.716L918.049 582.378L877.793 588.735L870.622 580.962L862.959 570.083L853.851 552.683L843.713 530.816L833.16 506.228" stroke="url(#paint42_linear_829_3064)" stroke-linecap="round" stroke-linejoin="round"/>
<path d="M1361.68 510.547L1374.52 508.634L1389.45 519.121L1406.78 544.216" stroke="url(#paint43_linear_829_3064)" stroke-linecap="round" stroke-linejoin="round"/>
<path d="M1256.09 635.678L1267.99 639.03L1282.17 653.805" stroke="url(#paint44_linear_829_3064)" stroke-linecap="round" stroke-linejoin="round"/>
<path d="M576.17 545.876L564.638 542.986" stroke="url(#paint45_linear_829_3064)" stroke-linecap="round" stroke-linejoin="round"/>
<path d="M1118.79 802.975L1108.59 796.746L1064.62 813.866L1018.17 819.998L1009.95 816.309L1002.09 813.081L993.948 807.774L984.797 797.461L974.199 779.292L961.667 752.164L948.695 722.186L935.878 692.311L923.705 664.976L912.408 641.339L902.298 622.271L893.219 607.67L885.171 596.868L877.794 588.735" stroke="url(#paint46_linear_829_3064)" stroke-linecap="round" stroke-linejoin="round"/>
<path d="M926.523 813.184L918.35 805.078L910.975 799.617L903.754 794.258L899.953 793.286L896.845 792.441L855.853 781.852L852.874 780.982L845.624 772.157L837.213 758.222L827.152 736.74L815.259 707.48L803.392 677.681L792.221 650.679L782.415 628.478L773.951 612.285L767.213 602.02L761.662 596.993" stroke="url(#paint47_linear_829_3064)" stroke-linecap="round" stroke-linejoin="round"/>
<path d="M978.017 823.532L969.305 816.068L961.52 811.223L953.864 807.02L950.345 806.125L908.685 795.536L903.754 794.258L896.249 786.818L887.66 774.656L877.523 754.792L865.684 727.124L853.766 698.403L842.287 671.864L831.968 649.099L822.783 631.313L814.887 618.611L808.151 610.35L790.994 605.386L764.333 597.658L761.662 596.993" stroke="url(#paint48_linear_829_3064)" stroke-linecap="round" stroke-linejoin="round"/>
<path d="M1074.12 819.967L1064.62 813.866L1055.96 811.333L1047.92 809.877L1019.73 811.806L1002.73 812.953L1002.09 813.082L998.112 812.546L964.958 808.394L954.532 807.018L953.864 807.019L946.026 800.582L937.259 789.524L926.918 770.636L914.771 743.43L902.39 714.402L890.397 686.631L879.125 661.786L868.833 641.152L859.881 625.19L851.935 613.566L817.499 611.007L808.152 610.349L802.344 605.373L800.675 605.041L787.936 602.127L763.768 596.836L761.303 596.531L758.452 595.635" stroke="url(#paint49_linear_829_3064)" stroke-linecap="round" stroke-linejoin="round"/>
<path d="M1027.27 826.716L1018.17 819.998L1012.06 819.49L993.727 817.968L969.306 816.067L963.579 814.815L934.12 808.451L918.351 805.077L913.6 804.029L866.728 793.42L866.317 793.369L862.593 792.783L815.571 786.077L809.222 779.741L802.693 772.507L795.518 762.063L747.141 760.571L701.085 769.964L657.891 790.267" stroke="url(#paint50_linear_829_3064)" stroke-linecap="round" stroke-linejoin="round"/>
<path d="M874.208 801.399L866.728 793.421L859.763 787.343L852.875 780.981L842.371 779.22L802.693 772.507L754.111 772.659L707.929 783.413L664.299 804.872" stroke="url(#paint51_linear_829_3064)" stroke-linecap="round" stroke-linejoin="round"/>
<path d="M1064.64 535.01L1055.88 528.625L1045.7 514.512L1034.38 494.085L1022.44 469.241" stroke="url(#paint52_linear_829_3064)" stroke-linecap="round" stroke-linejoin="round"/>
<path d="M822.279 793.543L815.57 786.077L809.561 786.084L765.859 786.59L718.315 797.217L673.195 817.907" stroke="url(#paint53_linear_829_3064)" stroke-linecap="round" stroke-linejoin="round"/>
<path d="M747.996 591.46L742.39 583.505L716.657 579.063" stroke="url(#paint54_linear_829_3064)" stroke-linecap="round" stroke-linejoin="round"/>
<path d="M838.286 598.816L831.834 591.967L824.402 580.907L815.602 563.045L805.72 540.459L795.192 515.331" stroke="url(#paint55_linear_829_3064)" stroke-linecap="round" stroke-linejoin="round"/>
<path d="M573.235 537.919L564.579 535.386" stroke="url(#paint56_linear_829_3064)" stroke-linecap="round" stroke-linejoin="round"/>
<path d="M771.721 793.157L765.86 786.59L760.128 780.664" stroke="url(#paint57_linear_829_3064)" stroke-linecap="round" stroke-linejoin="round"/>
<path d="M633.891 544.689L640.028 543.989L679.565 538.711L718.64 532.458L757.277 524.69L795.193 515.331L833.16 506.228L871.826 501.259L910.594 497.471L948.874 491.912L986.2 482.939L1022.44 469.242L1057.58 450.693L1091.91 427.497L1125.57 400.964L1159.1 373.122L1192.94 346.82L1227.54 324.24L1262.82 306.461L1298.89 293.869" stroke="url(#paint58_linear_829_3064)" stroke-linecap="round" stroke-linejoin="round"/>
<path d="M564.082 526.271L569.09 527.934L573.234 537.919L574.264 540.383L623.036 550.476L648.003 559.078L673.098 567.655L699.429 579.055L723.705 589.532L726.196 590.634L757.357 604.802L773.952 612.283L775.391 612.795L822.784 631.312L868.834 641.152L912.408 641.339L955.624 641.732L997.989 639.224L1039.01 631.377L1078.52 616.623L1116.45 594.708L1153.19 566.22L1189.28 533.189L1225.09 498.745L1261.6 467.099L1299.55 443.309L1338.51 427.196L1378.3 416.525L1418.48 409.783" stroke="url(#paint59_linear_829_3064)" stroke-linecap="round" stroke-linejoin="round"/>
<path d="M1333.41 533.993L1328.71 535.873L1326.43 537.801L1318.37 544.896L1317.71 545.564L1290.18 569.395L1253.43 612.442L1238.83 630.867L1217.42 657.875L1196.42 682.264L1181.05 700.177L1143.55 735.496L1104.42 761.392L1063.19 776.892L1019.68 782.302L974.198 779.292L926.918 770.635L877.524 754.791L827.153 736.739L776.99 722.385L764.89 690.762L752.789 658.473L741.436 629.238L731.655 605.83L723.704 589.533L717.609 580.475L712.934 578.477" stroke="url(#paint60_linear_829_3064)" stroke-linecap="round" stroke-linejoin="round"/>
<path d="M676.769 821.063L673.197 817.908L669.186 813.239L664.299 804.873L657.891 790.269L649.395 767.938L638.527 736.468L625.005 695.116L610.219 648.809L595.949 604.402L583.638 567.079L578.951 553.732L578.539 552.345L577.303 548.854L576.17 545.877L574.264 540.384" stroke="url(#paint61_linear_829_3064)" stroke-linecap="round" stroke-linejoin="round"/>
<path d="M642.162 547.966L640.026 543.988" stroke="url(#paint62_linear_829_3064)" stroke-linecap="round" stroke-linejoin="round"/>
<path d="M1359.99 512.091L1356.19 509.783L1315.79 528.055L1277.59 560.576L1241.12 601.696L1205.11 644.46L1168.69 683.834L1131.13 716.225L1091.84 739.349L1050.54 752.46L1007.07 756.125L961.666 752.165L914.771 743.431L865.685 727.124L815.26 707.48L764.89 690.764L715.914 681.646L669.131 682.772L625.004 695.116" stroke="url(#paint63_linear_829_3064)" stroke-linecap="round" stroke-linejoin="round"/>
<path d="M695.055 569.918L693.049 566.582L684.677 565.461" stroke="url(#paint64_linear_829_3064)" stroke-linecap="round" stroke-linejoin="round"/>
<path d="M559.975 553.005L562.209 552.823" stroke="url(#paint65_linear_829_3064)" stroke-linecap="round" stroke-linejoin="round"/>
<path d="M559.975 553.005L561.876 553.825L578.952 553.731" stroke="url(#paint66_linear_829_3064)" stroke-linecap="round" stroke-linejoin="round"/>
<path d="M578.539 552.345L572.273 551.735L562.849 550.691" stroke="url(#paint67_linear_829_3064)" stroke-linecap="round" stroke-linejoin="round"/>
<path d="M561.875 553.826L562.207 552.824L562.847 550.692L563.562 546.275L564.637 542.987L564.578 535.387L564.081 526.272L564.872 521.572" stroke="url(#paint68_linear_829_3064)" stroke-linecap="round" stroke-linejoin="round"/>
<path d="M1294.05 585.312L1276.87 608.131L1256.09 635.678L1245.96 641.054L1236.77 650.513L1230.54 658.711L1210.93 684.69L1204.16 693.53L1200.26 698.721L1194.59 705.069L1165.04 738.12L1162.76 740.715L1157.5 745.111L1131.13 767.375L1125.07 772.465L1123.82 773.519L1082.86 795.643L1039.55 806.753L993.948 807.775L990.507 807.265L946.027 800.583L942.919 799.739L901.336 788.2L896.25 786.818L893.554 786.025L845.626 772.156L795.519 762.064L787.235 746.101L738.675 742.376L692.694 749.484L649.395 767.938" stroke="url(#paint69_linear_829_3064)" stroke-linecap="round" stroke-linejoin="round"/>
<path d="M1301.04 565.61L1299.32 567.692L1287.19 582.417L1282.01 588.534L1263.98 610.454L1246.77 633.145L1237.72 645.248L1227.69 658.482L1207.2 684.103L1191.28 703.865L1153.93 742.624L1114.95 771.961L1073.84 790.645L1030.45 798.7L984.796 797.462L937.259 789.525L934.973 788.782L887.661 774.656L837.214 758.222L787.234 746.101L776.99 722.386L728.326 716.144L682.085 720.633L638.527 736.468" stroke="url(#paint70_linear_829_3064)" stroke-linecap="round" stroke-linejoin="round"/>
<path d="M1256.09 635.678L1238.5 659.114L1218.5 685.838L1214.73 690.336L1200.37 707.246L1180.31 731.043L1172.23 738.678L1162.12 748.189L1153.04 756.825L1140.78 768.239L1130.88 774.77L1120.48 781.534L1099.62 795.344L1055.96 811.334L1037.01 813.407L1009.95 816.31L1000.66 815.241L964.114 811.503L961.52 811.223L958.31 810.533L929.75 803.989L913.338 800.077L910.975 799.617L903.938 797.827L861.431 787.676L859.762 787.344L848.334 785.635L810.043 779.845L809.221 779.743L795.792 780.039L760.127 780.665L754.111 772.66L747.14 760.573L738.674 742.376L728.325 716.144L715.913 681.647L703.141 645.352" stroke="url(#paint71_linear_829_3064)" stroke-linecap="round" stroke-linejoin="round"/>
<path d="M569.09 527.935L568.06 525.471" stroke="url(#paint72_linear_829_3064)" stroke-linecap="round" stroke-linejoin="round"/>
</g>
<defs>
<pattern id="pattern0" patternContentUnits="objectBoundingBox" width="1" height="1">
<use xlink:href="#image0_829_3064" transform="scale(0.000561798 0.001)"/>
</pattern>
<filter id="filter0_d_829_3064" x="355" y="275" width="832" height="312" filterUnits="userSpaceOnUse" color-interpolation-filters="sRGB">
<feFlood flood-opacity="0" result="BackgroundImageFix"/>
<feColorMatrix in="SourceAlpha" type="matrix" values="0 0 0 0 0 0 0 0 0 0 0 0 0 0 0 0 0 0 127 0" result="hardAlpha"/>
<feOffset/>
<feGaussianBlur stdDeviation="15"/>
<feColorMatrix type="matrix" values="0 0 0 0 1 0 0 0 0 1 0 0 0 0 1 0 0 0 0.25 0"/>
<feBlend mode="normal" in2="BackgroundImageFix" result="effect1_dropShadow_829_3064"/>
<feBlend mode="normal" in="SourceGraphic" in2="effect1_dropShadow_829_3064" result="shape"/>
</filter>
<linearGradient id="paint0_linear_829_3064" x1="1166.24" y1="623.489" x2="905.558" y2="675.288" gradientUnits="userSpaceOnUse">
<stop stop-color="#38393A" stop-opacity="0.4"/>
<stop offset="0.478947" stop-color="#353637" stop-opacity="0"/>
<stop offset="1" stop-color="#373839" stop-opacity="0.4"/>
</linearGradient>
<linearGradient id="paint1_linear_829_3064" x1="1407.39" y1="448.015" x2="577.451" y2="603.198" gradientUnits="userSpaceOnUse">
<stop stop-color="#38393A" stop-opacity="0.4"/>
<stop offset="0.478947" stop-color="#353637" stop-opacity="0"/>
<stop offset="1" stop-color="#373839" stop-opacity="0.4"/>
</linearGradient>
<linearGradient id="paint2_linear_829_3064" x1="723.606" y1="807.177" x2="675.55" y2="816.091" gradientUnits="userSpaceOnUse">
<stop stop-color="#38393A" stop-opacity="0.4"/>
<stop offset="0.478947" stop-color="#353637" stop-opacity="0"/>
<stop offset="1" stop-color="#373839" stop-opacity="0.4"/>
</linearGradient>
<linearGradient id="paint3_linear_829_3064" x1="1438.24" y1="492.433" x2="596.39" y2="649.84" gradientUnits="userSpaceOnUse">
<stop stop-color="#38393A" stop-opacity="0.4"/>
<stop offset="0.478947" stop-color="#353637" stop-opacity="0"/>
<stop offset="1" stop-color="#373839" stop-opacity="0.4"/>
</linearGradient>
<linearGradient id="paint4_linear_829_3064" x1="760.74" y1="788.097" x2="667.125" y2="805.039" gradientUnits="userSpaceOnUse">
<stop stop-color="#38393A" stop-opacity="0.4"/>
<stop offset="0.478947" stop-color="#353637" stop-opacity="0"/>
<stop offset="1" stop-color="#373839" stop-opacity="0.4"/>
</linearGradient>
<linearGradient id="paint5_linear_829_3064" x1="700.941" y1="638.619" x2="611.072" y2="655.06" gradientUnits="userSpaceOnUse">
<stop stop-color="#38393A" stop-opacity="0.4"/>
<stop offset="0.478947" stop-color="#353637" stop-opacity="0"/>
<stop offset="1" stop-color="#373839" stop-opacity="0.4"/>
</linearGradient>
<linearGradient id="paint6_linear_829_3064" x1="1438.35" y1="547.184" x2="1013.86" y2="630.635" gradientUnits="userSpaceOnUse">
<stop stop-color="#38393A" stop-opacity="0.4"/>
<stop offset="0.478947" stop-color="#353637" stop-opacity="0"/>
<stop offset="1" stop-color="#373839" stop-opacity="0.4"/>
</linearGradient>
<linearGradient id="paint7_linear_829_3064" x1="1456.05" y1="524.2" x2="607.685" y2="682.16" gradientUnits="userSpaceOnUse">
<stop stop-color="#38393A" stop-opacity="0.4"/>
<stop offset="0.478947" stop-color="#353637" stop-opacity="0"/>
<stop offset="1" stop-color="#373839" stop-opacity="0.4"/>
</linearGradient>
<linearGradient id="paint8_linear_829_3064" x1="1358.96" y1="441.701" x2="1165.08" y2="479.873" gradientUnits="userSpaceOnUse">
<stop stop-color="#38393A" stop-opacity="0.4"/>
<stop offset="0.478947" stop-color="#353637" stop-opacity="0"/>
<stop offset="1" stop-color="#373839" stop-opacity="0.4"/>
</linearGradient>
<linearGradient id="paint9_linear_829_3064" x1="1541.14" y1="549.053" x2="647.037" y2="722.259" gradientUnits="userSpaceOnUse">
<stop stop-color="#38393A" stop-opacity="0.4"/>
<stop offset="0.478947" stop-color="#353637" stop-opacity="0"/>
<stop offset="1" stop-color="#373839" stop-opacity="0.4"/>
</linearGradient>
<linearGradient id="paint10_linear_829_3064" x1="1320.16" y1="473.279" x2="1139.32" y2="508.897" gradientUnits="userSpaceOnUse">
<stop stop-color="#38393A" stop-opacity="0.4"/>
<stop offset="0.478947" stop-color="#353637" stop-opacity="0"/>
<stop offset="1" stop-color="#373839" stop-opacity="0.4"/>
</linearGradient>
<linearGradient id="paint11_linear_829_3064" x1="1577.5" y1="499.913" x2="701.281" y2="667.266" gradientUnits="userSpaceOnUse">
<stop stop-color="#38393A" stop-opacity="0.4"/>
<stop offset="0.478947" stop-color="#353637" stop-opacity="0"/>
<stop offset="1" stop-color="#373839" stop-opacity="0.4"/>
</linearGradient>
<linearGradient id="paint12_linear_829_3064" x1="1567.63" y1="484.753" x2="1510.17" y2="495.858" gradientUnits="userSpaceOnUse">
<stop stop-color="#38393A" stop-opacity="0.4"/>
<stop offset="0.478947" stop-color="#353637" stop-opacity="0"/>
<stop offset="1" stop-color="#373839" stop-opacity="0.4"/>
</linearGradient>
<linearGradient id="paint13_linear_829_3064" x1="1492.2" y1="500.706" x2="1408.92" y2="516.979" gradientUnits="userSpaceOnUse">
<stop stop-color="#38393A" stop-opacity="0.4"/>
<stop offset="0.478947" stop-color="#353637" stop-opacity="0"/>
<stop offset="1" stop-color="#373839" stop-opacity="0.4"/>
</linearGradient>
<linearGradient id="paint14_linear_829_3064" x1="1350.36" y1="349.216" x2="1224.51" y2="373.272" gradientUnits="userSpaceOnUse">
<stop stop-color="#38393A" stop-opacity="0.4"/>
<stop offset="0.478947" stop-color="#353637" stop-opacity="0"/>
<stop offset="1" stop-color="#373839" stop-opacity="0.4"/>
</linearGradient>
<linearGradient id="paint15_linear_829_3064" x1="1298.27" y1="500.872" x2="1097.22" y2="540.416" gradientUnits="userSpaceOnUse">
<stop stop-color="#38393A" stop-opacity="0.4"/>
<stop offset="0.478947" stop-color="#353637" stop-opacity="0"/>
<stop offset="1" stop-color="#373839" stop-opacity="0.4"/>
</linearGradient>
<linearGradient id="paint16_linear_829_3064" x1="1370.52" y1="418.895" x2="735.648" y2="538.798" gradientUnits="userSpaceOnUse">
<stop stop-color="#38393A" stop-opacity="0.4"/>
<stop offset="0.478947" stop-color="#353637" stop-opacity="0"/>
<stop offset="1" stop-color="#373839" stop-opacity="0.4"/>
</linearGradient>
<linearGradient id="paint17_linear_829_3064" x1="1328.03" y1="527.222" x2="1071.93" y2="577.356" gradientUnits="userSpaceOnUse">
<stop stop-color="#38393A" stop-opacity="0.4"/>
<stop offset="0.478947" stop-color="#353637" stop-opacity="0"/>
<stop offset="1" stop-color="#373839" stop-opacity="0.4"/>
</linearGradient>
<linearGradient id="paint18_linear_829_3064" x1="1343.54" y1="393.107" x2="720.373" y2="510.308" gradientUnits="userSpaceOnUse">
<stop stop-color="#38393A" stop-opacity="0.4"/>
<stop offset="0.478947" stop-color="#353637" stop-opacity="0"/>
<stop offset="1" stop-color="#373839" stop-opacity="0.4"/>
</linearGradient>
<linearGradient id="paint19_linear_829_3064" x1="877.651" y1="589.893" x2="837.589" y2="595.672" gradientUnits="userSpaceOnUse">
<stop stop-color="#38393A" stop-opacity="0.4"/>
<stop offset="0.478947" stop-color="#353637" stop-opacity="0"/>
<stop offset="1" stop-color="#373839" stop-opacity="0.4"/>
</linearGradient>
<linearGradient id="paint20_linear_829_3064" x1="1383.71" y1="429.56" x2="758.95" y2="547.503" gradientUnits="userSpaceOnUse">
<stop stop-color="#38393A" stop-opacity="0.4"/>
<stop offset="0.478947" stop-color="#353637" stop-opacity="0"/>
<stop offset="1" stop-color="#373839" stop-opacity="0.4"/>
</linearGradient>
<linearGradient id="paint21_linear_829_3064" x1="1394.95" y1="440.134" x2="575.315" y2="592.158" gradientUnits="userSpaceOnUse">
<stop stop-color="#38393A" stop-opacity="0.4"/>
<stop offset="0.478947" stop-color="#353637" stop-opacity="0"/>
<stop offset="1" stop-color="#373839" stop-opacity="0.4"/>
</linearGradient>
<linearGradient id="paint22_linear_829_3064" x1="1580.64" y1="503.888" x2="951.803" y2="623.463" gradientUnits="userSpaceOnUse">
<stop stop-color="#38393A" stop-opacity="0.4"/>
<stop offset="0.478947" stop-color="#353637" stop-opacity="0"/>
<stop offset="1" stop-color="#373839" stop-opacity="0.4"/>
</linearGradient>
<linearGradient id="paint23_linear_829_3064" x1="760.568" y1="595.633" x2="758.392" y2="596.052" gradientUnits="userSpaceOnUse">
<stop stop-color="#38393A" stop-opacity="0.4"/>
<stop offset="0.478947" stop-color="#353637" stop-opacity="0"/>
<stop offset="1" stop-color="#373839" stop-opacity="0.4"/>
</linearGradient>
<linearGradient id="paint24_linear_829_3064" x1="1449.02" y1="517.747" x2="1436.88" y2="520.174" gradientUnits="userSpaceOnUse">
<stop stop-color="#38393A" stop-opacity="0.4"/>
<stop offset="0.478947" stop-color="#353637" stop-opacity="0"/>
<stop offset="1" stop-color="#373839" stop-opacity="0.4"/>
</linearGradient>
<linearGradient id="paint25_linear_829_3064" x1="1319.62" y1="379.523" x2="644.463" y2="505.069" gradientUnits="userSpaceOnUse">
<stop stop-color="#38393A" stop-opacity="0.4"/>
<stop offset="0.478947" stop-color="#353637" stop-opacity="0"/>
<stop offset="1" stop-color="#373839" stop-opacity="0.4"/>
</linearGradient>
<linearGradient id="paint26_linear_829_3064" x1="1085.66" y1="479.155" x2="1064.06" y2="483.475" gradientUnits="userSpaceOnUse">
<stop stop-color="#38393A" stop-opacity="0.4"/>
<stop offset="0.478947" stop-color="#353637" stop-opacity="0"/>
<stop offset="1" stop-color="#373839" stop-opacity="0.4"/>
</linearGradient>
<linearGradient id="paint27_linear_829_3064" x1="1129.28" y1="456.069" x2="1098.73" y2="462.169" gradientUnits="userSpaceOnUse">
<stop stop-color="#38393A" stop-opacity="0.4"/>
<stop offset="0.478947" stop-color="#353637" stop-opacity="0"/>
<stop offset="1" stop-color="#373839" stop-opacity="0.4"/>
</linearGradient>
<linearGradient id="paint28_linear_829_3064" x1="1155.06" y1="426.531" x2="1131.54" y2="431.231" gradientUnits="userSpaceOnUse">
<stop stop-color="#38393A" stop-opacity="0.4"/>
<stop offset="0.478947" stop-color="#353637" stop-opacity="0"/>
<stop offset="1" stop-color="#373839" stop-opacity="0.4"/>
</linearGradient>
<linearGradient id="paint29_linear_829_3064" x1="1414.9" y1="412.51" x2="1175.35" y2="459.641" gradientUnits="userSpaceOnUse">
<stop stop-color="#38393A" stop-opacity="0.4"/>
<stop offset="0.478947" stop-color="#353637" stop-opacity="0"/>
<stop offset="1" stop-color="#373839" stop-opacity="0.4"/>
</linearGradient>
<linearGradient id="paint30_linear_829_3064" x1="1223.87" y1="368.353" x2="1198.18" y2="373.48" gradientUnits="userSpaceOnUse">
<stop stop-color="#38393A" stop-opacity="0.4"/>
<stop offset="0.478947" stop-color="#353637" stop-opacity="0"/>
<stop offset="1" stop-color="#373839" stop-opacity="0.4"/>
</linearGradient>
<linearGradient id="paint31_linear_829_3064" x1="1446.39" y1="387.933" x2="1247.31" y2="427.359" gradientUnits="userSpaceOnUse">
<stop stop-color="#38393A" stop-opacity="0.4"/>
<stop offset="0.478947" stop-color="#353637" stop-opacity="0"/>
<stop offset="1" stop-color="#373839" stop-opacity="0.4"/>
</linearGradient>
<linearGradient id="paint32_linear_829_3064" x1="1450.55" y1="385.806" x2="1284.61" y2="418.785" gradientUnits="userSpaceOnUse">
<stop stop-color="#38393A" stop-opacity="0.4"/>
<stop offset="0.478947" stop-color="#353637" stop-opacity="0"/>
<stop offset="1" stop-color="#373839" stop-opacity="0.4"/>
</linearGradient>
<linearGradient id="paint33_linear_829_3064" x1="1321.05" y1="305.373" x2="1301.87" y2="309.191" gradientUnits="userSpaceOnUse">
<stop stop-color="#38393A" stop-opacity="0.4"/>
<stop offset="0.478947" stop-color="#353637" stop-opacity="0"/>
<stop offset="1" stop-color="#373839" stop-opacity="0.4"/>
</linearGradient>
<linearGradient id="paint34_linear_829_3064" x1="731.464" y1="551.489" x2="722.773" y2="553.231" gradientUnits="userSpaceOnUse">
<stop stop-color="#38393A" stop-opacity="0.4"/>
<stop offset="0.478947" stop-color="#353637" stop-opacity="0"/>
<stop offset="1" stop-color="#373839" stop-opacity="0.4"/>
</linearGradient>
<linearGradient id="paint35_linear_829_3064" x1="935.502" y1="528.55" x2="917.48" y2="532.159" gradientUnits="userSpaceOnUse">
<stop stop-color="#38393A" stop-opacity="0.4"/>
<stop offset="0.478947" stop-color="#353637" stop-opacity="0"/>
<stop offset="1" stop-color="#373839" stop-opacity="0.4"/>
</linearGradient>
<linearGradient id="paint36_linear_829_3064" x1="1221.14" y1="604.682" x2="980.017" y2="652.593" gradientUnits="userSpaceOnUse">
<stop stop-color="#38393A" stop-opacity="0.4"/>
<stop offset="0.478947" stop-color="#353637" stop-opacity="0"/>
<stop offset="1" stop-color="#373839" stop-opacity="0.4"/>
</linearGradient>
<linearGradient id="paint37_linear_829_3064" x1="1396.13" y1="537.306" x2="683.907" y2="674.055" gradientUnits="userSpaceOnUse">
<stop stop-color="#38393A" stop-opacity="0.4"/>
<stop offset="0.478947" stop-color="#353637" stop-opacity="0"/>
<stop offset="1" stop-color="#373839" stop-opacity="0.4"/>
</linearGradient>
<linearGradient id="paint38_linear_829_3064" x1="1359.99" y1="554.401" x2="1336.73" y2="559.032" gradientUnits="userSpaceOnUse">
<stop stop-color="#38393A" stop-opacity="0.4"/>
<stop offset="0.478947" stop-color="#353637" stop-opacity="0"/>
<stop offset="1" stop-color="#373839" stop-opacity="0.4"/>
</linearGradient>
<linearGradient id="paint39_linear_829_3064" x1="1201.32" y1="735.688" x2="1191.6" y2="737.615" gradientUnits="userSpaceOnUse">
<stop stop-color="#38393A" stop-opacity="0.4"/>
<stop offset="0.478947" stop-color="#353637" stop-opacity="0"/>
<stop offset="1" stop-color="#373839" stop-opacity="0.4"/>
</linearGradient>
<linearGradient id="paint40_linear_829_3064" x1="1319.35" y1="595.973" x2="1296.97" y2="600.419" gradientUnits="userSpaceOnUse">
<stop stop-color="#38393A" stop-opacity="0.4"/>
<stop offset="0.478947" stop-color="#353637" stop-opacity="0"/>
<stop offset="1" stop-color="#373839" stop-opacity="0.4"/>
</linearGradient>
<linearGradient id="paint41_linear_829_3064" x1="576.701" y1="546.458" x2="564.032" y2="548.912" gradientUnits="userSpaceOnUse">
<stop stop-color="#38393A" stop-opacity="0.4"/>
<stop offset="0.478947" stop-color="#353637" stop-opacity="0"/>
<stop offset="1" stop-color="#373839" stop-opacity="0.4"/>
</linearGradient>
<linearGradient id="paint42_linear_829_3064" x1="1129.49" y1="630.05" x2="867.269" y2="682.157" gradientUnits="userSpaceOnUse">
<stop stop-color="#38393A" stop-opacity="0.4"/>
<stop offset="0.478947" stop-color="#353637" stop-opacity="0"/>
<stop offset="1" stop-color="#373839" stop-opacity="0.4"/>
</linearGradient>
<linearGradient id="paint43_linear_829_3064" x1="1402.55" y1="524.928" x2="1365.86" y2="532.208" gradientUnits="userSpaceOnUse">
<stop stop-color="#38393A" stop-opacity="0.4"/>
<stop offset="0.478947" stop-color="#353637" stop-opacity="0"/>
<stop offset="1" stop-color="#373839" stop-opacity="0.4"/>
</linearGradient>
<linearGradient id="paint44_linear_829_3064" x1="1279.85" y1="643.26" x2="1258.37" y2="647.517" gradientUnits="userSpaceOnUse">
<stop stop-color="#38393A" stop-opacity="0.4"/>
<stop offset="0.478947" stop-color="#353637" stop-opacity="0"/>
<stop offset="1" stop-color="#373839" stop-opacity="0.4"/>
</linearGradient>
<linearGradient id="paint45_linear_829_3064" x1="575.601" y1="543.537" x2="565.11" y2="545.581" gradientUnits="userSpaceOnUse">
<stop stop-color="#38393A" stop-opacity="0.4"/>
<stop offset="0.478947" stop-color="#353637" stop-opacity="0"/>
<stop offset="1" stop-color="#373839" stop-opacity="0.4"/>
</linearGradient>
<linearGradient id="paint46_linear_829_3064" x1="1093.15" y1="684.347" x2="903.678" y2="722.018" gradientUnits="userSpaceOnUse">
<stop stop-color="#38393A" stop-opacity="0.4"/>
<stop offset="0.478947" stop-color="#353637" stop-opacity="0"/>
<stop offset="1" stop-color="#373839" stop-opacity="0.4"/>
</linearGradient>
<linearGradient id="paint47_linear_829_3064" x1="902.764" y1="700.471" x2="786.569" y2="723.665" gradientUnits="userSpaceOnUse">
<stop stop-color="#38393A" stop-opacity="0.4"/>
<stop offset="0.478947" stop-color="#353637" stop-opacity="0"/>
<stop offset="1" stop-color="#373839" stop-opacity="0.4"/>
</linearGradient>
<linearGradient id="paint48_linear_829_3064" x1="951.943" y1="701.53" x2="788.439" y2="734.096" gradientUnits="userSpaceOnUse">
<stop stop-color="#38393A" stop-opacity="0.4"/>
<stop offset="0.478947" stop-color="#353637" stop-opacity="0"/>
<stop offset="1" stop-color="#373839" stop-opacity="0.4"/>
</linearGradient>
<linearGradient id="paint49_linear_829_3064" x1="1045.57" y1="690.095" x2="786.523" y2="741.457" gradientUnits="userSpaceOnUse">
<stop stop-color="#38393A" stop-opacity="0.4"/>
<stop offset="0.478947" stop-color="#353637" stop-opacity="0"/>
<stop offset="1" stop-color="#373839" stop-opacity="0.4"/>
</linearGradient>
<linearGradient id="paint50_linear_829_3064" x1="1012.97" y1="771.884" x2="665.968" y2="838.623" gradientUnits="userSpaceOnUse">
<stop stop-color="#38393A" stop-opacity="0.4"/>
<stop offset="0.478947" stop-color="#353637" stop-opacity="0"/>
<stop offset="1" stop-color="#373839" stop-opacity="0.4"/>
</linearGradient>
<linearGradient id="paint51_linear_829_3064" x1="867.56" y1="777.815" x2="665.601" y2="816.048" gradientUnits="userSpaceOnUse">
<stop stop-color="#38393A" stop-opacity="0.4"/>
<stop offset="0.478947" stop-color="#353637" stop-opacity="0"/>
<stop offset="1" stop-color="#373839" stop-opacity="0.4"/>
</linearGradient>
<linearGradient id="paint52_linear_829_3064" x1="1057.63" y1="501.431" x2="1029.89" y2="506.975" gradientUnits="userSpaceOnUse">
<stop stop-color="#38393A" stop-opacity="0.4"/>
<stop offset="0.478947" stop-color="#353637" stop-opacity="0"/>
<stop offset="1" stop-color="#373839" stop-opacity="0.4"/>
</linearGradient>
<linearGradient id="paint53_linear_829_3064" x1="819.274" y1="785.526" x2="671.307" y2="811.612" gradientUnits="userSpaceOnUse">
<stop stop-color="#38393A" stop-opacity="0.4"/>
<stop offset="0.478947" stop-color="#353637" stop-opacity="0"/>
<stop offset="1" stop-color="#373839" stop-opacity="0.4"/>
</linearGradient>
<linearGradient id="paint54_linear_829_3064" x1="746.042" y1="583.042" x2="718.416" y2="588.471" gradientUnits="userSpaceOnUse">
<stop stop-color="#38393A" stop-opacity="0.4"/>
<stop offset="0.478947" stop-color="#353637" stop-opacity="0"/>
<stop offset="1" stop-color="#373839" stop-opacity="0.4"/>
</linearGradient>
<linearGradient id="paint55_linear_829_3064" x1="829.666" y1="557.127" x2="804.487" y2="562.168" gradientUnits="userSpaceOnUse">
<stop stop-color="#38393A" stop-opacity="0.4"/>
<stop offset="0.478947" stop-color="#353637" stop-opacity="0"/>
<stop offset="1" stop-color="#373839" stop-opacity="0.4"/>
</linearGradient>
<linearGradient id="paint56_linear_829_3064" x1="572.775" y1="535.998" x2="564.971" y2="537.523" gradientUnits="userSpaceOnUse">
<stop stop-color="#38393A" stop-opacity="0.4"/>
<stop offset="0.478947" stop-color="#353637" stop-opacity="0"/>
<stop offset="1" stop-color="#373839" stop-opacity="0.4"/>
</linearGradient>
<linearGradient id="paint57_linear_829_3064" x1="770.293" y1="786.459" x2="761.6" y2="788.191" gradientUnits="userSpaceOnUse">
<stop stop-color="#38393A" stop-opacity="0.4"/>
<stop offset="0.478947" stop-color="#353637" stop-opacity="0"/>
<stop offset="1" stop-color="#373839" stop-opacity="0.4"/>
</linearGradient>
<linearGradient id="paint58_linear_829_3064" x1="1305.71" y1="360.009" x2="619.117" y2="486.717" gradientUnits="userSpaceOnUse">
<stop stop-color="#38393A" stop-opacity="0.4"/>
<stop offset="0.478947" stop-color="#353637" stop-opacity="0"/>
<stop offset="1" stop-color="#373839" stop-opacity="0.4"/>
</linearGradient>
<linearGradient id="paint59_linear_829_3064" x1="1420.66" y1="460.126" x2="578.718" y2="618.538" gradientUnits="userSpaceOnUse">
<stop stop-color="#38393A" stop-opacity="0.4"/>
<stop offset="0.478947" stop-color="#353637" stop-opacity="0"/>
<stop offset="1" stop-color="#373839" stop-opacity="0.4"/>
</linearGradient>
<linearGradient id="paint60_linear_829_3064" x1="1339.89" y1="594.583" x2="736.836" y2="711.662" gradientUnits="userSpaceOnUse">
<stop stop-color="#38393A" stop-opacity="0.4"/>
<stop offset="0.478947" stop-color="#353637" stop-opacity="0"/>
<stop offset="1" stop-color="#373839" stop-opacity="0.4"/>
</linearGradient>
<linearGradient id="paint61_linear_829_3064" x1="648.934" y1="684.689" x2="604.842" y2="693.533" gradientUnits="userSpaceOnUse">
<stop stop-color="#38393A" stop-opacity="0.4"/>
<stop offset="0.478947" stop-color="#353637" stop-opacity="0"/>
<stop offset="1" stop-color="#373839" stop-opacity="0.4"/>
</linearGradient>
<linearGradient id="paint62_linear_829_3064" x1="641.749" y1="545.972" x2="640.471" y2="546.228" gradientUnits="userSpaceOnUse">
<stop stop-color="#38393A" stop-opacity="0.4"/>
<stop offset="0.478947" stop-color="#353637" stop-opacity="0"/>
<stop offset="1" stop-color="#373839" stop-opacity="0.4"/>
</linearGradient>
<linearGradient id="paint63_linear_829_3064" x1="1371.2" y1="602.595" x2="631.007" y2="742.119" gradientUnits="userSpaceOnUse">
<stop stop-color="#38393A" stop-opacity="0.4"/>
<stop offset="0.478947" stop-color="#353637" stop-opacity="0"/>
<stop offset="1" stop-color="#373839" stop-opacity="0.4"/>
</linearGradient>
<linearGradient id="paint64_linear_829_3064" x1="694.377" y1="566.971" x2="685.296" y2="568.758" gradientUnits="userSpaceOnUse">
<stop stop-color="#38393A" stop-opacity="0.4"/>
<stop offset="0.478947" stop-color="#353637" stop-opacity="0"/>
<stop offset="1" stop-color="#373839" stop-opacity="0.4"/>
</linearGradient>
<linearGradient id="paint65_linear_829_3064" x1="562.165" y1="552.706" x2="559.983" y2="553.09" gradientUnits="userSpaceOnUse">
<stop stop-color="#38393A" stop-opacity="0.4"/>
<stop offset="0.478947" stop-color="#353637" stop-opacity="0"/>
<stop offset="1" stop-color="#373839" stop-opacity="0.4"/>
</linearGradient>
<linearGradient id="paint66_linear_829_3064" x1="578.374" y1="551.707" x2="560.316" y2="555.117" gradientUnits="userSpaceOnUse">
<stop stop-color="#38393A" stop-opacity="0.4"/>
<stop offset="0.478947" stop-color="#353637" stop-opacity="0"/>
<stop offset="1" stop-color="#373839" stop-opacity="0.4"/>
</linearGradient>
<linearGradient id="paint67_linear_829_3064" x1="577.968" y1="550.194" x2="563.246" y2="553.015" gradientUnits="userSpaceOnUse">
<stop stop-color="#38393A" stop-opacity="0.4"/>
<stop offset="0.478947" stop-color="#353637" stop-opacity="0"/>
<stop offset="1" stop-color="#373839" stop-opacity="0.4"/>
</linearGradient>
<linearGradient id="paint68_linear_829_3064" x1="568.024" y1="537.675" x2="558.949" y2="539.492" gradientUnits="userSpaceOnUse">
<stop stop-color="#38393A" stop-opacity="0.4"/>
<stop offset="0.478947" stop-color="#353637" stop-opacity="0"/>
<stop offset="1" stop-color="#373839" stop-opacity="0.4"/>
</linearGradient>
<linearGradient id="paint69_linear_829_3064" x1="1305.52" y1="673.045" x2="652.123" y2="796.702" gradientUnits="userSpaceOnUse">
<stop stop-color="#38393A" stop-opacity="0.4"/>
<stop offset="0.478947" stop-color="#353637" stop-opacity="0"/>
<stop offset="1" stop-color="#373839" stop-opacity="0.4"/>
</linearGradient>
<linearGradient id="paint70_linear_829_3064" x1="1313.3" y1="657.986" x2="645.089" y2="784.676" gradientUnits="userSpaceOnUse">
<stop stop-color="#38393A" stop-opacity="0.4"/>
<stop offset="0.478947" stop-color="#353637" stop-opacity="0"/>
<stop offset="1" stop-color="#373839" stop-opacity="0.4"/>
</linearGradient>
<linearGradient id="paint71_linear_829_3064" x1="1255.86" y1="659.506" x2="724.203" y2="762.721" gradientUnits="userSpaceOnUse">
<stop stop-color="#38393A" stop-opacity="0.4"/>
<stop offset="0.478947" stop-color="#353637" stop-opacity="0"/>
<stop offset="1" stop-color="#373839" stop-opacity="0.4"/>
</linearGradient>
<linearGradient id="paint72_linear_829_3064" x1="568.842" y1="526.726" x2="568.331" y2="526.828" gradientUnits="userSpaceOnUse">
<stop stop-color="#38393A" stop-opacity="0.4"/>
<stop offset="0.478947" stop-color="#353637" stop-opacity="0"/>
<stop offset="1" stop-color="#373839" stop-opacity="0.4"/>
</linearGradient>
<clipPath id="clip0_829_3064">
<rect width="1780" height="1000" fill="white"/>
</clipPath>
</defs>
</svg>
