<svg width="20" height="20" viewBox="0 0 20 20" fill="none" xmlns="http://www.w3.org/2000/svg">
<path d="M3.33366 1.66699C2.89163 1.66699 2.46771 1.84259 2.15515 2.15515C1.84259 2.46771 1.66699 2.89163 1.66699 3.33366" stroke="#373839" stroke-width="1.5" stroke-linecap="round" stroke-linejoin="round"/>
<path d="M6.66699 1.66699H8.33366" stroke="#373839" stroke-width="1.5" stroke-linecap="round" stroke-linejoin="round"/>
<path d="M11.667 1.66699H13.3337" stroke="#373839" stroke-width="1.5" stroke-linecap="round" stroke-linejoin="round"/>
<path d="M3.33366 18.3337C2.89163 18.3337 2.46771 18.1581 2.15515 17.8455C1.84259 17.5329 1.66699 17.109 1.66699 16.667" stroke="#373839" stroke-width="1.5" stroke-linecap="round" stroke-linejoin="round"/>
<path d="M18.333 6.66699V8.33366" stroke="#373839" stroke-width="1.5" stroke-linecap="round" stroke-linejoin="round"/>
<path d="M18.333 11.667V13.3337" stroke="#373839" stroke-width="1.5" stroke-linecap="round" stroke-linejoin="round"/>
<path d="M18.3337 16.667C18.3337 17.109 18.1581 17.5329 17.8455 17.8455C17.5329 18.1581 17.109 18.3337 16.667 18.3337" stroke="#373839" stroke-width="1.5" stroke-linecap="round" stroke-linejoin="round"/>
<path d="M11.667 18.333H13.3337" stroke="#373839" stroke-width="1.5" stroke-linecap="round" stroke-linejoin="round"/>
<path d="M6.66699 18.333H8.33366" stroke="#373839" stroke-width="1.5" stroke-linecap="round" stroke-linejoin="round"/>
<path d="M16.667 1.66699C17.109 1.66699 17.5329 1.84259 17.8455 2.15515C18.1581 2.46771 18.3337 2.89163 18.3337 3.33366" stroke="#373839" stroke-width="1.5" stroke-linecap="round" stroke-linejoin="round"/>
<path d="M1.66699 11.667V13.3337" stroke="#373839" stroke-width="1.5" stroke-linecap="round" stroke-linejoin="round"/>
<path d="M1.66699 6.66699V8.33366" stroke="#373839" stroke-width="1.5" stroke-linecap="round" stroke-linejoin="round"/>
</svg>
