<svg width="16" height="17" viewBox="0 0 16 17" fill="none" xmlns="http://www.w3.org/2000/svg">
    <path d="M4.45833 3C4.29257 3 4.1336 3.06585 4.01639 3.18306C3.89918 3.30027 3.83333 3.45924 3.83333 3.625V7.375C3.83333 7.72 4.11333 8 4.45833 8H9.04167C9.20743 8 9.3664 7.93415 9.48361 7.81694C9.60082 7.69973 9.66667 7.54076 9.66667 7.375V3.625C9.66667 3.45924 9.60082 3.30027 9.48361 3.18306C9.3664 3.06585 9.20743 3 9.04167 3H4.45833ZM5.08333 6.75V4.25H8.41667V6.75H5.08333ZM3.625 0.5C3.01721 0.5 2.43432 0.741443 2.00455 1.17121C1.57478 1.60098 1.33333 2.18388 1.33333 2.79167V15.0833H1.125C0.95924 15.0833 0.800268 15.1492 0.683058 15.2664C0.565848 15.3836 0.5 15.5426 0.5 15.7083C0.5 15.8741 0.565848 16.0331 0.683058 16.1503C0.800268 16.2675 0.95924 16.3333 1.125 16.3333H12.375C12.5408 16.3333 12.6997 16.2675 12.8169 16.1503C12.9342 16.0331 13 15.8741 13 15.7083C13 15.5426 12.9342 15.3836 12.8169 15.2664C12.6997 15.1492 12.5408 15.0833 12.375 15.0833H12.1667V13.5808C12.5154 13.7601 12.9044 13.8467 13.2963 13.8324C13.6882 13.818 14.0698 13.7032 14.4044 13.4988C14.7391 13.2945 15.0157 13.0075 15.2075 12.6655C15.3994 12.3235 15.5001 11.938 15.5 11.5458V6.68083C15.5 6.18499 15.3392 5.70251 15.0417 5.30583L14.125 4.08333C14.0255 3.95073 13.8775 3.86306 13.7134 3.83962C13.5493 3.81617 13.3826 3.85888 13.25 3.95833C13.1174 4.05779 13.0297 4.20585 13.0063 4.36995C12.9828 4.53404 13.0255 4.70073 13.125 4.83333L14.0417 6.05583C14.1767 6.23583 14.25 6.45583 14.25 6.68083V11.5458C14.25 11.6821 14.2232 11.817 14.171 11.9429C14.1189 12.0687 14.0425 12.1831 13.9461 12.2795C13.8498 12.3758 13.7354 12.4522 13.6095 12.5044C13.4837 12.5565 13.3487 12.5833 13.2125 12.5833C13.0763 12.5833 12.9413 12.5565 12.8155 12.5044C12.6896 12.4522 12.5752 12.3758 12.4789 12.2795C12.3825 12.1831 12.3061 12.0687 12.254 11.9429C12.2018 11.817 12.175 11.6821 12.175 11.5458V10.0833C12.1749 10.0496 12.1721 10.0158 12.1667 9.9825V2.79167C12.1667 2.49072 12.1074 2.19272 11.9922 1.91468C11.8771 1.63665 11.7083 1.38401 11.4955 1.17121C11.2827 0.958413 11.03 0.78961 10.752 0.674443C10.4739 0.559276 10.1759 0.5 9.875 0.5H3.625ZM10.9167 15.0833H2.58333V2.79167C2.58333 2.21667 3.05 1.75 3.625 1.75H9.875C10.45 1.75 10.9167 2.21667 10.9167 2.79167V15.0833Z"
          fill="#373839"/>
</svg>
