<svg width="16" height="17" viewBox="0 0 16 17" fill="none" xmlns="http://www.w3.org/2000/svg">
    <path fill-rule="evenodd" clip-rule="evenodd"
          d="M6.91738 2.85803C6.23548 5.44678 5.25621 6.94221 3.53253 8.02702C2.88306 8.43576 2.07578 8.79802 1.20864 9.06984C1.09384 9.10583 0.999958 9.13847 1 9.14237C1.00004 9.14627 1.12848 9.19079 1.2854 9.2413C3.33246 9.90017 4.7583 10.9168 5.67966 12.3745C6.18553 13.1748 6.60532 14.2154 6.93029 15.4746C6.9643 15.6064 6.99547 15.7141 6.9996 15.7141C7.00372 15.7141 7.04108 15.5851 7.08261 15.4274C7.76452 12.8387 8.74379 11.3432 10.4675 10.2584C11.1169 9.84968 11.9242 9.48741 12.7914 9.2156C12.9061 9.17961 13 9.14697 13 9.14307C13 9.13917 12.8715 9.09464 12.7146 9.04413C10.6675 8.38526 9.2417 7.36861 8.32034 5.91094C7.81447 5.11061 7.39467 4.07001 7.06971 2.8108C7.0357 2.67908 7.00453 2.57129 7.0004 2.57129C6.99628 2.57129 6.95892 2.70033 6.91738 2.85803Z"
          stroke="#373839" stroke-width="1.5"/>
    <path fill-rule="evenodd" clip-rule="evenodd"
          d="M13.115 1.08727C12.8877 1.87515 12.5613 2.33028 11.9868 2.66044C11.7703 2.78484 11.5012 2.89509 11.2121 2.97782C11.1739 2.98877 11.1426 2.99871 11.1426 2.99989C11.1426 3.00108 11.1854 3.01463 11.2377 3.03C11.9201 3.23053 12.3953 3.53995 12.7025 3.98359C12.8711 4.22716 13.011 4.54387 13.1193 4.92711C13.1307 4.9672 13.1411 5 13.1424 5C13.1438 5 13.1563 4.96073 13.1701 4.91273C13.3974 4.12485 13.7238 3.66972 14.2984 3.33956C14.5149 3.21516 14.784 3.10491 15.073 3.02218C15.1113 3.01123 15.1426 3.00129 15.1426 3.00011C15.1426 2.99892 15.0998 2.98537 15.0474 2.97C14.3651 2.76947 13.8898 2.46005 13.5827 2.01641C13.4141 1.77284 13.2741 1.45613 13.1658 1.0729C13.1545 1.0328 13.1441 1 13.1427 1C13.1413 1 13.1289 1.03927 13.115 1.08727Z"
          stroke="#373839" stroke-width="1.5"/>
</svg>
